<?xml version="1.0" encoding="utf-8" standalone="no"?>
<!DOCTYPE svg PUBLIC "-//W3C//DTD SVG 1.1//EN"
  "http://www.w3.org/Graphics/SVG/1.1/DTD/svg11.dtd">
<svg xmlns:xlink="http://www.w3.org/1999/xlink" width="864pt" height="360pt" viewBox="0 0 864 360" xmlns="http://www.w3.org/2000/svg" version="1.1">
 <metadata>
  <rdf:RDF xmlns:dc="http://purl.org/dc/elements/1.1/" xmlns:cc="http://creativecommons.org/ns#" xmlns:rdf="http://www.w3.org/1999/02/22-rdf-syntax-ns#">
   <cc:Work>
    <dc:type rdf:resource="http://purl.org/dc/dcmitype/StillImage"/>
    <dc:date>2023-08-28T08:46:08.138012</dc:date>
    <dc:format>image/svg+xml</dc:format>
    <dc:creator>
     <cc:Agent>
      <dc:title>Matplotlib v3.7.2, https://matplotlib.org/</dc:title>
     </cc:Agent>
    </dc:creator>
   </cc:Work>
  </rdf:RDF>
 </metadata>
 <defs>
  <style type="text/css">*{stroke-linejoin: round; stroke-linecap: butt}</style>
 </defs>
 <g id="figure_1">
  <g id="patch_1">
   <path d="M 0 360 
L 864 360 
L 864 0 
L 0 0 
L 0 360 
z
" style="fill: none; opacity: 0"/>
  </g>
  <g id="axes_1">
   <g id="patch_2">
    <path d="M 108 320.4 
L 777.6 320.4 
L 777.6 43.2 
L 108 43.2 
L 108 320.4 
z
" style="fill: none; opacity: 0"/>
   </g>
   <g id="matplotlib.axis_1">
    <g id="xtick_1">
     <g id="line2d_1">
      <path d="M 120.134759 320.4 
L 120.134759 43.2 
" clip-path="url(#p0581db52f9)" style="fill: none; stroke-dasharray: 5.12,1.28,0.8,1.28; stroke-dashoffset: 0; stroke: #b0b0b0; stroke-width: 0.8"/>
     </g>
     <g id="line2d_2">
      <defs>
       <path id="m86a093ab20" d="M 0 0 
L 0 3.5 
" style="stroke: #a9a9a9; stroke-width: 0.8"/>
      </defs>
      <g>
       <use xlink:href="#m86a093ab20" x="120.134759" y="320.4" style="fill: #a9a9a9; stroke: #a9a9a9; stroke-width: 0.8"/>
      </g>
     </g>
     <g id="text_1">
      <!-- 2021-07 -->
      <g style="fill: #a9a9a9" transform="translate(99.243353 334.998438) scale(0.1 -0.1)">
       <defs>
        <path id="DejaVuSans-32" d="M 1228 531 
L 3431 531 
L 3431 0 
L 469 0 
L 469 531 
Q 828 903 1448 1529 
Q 2069 2156 2228 2338 
Q 2531 2678 2651 2914 
Q 2772 3150 2772 3378 
Q 2772 3750 2511 3984 
Q 2250 4219 1831 4219 
Q 1534 4219 1204 4116 
Q 875 4013 500 3803 
L 500 4441 
Q 881 4594 1212 4672 
Q 1544 4750 1819 4750 
Q 2544 4750 2975 4387 
Q 3406 4025 3406 3419 
Q 3406 3131 3298 2873 
Q 3191 2616 2906 2266 
Q 2828 2175 2409 1742 
Q 1991 1309 1228 531 
z
" transform="scale(0.015625)"/>
        <path id="DejaVuSans-30" d="M 2034 4250 
Q 1547 4250 1301 3770 
Q 1056 3291 1056 2328 
Q 1056 1369 1301 889 
Q 1547 409 2034 409 
Q 2525 409 2770 889 
Q 3016 1369 3016 2328 
Q 3016 3291 2770 3770 
Q 2525 4250 2034 4250 
z
M 2034 4750 
Q 2819 4750 3233 4129 
Q 3647 3509 3647 2328 
Q 3647 1150 3233 529 
Q 2819 -91 2034 -91 
Q 1250 -91 836 529 
Q 422 1150 422 2328 
Q 422 3509 836 4129 
Q 1250 4750 2034 4750 
z
" transform="scale(0.015625)"/>
        <path id="DejaVuSans-31" d="M 794 531 
L 1825 531 
L 1825 4091 
L 703 3866 
L 703 4441 
L 1819 4666 
L 2450 4666 
L 2450 531 
L 3481 531 
L 3481 0 
L 794 0 
L 794 531 
z
" transform="scale(0.015625)"/>
        <path id="DejaVuSans-2d" d="M 313 2009 
L 1997 2009 
L 1997 1497 
L 313 1497 
L 313 2009 
z
" transform="scale(0.015625)"/>
        <path id="DejaVuSans-37" d="M 525 4666 
L 3525 4666 
L 3525 4397 
L 1831 0 
L 1172 0 
L 2766 4134 
L 525 4134 
L 525 4666 
z
" transform="scale(0.015625)"/>
       </defs>
       <use xlink:href="#DejaVuSans-32"/>
       <use xlink:href="#DejaVuSans-30" x="63.623047"/>
       <use xlink:href="#DejaVuSans-32" x="127.246094"/>
       <use xlink:href="#DejaVuSans-31" x="190.869141"/>
       <use xlink:href="#DejaVuSans-2d" x="254.492188"/>
       <use xlink:href="#DejaVuSans-30" x="290.576172"/>
       <use xlink:href="#DejaVuSans-37" x="354.199219"/>
      </g>
     </g>
    </g>
    <g id="xtick_2">
     <g id="line2d_3">
      <path d="M 193.341176 320.4 
L 193.341176 43.2 
" clip-path="url(#p0581db52f9)" style="fill: none; stroke-dasharray: 5.12,1.28,0.8,1.28; stroke-dashoffset: 0; stroke: #b0b0b0; stroke-width: 0.8"/>
     </g>
     <g id="line2d_4">
      <g>
       <use xlink:href="#m86a093ab20" x="193.341176" y="320.4" style="fill: #a9a9a9; stroke: #a9a9a9; stroke-width: 0.8"/>
      </g>
     </g>
     <g id="text_2">
      <!-- 2021-10 -->
      <g style="fill: #a9a9a9" transform="translate(172.44977 334.998438) scale(0.1 -0.1)">
       <use xlink:href="#DejaVuSans-32"/>
       <use xlink:href="#DejaVuSans-30" x="63.623047"/>
       <use xlink:href="#DejaVuSans-32" x="127.246094"/>
       <use xlink:href="#DejaVuSans-31" x="190.869141"/>
       <use xlink:href="#DejaVuSans-2d" x="254.492188"/>
       <use xlink:href="#DejaVuSans-31" x="290.576172"/>
       <use xlink:href="#DejaVuSans-30" x="354.199219"/>
      </g>
     </g>
    </g>
    <g id="xtick_3">
     <g id="line2d_5">
      <path d="M 266.547594 320.4 
L 266.547594 43.2 
" clip-path="url(#p0581db52f9)" style="fill: none; stroke-dasharray: 5.12,1.28,0.8,1.28; stroke-dashoffset: 0; stroke: #b0b0b0; stroke-width: 0.8"/>
     </g>
     <g id="line2d_6">
      <g>
       <use xlink:href="#m86a093ab20" x="266.547594" y="320.4" style="fill: #a9a9a9; stroke: #a9a9a9; stroke-width: 0.8"/>
      </g>
     </g>
     <g id="text_3">
      <!-- 2022-01 -->
      <g style="fill: #a9a9a9" transform="translate(245.656187 334.998438) scale(0.1 -0.1)">
       <use xlink:href="#DejaVuSans-32"/>
       <use xlink:href="#DejaVuSans-30" x="63.623047"/>
       <use xlink:href="#DejaVuSans-32" x="127.246094"/>
       <use xlink:href="#DejaVuSans-32" x="190.869141"/>
       <use xlink:href="#DejaVuSans-2d" x="254.492188"/>
       <use xlink:href="#DejaVuSans-30" x="290.576172"/>
       <use xlink:href="#DejaVuSans-31" x="354.199219"/>
      </g>
     </g>
    </g>
    <g id="xtick_4">
     <g id="line2d_7">
      <path d="M 338.162567 320.4 
L 338.162567 43.2 
" clip-path="url(#p0581db52f9)" style="fill: none; stroke-dasharray: 5.12,1.28,0.8,1.28; stroke-dashoffset: 0; stroke: #b0b0b0; stroke-width: 0.8"/>
     </g>
     <g id="line2d_8">
      <g>
       <use xlink:href="#m86a093ab20" x="338.162567" y="320.4" style="fill: #a9a9a9; stroke: #a9a9a9; stroke-width: 0.8"/>
      </g>
     </g>
     <g id="text_4">
      <!-- 2022-04 -->
      <g style="fill: #a9a9a9" transform="translate(317.271161 334.998438) scale(0.1 -0.1)">
       <defs>
        <path id="DejaVuSans-34" d="M 2419 4116 
L 825 1625 
L 2419 1625 
L 2419 4116 
z
M 2253 4666 
L 3047 4666 
L 3047 1625 
L 3713 1625 
L 3713 1100 
L 3047 1100 
L 3047 0 
L 2419 0 
L 2419 1100 
L 313 1100 
L 313 1709 
L 2253 4666 
z
" transform="scale(0.015625)"/>
       </defs>
       <use xlink:href="#DejaVuSans-32"/>
       <use xlink:href="#DejaVuSans-30" x="63.623047"/>
       <use xlink:href="#DejaVuSans-32" x="127.246094"/>
       <use xlink:href="#DejaVuSans-32" x="190.869141"/>
       <use xlink:href="#DejaVuSans-2d" x="254.492188"/>
       <use xlink:href="#DejaVuSans-30" x="290.576172"/>
       <use xlink:href="#DejaVuSans-34" x="354.199219"/>
      </g>
     </g>
    </g>
    <g id="xtick_5">
     <g id="line2d_9">
      <path d="M 410.573262 320.4 
L 410.573262 43.2 
" clip-path="url(#p0581db52f9)" style="fill: none; stroke-dasharray: 5.12,1.28,0.8,1.28; stroke-dashoffset: 0; stroke: #b0b0b0; stroke-width: 0.8"/>
     </g>
     <g id="line2d_10">
      <g>
       <use xlink:href="#m86a093ab20" x="410.573262" y="320.4" style="fill: #a9a9a9; stroke: #a9a9a9; stroke-width: 0.8"/>
      </g>
     </g>
     <g id="text_5">
      <!-- 2022-07 -->
      <g style="fill: #a9a9a9" transform="translate(389.681856 334.998438) scale(0.1 -0.1)">
       <use xlink:href="#DejaVuSans-32"/>
       <use xlink:href="#DejaVuSans-30" x="63.623047"/>
       <use xlink:href="#DejaVuSans-32" x="127.246094"/>
       <use xlink:href="#DejaVuSans-32" x="190.869141"/>
       <use xlink:href="#DejaVuSans-2d" x="254.492188"/>
       <use xlink:href="#DejaVuSans-30" x="290.576172"/>
       <use xlink:href="#DejaVuSans-37" x="354.199219"/>
      </g>
     </g>
    </g>
    <g id="xtick_6">
     <g id="line2d_11">
      <path d="M 483.779679 320.4 
L 483.779679 43.2 
" clip-path="url(#p0581db52f9)" style="fill: none; stroke-dasharray: 5.12,1.28,0.8,1.28; stroke-dashoffset: 0; stroke: #b0b0b0; stroke-width: 0.8"/>
     </g>
     <g id="line2d_12">
      <g>
       <use xlink:href="#m86a093ab20" x="483.779679" y="320.4" style="fill: #a9a9a9; stroke: #a9a9a9; stroke-width: 0.8"/>
      </g>
     </g>
     <g id="text_6">
      <!-- 2022-10 -->
      <g style="fill: #a9a9a9" transform="translate(462.888273 334.998438) scale(0.1 -0.1)">
       <use xlink:href="#DejaVuSans-32"/>
       <use xlink:href="#DejaVuSans-30" x="63.623047"/>
       <use xlink:href="#DejaVuSans-32" x="127.246094"/>
       <use xlink:href="#DejaVuSans-32" x="190.869141"/>
       <use xlink:href="#DejaVuSans-2d" x="254.492188"/>
       <use xlink:href="#DejaVuSans-31" x="290.576172"/>
       <use xlink:href="#DejaVuSans-30" x="354.199219"/>
      </g>
     </g>
    </g>
    <g id="xtick_7">
     <g id="line2d_13">
      <path d="M 556.986096 320.4 
L 556.986096 43.2 
" clip-path="url(#p0581db52f9)" style="fill: none; stroke-dasharray: 5.12,1.28,0.8,1.28; stroke-dashoffset: 0; stroke: #b0b0b0; stroke-width: 0.8"/>
     </g>
     <g id="line2d_14">
      <g>
       <use xlink:href="#m86a093ab20" x="556.986096" y="320.4" style="fill: #a9a9a9; stroke: #a9a9a9; stroke-width: 0.8"/>
      </g>
     </g>
     <g id="text_7">
      <!-- 2023-01 -->
      <g style="fill: #a9a9a9" transform="translate(536.09469 334.998438) scale(0.1 -0.1)">
       <defs>
        <path id="DejaVuSans-33" d="M 2597 2516 
Q 3050 2419 3304 2112 
Q 3559 1806 3559 1356 
Q 3559 666 3084 287 
Q 2609 -91 1734 -91 
Q 1441 -91 1130 -33 
Q 819 25 488 141 
L 488 750 
Q 750 597 1062 519 
Q 1375 441 1716 441 
Q 2309 441 2620 675 
Q 2931 909 2931 1356 
Q 2931 1769 2642 2001 
Q 2353 2234 1838 2234 
L 1294 2234 
L 1294 2753 
L 1863 2753 
Q 2328 2753 2575 2939 
Q 2822 3125 2822 3475 
Q 2822 3834 2567 4026 
Q 2313 4219 1838 4219 
Q 1578 4219 1281 4162 
Q 984 4106 628 3988 
L 628 4550 
Q 988 4650 1302 4700 
Q 1616 4750 1894 4750 
Q 2613 4750 3031 4423 
Q 3450 4097 3450 3541 
Q 3450 3153 3228 2886 
Q 3006 2619 2597 2516 
z
" transform="scale(0.015625)"/>
       </defs>
       <use xlink:href="#DejaVuSans-32"/>
       <use xlink:href="#DejaVuSans-30" x="63.623047"/>
       <use xlink:href="#DejaVuSans-32" x="127.246094"/>
       <use xlink:href="#DejaVuSans-33" x="190.869141"/>
       <use xlink:href="#DejaVuSans-2d" x="254.492188"/>
       <use xlink:href="#DejaVuSans-30" x="290.576172"/>
       <use xlink:href="#DejaVuSans-31" x="354.199219"/>
      </g>
     </g>
    </g>
    <g id="xtick_8">
     <g id="line2d_15">
      <path d="M 628.60107 320.4 
L 628.60107 43.2 
" clip-path="url(#p0581db52f9)" style="fill: none; stroke-dasharray: 5.12,1.28,0.8,1.28; stroke-dashoffset: 0; stroke: #b0b0b0; stroke-width: 0.8"/>
     </g>
     <g id="line2d_16">
      <g>
       <use xlink:href="#m86a093ab20" x="628.60107" y="320.4" style="fill: #a9a9a9; stroke: #a9a9a9; stroke-width: 0.8"/>
      </g>
     </g>
     <g id="text_8">
      <!-- 2023-04 -->
      <g style="fill: #a9a9a9" transform="translate(607.709663 334.998438) scale(0.1 -0.1)">
       <use xlink:href="#DejaVuSans-32"/>
       <use xlink:href="#DejaVuSans-30" x="63.623047"/>
       <use xlink:href="#DejaVuSans-32" x="127.246094"/>
       <use xlink:href="#DejaVuSans-33" x="190.869141"/>
       <use xlink:href="#DejaVuSans-2d" x="254.492188"/>
       <use xlink:href="#DejaVuSans-30" x="290.576172"/>
       <use xlink:href="#DejaVuSans-34" x="354.199219"/>
      </g>
     </g>
    </g>
    <g id="xtick_9">
     <g id="line2d_17">
      <path d="M 701.011765 320.4 
L 701.011765 43.2 
" clip-path="url(#p0581db52f9)" style="fill: none; stroke-dasharray: 5.12,1.28,0.8,1.28; stroke-dashoffset: 0; stroke: #b0b0b0; stroke-width: 0.8"/>
     </g>
     <g id="line2d_18">
      <g>
       <use xlink:href="#m86a093ab20" x="701.011765" y="320.4" style="fill: #a9a9a9; stroke: #a9a9a9; stroke-width: 0.8"/>
      </g>
     </g>
     <g id="text_9">
      <!-- 2023-07 -->
      <g style="fill: #a9a9a9" transform="translate(680.120358 334.998438) scale(0.1 -0.1)">
       <use xlink:href="#DejaVuSans-32"/>
       <use xlink:href="#DejaVuSans-30" x="63.623047"/>
       <use xlink:href="#DejaVuSans-32" x="127.246094"/>
       <use xlink:href="#DejaVuSans-33" x="190.869141"/>
       <use xlink:href="#DejaVuSans-2d" x="254.492188"/>
       <use xlink:href="#DejaVuSans-30" x="290.576172"/>
       <use xlink:href="#DejaVuSans-37" x="354.199219"/>
      </g>
     </g>
    </g>
    <g id="xtick_10">
     <g id="line2d_19">
      <path d="M 774.218182 320.4 
L 774.218182 43.2 
" clip-path="url(#p0581db52f9)" style="fill: none; stroke-dasharray: 5.12,1.28,0.8,1.28; stroke-dashoffset: 0; stroke: #b0b0b0; stroke-width: 0.8"/>
     </g>
     <g id="line2d_20">
      <g>
       <use xlink:href="#m86a093ab20" x="774.218182" y="320.4" style="fill: #a9a9a9; stroke: #a9a9a9; stroke-width: 0.8"/>
      </g>
     </g>
     <g id="text_10">
      <!-- 2023-10 -->
      <g style="fill: #a9a9a9" transform="translate(753.326776 334.998438) scale(0.1 -0.1)">
       <use xlink:href="#DejaVuSans-32"/>
       <use xlink:href="#DejaVuSans-30" x="63.623047"/>
       <use xlink:href="#DejaVuSans-32" x="127.246094"/>
       <use xlink:href="#DejaVuSans-33" x="190.869141"/>
       <use xlink:href="#DejaVuSans-2d" x="254.492188"/>
       <use xlink:href="#DejaVuSans-31" x="290.576172"/>
       <use xlink:href="#DejaVuSans-30" x="354.199219"/>
      </g>
     </g>
    </g>
   </g>
   <g id="matplotlib.axis_2">
    <g id="ytick_1">
     <g id="line2d_21">
      <path d="M 108 307.85303 
L 777.6 307.85303 
" clip-path="url(#p0581db52f9)" style="fill: none; stroke-dasharray: 5.12,1.28,0.8,1.28; stroke-dashoffset: 0; stroke: #b0b0b0; stroke-width: 0.8"/>
     </g>
     <g id="line2d_22">
      <defs>
       <path id="ma41b85bcb5" d="M 0 0 
L -3.5 0 
" style="stroke: #a9a9a9; stroke-width: 0.8"/>
      </defs>
      <g>
       <use xlink:href="#ma41b85bcb5" x="108" y="307.85303" style="fill: #a9a9a9; stroke: #a9a9a9; stroke-width: 0.8"/>
      </g>
     </g>
     <g id="text_11">
      <!-- 0 -->
      <g style="fill: #a9a9a9" transform="translate(94.6375 311.652249) scale(0.1 -0.1)">
       <use xlink:href="#DejaVuSans-30"/>
      </g>
     </g>
    </g>
    <g id="ytick_2">
     <g id="line2d_23">
      <path d="M 108 276.034848 
L 777.6 276.034848 
" clip-path="url(#p0581db52f9)" style="fill: none; stroke-dasharray: 5.12,1.28,0.8,1.28; stroke-dashoffset: 0; stroke: #b0b0b0; stroke-width: 0.8"/>
     </g>
     <g id="line2d_24">
      <g>
       <use xlink:href="#ma41b85bcb5" x="108" y="276.034848" style="fill: #a9a9a9; stroke: #a9a9a9; stroke-width: 0.8"/>
      </g>
     </g>
     <g id="text_12">
      <!-- 600 -->
      <g style="fill: #a9a9a9" transform="translate(81.9125 279.834067) scale(0.1 -0.1)">
       <defs>
        <path id="DejaVuSans-36" d="M 2113 2584 
Q 1688 2584 1439 2293 
Q 1191 2003 1191 1497 
Q 1191 994 1439 701 
Q 1688 409 2113 409 
Q 2538 409 2786 701 
Q 3034 994 3034 1497 
Q 3034 2003 2786 2293 
Q 2538 2584 2113 2584 
z
M 3366 4563 
L 3366 3988 
Q 3128 4100 2886 4159 
Q 2644 4219 2406 4219 
Q 1781 4219 1451 3797 
Q 1122 3375 1075 2522 
Q 1259 2794 1537 2939 
Q 1816 3084 2150 3084 
Q 2853 3084 3261 2657 
Q 3669 2231 3669 1497 
Q 3669 778 3244 343 
Q 2819 -91 2113 -91 
Q 1303 -91 875 529 
Q 447 1150 447 2328 
Q 447 3434 972 4092 
Q 1497 4750 2381 4750 
Q 2619 4750 2861 4703 
Q 3103 4656 3366 4563 
z
" transform="scale(0.015625)"/>
       </defs>
       <use xlink:href="#DejaVuSans-36"/>
       <use xlink:href="#DejaVuSans-30" x="63.623047"/>
       <use xlink:href="#DejaVuSans-30" x="127.246094"/>
      </g>
     </g>
    </g>
    <g id="ytick_3">
     <g id="line2d_25">
      <path d="M 108 244.216667 
L 777.6 244.216667 
" clip-path="url(#p0581db52f9)" style="fill: none; stroke-dasharray: 5.12,1.28,0.8,1.28; stroke-dashoffset: 0; stroke: #b0b0b0; stroke-width: 0.8"/>
     </g>
     <g id="line2d_26">
      <g>
       <use xlink:href="#ma41b85bcb5" x="108" y="244.216667" style="fill: #a9a9a9; stroke: #a9a9a9; stroke-width: 0.8"/>
      </g>
     </g>
     <g id="text_13">
      <!-- 1200 -->
      <g style="fill: #a9a9a9" transform="translate(75.55 248.015885) scale(0.1 -0.1)">
       <use xlink:href="#DejaVuSans-31"/>
       <use xlink:href="#DejaVuSans-32" x="63.623047"/>
       <use xlink:href="#DejaVuSans-30" x="127.246094"/>
       <use xlink:href="#DejaVuSans-30" x="190.869141"/>
      </g>
     </g>
    </g>
    <g id="ytick_4">
     <g id="line2d_27">
      <path d="M 108 212.398485 
L 777.6 212.398485 
" clip-path="url(#p0581db52f9)" style="fill: none; stroke-dasharray: 5.12,1.28,0.8,1.28; stroke-dashoffset: 0; stroke: #b0b0b0; stroke-width: 0.8"/>
     </g>
     <g id="line2d_28">
      <g>
       <use xlink:href="#ma41b85bcb5" x="108" y="212.398485" style="fill: #a9a9a9; stroke: #a9a9a9; stroke-width: 0.8"/>
      </g>
     </g>
     <g id="text_14">
      <!-- 1800 -->
      <g style="fill: #a9a9a9" transform="translate(75.55 216.197704) scale(0.1 -0.1)">
       <defs>
        <path id="DejaVuSans-38" d="M 2034 2216 
Q 1584 2216 1326 1975 
Q 1069 1734 1069 1313 
Q 1069 891 1326 650 
Q 1584 409 2034 409 
Q 2484 409 2743 651 
Q 3003 894 3003 1313 
Q 3003 1734 2745 1975 
Q 2488 2216 2034 2216 
z
M 1403 2484 
Q 997 2584 770 2862 
Q 544 3141 544 3541 
Q 544 4100 942 4425 
Q 1341 4750 2034 4750 
Q 2731 4750 3128 4425 
Q 3525 4100 3525 3541 
Q 3525 3141 3298 2862 
Q 3072 2584 2669 2484 
Q 3125 2378 3379 2068 
Q 3634 1759 3634 1313 
Q 3634 634 3220 271 
Q 2806 -91 2034 -91 
Q 1263 -91 848 271 
Q 434 634 434 1313 
Q 434 1759 690 2068 
Q 947 2378 1403 2484 
z
M 1172 3481 
Q 1172 3119 1398 2916 
Q 1625 2713 2034 2713 
Q 2441 2713 2670 2916 
Q 2900 3119 2900 3481 
Q 2900 3844 2670 4047 
Q 2441 4250 2034 4250 
Q 1625 4250 1398 4047 
Q 1172 3844 1172 3481 
z
" transform="scale(0.015625)"/>
       </defs>
       <use xlink:href="#DejaVuSans-31"/>
       <use xlink:href="#DejaVuSans-38" x="63.623047"/>
       <use xlink:href="#DejaVuSans-30" x="127.246094"/>
       <use xlink:href="#DejaVuSans-30" x="190.869141"/>
      </g>
     </g>
    </g>
    <g id="ytick_5">
     <g id="line2d_29">
      <path d="M 108 180.580303 
L 777.6 180.580303 
" clip-path="url(#p0581db52f9)" style="fill: none; stroke-dasharray: 5.12,1.28,0.8,1.28; stroke-dashoffset: 0; stroke: #b0b0b0; stroke-width: 0.8"/>
     </g>
     <g id="line2d_30">
      <g>
       <use xlink:href="#ma41b85bcb5" x="108" y="180.580303" style="fill: #a9a9a9; stroke: #a9a9a9; stroke-width: 0.8"/>
      </g>
     </g>
     <g id="text_15">
      <!-- 2400 -->
      <g style="fill: #a9a9a9" transform="translate(75.55 184.379522) scale(0.1 -0.1)">
       <use xlink:href="#DejaVuSans-32"/>
       <use xlink:href="#DejaVuSans-34" x="63.623047"/>
       <use xlink:href="#DejaVuSans-30" x="127.246094"/>
       <use xlink:href="#DejaVuSans-30" x="190.869141"/>
      </g>
     </g>
    </g>
    <g id="ytick_6">
     <g id="line2d_31">
      <path d="M 108 148.762121 
L 777.6 148.762121 
" clip-path="url(#p0581db52f9)" style="fill: none; stroke-dasharray: 5.12,1.28,0.8,1.28; stroke-dashoffset: 0; stroke: #b0b0b0; stroke-width: 0.8"/>
     </g>
     <g id="line2d_32">
      <g>
       <use xlink:href="#ma41b85bcb5" x="108" y="148.762121" style="fill: #a9a9a9; stroke: #a9a9a9; stroke-width: 0.8"/>
      </g>
     </g>
     <g id="text_16">
      <!-- 3000 -->
      <g style="fill: #a9a9a9" transform="translate(75.55 152.56134) scale(0.1 -0.1)">
       <use xlink:href="#DejaVuSans-33"/>
       <use xlink:href="#DejaVuSans-30" x="63.623047"/>
       <use xlink:href="#DejaVuSans-30" x="127.246094"/>
       <use xlink:href="#DejaVuSans-30" x="190.869141"/>
      </g>
     </g>
    </g>
    <g id="ytick_7">
     <g id="line2d_33">
      <path d="M 108 116.943939 
L 777.6 116.943939 
" clip-path="url(#p0581db52f9)" style="fill: none; stroke-dasharray: 5.12,1.28,0.8,1.28; stroke-dashoffset: 0; stroke: #b0b0b0; stroke-width: 0.8"/>
     </g>
     <g id="line2d_34">
      <g>
       <use xlink:href="#ma41b85bcb5" x="108" y="116.943939" style="fill: #a9a9a9; stroke: #a9a9a9; stroke-width: 0.8"/>
      </g>
     </g>
     <g id="text_17">
      <!-- 3600 -->
      <g style="fill: #a9a9a9" transform="translate(75.55 120.743158) scale(0.1 -0.1)">
       <use xlink:href="#DejaVuSans-33"/>
       <use xlink:href="#DejaVuSans-36" x="63.623047"/>
       <use xlink:href="#DejaVuSans-30" x="127.246094"/>
       <use xlink:href="#DejaVuSans-30" x="190.869141"/>
      </g>
     </g>
    </g>
    <g id="ytick_8">
     <g id="line2d_35">
      <path d="M 108 85.125758 
L 777.6 85.125758 
" clip-path="url(#p0581db52f9)" style="fill: none; stroke-dasharray: 5.12,1.28,0.8,1.28; stroke-dashoffset: 0; stroke: #b0b0b0; stroke-width: 0.8"/>
     </g>
     <g id="line2d_36">
      <g>
       <use xlink:href="#ma41b85bcb5" x="108" y="85.125758" style="fill: #a9a9a9; stroke: #a9a9a9; stroke-width: 0.8"/>
      </g>
     </g>
     <g id="text_18">
      <!-- 4200 -->
      <g style="fill: #a9a9a9" transform="translate(75.55 88.924976) scale(0.1 -0.1)">
       <use xlink:href="#DejaVuSans-34"/>
       <use xlink:href="#DejaVuSans-32" x="63.623047"/>
       <use xlink:href="#DejaVuSans-30" x="127.246094"/>
       <use xlink:href="#DejaVuSans-30" x="190.869141"/>
      </g>
     </g>
    </g>
    <g id="ytick_9">
     <g id="line2d_37">
      <path d="M 108 53.307576 
L 777.6 53.307576 
" clip-path="url(#p0581db52f9)" style="fill: none; stroke-dasharray: 5.12,1.28,0.8,1.28; stroke-dashoffset: 0; stroke: #b0b0b0; stroke-width: 0.8"/>
     </g>
     <g id="line2d_38">
      <g>
       <use xlink:href="#ma41b85bcb5" x="108" y="53.307576" style="fill: #a9a9a9; stroke: #a9a9a9; stroke-width: 0.8"/>
      </g>
     </g>
     <g id="text_19">
      <!-- 4800 -->
      <g style="fill: #a9a9a9" transform="translate(75.55 57.106795) scale(0.1 -0.1)">
       <use xlink:href="#DejaVuSans-34"/>
       <use xlink:href="#DejaVuSans-38" x="63.623047"/>
       <use xlink:href="#DejaVuSans-30" x="127.246094"/>
       <use xlink:href="#DejaVuSans-30" x="190.869141"/>
      </g>
     </g>
    </g>
   </g>
   <g id="line2d_39">
    <path d="M 138.436364 307.693939 
L 143.210695 307.322727 
L 144.006417 307.004545 
L 146.393583 306.739394 
L 151.963636 305.731818 
L 155.942246 305.360606 
L 156.737968 304.989394 
L 157.53369 304.777273 
L 158.329412 303.822727 
L 159.125134 303.292424 
L 159.920856 301.595455 
L 160.716578 301.489394 
L 161.512299 300.906061 
L 163.103743 300.163636 
L 164.695187 298.99697 
L 165.490909 298.254545 
L 167.082353 297.512121 
L 167.878075 297.193939 
L 168.673797 296.610606 
L 171.856684 295.284848 
L 172.652406 294.065152 
L 173.448128 293.428788 
L 175.039572 292.580303 
L 182.996791 291.466667 
L 183.792513 291.095455 
L 189.362567 290.671212 
L 190.954011 290.24697 
L 192.545455 289.928788 
L 198.91123 289.133333 
L 199.706952 288.709091 
L 200.502674 288.60303 
L 201.298396 288.284848 
L 202.88984 288.019697 
L 203.685561 287.966667 
L 204.481283 287.701515 
L 207.664171 287.224242 
L 209.255615 286.8 
L 211.642781 286.587879 
L 213.234225 286.428788 
L 214.029947 286.216667 
L 214.825668 286.163636 
L 217.212834 285.474242 
L 221.987166 284.784848 
L 222.782888 284.519697 
L 223.57861 283.459091 
L 225.965775 282.610606 
L 228.352941 281.974242 
L 229.148663 281.60303 
L 229.944385 281.55 
L 233.922995 280.489394 
L 235.514439 280.383333 
L 236.31016 280.277273 
L 238.697326 279.587879 
L 241.880214 278.845455 
L 242.675936 278.527273 
L 243.471658 278.421212 
L 244.26738 278.05 
L 252.224599 276.883333 
L 256.203209 275.769697 
L 256.99893 275.292424 
L 260.181818 274.443939 
L 261.773262 273.542424 
L 262.568984 273.012121 
L 263.364706 272.906061 
L 264.160428 272.640909 
L 266.547594 272.216667 
L 267.343316 271.845455 
L 268.934759 271.580303 
L 270.526203 270.837879 
L 274.504813 269.883333 
L 276.891979 269.3 
L 277.687701 268.981818 
L 278.483422 268.822727 
L 279.279144 268.504545 
L 280.074866 268.398485 
L 280.870588 268.027273 
L 281.66631 267.815152 
L 283.257754 267.709091 
L 284.849198 267.178788 
L 286.440642 267.072727 
L 287.236364 266.701515 
L 290.419251 266.171212 
L 293.602139 265.906061 
L 294.397861 265.74697 
L 295.989305 265.004545 
L 304.742246 261.451515 
L 305.537968 261.027273 
L 306.33369 260.178788 
L 307.129412 258.906061 
L 307.925134 257.898485 
L 308.720856 257.686364 
L 309.516578 257.686364 
L 311.108021 256.519697 
L 311.903743 256.307576 
L 312.699465 255.883333 
L 313.495187 255.724242 
L 314.290909 255.034848 
L 315.086631 254.822727 
L 317.473797 253.709091 
L 318.269519 252.754545 
L 319.065241 251.587879 
L 319.860963 251.110606 
L 320.656684 249.837879 
L 321.452406 249.042424 
L 322.248128 248.671212 
L 323.04385 248.459091 
L 324.635294 247.504545 
L 325.431016 247.133333 
L 328.613904 244.8 
L 329.409626 243.686364 
L 330.205348 241.883333 
L 331.00107 240.716667 
L 331.796791 240.133333 
L 332.592513 239.815152 
L 335.775401 237.163636 
L 336.571123 236.633333 
L 338.162567 235.254545 
L 338.958289 234.140909 
L 339.754011 233.398485 
L 341.345455 232.337879 
L 343.73262 230.74697 
L 344.528342 230.057576 
L 345.324064 229.845455 
L 347.71123 228.625758 
L 349.302674 227.724242 
L 350.098396 227.406061 
L 351.68984 225.974242 
L 352.485561 225.019697 
L 354.077005 223.959091 
L 354.872727 223.74697 
L 355.668449 223.375758 
L 356.464171 222.792424 
L 358.055615 221.943939 
L 358.851337 221.837879 
L 360.442781 220.989394 
L 361.238503 220.565152 
L 362.034225 219.769697 
L 362.829947 219.292424 
L 363.625668 219.027273 
L 364.42139 218.49697 
L 367.604278 216.906061 
L 368.4 216.216667 
L 371.582888 215.156061 
L 372.37861 214.625758 
L 373.174332 214.466667 
L 374.765775 213.936364 
L 377.152941 213.034848 
L 379.540107 212.186364 
L 381.131551 211.921212 
L 382.722995 210.595455 
L 384.314439 209.85303 
L 386.701604 208.527273 
L 388.293048 208.10303 
L 389.08877 207.625758 
L 389.884492 207.413636 
L 392.271658 205.928788 
L 394.658824 205.398485 
L 397.045989 204.55 
L 398.637433 203.648485 
L 399.433155 203.542424 
L 400.228877 203.277273 
L 401.820321 202.959091 
L 404.207487 201.262121 
L 406.594652 200.731818 
L 407.390374 200.466667 
L 408.186096 199.883333 
L 412.960428 198.398485 
L 413.75615 198.345455 
L 419.326203 196.436364 
L 420.121925 196.065152 
L 422.509091 195.534848 
L 424.100535 195.163636 
L 424.896257 194.792424 
L 425.691979 194.633333 
L 428.079144 193.572727 
L 430.46631 192.459091 
L 431.262032 191.928788 
L 432.057754 191.716667 
L 434.44492 190.49697 
L 436.036364 190.125758 
L 437.627807 189.330303 
L 439.219251 188.906061 
L 440.014973 188.8 
L 440.810695 188.269697 
L 441.606417 187.898485 
L 442.402139 187.739394 
L 443.993583 187.10303 
L 444.789305 186.943939 
L 445.585027 186.519697 
L 448.767914 186.042424 
L 450.359358 185.3 
L 451.15508 184.663636 
L 451.950802 183.284848 
L 453.542246 182.966667 
L 454.337968 182.807576 
L 457.520856 181.216667 
L 458.316578 181.057576 
L 464.682353 178.034848 
L 467.069519 177.557576 
L 468.660963 176.815152 
L 469.456684 176.49697 
L 470.252406 176.390909 
L 473.435294 175.012121 
L 475.026738 173.951515 
L 475.82246 173.580303 
L 476.618182 173.474242 
L 477.413904 173.209091 
L 478.209626 173.156061 
L 481.392513 172.148485 
L 482.188235 172.095455 
L 482.983957 171.512121 
L 484.575401 170.981818 
L 486.962567 170.239394 
L 487.758289 169.762121 
L 488.554011 169.55 
L 489.349733 169.019697 
L 490.145455 168.701515 
L 490.941176 168.224242 
L 492.53262 167.640909 
L 493.328342 167.428788 
L 494.124064 167.057576 
L 494.919786 166.845455 
L 495.715508 166.474242 
L 496.51123 165.890909 
L 497.306952 165.095455 
L 498.102674 164.565152 
L 498.898396 164.406061 
L 500.48984 163.239394 
L 501.285561 163.080303 
L 502.081283 161.913636 
L 502.877005 161.595455 
L 503.672727 161.012121 
L 504.468449 160.906061 
L 505.264171 160.375758 
L 506.059893 160.004545 
L 506.855615 159.845455 
L 507.651337 159.527273 
L 508.447059 158.890909 
L 509.242781 158.625758 
L 511.629947 157.087879 
L 514.812834 155.55 
L 515.608556 155.443939 
L 517.2 154.754545 
L 517.995722 154.277273 
L 518.791444 153.004545 
L 519.587166 152.209091 
L 520.382888 151.784848 
L 521.17861 151.625758 
L 522.770053 150.671212 
L 523.565775 150.512121 
L 525.157219 149.769697 
L 527.544385 148.815152 
L 529.135829 147.754545 
L 530.727273 146.110606 
L 532.318717 145.156061 
L 533.114439 144.678788 
L 533.91016 143.883333 
L 536.297326 141.974242 
L 537.093048 141.60303 
L 537.88877 140.754545 
L 538.684492 140.171212 
L 540.275936 139.640909 
L 541.071658 138.898485 
L 542.663102 138.10303 
L 543.458824 137.890909 
L 544.254545 137.307576 
L 545.050267 137.095455 
L 547.437433 135.875758 
L 548.233155 135.292424 
L 549.824599 134.656061 
L 550.620321 134.49697 
L 551.416043 134.019697 
L 556.986096 132.110606 
L 557.781818 131.421212 
L 560.964706 130.254545 
L 561.760428 130.042424 
L 562.55615 129.459091 
L 564.943316 128.398485 
L 565.739037 127.815152 
L 566.534759 127.390909 
L 568.126203 124.315152 
L 569.717647 122.512121 
L 570.513369 121.981818 
L 572.900535 120.974242 
L 573.696257 120.709091 
L 574.491979 120.60303 
L 575.287701 120.178788 
L 577.674866 119.436364 
L 580.062032 118.481818 
L 581.653476 117.421212 
L 584.040642 116.360606 
L 588.019251 114.133333 
L 588.814973 113.337879 
L 590.406417 112.489394 
L 591.202139 112.065152 
L 591.997861 111.8 
L 592.793583 111.269697 
L 594.385027 110.527273 
L 595.180749 110.05 
L 595.976471 109.731818 
L 596.772193 109.254545 
L 597.567914 109.042424 
L 598.363636 108.459091 
L 599.159358 108.140909 
L 599.95508 107.981818 
L 601.546524 107.345455 
L 603.93369 106.49697 
L 604.729412 105.913636 
L 606.320856 105.489394 
L 607.912299 104.906061 
L 608.708021 104.269697 
L 610.299465 103.792424 
L 611.095187 103.421212 
L 611.890909 103.209091 
L 613.482353 102.148485 
L 615.073797 101.459091 
L 616.665241 100.292424 
L 618.256684 99.762121 
L 619.052406 99.072727 
L 619.848128 98.913636 
L 620.64385 98.224242 
L 622.235294 97.322727 
L 623.826738 96.686364 
L 624.62246 95.890909 
L 627.009626 95.148485 
L 627.805348 94.671212 
L 628.60107 94.565152 
L 630.988235 93.398485 
L 634.171123 92.443939 
L 635.762567 92.231818 
L 636.558289 91.913636 
L 637.354011 91.754545 
L 638.945455 91.118182 
L 639.741176 91.065152 
L 642.128342 90.269697 
L 643.719786 89.315152 
L 645.31123 88.254545 
L 650.085561 85.974242 
L 652.472727 84.436364 
L 654.064171 84.065152 
L 655.655615 83.004545 
L 658.838503 82.05 
L 659.634225 81.731818 
L 661.225668 81.360606 
L 665.204278 80.087879 
L 666.795722 79.769697 
L 668.387166 79.398485 
L 669.182888 79.027273 
L 669.97861 78.921212 
L 671.570053 78.284848 
L 672.365775 78.178788 
L 673.161497 77.807576 
L 674.752941 77.489394 
L 675.548663 77.118182 
L 677.935829 76.587879 
L 679.527273 76.269697 
L 686.68877 74.837879 
L 687.484492 74.519697 
L 688.280214 74.466667 
L 690.66738 73.830303 
L 691.463102 73.406061 
L 693.054545 72.875758 
L 693.850267 72.822727 
L 697.828877 71.656061 
L 701.807487 70.436364 
L 702.603209 70.224242 
L 703.39893 69.85303 
L 704.194652 69.85303 
L 705.786096 69.322727 
L 706.581818 68.527273 
L 707.37754 68.156061 
L 708.968984 67.678788 
L 712.151872 66.512121 
L 712.947594 66.24697 
L 713.743316 65.769697 
L 714.539037 65.610606 
L 715.334759 65.080303 
L 718.517647 64.125758 
L 719.313369 63.860606 
L 720.109091 63.383333 
L 720.904813 63.171212 
L 721.700535 62.534848 
L 724.087701 62.110606 
L 725.679144 61.262121 
L 726.474866 60.360606 
L 728.06631 60.042424 
L 732.840642 58.981818 
L 734.432086 58.557576 
L 736.023529 58.504545 
L 736.819251 58.133333 
L 739.206417 57.762121 
L 740.002139 57.55 
L 740.797861 57.178788 
L 743.185027 56.860606 
L 744.776471 56.277273 
L 745.572193 55.906061 
L 747.163636 55.8 
L 747.163636 55.8 
" clip-path="url(#p0581db52f9)" style="fill: none; stroke: #1f77b4; stroke-width: 1.5; stroke-linecap: square"/>
   </g>
   <g id="line2d_40">
    <path d="M 139.232086 307.8 
L 141.619251 307.693939 
L 143.210695 307.587879 
L 148.780749 307.481818 
L 152.759358 307.322727 
L 155.942246 307.322727 
L 156.737968 307.110606 
L 159.125134 307.057576 
L 163.899465 306.527273 
L 175.835294 305.837879 
L 182.20107 305.731818 
L 186.179679 305.572727 
L 195.728342 305.466667 
L 199.706952 305.307576 
L 204.481283 305.201515 
L 207.664171 305.095455 
L 214.825668 304.989394 
L 217.212834 304.936364 
L 219.6 304.883333 
L 221.987166 304.618182 
L 226.761497 304.565152 
L 228.352941 304.459091 
L 233.922995 304.35303 
L 242.675936 303.875758 
L 248.245989 303.769697 
L 249.837433 303.663636 
L 252.224599 303.557576 
L 256.99893 303.345455 
L 260.181818 303.292424 
L 262.568984 303.080303 
L 276.096257 302.284848 
L 278.483422 302.178788 
L 284.053476 301.913636 
L 286.440642 301.807576 
L 294.397861 301.383333 
L 303.150802 301.277273 
L 306.33369 300.959091 
L 307.925134 300.85303 
L 316.678075 300.216667 
L 317.473797 300.004545 
L 319.860963 299.792424 
L 321.452406 299.421212 
L 323.839572 299.368182 
L 326.226738 299.262121 
L 332.592513 298.466667 
L 336.571123 298.360606 
L 346.915508 297.565152 
L 351.68984 297.034848 
L 354.077005 296.981818 
L 355.668449 296.875758 
L 358.851337 296.769697 
L 360.442781 296.663636 
L 364.42139 296.292424 
L 365.217112 296.080303 
L 369.991444 295.868182 
L 373.970053 295.762121 
L 385.11016 295.125758 
L 386.701604 295.019697 
L 397.045989 294.436364 
L 402.616043 294.330303 
L 403.411765 294.171212 
L 409.77754 294.065152 
L 415.347594 293.8 
L 424.100535 293.693939 
L 429.670588 293.428788 
L 436.036364 293.322727 
L 443.197861 292.951515 
L 447.972193 292.845455 
L 463.090909 291.943939 
L 469.456684 291.837879 
L 473.435294 291.466667 
L 475.026738 291.307576 
L 479.005348 291.254545 
L 482.188235 290.936364 
L 490.145455 290.512121 
L 494.919786 290.406061 
L 497.306952 290.35303 
L 499.694118 290.3 
L 502.081283 290.087879 
L 508.447059 289.981818 
L 510.038503 289.716667 
L 511.629947 289.610606 
L 514.812834 289.504545 
L 517.2 289.398485 
L 518.791444 289.292424 
L 525.952941 289.186364 
L 527.544385 289.027273 
L 530.727273 288.921212 
L 531.522995 288.709091 
L 533.114439 288.656061 
L 533.91016 288.49697 
L 536.297326 288.390909 
L 549.824599 287.595455 
L 552.211765 287.489394 
L 556.190374 287.330303 
L 567.330481 287.224242 
L 572.900535 286.959091 
L 579.26631 286.85303 
L 582.449198 286.74697 
L 585.632086 286.693939 
L 587.223529 286.534848 
L 590.406417 286.428788 
L 598.363636 286.004545 
L 603.137968 285.951515 
L 605.525134 285.739394 
L 607.912299 285.686364 
L 613.482353 285.580303 
L 616.665241 285.474242 
L 626.213904 285.368182 
L 630.192513 285.209091 
L 634.966845 285.10303 
L 637.354011 284.837879 
L 642.128342 284.784848 
L 642.924064 284.625758 
L 644.515508 284.519697 
L 647.698396 284.413636 
L 657.247059 284.307576 
L 661.225668 284.148485 
L 674.752941 284.095455 
L 676.344385 283.989394 
L 678.731551 283.936364 
L 689.075936 283.830303 
L 690.66738 283.724242 
L 699.420321 283.618182 
L 702.603209 283.512121 
L 712.151872 283.459091 
L 713.743316 283.35303 
L 725.679144 283.3 
L 728.06631 283.087879 
L 741.593583 282.981818 
L 743.980749 282.928788 
L 747.163636 282.928788 
L 747.163636 282.928788 
" clip-path="url(#p0581db52f9)" style="fill: none; stroke: #ff7f0e; stroke-width: 1.5; stroke-linecap: square"/>
   </g>
   <g id="patch_3">
    <path d="M 108 320.4 
L 108 43.2 
" style="fill: none; stroke: #a9a9a9; stroke-width: 0.8; stroke-linejoin: miter; stroke-linecap: square"/>
   </g>
   <g id="patch_4">
    <path d="M 777.6 320.4 
L 777.6 43.2 
" style="fill: none"/>
   </g>
   <g id="patch_5">
    <path d="M 108 320.4 
L 777.6 320.4 
" style="fill: none; stroke: #a9a9a9; stroke-width: 0.8; stroke-linejoin: miter; stroke-linecap: square"/>
   </g>
   <g id="patch_6">
    <path d="M 108 43.2 
L 777.6 43.2 
" style="fill: none"/>
   </g>
   <g id="text_20">
    <!-- get_subscribe history -->
    <g style="fill: #a9a9a9" transform="translate(378.6075 37.2) scale(0.12 -0.12)">
     <defs>
      <path id="DejaVuSans-67" d="M 2906 1791 
Q 2906 2416 2648 2759 
Q 2391 3103 1925 3103 
Q 1463 3103 1205 2759 
Q 947 2416 947 1791 
Q 947 1169 1205 825 
Q 1463 481 1925 481 
Q 2391 481 2648 825 
Q 2906 1169 2906 1791 
z
M 3481 434 
Q 3481 -459 3084 -895 
Q 2688 -1331 1869 -1331 
Q 1566 -1331 1297 -1286 
Q 1028 -1241 775 -1147 
L 775 -588 
Q 1028 -725 1275 -790 
Q 1522 -856 1778 -856 
Q 2344 -856 2625 -561 
Q 2906 -266 2906 331 
L 2906 616 
Q 2728 306 2450 153 
Q 2172 0 1784 0 
Q 1141 0 747 490 
Q 353 981 353 1791 
Q 353 2603 747 3093 
Q 1141 3584 1784 3584 
Q 2172 3584 2450 3431 
Q 2728 3278 2906 2969 
L 2906 3500 
L 3481 3500 
L 3481 434 
z
" transform="scale(0.015625)"/>
      <path id="DejaVuSans-65" d="M 3597 1894 
L 3597 1613 
L 953 1613 
Q 991 1019 1311 708 
Q 1631 397 2203 397 
Q 2534 397 2845 478 
Q 3156 559 3463 722 
L 3463 178 
Q 3153 47 2828 -22 
Q 2503 -91 2169 -91 
Q 1331 -91 842 396 
Q 353 884 353 1716 
Q 353 2575 817 3079 
Q 1281 3584 2069 3584 
Q 2775 3584 3186 3129 
Q 3597 2675 3597 1894 
z
M 3022 2063 
Q 3016 2534 2758 2815 
Q 2500 3097 2075 3097 
Q 1594 3097 1305 2825 
Q 1016 2553 972 2059 
L 3022 2063 
z
" transform="scale(0.015625)"/>
      <path id="DejaVuSans-74" d="M 1172 4494 
L 1172 3500 
L 2356 3500 
L 2356 3053 
L 1172 3053 
L 1172 1153 
Q 1172 725 1289 603 
Q 1406 481 1766 481 
L 2356 481 
L 2356 0 
L 1766 0 
Q 1100 0 847 248 
Q 594 497 594 1153 
L 594 3053 
L 172 3053 
L 172 3500 
L 594 3500 
L 594 4494 
L 1172 4494 
z
" transform="scale(0.015625)"/>
      <path id="DejaVuSans-5f" d="M 3263 -1063 
L 3263 -1509 
L -63 -1509 
L -63 -1063 
L 3263 -1063 
z
" transform="scale(0.015625)"/>
      <path id="DejaVuSans-73" d="M 2834 3397 
L 2834 2853 
Q 2591 2978 2328 3040 
Q 2066 3103 1784 3103 
Q 1356 3103 1142 2972 
Q 928 2841 928 2578 
Q 928 2378 1081 2264 
Q 1234 2150 1697 2047 
L 1894 2003 
Q 2506 1872 2764 1633 
Q 3022 1394 3022 966 
Q 3022 478 2636 193 
Q 2250 -91 1575 -91 
Q 1294 -91 989 -36 
Q 684 19 347 128 
L 347 722 
Q 666 556 975 473 
Q 1284 391 1588 391 
Q 1994 391 2212 530 
Q 2431 669 2431 922 
Q 2431 1156 2273 1281 
Q 2116 1406 1581 1522 
L 1381 1569 
Q 847 1681 609 1914 
Q 372 2147 372 2553 
Q 372 3047 722 3315 
Q 1072 3584 1716 3584 
Q 2034 3584 2315 3537 
Q 2597 3491 2834 3397 
z
" transform="scale(0.015625)"/>
      <path id="DejaVuSans-75" d="M 544 1381 
L 544 3500 
L 1119 3500 
L 1119 1403 
Q 1119 906 1312 657 
Q 1506 409 1894 409 
Q 2359 409 2629 706 
Q 2900 1003 2900 1516 
L 2900 3500 
L 3475 3500 
L 3475 0 
L 2900 0 
L 2900 538 
Q 2691 219 2414 64 
Q 2138 -91 1772 -91 
Q 1169 -91 856 284 
Q 544 659 544 1381 
z
M 1991 3584 
L 1991 3584 
z
" transform="scale(0.015625)"/>
      <path id="DejaVuSans-62" d="M 3116 1747 
Q 3116 2381 2855 2742 
Q 2594 3103 2138 3103 
Q 1681 3103 1420 2742 
Q 1159 2381 1159 1747 
Q 1159 1113 1420 752 
Q 1681 391 2138 391 
Q 2594 391 2855 752 
Q 3116 1113 3116 1747 
z
M 1159 2969 
Q 1341 3281 1617 3432 
Q 1894 3584 2278 3584 
Q 2916 3584 3314 3078 
Q 3713 2572 3713 1747 
Q 3713 922 3314 415 
Q 2916 -91 2278 -91 
Q 1894 -91 1617 61 
Q 1341 213 1159 525 
L 1159 0 
L 581 0 
L 581 4863 
L 1159 4863 
L 1159 2969 
z
" transform="scale(0.015625)"/>
      <path id="DejaVuSans-63" d="M 3122 3366 
L 3122 2828 
Q 2878 2963 2633 3030 
Q 2388 3097 2138 3097 
Q 1578 3097 1268 2742 
Q 959 2388 959 1747 
Q 959 1106 1268 751 
Q 1578 397 2138 397 
Q 2388 397 2633 464 
Q 2878 531 3122 666 
L 3122 134 
Q 2881 22 2623 -34 
Q 2366 -91 2075 -91 
Q 1284 -91 818 406 
Q 353 903 353 1747 
Q 353 2603 823 3093 
Q 1294 3584 2113 3584 
Q 2378 3584 2631 3529 
Q 2884 3475 3122 3366 
z
" transform="scale(0.015625)"/>
      <path id="DejaVuSans-72" d="M 2631 2963 
Q 2534 3019 2420 3045 
Q 2306 3072 2169 3072 
Q 1681 3072 1420 2755 
Q 1159 2438 1159 1844 
L 1159 0 
L 581 0 
L 581 3500 
L 1159 3500 
L 1159 2956 
Q 1341 3275 1631 3429 
Q 1922 3584 2338 3584 
Q 2397 3584 2469 3576 
Q 2541 3569 2628 3553 
L 2631 2963 
z
" transform="scale(0.015625)"/>
      <path id="DejaVuSans-69" d="M 603 3500 
L 1178 3500 
L 1178 0 
L 603 0 
L 603 3500 
z
M 603 4863 
L 1178 4863 
L 1178 4134 
L 603 4134 
L 603 4863 
z
" transform="scale(0.015625)"/>
      <path id="DejaVuSans-20" transform="scale(0.015625)"/>
      <path id="DejaVuSans-68" d="M 3513 2113 
L 3513 0 
L 2938 0 
L 2938 2094 
Q 2938 2591 2744 2837 
Q 2550 3084 2163 3084 
Q 1697 3084 1428 2787 
Q 1159 2491 1159 1978 
L 1159 0 
L 581 0 
L 581 4863 
L 1159 4863 
L 1159 2956 
Q 1366 3272 1645 3428 
Q 1925 3584 2291 3584 
Q 2894 3584 3203 3211 
Q 3513 2838 3513 2113 
z
" transform="scale(0.015625)"/>
      <path id="DejaVuSans-6f" d="M 1959 3097 
Q 1497 3097 1228 2736 
Q 959 2375 959 1747 
Q 959 1119 1226 758 
Q 1494 397 1959 397 
Q 2419 397 2687 759 
Q 2956 1122 2956 1747 
Q 2956 2369 2687 2733 
Q 2419 3097 1959 3097 
z
M 1959 3584 
Q 2709 3584 3137 3096 
Q 3566 2609 3566 1747 
Q 3566 888 3137 398 
Q 2709 -91 1959 -91 
Q 1206 -91 779 398 
Q 353 888 353 1747 
Q 353 2609 779 3096 
Q 1206 3584 1959 3584 
z
" transform="scale(0.015625)"/>
      <path id="DejaVuSans-79" d="M 2059 -325 
Q 1816 -950 1584 -1140 
Q 1353 -1331 966 -1331 
L 506 -1331 
L 506 -850 
L 844 -850 
Q 1081 -850 1212 -737 
Q 1344 -625 1503 -206 
L 1606 56 
L 191 3500 
L 800 3500 
L 1894 763 
L 2988 3500 
L 3597 3500 
L 2059 -325 
z
" transform="scale(0.015625)"/>
     </defs>
     <use xlink:href="#DejaVuSans-67"/>
     <use xlink:href="#DejaVuSans-65" x="63.476562"/>
     <use xlink:href="#DejaVuSans-74" x="125"/>
     <use xlink:href="#DejaVuSans-5f" x="164.208984"/>
     <use xlink:href="#DejaVuSans-73" x="214.208984"/>
     <use xlink:href="#DejaVuSans-75" x="266.308594"/>
     <use xlink:href="#DejaVuSans-62" x="329.6875"/>
     <use xlink:href="#DejaVuSans-73" x="393.164062"/>
     <use xlink:href="#DejaVuSans-63" x="445.263672"/>
     <use xlink:href="#DejaVuSans-72" x="500.244141"/>
     <use xlink:href="#DejaVuSans-69" x="541.357422"/>
     <use xlink:href="#DejaVuSans-62" x="569.140625"/>
     <use xlink:href="#DejaVuSans-65" x="632.617188"/>
     <use xlink:href="#DejaVuSans-20" x="694.140625"/>
     <use xlink:href="#DejaVuSans-68" x="725.927734"/>
     <use xlink:href="#DejaVuSans-69" x="789.306641"/>
     <use xlink:href="#DejaVuSans-73" x="817.089844"/>
     <use xlink:href="#DejaVuSans-74" x="869.189453"/>
     <use xlink:href="#DejaVuSans-6f" x="908.398438"/>
     <use xlink:href="#DejaVuSans-72" x="969.580078"/>
     <use xlink:href="#DejaVuSans-79" x="1010.693359"/>
    </g>
   </g>
   <g id="legend_1">
    <g id="line2d_41">
     <path d="M 815.08 328.498438 
L 825.08 328.498438 
L 835.08 328.498438 
" style="fill: none; stroke: #1f77b4; stroke-width: 1.5; stroke-linecap: square"/>
    </g>
    <g id="text_21">
     <!-- star -->
     <g style="fill: #a9a9a9" transform="translate(843.08 331.998438) scale(0.1 -0.1)">
      <defs>
       <path id="DejaVuSans-61" d="M 2194 1759 
Q 1497 1759 1228 1600 
Q 959 1441 959 1056 
Q 959 750 1161 570 
Q 1363 391 1709 391 
Q 2188 391 2477 730 
Q 2766 1069 2766 1631 
L 2766 1759 
L 2194 1759 
z
M 3341 1997 
L 3341 0 
L 2766 0 
L 2766 531 
Q 2569 213 2275 61 
Q 1981 -91 1556 -91 
Q 1019 -91 701 211 
Q 384 513 384 1019 
Q 384 1609 779 1909 
Q 1175 2209 1959 2209 
L 2766 2209 
L 2766 2266 
Q 2766 2663 2505 2880 
Q 2244 3097 1772 3097 
Q 1472 3097 1187 3025 
Q 903 2953 641 2809 
L 641 3341 
Q 956 3463 1253 3523 
Q 1550 3584 1831 3584 
Q 2591 3584 2966 3190 
Q 3341 2797 3341 1997 
z
" transform="scale(0.015625)"/>
      </defs>
      <use xlink:href="#DejaVuSans-73"/>
      <use xlink:href="#DejaVuSans-74" x="52.099609"/>
      <use xlink:href="#DejaVuSans-61" x="91.308594"/>
      <use xlink:href="#DejaVuSans-72" x="152.587891"/>
     </g>
    </g>
    <g id="line2d_42">
     <path d="M 815.08 343.176562 
L 825.08 343.176562 
L 835.08 343.176562 
" style="fill: none; stroke: #ff7f0e; stroke-width: 1.5; stroke-linecap: square"/>
    </g>
    <g id="text_22">
     <!-- fork -->
     <g style="fill: #a9a9a9" transform="translate(843.08 346.676562) scale(0.1 -0.1)">
      <defs>
       <path id="DejaVuSans-66" d="M 2375 4863 
L 2375 4384 
L 1825 4384 
Q 1516 4384 1395 4259 
Q 1275 4134 1275 3809 
L 1275 3500 
L 2222 3500 
L 2222 3053 
L 1275 3053 
L 1275 0 
L 697 0 
L 697 3053 
L 147 3053 
L 147 3500 
L 697 3500 
L 697 3744 
Q 697 4328 969 4595 
Q 1241 4863 1831 4863 
L 2375 4863 
z
" transform="scale(0.015625)"/>
       <path id="DejaVuSans-6b" d="M 581 4863 
L 1159 4863 
L 1159 1991 
L 2875 3500 
L 3609 3500 
L 1753 1863 
L 3688 0 
L 2938 0 
L 1159 1709 
L 1159 0 
L 581 0 
L 581 4863 
z
" transform="scale(0.015625)"/>
      </defs>
      <use xlink:href="#DejaVuSans-66"/>
      <use xlink:href="#DejaVuSans-6f" x="35.205078"/>
      <use xlink:href="#DejaVuSans-72" x="96.386719"/>
      <use xlink:href="#DejaVuSans-6b" x="137.5"/>
     </g>
    </g>
   </g>
  </g>
 </g>
 <defs>
  <clipPath id="p0581db52f9">
   <rect x="108" y="43.2" width="669.6" height="277.2"/>
  </clipPath>
 </defs>
</svg>
