<?xml version="1.0" encoding="utf-8" standalone="no"?>
<!DOCTYPE svg PUBLIC "-//W3C//DTD SVG 1.1//EN"
  "http://www.w3.org/Graphics/SVG/1.1/DTD/svg11.dtd">
<svg xmlns:xlink="http://www.w3.org/1999/xlink" width="864pt" height="360pt" viewBox="0 0 864 360" xmlns="http://www.w3.org/2000/svg" version="1.1">
 <metadata>
  <rdf:RDF xmlns:dc="http://purl.org/dc/elements/1.1/" xmlns:cc="http://creativecommons.org/ns#" xmlns:rdf="http://www.w3.org/1999/02/22-rdf-syntax-ns#">
   <cc:Work>
    <dc:type rdf:resource="http://purl.org/dc/dcmitype/StillImage"/>
    <dc:date>2023-09-02T08:43:48.742192</dc:date>
    <dc:format>image/svg+xml</dc:format>
    <dc:creator>
     <cc:Agent>
      <dc:title>Matplotlib v3.7.2, https://matplotlib.org/</dc:title>
     </cc:Agent>
    </dc:creator>
   </cc:Work>
  </rdf:RDF>
 </metadata>
 <defs>
  <style type="text/css">*{stroke-linejoin: round; stroke-linecap: butt}</style>
 </defs>
 <g id="figure_1">
  <g id="patch_1">
   <path d="M 0 360 
L 864 360 
L 864 0 
L 0 0 
L 0 360 
z
" style="fill: none; opacity: 0"/>
  </g>
  <g id="axes_1">
   <g id="patch_2">
    <path d="M 108 320.4 
L 777.6 320.4 
L 777.6 43.2 
L 108 43.2 
L 108 320.4 
z
" style="fill: none; opacity: 0"/>
   </g>
   <g id="matplotlib.axis_1">
    <g id="xtick_1">
     <g id="line2d_1">
      <path d="M 120.253601 320.4 
L 120.253601 43.2 
" clip-path="url(#pbba55077c0)" style="fill: none; stroke-dasharray: 5.12,1.28,0.8,1.28; stroke-dashoffset: 0; stroke: #b0b0b0; stroke-width: 0.8"/>
     </g>
     <g id="line2d_2">
      <defs>
       <path id="me5107c96e9" d="M 0 0 
L 0 3.5 
" style="stroke: #a9a9a9; stroke-width: 0.8"/>
      </defs>
      <g>
       <use xlink:href="#me5107c96e9" x="120.253601" y="320.4" style="fill: #a9a9a9; stroke: #a9a9a9; stroke-width: 0.8"/>
      </g>
     </g>
     <g id="text_1">
      <!-- 2021-07 -->
      <g style="fill: #a9a9a9" transform="translate(99.362195 334.998438) scale(0.1 -0.1)">
       <defs>
        <path id="DejaVuSans-32" d="M 1228 531 
L 3431 531 
L 3431 0 
L 469 0 
L 469 531 
Q 828 903 1448 1529 
Q 2069 2156 2228 2338 
Q 2531 2678 2651 2914 
Q 2772 3150 2772 3378 
Q 2772 3750 2511 3984 
Q 2250 4219 1831 4219 
Q 1534 4219 1204 4116 
Q 875 4013 500 3803 
L 500 4441 
Q 881 4594 1212 4672 
Q 1544 4750 1819 4750 
Q 2544 4750 2975 4387 
Q 3406 4025 3406 3419 
Q 3406 3131 3298 2873 
Q 3191 2616 2906 2266 
Q 2828 2175 2409 1742 
Q 1991 1309 1228 531 
z
" transform="scale(0.015625)"/>
        <path id="DejaVuSans-30" d="M 2034 4250 
Q 1547 4250 1301 3770 
Q 1056 3291 1056 2328 
Q 1056 1369 1301 889 
Q 1547 409 2034 409 
Q 2525 409 2770 889 
Q 3016 1369 3016 2328 
Q 3016 3291 2770 3770 
Q 2525 4250 2034 4250 
z
M 2034 4750 
Q 2819 4750 3233 4129 
Q 3647 3509 3647 2328 
Q 3647 1150 3233 529 
Q 2819 -91 2034 -91 
Q 1250 -91 836 529 
Q 422 1150 422 2328 
Q 422 3509 836 4129 
Q 1250 4750 2034 4750 
z
" transform="scale(0.015625)"/>
        <path id="DejaVuSans-31" d="M 794 531 
L 1825 531 
L 1825 4091 
L 703 3866 
L 703 4441 
L 1819 4666 
L 2450 4666 
L 2450 531 
L 3481 531 
L 3481 0 
L 794 0 
L 794 531 
z
" transform="scale(0.015625)"/>
        <path id="DejaVuSans-2d" d="M 313 2009 
L 1997 2009 
L 1997 1497 
L 313 1497 
L 313 2009 
z
" transform="scale(0.015625)"/>
        <path id="DejaVuSans-37" d="M 525 4666 
L 3525 4666 
L 3525 4397 
L 1831 0 
L 1172 0 
L 2766 4134 
L 525 4134 
L 525 4666 
z
" transform="scale(0.015625)"/>
       </defs>
       <use xlink:href="#DejaVuSans-32"/>
       <use xlink:href="#DejaVuSans-30" x="63.623047"/>
       <use xlink:href="#DejaVuSans-32" x="127.246094"/>
       <use xlink:href="#DejaVuSans-31" x="190.869141"/>
       <use xlink:href="#DejaVuSans-2d" x="254.492188"/>
       <use xlink:href="#DejaVuSans-30" x="290.576172"/>
       <use xlink:href="#DejaVuSans-37" x="354.199219"/>
      </g>
     </g>
    </g>
    <g id="xtick_2">
     <g id="line2d_3">
      <path d="M 192.984652 320.4 
L 192.984652 43.2 
" clip-path="url(#pbba55077c0)" style="fill: none; stroke-dasharray: 5.12,1.28,0.8,1.28; stroke-dashoffset: 0; stroke: #b0b0b0; stroke-width: 0.8"/>
     </g>
     <g id="line2d_4">
      <g>
       <use xlink:href="#me5107c96e9" x="192.984652" y="320.4" style="fill: #a9a9a9; stroke: #a9a9a9; stroke-width: 0.8"/>
      </g>
     </g>
     <g id="text_2">
      <!-- 2021-10 -->
      <g style="fill: #a9a9a9" transform="translate(172.093245 334.998438) scale(0.1 -0.1)">
       <use xlink:href="#DejaVuSans-32"/>
       <use xlink:href="#DejaVuSans-30" x="63.623047"/>
       <use xlink:href="#DejaVuSans-32" x="127.246094"/>
       <use xlink:href="#DejaVuSans-31" x="190.869141"/>
       <use xlink:href="#DejaVuSans-2d" x="254.492188"/>
       <use xlink:href="#DejaVuSans-31" x="290.576172"/>
       <use xlink:href="#DejaVuSans-30" x="354.199219"/>
      </g>
     </g>
    </g>
    <g id="xtick_3">
     <g id="line2d_5">
      <path d="M 265.715702 320.4 
L 265.715702 43.2 
" clip-path="url(#pbba55077c0)" style="fill: none; stroke-dasharray: 5.12,1.28,0.8,1.28; stroke-dashoffset: 0; stroke: #b0b0b0; stroke-width: 0.8"/>
     </g>
     <g id="line2d_6">
      <g>
       <use xlink:href="#me5107c96e9" x="265.715702" y="320.4" style="fill: #a9a9a9; stroke: #a9a9a9; stroke-width: 0.8"/>
      </g>
     </g>
     <g id="text_3">
      <!-- 2022-01 -->
      <g style="fill: #a9a9a9" transform="translate(244.824296 334.998438) scale(0.1 -0.1)">
       <use xlink:href="#DejaVuSans-32"/>
       <use xlink:href="#DejaVuSans-30" x="63.623047"/>
       <use xlink:href="#DejaVuSans-32" x="127.246094"/>
       <use xlink:href="#DejaVuSans-32" x="190.869141"/>
       <use xlink:href="#DejaVuSans-2d" x="254.492188"/>
       <use xlink:href="#DejaVuSans-30" x="290.576172"/>
       <use xlink:href="#DejaVuSans-31" x="354.199219"/>
      </g>
     </g>
    </g>
    <g id="xtick_4">
     <g id="line2d_7">
      <path d="M 336.865643 320.4 
L 336.865643 43.2 
" clip-path="url(#pbba55077c0)" style="fill: none; stroke-dasharray: 5.12,1.28,0.8,1.28; stroke-dashoffset: 0; stroke: #b0b0b0; stroke-width: 0.8"/>
     </g>
     <g id="line2d_8">
      <g>
       <use xlink:href="#me5107c96e9" x="336.865643" y="320.4" style="fill: #a9a9a9; stroke: #a9a9a9; stroke-width: 0.8"/>
      </g>
     </g>
     <g id="text_4">
      <!-- 2022-04 -->
      <g style="fill: #a9a9a9" transform="translate(315.974237 334.998438) scale(0.1 -0.1)">
       <defs>
        <path id="DejaVuSans-34" d="M 2419 4116 
L 825 1625 
L 2419 1625 
L 2419 4116 
z
M 2253 4666 
L 3047 4666 
L 3047 1625 
L 3713 1625 
L 3713 1100 
L 3047 1100 
L 3047 0 
L 2419 0 
L 2419 1100 
L 313 1100 
L 313 1709 
L 2253 4666 
z
" transform="scale(0.015625)"/>
       </defs>
       <use xlink:href="#DejaVuSans-32"/>
       <use xlink:href="#DejaVuSans-30" x="63.623047"/>
       <use xlink:href="#DejaVuSans-32" x="127.246094"/>
       <use xlink:href="#DejaVuSans-32" x="190.869141"/>
       <use xlink:href="#DejaVuSans-2d" x="254.492188"/>
       <use xlink:href="#DejaVuSans-30" x="290.576172"/>
       <use xlink:href="#DejaVuSans-34" x="354.199219"/>
      </g>
     </g>
    </g>
    <g id="xtick_5">
     <g id="line2d_9">
      <path d="M 408.806139 320.4 
L 408.806139 43.2 
" clip-path="url(#pbba55077c0)" style="fill: none; stroke-dasharray: 5.12,1.28,0.8,1.28; stroke-dashoffset: 0; stroke: #b0b0b0; stroke-width: 0.8"/>
     </g>
     <g id="line2d_10">
      <g>
       <use xlink:href="#me5107c96e9" x="408.806139" y="320.4" style="fill: #a9a9a9; stroke: #a9a9a9; stroke-width: 0.8"/>
      </g>
     </g>
     <g id="text_5">
      <!-- 2022-07 -->
      <g style="fill: #a9a9a9" transform="translate(387.914733 334.998438) scale(0.1 -0.1)">
       <use xlink:href="#DejaVuSans-32"/>
       <use xlink:href="#DejaVuSans-30" x="63.623047"/>
       <use xlink:href="#DejaVuSans-32" x="127.246094"/>
       <use xlink:href="#DejaVuSans-32" x="190.869141"/>
       <use xlink:href="#DejaVuSans-2d" x="254.492188"/>
       <use xlink:href="#DejaVuSans-30" x="290.576172"/>
       <use xlink:href="#DejaVuSans-37" x="354.199219"/>
      </g>
     </g>
    </g>
    <g id="xtick_6">
     <g id="line2d_11">
      <path d="M 481.53719 320.4 
L 481.53719 43.2 
" clip-path="url(#pbba55077c0)" style="fill: none; stroke-dasharray: 5.12,1.28,0.8,1.28; stroke-dashoffset: 0; stroke: #b0b0b0; stroke-width: 0.8"/>
     </g>
     <g id="line2d_12">
      <g>
       <use xlink:href="#me5107c96e9" x="481.53719" y="320.4" style="fill: #a9a9a9; stroke: #a9a9a9; stroke-width: 0.8"/>
      </g>
     </g>
     <g id="text_6">
      <!-- 2022-10 -->
      <g style="fill: #a9a9a9" transform="translate(460.645784 334.998438) scale(0.1 -0.1)">
       <use xlink:href="#DejaVuSans-32"/>
       <use xlink:href="#DejaVuSans-30" x="63.623047"/>
       <use xlink:href="#DejaVuSans-32" x="127.246094"/>
       <use xlink:href="#DejaVuSans-32" x="190.869141"/>
       <use xlink:href="#DejaVuSans-2d" x="254.492188"/>
       <use xlink:href="#DejaVuSans-31" x="290.576172"/>
       <use xlink:href="#DejaVuSans-30" x="354.199219"/>
      </g>
     </g>
    </g>
    <g id="xtick_7">
     <g id="line2d_13">
      <path d="M 554.268241 320.4 
L 554.268241 43.2 
" clip-path="url(#pbba55077c0)" style="fill: none; stroke-dasharray: 5.12,1.28,0.8,1.28; stroke-dashoffset: 0; stroke: #b0b0b0; stroke-width: 0.8"/>
     </g>
     <g id="line2d_14">
      <g>
       <use xlink:href="#me5107c96e9" x="554.268241" y="320.4" style="fill: #a9a9a9; stroke: #a9a9a9; stroke-width: 0.8"/>
      </g>
     </g>
     <g id="text_7">
      <!-- 2023-01 -->
      <g style="fill: #a9a9a9" transform="translate(533.376835 334.998438) scale(0.1 -0.1)">
       <defs>
        <path id="DejaVuSans-33" d="M 2597 2516 
Q 3050 2419 3304 2112 
Q 3559 1806 3559 1356 
Q 3559 666 3084 287 
Q 2609 -91 1734 -91 
Q 1441 -91 1130 -33 
Q 819 25 488 141 
L 488 750 
Q 750 597 1062 519 
Q 1375 441 1716 441 
Q 2309 441 2620 675 
Q 2931 909 2931 1356 
Q 2931 1769 2642 2001 
Q 2353 2234 1838 2234 
L 1294 2234 
L 1294 2753 
L 1863 2753 
Q 2328 2753 2575 2939 
Q 2822 3125 2822 3475 
Q 2822 3834 2567 4026 
Q 2313 4219 1838 4219 
Q 1578 4219 1281 4162 
Q 984 4106 628 3988 
L 628 4550 
Q 988 4650 1302 4700 
Q 1616 4750 1894 4750 
Q 2613 4750 3031 4423 
Q 3450 4097 3450 3541 
Q 3450 3153 3228 2886 
Q 3006 2619 2597 2516 
z
" transform="scale(0.015625)"/>
       </defs>
       <use xlink:href="#DejaVuSans-32"/>
       <use xlink:href="#DejaVuSans-30" x="63.623047"/>
       <use xlink:href="#DejaVuSans-32" x="127.246094"/>
       <use xlink:href="#DejaVuSans-33" x="190.869141"/>
       <use xlink:href="#DejaVuSans-2d" x="254.492188"/>
       <use xlink:href="#DejaVuSans-30" x="290.576172"/>
       <use xlink:href="#DejaVuSans-31" x="354.199219"/>
      </g>
     </g>
    </g>
    <g id="xtick_8">
     <g id="line2d_15">
      <path d="M 625.418182 320.4 
L 625.418182 43.2 
" clip-path="url(#pbba55077c0)" style="fill: none; stroke-dasharray: 5.12,1.28,0.8,1.28; stroke-dashoffset: 0; stroke: #b0b0b0; stroke-width: 0.8"/>
     </g>
     <g id="line2d_16">
      <g>
       <use xlink:href="#me5107c96e9" x="625.418182" y="320.4" style="fill: #a9a9a9; stroke: #a9a9a9; stroke-width: 0.8"/>
      </g>
     </g>
     <g id="text_8">
      <!-- 2023-04 -->
      <g style="fill: #a9a9a9" transform="translate(604.526776 334.998438) scale(0.1 -0.1)">
       <use xlink:href="#DejaVuSans-32"/>
       <use xlink:href="#DejaVuSans-30" x="63.623047"/>
       <use xlink:href="#DejaVuSans-32" x="127.246094"/>
       <use xlink:href="#DejaVuSans-33" x="190.869141"/>
       <use xlink:href="#DejaVuSans-2d" x="254.492188"/>
       <use xlink:href="#DejaVuSans-30" x="290.576172"/>
       <use xlink:href="#DejaVuSans-34" x="354.199219"/>
      </g>
     </g>
    </g>
    <g id="xtick_9">
     <g id="line2d_17">
      <path d="M 697.358678 320.4 
L 697.358678 43.2 
" clip-path="url(#pbba55077c0)" style="fill: none; stroke-dasharray: 5.12,1.28,0.8,1.28; stroke-dashoffset: 0; stroke: #b0b0b0; stroke-width: 0.8"/>
     </g>
     <g id="line2d_18">
      <g>
       <use xlink:href="#me5107c96e9" x="697.358678" y="320.4" style="fill: #a9a9a9; stroke: #a9a9a9; stroke-width: 0.8"/>
      </g>
     </g>
     <g id="text_9">
      <!-- 2023-07 -->
      <g style="fill: #a9a9a9" transform="translate(676.467271 334.998438) scale(0.1 -0.1)">
       <use xlink:href="#DejaVuSans-32"/>
       <use xlink:href="#DejaVuSans-30" x="63.623047"/>
       <use xlink:href="#DejaVuSans-32" x="127.246094"/>
       <use xlink:href="#DejaVuSans-33" x="190.869141"/>
       <use xlink:href="#DejaVuSans-2d" x="254.492188"/>
       <use xlink:href="#DejaVuSans-30" x="290.576172"/>
       <use xlink:href="#DejaVuSans-37" x="354.199219"/>
      </g>
     </g>
    </g>
    <g id="xtick_10">
     <g id="line2d_19">
      <path d="M 770.089728 320.4 
L 770.089728 43.2 
" clip-path="url(#pbba55077c0)" style="fill: none; stroke-dasharray: 5.12,1.28,0.8,1.28; stroke-dashoffset: 0; stroke: #b0b0b0; stroke-width: 0.8"/>
     </g>
     <g id="line2d_20">
      <g>
       <use xlink:href="#me5107c96e9" x="770.089728" y="320.4" style="fill: #a9a9a9; stroke: #a9a9a9; stroke-width: 0.8"/>
      </g>
     </g>
     <g id="text_10">
      <!-- 2023-10 -->
      <g style="fill: #a9a9a9" transform="translate(749.198322 334.998438) scale(0.1 -0.1)">
       <use xlink:href="#DejaVuSans-32"/>
       <use xlink:href="#DejaVuSans-30" x="63.623047"/>
       <use xlink:href="#DejaVuSans-32" x="127.246094"/>
       <use xlink:href="#DejaVuSans-33" x="190.869141"/>
       <use xlink:href="#DejaVuSans-2d" x="254.492188"/>
       <use xlink:href="#DejaVuSans-31" x="290.576172"/>
       <use xlink:href="#DejaVuSans-30" x="354.199219"/>
      </g>
     </g>
    </g>
   </g>
   <g id="matplotlib.axis_2">
    <g id="ytick_1">
     <g id="line2d_21">
      <path d="M 108 307.852875 
L 777.6 307.852875 
" clip-path="url(#pbba55077c0)" style="fill: none; stroke-dasharray: 5.12,1.28,0.8,1.28; stroke-dashoffset: 0; stroke: #b0b0b0; stroke-width: 0.8"/>
     </g>
     <g id="line2d_22">
      <defs>
       <path id="m7a1ff97150" d="M 0 0 
L -3.5 0 
" style="stroke: #a9a9a9; stroke-width: 0.8"/>
      </defs>
      <g>
       <use xlink:href="#m7a1ff97150" x="108" y="307.852875" style="fill: #a9a9a9; stroke: #a9a9a9; stroke-width: 0.8"/>
      </g>
     </g>
     <g id="text_11">
      <!-- 0 -->
      <g style="fill: #a9a9a9" transform="translate(94.6375 311.652093) scale(0.1 -0.1)">
       <use xlink:href="#DejaVuSans-30"/>
      </g>
     </g>
    </g>
    <g id="ytick_2">
     <g id="line2d_23">
      <path d="M 108 276.128158 
L 777.6 276.128158 
" clip-path="url(#pbba55077c0)" style="fill: none; stroke-dasharray: 5.12,1.28,0.8,1.28; stroke-dashoffset: 0; stroke: #b0b0b0; stroke-width: 0.8"/>
     </g>
     <g id="line2d_24">
      <g>
       <use xlink:href="#m7a1ff97150" x="108" y="276.128158" style="fill: #a9a9a9; stroke: #a9a9a9; stroke-width: 0.8"/>
      </g>
     </g>
     <g id="text_12">
      <!-- 600 -->
      <g style="fill: #a9a9a9" transform="translate(81.9125 279.927377) scale(0.1 -0.1)">
       <defs>
        <path id="DejaVuSans-36" d="M 2113 2584 
Q 1688 2584 1439 2293 
Q 1191 2003 1191 1497 
Q 1191 994 1439 701 
Q 1688 409 2113 409 
Q 2538 409 2786 701 
Q 3034 994 3034 1497 
Q 3034 2003 2786 2293 
Q 2538 2584 2113 2584 
z
M 3366 4563 
L 3366 3988 
Q 3128 4100 2886 4159 
Q 2644 4219 2406 4219 
Q 1781 4219 1451 3797 
Q 1122 3375 1075 2522 
Q 1259 2794 1537 2939 
Q 1816 3084 2150 3084 
Q 2853 3084 3261 2657 
Q 3669 2231 3669 1497 
Q 3669 778 3244 343 
Q 2819 -91 2113 -91 
Q 1303 -91 875 529 
Q 447 1150 447 2328 
Q 447 3434 972 4092 
Q 1497 4750 2381 4750 
Q 2619 4750 2861 4703 
Q 3103 4656 3366 4563 
z
" transform="scale(0.015625)"/>
       </defs>
       <use xlink:href="#DejaVuSans-36"/>
       <use xlink:href="#DejaVuSans-30" x="63.623047"/>
       <use xlink:href="#DejaVuSans-30" x="127.246094"/>
      </g>
     </g>
    </g>
    <g id="ytick_3">
     <g id="line2d_25">
      <path d="M 108 244.403441 
L 777.6 244.403441 
" clip-path="url(#pbba55077c0)" style="fill: none; stroke-dasharray: 5.12,1.28,0.8,1.28; stroke-dashoffset: 0; stroke: #b0b0b0; stroke-width: 0.8"/>
     </g>
     <g id="line2d_26">
      <g>
       <use xlink:href="#m7a1ff97150" x="108" y="244.403441" style="fill: #a9a9a9; stroke: #a9a9a9; stroke-width: 0.8"/>
      </g>
     </g>
     <g id="text_13">
      <!-- 1200 -->
      <g style="fill: #a9a9a9" transform="translate(75.55 248.20266) scale(0.1 -0.1)">
       <use xlink:href="#DejaVuSans-31"/>
       <use xlink:href="#DejaVuSans-32" x="63.623047"/>
       <use xlink:href="#DejaVuSans-30" x="127.246094"/>
       <use xlink:href="#DejaVuSans-30" x="190.869141"/>
      </g>
     </g>
    </g>
    <g id="ytick_4">
     <g id="line2d_27">
      <path d="M 108 212.678724 
L 777.6 212.678724 
" clip-path="url(#pbba55077c0)" style="fill: none; stroke-dasharray: 5.12,1.28,0.8,1.28; stroke-dashoffset: 0; stroke: #b0b0b0; stroke-width: 0.8"/>
     </g>
     <g id="line2d_28">
      <g>
       <use xlink:href="#m7a1ff97150" x="108" y="212.678724" style="fill: #a9a9a9; stroke: #a9a9a9; stroke-width: 0.8"/>
      </g>
     </g>
     <g id="text_14">
      <!-- 1800 -->
      <g style="fill: #a9a9a9" transform="translate(75.55 216.477943) scale(0.1 -0.1)">
       <defs>
        <path id="DejaVuSans-38" d="M 2034 2216 
Q 1584 2216 1326 1975 
Q 1069 1734 1069 1313 
Q 1069 891 1326 650 
Q 1584 409 2034 409 
Q 2484 409 2743 651 
Q 3003 894 3003 1313 
Q 3003 1734 2745 1975 
Q 2488 2216 2034 2216 
z
M 1403 2484 
Q 997 2584 770 2862 
Q 544 3141 544 3541 
Q 544 4100 942 4425 
Q 1341 4750 2034 4750 
Q 2731 4750 3128 4425 
Q 3525 4100 3525 3541 
Q 3525 3141 3298 2862 
Q 3072 2584 2669 2484 
Q 3125 2378 3379 2068 
Q 3634 1759 3634 1313 
Q 3634 634 3220 271 
Q 2806 -91 2034 -91 
Q 1263 -91 848 271 
Q 434 634 434 1313 
Q 434 1759 690 2068 
Q 947 2378 1403 2484 
z
M 1172 3481 
Q 1172 3119 1398 2916 
Q 1625 2713 2034 2713 
Q 2441 2713 2670 2916 
Q 2900 3119 2900 3481 
Q 2900 3844 2670 4047 
Q 2441 4250 2034 4250 
Q 1625 4250 1398 4047 
Q 1172 3844 1172 3481 
z
" transform="scale(0.015625)"/>
       </defs>
       <use xlink:href="#DejaVuSans-31"/>
       <use xlink:href="#DejaVuSans-38" x="63.623047"/>
       <use xlink:href="#DejaVuSans-30" x="127.246094"/>
       <use xlink:href="#DejaVuSans-30" x="190.869141"/>
      </g>
     </g>
    </g>
    <g id="ytick_5">
     <g id="line2d_29">
      <path d="M 108 180.954008 
L 777.6 180.954008 
" clip-path="url(#pbba55077c0)" style="fill: none; stroke-dasharray: 5.12,1.28,0.8,1.28; stroke-dashoffset: 0; stroke: #b0b0b0; stroke-width: 0.8"/>
     </g>
     <g id="line2d_30">
      <g>
       <use xlink:href="#m7a1ff97150" x="108" y="180.954008" style="fill: #a9a9a9; stroke: #a9a9a9; stroke-width: 0.8"/>
      </g>
     </g>
     <g id="text_15">
      <!-- 2400 -->
      <g style="fill: #a9a9a9" transform="translate(75.55 184.753226) scale(0.1 -0.1)">
       <use xlink:href="#DejaVuSans-32"/>
       <use xlink:href="#DejaVuSans-34" x="63.623047"/>
       <use xlink:href="#DejaVuSans-30" x="127.246094"/>
       <use xlink:href="#DejaVuSans-30" x="190.869141"/>
      </g>
     </g>
    </g>
    <g id="ytick_6">
     <g id="line2d_31">
      <path d="M 108 149.229291 
L 777.6 149.229291 
" clip-path="url(#pbba55077c0)" style="fill: none; stroke-dasharray: 5.12,1.28,0.8,1.28; stroke-dashoffset: 0; stroke: #b0b0b0; stroke-width: 0.8"/>
     </g>
     <g id="line2d_32">
      <g>
       <use xlink:href="#m7a1ff97150" x="108" y="149.229291" style="fill: #a9a9a9; stroke: #a9a9a9; stroke-width: 0.8"/>
      </g>
     </g>
     <g id="text_16">
      <!-- 3000 -->
      <g style="fill: #a9a9a9" transform="translate(75.55 153.02851) scale(0.1 -0.1)">
       <use xlink:href="#DejaVuSans-33"/>
       <use xlink:href="#DejaVuSans-30" x="63.623047"/>
       <use xlink:href="#DejaVuSans-30" x="127.246094"/>
       <use xlink:href="#DejaVuSans-30" x="190.869141"/>
      </g>
     </g>
    </g>
    <g id="ytick_7">
     <g id="line2d_33">
      <path d="M 108 117.504574 
L 777.6 117.504574 
" clip-path="url(#pbba55077c0)" style="fill: none; stroke-dasharray: 5.12,1.28,0.8,1.28; stroke-dashoffset: 0; stroke: #b0b0b0; stroke-width: 0.8"/>
     </g>
     <g id="line2d_34">
      <g>
       <use xlink:href="#m7a1ff97150" x="108" y="117.504574" style="fill: #a9a9a9; stroke: #a9a9a9; stroke-width: 0.8"/>
      </g>
     </g>
     <g id="text_17">
      <!-- 3600 -->
      <g style="fill: #a9a9a9" transform="translate(75.55 121.303793) scale(0.1 -0.1)">
       <use xlink:href="#DejaVuSans-33"/>
       <use xlink:href="#DejaVuSans-36" x="63.623047"/>
       <use xlink:href="#DejaVuSans-30" x="127.246094"/>
       <use xlink:href="#DejaVuSans-30" x="190.869141"/>
      </g>
     </g>
    </g>
    <g id="ytick_8">
     <g id="line2d_35">
      <path d="M 108 85.779857 
L 777.6 85.779857 
" clip-path="url(#pbba55077c0)" style="fill: none; stroke-dasharray: 5.12,1.28,0.8,1.28; stroke-dashoffset: 0; stroke: #b0b0b0; stroke-width: 0.8"/>
     </g>
     <g id="line2d_36">
      <g>
       <use xlink:href="#m7a1ff97150" x="108" y="85.779857" style="fill: #a9a9a9; stroke: #a9a9a9; stroke-width: 0.8"/>
      </g>
     </g>
     <g id="text_18">
      <!-- 4200 -->
      <g style="fill: #a9a9a9" transform="translate(75.55 89.579076) scale(0.1 -0.1)">
       <use xlink:href="#DejaVuSans-34"/>
       <use xlink:href="#DejaVuSans-32" x="63.623047"/>
       <use xlink:href="#DejaVuSans-30" x="127.246094"/>
       <use xlink:href="#DejaVuSans-30" x="190.869141"/>
      </g>
     </g>
    </g>
    <g id="ytick_9">
     <g id="line2d_37">
      <path d="M 108 54.055141 
L 777.6 54.055141 
" clip-path="url(#pbba55077c0)" style="fill: none; stroke-dasharray: 5.12,1.28,0.8,1.28; stroke-dashoffset: 0; stroke: #b0b0b0; stroke-width: 0.8"/>
     </g>
     <g id="line2d_38">
      <g>
       <use xlink:href="#m7a1ff97150" x="108" y="54.055141" style="fill: #a9a9a9; stroke: #a9a9a9; stroke-width: 0.8"/>
      </g>
     </g>
     <g id="text_19">
      <!-- 4800 -->
      <g style="fill: #a9a9a9" transform="translate(75.55 57.854359) scale(0.1 -0.1)">
       <use xlink:href="#DejaVuSans-34"/>
       <use xlink:href="#DejaVuSans-38" x="63.623047"/>
       <use xlink:href="#DejaVuSans-30" x="127.246094"/>
       <use xlink:href="#DejaVuSans-30" x="190.869141"/>
      </g>
     </g>
    </g>
   </g>
   <g id="line2d_39">
    <path d="M 138.436364 307.694251 
L 143.179693 307.324129 
L 143.970248 307.006882 
L 146.341913 306.742509 
L 151.875797 305.737893 
L 155.828571 305.367772 
L 156.619126 304.99765 
L 157.409681 304.786152 
L 158.200236 303.83441 
L 158.990791 303.305665 
L 159.781346 301.61368 
L 160.571901 301.507931 
L 161.362456 300.926311 
L 162.943566 300.186068 
L 164.524675 299.022828 
L 165.31523 298.282585 
L 166.89634 297.542342 
L 167.686895 297.225094 
L 168.47745 296.643475 
L 171.639669 295.321611 
L 172.430224 294.105497 
L 173.220779 293.471003 
L 174.801889 292.62501 
L 182.707438 291.514645 
L 183.497993 291.144524 
L 189.031877 290.721527 
L 190.612987 290.298531 
L 192.194097 289.981284 
L 198.518536 289.188166 
L 199.309091 288.76517 
L 200.099646 288.659421 
L 200.890201 288.342174 
L 202.471311 288.077801 
L 203.261865 288.024927 
L 204.05242 287.760554 
L 207.21464 287.284683 
L 208.79575 286.861687 
L 211.167414 286.650189 
L 212.748524 286.491565 
L 213.539079 286.280067 
L 214.329634 286.227193 
L 216.701299 285.539824 
L 221.444628 284.852455 
L 222.235183 284.588082 
L 223.025738 283.530592 
L 225.397403 282.684599 
L 227.769067 282.050105 
L 228.559622 281.679983 
L 229.350177 281.627109 
L 233.302952 280.569618 
L 234.884061 280.463869 
L 235.674616 280.35812 
L 238.046281 279.670751 
L 241.208501 278.930508 
L 241.999055 278.613261 
L 242.78961 278.507512 
L 243.580165 278.13739 
L 251.485714 276.97415 
L 255.438489 275.863785 
L 256.229044 275.387914 
L 259.391263 274.541922 
L 260.972373 273.643055 
L 261.762928 273.11431 
L 262.553483 273.008561 
L 263.344038 272.744188 
L 265.715702 272.321192 
L 266.506257 271.95107 
L 268.087367 271.686697 
L 269.668477 270.946454 
L 273.621251 269.994713 
L 275.992916 269.413093 
L 276.783471 269.095846 
L 277.574026 268.937222 
L 278.364581 268.619975 
L 279.155136 268.514226 
L 279.945691 268.144104 
L 280.736246 267.932606 
L 282.317355 267.826857 
L 283.898465 267.298112 
L 285.479575 267.192363 
L 286.27013 266.822241 
L 289.432349 266.293496 
L 292.594569 266.029123 
L 293.385124 265.870499 
L 294.966234 265.130256 
L 303.662338 261.587663 
L 304.452893 261.164666 
L 305.243447 260.318674 
L 306.034002 259.049685 
L 306.824557 258.045069 
L 307.615112 257.833571 
L 308.405667 257.833571 
L 309.986777 256.670332 
L 310.777332 256.458833 
L 311.567887 256.035837 
L 312.358442 255.877214 
L 313.148996 255.189845 
L 313.939551 254.978347 
L 316.311216 253.867982 
L 317.101771 252.91624 
L 317.892326 251.753 
L 318.682881 251.27713 
L 319.473436 250.008141 
L 320.263991 249.215023 
L 321.054545 248.844901 
L 321.8451 248.633403 
L 323.42621 247.681662 
L 324.216765 247.31154 
L 327.378985 244.985061 
L 328.16954 243.874696 
L 328.960094 242.076962 
L 329.750649 240.913722 
L 330.541204 240.332102 
L 331.331759 240.014855 
L 334.493979 237.371129 
L 335.284534 236.842384 
L 336.865643 235.467646 
L 337.656198 234.357281 
L 338.446753 233.617037 
L 340.027863 232.559547 
L 342.399528 230.973311 
L 343.190083 230.285942 
L 343.980638 230.074444 
L 346.352302 228.85833 
L 347.933412 227.959463 
L 348.723967 227.642216 
L 350.305077 226.214603 
L 351.095632 225.262862 
L 352.676741 224.205371 
L 353.467296 223.993873 
L 354.257851 223.623752 
L 355.048406 223.042132 
L 356.629516 222.196139 
L 357.420071 222.09039 
L 359.001181 221.244398 
L 359.791736 220.821402 
L 360.58229 220.028284 
L 361.372845 219.552413 
L 362.1634 219.28804 
L 362.953955 218.759295 
L 366.116175 217.173059 
L 366.90673 216.48569 
L 370.068949 215.4282 
L 370.859504 214.899454 
L 371.650059 214.740831 
L 373.231169 214.212086 
L 375.602834 213.313219 
L 377.974498 212.467226 
L 379.555608 212.202854 
L 381.136718 210.88099 
L 382.717828 210.140747 
L 385.089492 208.818884 
L 386.670602 208.395888 
L 387.461157 207.920017 
L 388.251712 207.708519 
L 390.623377 206.228032 
L 392.995041 205.699287 
L 395.366706 204.853294 
L 396.947816 203.954427 
L 397.738371 203.848678 
L 398.528926 203.584305 
L 400.110035 203.267058 
L 402.4817 201.575073 
L 404.853365 201.046328 
L 405.64392 200.781956 
L 406.434475 200.200336 
L 411.177804 198.719849 
L 411.968359 198.666974 
L 417.502243 196.763491 
L 418.292798 196.39337 
L 420.664463 195.864624 
L 422.245573 195.494503 
L 423.036128 195.124381 
L 423.826682 194.965757 
L 426.198347 193.908267 
L 428.570012 192.797902 
L 429.360567 192.269157 
L 430.151122 192.057658 
L 432.522786 190.841544 
L 434.103896 190.471423 
L 435.685006 189.678305 
L 437.266116 189.255308 
L 438.056671 189.149559 
L 438.847226 188.620814 
L 439.63778 188.250692 
L 440.428335 188.092069 
L 442.009445 187.457574 
L 442.8 187.298951 
L 443.590555 186.875955 
L 446.752774 186.400084 
L 448.333884 185.659841 
L 449.124439 185.025346 
L 449.914994 183.650608 
L 451.496104 183.333361 
L 452.286659 183.174738 
L 455.448878 181.588502 
L 456.239433 181.429878 
L 462.563872 178.41603 
L 464.935537 177.940159 
L 466.516647 177.199916 
L 467.307202 176.882669 
L 468.097757 176.77692 
L 471.259976 175.402182 
L 472.841086 174.344692 
L 473.631641 173.97457 
L 474.422196 173.868821 
L 475.212751 173.604448 
L 476.003306 173.551574 
L 479.165525 172.546958 
L 479.95608 172.494083 
L 480.746635 171.912463 
L 482.327745 171.383718 
L 484.69941 170.643475 
L 485.489965 170.167604 
L 486.280519 169.956106 
L 487.071074 169.42736 
L 487.861629 169.110113 
L 488.652184 168.634243 
L 490.233294 168.052623 
L 492.604959 167.312379 
L 493.395514 166.942258 
L 494.186068 166.360638 
L 494.976623 165.56752 
L 495.767178 165.038775 
L 496.557733 164.880151 
L 498.138843 163.716911 
L 498.929398 163.558288 
L 499.719953 162.395048 
L 500.510508 162.077801 
L 501.301063 161.496181 
L 502.091617 161.390432 
L 502.882172 160.861687 
L 503.672727 160.491565 
L 504.463282 160.332942 
L 505.253837 160.015695 
L 506.044392 159.3812 
L 506.834947 159.116828 
L 509.206612 157.583466 
L 512.368831 156.050105 
L 513.159386 155.944356 
L 514.740496 155.256987 
L 515.531051 154.781116 
L 516.321606 153.512128 
L 517.112161 152.71901 
L 517.902715 152.296013 
L 518.69327 152.13739 
L 520.27438 151.185648 
L 521.064935 151.027025 
L 522.646045 150.286781 
L 525.01771 149.33504 
L 526.598819 148.277549 
L 528.179929 146.638439 
L 529.761039 145.686697 
L 530.551594 145.210827 
L 531.342149 144.417709 
L 533.713813 142.514226 
L 534.504368 142.144104 
L 535.294923 141.298112 
L 536.085478 140.716492 
L 537.666588 140.187747 
L 538.457143 139.447503 
L 540.038253 138.654385 
L 540.828808 138.442887 
L 541.619362 137.861267 
L 542.409917 137.649769 
L 544.781582 136.433655 
L 545.572137 135.852035 
L 547.153247 135.217541 
L 547.943802 135.058917 
L 548.734357 134.583047 
L 554.268241 132.679564 
L 555.058796 131.992195 
L 558.221015 130.828955 
L 559.01157 130.617457 
L 559.802125 130.035837 
L 562.17379 128.978347 
L 562.964345 128.396727 
L 563.7549 127.973731 
L 565.336009 124.907008 
L 566.917119 123.109274 
L 567.707674 122.580529 
L 570.079339 121.575913 
L 570.869894 121.31154 
L 571.660449 121.205791 
L 572.451004 120.782795 
L 574.822668 120.042551 
L 577.194333 119.09081 
L 578.775443 118.086194 
L 581.147107 117.028703 
L 585.099882 114.807973 
L 585.890437 114.014855 
L 587.471547 113.168863 
L 588.262102 112.745867 
L 589.052656 112.481494 
L 589.843211 111.952749 
L 591.424321 111.212505 
L 592.214876 110.736634 
L 593.005431 110.419387 
L 593.795986 109.943517 
L 594.586541 109.732018 
L 595.377096 109.150399 
L 596.167651 108.833151 
L 596.958205 108.674528 
L 598.539315 108.040034 
L 600.91098 107.194041 
L 601.701535 106.612421 
L 603.282645 106.189425 
L 604.863754 105.607805 
L 605.654309 104.973311 
L 607.235419 104.49744 
L 608.025974 104.127319 
L 608.816529 103.91582 
L 610.397639 102.85833 
L 611.978749 102.170961 
L 613.559858 101.007721 
L 615.140968 100.478976 
L 615.931523 99.791607 
L 616.722078 99.632984 
L 617.512633 98.945615 
L 619.093743 98.046748 
L 620.674852 97.412253 
L 621.465407 96.619136 
L 623.837072 95.878892 
L 624.627627 95.403021 
L 625.418182 95.297272 
L 627.789847 94.134033 
L 630.952066 93.182291 
L 632.533176 92.970793 
L 633.323731 92.653546 
L 634.114286 92.494922 
L 635.695396 91.860428 
L 636.48595 91.807554 
L 638.857615 91.014436 
L 640.438725 90.062694 
L 642.019835 89.005204 
L 646.763164 86.731599 
L 649.134829 85.198238 
L 650.715939 84.828116 
L 652.297048 83.770625 
L 655.459268 82.818884 
L 656.249823 82.501637 
L 657.830933 82.131515 
L 661.783707 80.862526 
L 663.364817 80.545279 
L 664.945927 80.175157 
L 665.736482 79.805036 
L 666.527037 79.699287 
L 668.108146 79.064792 
L 668.898701 78.959043 
L 669.689256 78.588922 
L 671.270366 78.271674 
L 672.060921 77.901553 
L 674.432586 77.372807 
L 676.013695 77.05556 
L 683.128689 75.627948 
L 683.919244 75.310701 
L 684.709799 75.257826 
L 687.081464 74.623332 
L 687.872019 74.200336 
L 689.453129 73.67159 
L 690.243684 73.618716 
L 694.196458 72.455476 
L 698.149233 71.239362 
L 698.939787 71.027864 
L 699.730342 70.657742 
L 700.520897 70.657742 
L 702.102007 70.128997 
L 702.892562 69.335879 
L 703.683117 68.965757 
L 705.264227 68.489887 
L 708.426446 67.326647 
L 709.217001 67.115149 
L 710.007556 66.639278 
L 710.798111 66.480655 
L 711.588666 65.951909 
L 714.750885 65.000168 
L 715.54144 64.735795 
L 716.331995 64.259924 
L 717.12255 64.048426 
L 717.913105 63.413932 
L 720.28477 62.990936 
L 721.86588 62.144943 
L 722.656434 61.246076 
L 724.237544 60.928829 
L 728.980874 59.871339 
L 730.561983 59.448342 
L 732.143093 59.395468 
L 732.933648 59.025346 
L 735.305313 58.655225 
L 736.095868 58.443726 
L 736.886423 58.073605 
L 739.258087 57.756358 
L 740.839197 57.174738 
L 741.629752 56.804616 
L 742.420307 56.751742 
L 744.791972 56.222996 
L 747.163636 55.8 
L 747.163636 55.8 
" clip-path="url(#pbba55077c0)" style="fill: none; stroke: #1f77b4; stroke-width: 1.5; stroke-linecap: square"/>
   </g>
   <g id="line2d_40">
    <path d="M 139.226919 307.8 
L 141.598583 307.694251 
L 143.179693 307.588502 
L 148.713577 307.482753 
L 152.666352 307.324129 
L 155.828571 307.324129 
L 156.619126 307.112631 
L 158.990791 307.059757 
L 163.73412 306.531011 
L 175.592444 305.843642 
L 181.916883 305.737893 
L 185.869658 305.57927 
L 195.356316 305.473521 
L 199.309091 305.314897 
L 204.05242 305.209148 
L 207.21464 305.103399 
L 214.329634 304.99765 
L 216.701299 304.944775 
L 219.072963 304.891901 
L 221.444628 304.627528 
L 226.187957 304.574654 
L 227.769067 304.468905 
L 233.302952 304.363156 
L 241.999055 303.887285 
L 247.53294 303.781536 
L 249.11405 303.675787 
L 251.485714 303.570038 
L 256.229044 303.35854 
L 259.391263 303.305665 
L 261.762928 303.094167 
L 275.202361 302.301049 
L 277.574026 302.1953 
L 283.10791 301.930927 
L 285.479575 301.825178 
L 293.385124 301.402182 
L 302.081228 301.296433 
L 305.243447 300.979186 
L 306.824557 300.873437 
L 315.520661 300.238943 
L 316.311216 300.027444 
L 318.682881 299.815946 
L 320.263991 299.445825 
L 322.635655 299.39295 
L 325.00732 299.287201 
L 331.331759 298.494083 
L 335.284534 298.388334 
L 345.561747 297.595216 
L 350.305077 297.066471 
L 352.676741 297.013596 
L 354.257851 296.907847 
L 357.420071 296.802098 
L 359.001181 296.696349 
L 362.953955 296.326227 
L 363.74451 296.114729 
L 368.487839 295.903231 
L 372.440614 295.797482 
L 383.508383 295.162988 
L 385.089492 295.057239 
L 395.366706 294.475619 
L 400.90059 294.36987 
L 401.691145 294.211246 
L 408.015584 294.105497 
L 413.549469 293.841125 
L 422.245573 293.735376 
L 427.779457 293.471003 
L 434.103896 293.365254 
L 441.21889 292.995132 
L 445.96222 292.889383 
L 460.982763 291.990516 
L 467.307202 291.884767 
L 471.259976 291.514645 
L 472.841086 291.356022 
L 476.793861 291.303147 
L 479.95608 290.9859 
L 487.861629 290.562904 
L 492.604959 290.457155 
L 494.976623 290.40428 
L 497.348288 290.351406 
L 499.719953 290.139908 
L 506.044392 290.034159 
L 507.625502 289.769786 
L 509.206612 289.664037 
L 512.368831 289.558288 
L 514.740496 289.452539 
L 516.321606 289.34679 
L 523.4366 289.241041 
L 525.01771 289.082417 
L 528.179929 288.976668 
L 528.970484 288.76517 
L 530.551594 288.712295 
L 531.342149 288.553672 
L 533.713813 288.447923 
L 547.153247 287.654805 
L 549.524911 287.549056 
L 553.477686 287.390432 
L 564.545455 287.284683 
L 570.079339 287.020311 
L 576.403778 286.914561 
L 579.565998 286.808812 
L 582.728217 286.755938 
L 584.309327 286.597314 
L 587.471547 286.491565 
L 595.377096 286.068569 
L 600.120425 286.015695 
L 602.49209 285.804196 
L 604.863754 285.751322 
L 610.397639 285.645573 
L 613.559858 285.539824 
L 623.046517 285.434075 
L 626.999292 285.275451 
L 631.742621 285.169702 
L 634.114286 284.905329 
L 638.857615 284.852455 
L 639.64817 284.693831 
L 641.22928 284.588082 
L 644.391499 284.482333 
L 653.878158 284.376584 
L 657.830933 284.217961 
L 671.270366 284.165086 
L 672.851476 284.059337 
L 675.22314 284.006462 
L 685.500354 283.900713 
L 687.081464 283.794964 
L 695.777568 283.689215 
L 698.939787 283.583466 
L 708.426446 283.530592 
L 710.007556 283.424843 
L 721.86588 283.371968 
L 724.237544 283.16047 
L 737.676978 283.054721 
L 740.048642 283.001846 
L 747.163636 282.948972 
L 747.163636 282.948972 
" clip-path="url(#pbba55077c0)" style="fill: none; stroke: #ff7f0e; stroke-width: 1.5; stroke-linecap: square"/>
   </g>
   <g id="patch_3">
    <path d="M 108 320.4 
L 108 43.2 
" style="fill: none; stroke: #a9a9a9; stroke-width: 0.8; stroke-linejoin: miter; stroke-linecap: square"/>
   </g>
   <g id="patch_4">
    <path d="M 777.6 320.4 
L 777.6 43.2 
" style="fill: none"/>
   </g>
   <g id="patch_5">
    <path d="M 108 320.4 
L 777.6 320.4 
" style="fill: none; stroke: #a9a9a9; stroke-width: 0.8; stroke-linejoin: miter; stroke-linecap: square"/>
   </g>
   <g id="patch_6">
    <path d="M 108 43.2 
L 777.6 43.2 
" style="fill: none"/>
   </g>
   <g id="text_20">
    <!-- get_subscribe history -->
    <g style="fill: #a9a9a9" transform="translate(378.6075 37.2) scale(0.12 -0.12)">
     <defs>
      <path id="DejaVuSans-67" d="M 2906 1791 
Q 2906 2416 2648 2759 
Q 2391 3103 1925 3103 
Q 1463 3103 1205 2759 
Q 947 2416 947 1791 
Q 947 1169 1205 825 
Q 1463 481 1925 481 
Q 2391 481 2648 825 
Q 2906 1169 2906 1791 
z
M 3481 434 
Q 3481 -459 3084 -895 
Q 2688 -1331 1869 -1331 
Q 1566 -1331 1297 -1286 
Q 1028 -1241 775 -1147 
L 775 -588 
Q 1028 -725 1275 -790 
Q 1522 -856 1778 -856 
Q 2344 -856 2625 -561 
Q 2906 -266 2906 331 
L 2906 616 
Q 2728 306 2450 153 
Q 2172 0 1784 0 
Q 1141 0 747 490 
Q 353 981 353 1791 
Q 353 2603 747 3093 
Q 1141 3584 1784 3584 
Q 2172 3584 2450 3431 
Q 2728 3278 2906 2969 
L 2906 3500 
L 3481 3500 
L 3481 434 
z
" transform="scale(0.015625)"/>
      <path id="DejaVuSans-65" d="M 3597 1894 
L 3597 1613 
L 953 1613 
Q 991 1019 1311 708 
Q 1631 397 2203 397 
Q 2534 397 2845 478 
Q 3156 559 3463 722 
L 3463 178 
Q 3153 47 2828 -22 
Q 2503 -91 2169 -91 
Q 1331 -91 842 396 
Q 353 884 353 1716 
Q 353 2575 817 3079 
Q 1281 3584 2069 3584 
Q 2775 3584 3186 3129 
Q 3597 2675 3597 1894 
z
M 3022 2063 
Q 3016 2534 2758 2815 
Q 2500 3097 2075 3097 
Q 1594 3097 1305 2825 
Q 1016 2553 972 2059 
L 3022 2063 
z
" transform="scale(0.015625)"/>
      <path id="DejaVuSans-74" d="M 1172 4494 
L 1172 3500 
L 2356 3500 
L 2356 3053 
L 1172 3053 
L 1172 1153 
Q 1172 725 1289 603 
Q 1406 481 1766 481 
L 2356 481 
L 2356 0 
L 1766 0 
Q 1100 0 847 248 
Q 594 497 594 1153 
L 594 3053 
L 172 3053 
L 172 3500 
L 594 3500 
L 594 4494 
L 1172 4494 
z
" transform="scale(0.015625)"/>
      <path id="DejaVuSans-5f" d="M 3263 -1063 
L 3263 -1509 
L -63 -1509 
L -63 -1063 
L 3263 -1063 
z
" transform="scale(0.015625)"/>
      <path id="DejaVuSans-73" d="M 2834 3397 
L 2834 2853 
Q 2591 2978 2328 3040 
Q 2066 3103 1784 3103 
Q 1356 3103 1142 2972 
Q 928 2841 928 2578 
Q 928 2378 1081 2264 
Q 1234 2150 1697 2047 
L 1894 2003 
Q 2506 1872 2764 1633 
Q 3022 1394 3022 966 
Q 3022 478 2636 193 
Q 2250 -91 1575 -91 
Q 1294 -91 989 -36 
Q 684 19 347 128 
L 347 722 
Q 666 556 975 473 
Q 1284 391 1588 391 
Q 1994 391 2212 530 
Q 2431 669 2431 922 
Q 2431 1156 2273 1281 
Q 2116 1406 1581 1522 
L 1381 1569 
Q 847 1681 609 1914 
Q 372 2147 372 2553 
Q 372 3047 722 3315 
Q 1072 3584 1716 3584 
Q 2034 3584 2315 3537 
Q 2597 3491 2834 3397 
z
" transform="scale(0.015625)"/>
      <path id="DejaVuSans-75" d="M 544 1381 
L 544 3500 
L 1119 3500 
L 1119 1403 
Q 1119 906 1312 657 
Q 1506 409 1894 409 
Q 2359 409 2629 706 
Q 2900 1003 2900 1516 
L 2900 3500 
L 3475 3500 
L 3475 0 
L 2900 0 
L 2900 538 
Q 2691 219 2414 64 
Q 2138 -91 1772 -91 
Q 1169 -91 856 284 
Q 544 659 544 1381 
z
M 1991 3584 
L 1991 3584 
z
" transform="scale(0.015625)"/>
      <path id="DejaVuSans-62" d="M 3116 1747 
Q 3116 2381 2855 2742 
Q 2594 3103 2138 3103 
Q 1681 3103 1420 2742 
Q 1159 2381 1159 1747 
Q 1159 1113 1420 752 
Q 1681 391 2138 391 
Q 2594 391 2855 752 
Q 3116 1113 3116 1747 
z
M 1159 2969 
Q 1341 3281 1617 3432 
Q 1894 3584 2278 3584 
Q 2916 3584 3314 3078 
Q 3713 2572 3713 1747 
Q 3713 922 3314 415 
Q 2916 -91 2278 -91 
Q 1894 -91 1617 61 
Q 1341 213 1159 525 
L 1159 0 
L 581 0 
L 581 4863 
L 1159 4863 
L 1159 2969 
z
" transform="scale(0.015625)"/>
      <path id="DejaVuSans-63" d="M 3122 3366 
L 3122 2828 
Q 2878 2963 2633 3030 
Q 2388 3097 2138 3097 
Q 1578 3097 1268 2742 
Q 959 2388 959 1747 
Q 959 1106 1268 751 
Q 1578 397 2138 397 
Q 2388 397 2633 464 
Q 2878 531 3122 666 
L 3122 134 
Q 2881 22 2623 -34 
Q 2366 -91 2075 -91 
Q 1284 -91 818 406 
Q 353 903 353 1747 
Q 353 2603 823 3093 
Q 1294 3584 2113 3584 
Q 2378 3584 2631 3529 
Q 2884 3475 3122 3366 
z
" transform="scale(0.015625)"/>
      <path id="DejaVuSans-72" d="M 2631 2963 
Q 2534 3019 2420 3045 
Q 2306 3072 2169 3072 
Q 1681 3072 1420 2755 
Q 1159 2438 1159 1844 
L 1159 0 
L 581 0 
L 581 3500 
L 1159 3500 
L 1159 2956 
Q 1341 3275 1631 3429 
Q 1922 3584 2338 3584 
Q 2397 3584 2469 3576 
Q 2541 3569 2628 3553 
L 2631 2963 
z
" transform="scale(0.015625)"/>
      <path id="DejaVuSans-69" d="M 603 3500 
L 1178 3500 
L 1178 0 
L 603 0 
L 603 3500 
z
M 603 4863 
L 1178 4863 
L 1178 4134 
L 603 4134 
L 603 4863 
z
" transform="scale(0.015625)"/>
      <path id="DejaVuSans-20" transform="scale(0.015625)"/>
      <path id="DejaVuSans-68" d="M 3513 2113 
L 3513 0 
L 2938 0 
L 2938 2094 
Q 2938 2591 2744 2837 
Q 2550 3084 2163 3084 
Q 1697 3084 1428 2787 
Q 1159 2491 1159 1978 
L 1159 0 
L 581 0 
L 581 4863 
L 1159 4863 
L 1159 2956 
Q 1366 3272 1645 3428 
Q 1925 3584 2291 3584 
Q 2894 3584 3203 3211 
Q 3513 2838 3513 2113 
z
" transform="scale(0.015625)"/>
      <path id="DejaVuSans-6f" d="M 1959 3097 
Q 1497 3097 1228 2736 
Q 959 2375 959 1747 
Q 959 1119 1226 758 
Q 1494 397 1959 397 
Q 2419 397 2687 759 
Q 2956 1122 2956 1747 
Q 2956 2369 2687 2733 
Q 2419 3097 1959 3097 
z
M 1959 3584 
Q 2709 3584 3137 3096 
Q 3566 2609 3566 1747 
Q 3566 888 3137 398 
Q 2709 -91 1959 -91 
Q 1206 -91 779 398 
Q 353 888 353 1747 
Q 353 2609 779 3096 
Q 1206 3584 1959 3584 
z
" transform="scale(0.015625)"/>
      <path id="DejaVuSans-79" d="M 2059 -325 
Q 1816 -950 1584 -1140 
Q 1353 -1331 966 -1331 
L 506 -1331 
L 506 -850 
L 844 -850 
Q 1081 -850 1212 -737 
Q 1344 -625 1503 -206 
L 1606 56 
L 191 3500 
L 800 3500 
L 1894 763 
L 2988 3500 
L 3597 3500 
L 2059 -325 
z
" transform="scale(0.015625)"/>
     </defs>
     <use xlink:href="#DejaVuSans-67"/>
     <use xlink:href="#DejaVuSans-65" x="63.476562"/>
     <use xlink:href="#DejaVuSans-74" x="125"/>
     <use xlink:href="#DejaVuSans-5f" x="164.208984"/>
     <use xlink:href="#DejaVuSans-73" x="214.208984"/>
     <use xlink:href="#DejaVuSans-75" x="266.308594"/>
     <use xlink:href="#DejaVuSans-62" x="329.6875"/>
     <use xlink:href="#DejaVuSans-73" x="393.164062"/>
     <use xlink:href="#DejaVuSans-63" x="445.263672"/>
     <use xlink:href="#DejaVuSans-72" x="500.244141"/>
     <use xlink:href="#DejaVuSans-69" x="541.357422"/>
     <use xlink:href="#DejaVuSans-62" x="569.140625"/>
     <use xlink:href="#DejaVuSans-65" x="632.617188"/>
     <use xlink:href="#DejaVuSans-20" x="694.140625"/>
     <use xlink:href="#DejaVuSans-68" x="725.927734"/>
     <use xlink:href="#DejaVuSans-69" x="789.306641"/>
     <use xlink:href="#DejaVuSans-73" x="817.089844"/>
     <use xlink:href="#DejaVuSans-74" x="869.189453"/>
     <use xlink:href="#DejaVuSans-6f" x="908.398438"/>
     <use xlink:href="#DejaVuSans-72" x="969.580078"/>
     <use xlink:href="#DejaVuSans-79" x="1010.693359"/>
    </g>
   </g>
   <g id="legend_1">
    <g id="line2d_41">
     <path d="M 815.08 328.498438 
L 825.08 328.498438 
L 835.08 328.498438 
" style="fill: none; stroke: #1f77b4; stroke-width: 1.5; stroke-linecap: square"/>
    </g>
    <g id="text_21">
     <!-- star -->
     <g style="fill: #a9a9a9" transform="translate(843.08 331.998438) scale(0.1 -0.1)">
      <defs>
       <path id="DejaVuSans-61" d="M 2194 1759 
Q 1497 1759 1228 1600 
Q 959 1441 959 1056 
Q 959 750 1161 570 
Q 1363 391 1709 391 
Q 2188 391 2477 730 
Q 2766 1069 2766 1631 
L 2766 1759 
L 2194 1759 
z
M 3341 1997 
L 3341 0 
L 2766 0 
L 2766 531 
Q 2569 213 2275 61 
Q 1981 -91 1556 -91 
Q 1019 -91 701 211 
Q 384 513 384 1019 
Q 384 1609 779 1909 
Q 1175 2209 1959 2209 
L 2766 2209 
L 2766 2266 
Q 2766 2663 2505 2880 
Q 2244 3097 1772 3097 
Q 1472 3097 1187 3025 
Q 903 2953 641 2809 
L 641 3341 
Q 956 3463 1253 3523 
Q 1550 3584 1831 3584 
Q 2591 3584 2966 3190 
Q 3341 2797 3341 1997 
z
" transform="scale(0.015625)"/>
      </defs>
      <use xlink:href="#DejaVuSans-73"/>
      <use xlink:href="#DejaVuSans-74" x="52.099609"/>
      <use xlink:href="#DejaVuSans-61" x="91.308594"/>
      <use xlink:href="#DejaVuSans-72" x="152.587891"/>
     </g>
    </g>
    <g id="line2d_42">
     <path d="M 815.08 343.176562 
L 825.08 343.176562 
L 835.08 343.176562 
" style="fill: none; stroke: #ff7f0e; stroke-width: 1.5; stroke-linecap: square"/>
    </g>
    <g id="text_22">
     <!-- fork -->
     <g style="fill: #a9a9a9" transform="translate(843.08 346.676562) scale(0.1 -0.1)">
      <defs>
       <path id="DejaVuSans-66" d="M 2375 4863 
L 2375 4384 
L 1825 4384 
Q 1516 4384 1395 4259 
Q 1275 4134 1275 3809 
L 1275 3500 
L 2222 3500 
L 2222 3053 
L 1275 3053 
L 1275 0 
L 697 0 
L 697 3053 
L 147 3053 
L 147 3500 
L 697 3500 
L 697 3744 
Q 697 4328 969 4595 
Q 1241 4863 1831 4863 
L 2375 4863 
z
" transform="scale(0.015625)"/>
       <path id="DejaVuSans-6b" d="M 581 4863 
L 1159 4863 
L 1159 1991 
L 2875 3500 
L 3609 3500 
L 1753 1863 
L 3688 0 
L 2938 0 
L 1159 1709 
L 1159 0 
L 581 0 
L 581 4863 
z
" transform="scale(0.015625)"/>
      </defs>
      <use xlink:href="#DejaVuSans-66"/>
      <use xlink:href="#DejaVuSans-6f" x="35.205078"/>
      <use xlink:href="#DejaVuSans-72" x="96.386719"/>
      <use xlink:href="#DejaVuSans-6b" x="137.5"/>
     </g>
    </g>
   </g>
  </g>
 </g>
 <defs>
  <clipPath id="pbba55077c0">
   <rect x="108" y="43.2" width="669.6" height="277.2"/>
  </clipPath>
 </defs>
</svg>
