<?xml version="1.0" encoding="utf-8" standalone="no"?>
<!DOCTYPE svg PUBLIC "-//W3C//DTD SVG 1.1//EN"
  "http://www.w3.org/Graphics/SVG/1.1/DTD/svg11.dtd">
<svg xmlns:xlink="http://www.w3.org/1999/xlink" width="864pt" height="360pt" viewBox="0 0 864 360" xmlns="http://www.w3.org/2000/svg" version="1.1">
 <metadata>
  <rdf:RDF xmlns:dc="http://purl.org/dc/elements/1.1/" xmlns:cc="http://creativecommons.org/ns#" xmlns:rdf="http://www.w3.org/1999/02/22-rdf-syntax-ns#">
   <cc:Work>
    <dc:type rdf:resource="http://purl.org/dc/dcmitype/StillImage"/>
    <dc:date>2023-09-02T20:17:52.523046</dc:date>
    <dc:format>image/svg+xml</dc:format>
    <dc:creator>
     <cc:Agent>
      <dc:title>Matplotlib v3.7.2, https://matplotlib.org/</dc:title>
     </cc:Agent>
    </dc:creator>
   </cc:Work>
  </rdf:RDF>
 </metadata>
 <defs>
  <style type="text/css">*{stroke-linejoin: round; stroke-linecap: butt}</style>
 </defs>
 <g id="figure_1">
  <g id="patch_1">
   <path d="M 0 360 
L 864 360 
L 864 0 
L 0 0 
L 0 360 
z
" style="fill: none; opacity: 0"/>
  </g>
  <g id="axes_1">
   <g id="patch_2">
    <path d="M 108 320.4 
L 777.6 320.4 
L 777.6 43.2 
L 108 43.2 
L 108 320.4 
z
" style="fill: none; opacity: 0"/>
   </g>
   <g id="matplotlib.axis_1">
    <g id="xtick_1">
     <g id="line2d_1">
      <path d="M 120.253601 320.4 
L 120.253601 43.2 
" clip-path="url(#p80a74c18dd)" style="fill: none; stroke-dasharray: 5.12,1.28,0.8,1.28; stroke-dashoffset: 0; stroke: #b0b0b0; stroke-width: 0.8"/>
     </g>
     <g id="line2d_2">
      <defs>
       <path id="m5ed4f671eb" d="M 0 0 
L 0 3.5 
" style="stroke: #a9a9a9; stroke-width: 0.8"/>
      </defs>
      <g>
       <use xlink:href="#m5ed4f671eb" x="120.253601" y="320.4" style="fill: #a9a9a9; stroke: #a9a9a9; stroke-width: 0.8"/>
      </g>
     </g>
     <g id="text_1">
      <!-- 2021-07 -->
      <g style="fill: #a9a9a9" transform="translate(99.362195 334.998438) scale(0.1 -0.1)">
       <defs>
        <path id="DejaVuSans-32" d="M 1228 531 
L 3431 531 
L 3431 0 
L 469 0 
L 469 531 
Q 828 903 1448 1529 
Q 2069 2156 2228 2338 
Q 2531 2678 2651 2914 
Q 2772 3150 2772 3378 
Q 2772 3750 2511 3984 
Q 2250 4219 1831 4219 
Q 1534 4219 1204 4116 
Q 875 4013 500 3803 
L 500 4441 
Q 881 4594 1212 4672 
Q 1544 4750 1819 4750 
Q 2544 4750 2975 4387 
Q 3406 4025 3406 3419 
Q 3406 3131 3298 2873 
Q 3191 2616 2906 2266 
Q 2828 2175 2409 1742 
Q 1991 1309 1228 531 
z
" transform="scale(0.015625)"/>
        <path id="DejaVuSans-30" d="M 2034 4250 
Q 1547 4250 1301 3770 
Q 1056 3291 1056 2328 
Q 1056 1369 1301 889 
Q 1547 409 2034 409 
Q 2525 409 2770 889 
Q 3016 1369 3016 2328 
Q 3016 3291 2770 3770 
Q 2525 4250 2034 4250 
z
M 2034 4750 
Q 2819 4750 3233 4129 
Q 3647 3509 3647 2328 
Q 3647 1150 3233 529 
Q 2819 -91 2034 -91 
Q 1250 -91 836 529 
Q 422 1150 422 2328 
Q 422 3509 836 4129 
Q 1250 4750 2034 4750 
z
" transform="scale(0.015625)"/>
        <path id="DejaVuSans-31" d="M 794 531 
L 1825 531 
L 1825 4091 
L 703 3866 
L 703 4441 
L 1819 4666 
L 2450 4666 
L 2450 531 
L 3481 531 
L 3481 0 
L 794 0 
L 794 531 
z
" transform="scale(0.015625)"/>
        <path id="DejaVuSans-2d" d="M 313 2009 
L 1997 2009 
L 1997 1497 
L 313 1497 
L 313 2009 
z
" transform="scale(0.015625)"/>
        <path id="DejaVuSans-37" d="M 525 4666 
L 3525 4666 
L 3525 4397 
L 1831 0 
L 1172 0 
L 2766 4134 
L 525 4134 
L 525 4666 
z
" transform="scale(0.015625)"/>
       </defs>
       <use xlink:href="#DejaVuSans-32"/>
       <use xlink:href="#DejaVuSans-30" x="63.623047"/>
       <use xlink:href="#DejaVuSans-32" x="127.246094"/>
       <use xlink:href="#DejaVuSans-31" x="190.869141"/>
       <use xlink:href="#DejaVuSans-2d" x="254.492188"/>
       <use xlink:href="#DejaVuSans-30" x="290.576172"/>
       <use xlink:href="#DejaVuSans-37" x="354.199219"/>
      </g>
     </g>
    </g>
    <g id="xtick_2">
     <g id="line2d_3">
      <path d="M 192.984652 320.4 
L 192.984652 43.2 
" clip-path="url(#p80a74c18dd)" style="fill: none; stroke-dasharray: 5.12,1.28,0.8,1.28; stroke-dashoffset: 0; stroke: #b0b0b0; stroke-width: 0.8"/>
     </g>
     <g id="line2d_4">
      <g>
       <use xlink:href="#m5ed4f671eb" x="192.984652" y="320.4" style="fill: #a9a9a9; stroke: #a9a9a9; stroke-width: 0.8"/>
      </g>
     </g>
     <g id="text_2">
      <!-- 2021-10 -->
      <g style="fill: #a9a9a9" transform="translate(172.093245 334.998438) scale(0.1 -0.1)">
       <use xlink:href="#DejaVuSans-32"/>
       <use xlink:href="#DejaVuSans-30" x="63.623047"/>
       <use xlink:href="#DejaVuSans-32" x="127.246094"/>
       <use xlink:href="#DejaVuSans-31" x="190.869141"/>
       <use xlink:href="#DejaVuSans-2d" x="254.492188"/>
       <use xlink:href="#DejaVuSans-31" x="290.576172"/>
       <use xlink:href="#DejaVuSans-30" x="354.199219"/>
      </g>
     </g>
    </g>
    <g id="xtick_3">
     <g id="line2d_5">
      <path d="M 265.715702 320.4 
L 265.715702 43.2 
" clip-path="url(#p80a74c18dd)" style="fill: none; stroke-dasharray: 5.12,1.28,0.8,1.28; stroke-dashoffset: 0; stroke: #b0b0b0; stroke-width: 0.8"/>
     </g>
     <g id="line2d_6">
      <g>
       <use xlink:href="#m5ed4f671eb" x="265.715702" y="320.4" style="fill: #a9a9a9; stroke: #a9a9a9; stroke-width: 0.8"/>
      </g>
     </g>
     <g id="text_3">
      <!-- 2022-01 -->
      <g style="fill: #a9a9a9" transform="translate(244.824296 334.998438) scale(0.1 -0.1)">
       <use xlink:href="#DejaVuSans-32"/>
       <use xlink:href="#DejaVuSans-30" x="63.623047"/>
       <use xlink:href="#DejaVuSans-32" x="127.246094"/>
       <use xlink:href="#DejaVuSans-32" x="190.869141"/>
       <use xlink:href="#DejaVuSans-2d" x="254.492188"/>
       <use xlink:href="#DejaVuSans-30" x="290.576172"/>
       <use xlink:href="#DejaVuSans-31" x="354.199219"/>
      </g>
     </g>
    </g>
    <g id="xtick_4">
     <g id="line2d_7">
      <path d="M 336.865643 320.4 
L 336.865643 43.2 
" clip-path="url(#p80a74c18dd)" style="fill: none; stroke-dasharray: 5.12,1.28,0.8,1.28; stroke-dashoffset: 0; stroke: #b0b0b0; stroke-width: 0.8"/>
     </g>
     <g id="line2d_8">
      <g>
       <use xlink:href="#m5ed4f671eb" x="336.865643" y="320.4" style="fill: #a9a9a9; stroke: #a9a9a9; stroke-width: 0.8"/>
      </g>
     </g>
     <g id="text_4">
      <!-- 2022-04 -->
      <g style="fill: #a9a9a9" transform="translate(315.974237 334.998438) scale(0.1 -0.1)">
       <defs>
        <path id="DejaVuSans-34" d="M 2419 4116 
L 825 1625 
L 2419 1625 
L 2419 4116 
z
M 2253 4666 
L 3047 4666 
L 3047 1625 
L 3713 1625 
L 3713 1100 
L 3047 1100 
L 3047 0 
L 2419 0 
L 2419 1100 
L 313 1100 
L 313 1709 
L 2253 4666 
z
" transform="scale(0.015625)"/>
       </defs>
       <use xlink:href="#DejaVuSans-32"/>
       <use xlink:href="#DejaVuSans-30" x="63.623047"/>
       <use xlink:href="#DejaVuSans-32" x="127.246094"/>
       <use xlink:href="#DejaVuSans-32" x="190.869141"/>
       <use xlink:href="#DejaVuSans-2d" x="254.492188"/>
       <use xlink:href="#DejaVuSans-30" x="290.576172"/>
       <use xlink:href="#DejaVuSans-34" x="354.199219"/>
      </g>
     </g>
    </g>
    <g id="xtick_5">
     <g id="line2d_9">
      <path d="M 408.806139 320.4 
L 408.806139 43.2 
" clip-path="url(#p80a74c18dd)" style="fill: none; stroke-dasharray: 5.12,1.28,0.8,1.28; stroke-dashoffset: 0; stroke: #b0b0b0; stroke-width: 0.8"/>
     </g>
     <g id="line2d_10">
      <g>
       <use xlink:href="#m5ed4f671eb" x="408.806139" y="320.4" style="fill: #a9a9a9; stroke: #a9a9a9; stroke-width: 0.8"/>
      </g>
     </g>
     <g id="text_5">
      <!-- 2022-07 -->
      <g style="fill: #a9a9a9" transform="translate(387.914733 334.998438) scale(0.1 -0.1)">
       <use xlink:href="#DejaVuSans-32"/>
       <use xlink:href="#DejaVuSans-30" x="63.623047"/>
       <use xlink:href="#DejaVuSans-32" x="127.246094"/>
       <use xlink:href="#DejaVuSans-32" x="190.869141"/>
       <use xlink:href="#DejaVuSans-2d" x="254.492188"/>
       <use xlink:href="#DejaVuSans-30" x="290.576172"/>
       <use xlink:href="#DejaVuSans-37" x="354.199219"/>
      </g>
     </g>
    </g>
    <g id="xtick_6">
     <g id="line2d_11">
      <path d="M 481.53719 320.4 
L 481.53719 43.2 
" clip-path="url(#p80a74c18dd)" style="fill: none; stroke-dasharray: 5.12,1.28,0.8,1.28; stroke-dashoffset: 0; stroke: #b0b0b0; stroke-width: 0.8"/>
     </g>
     <g id="line2d_12">
      <g>
       <use xlink:href="#m5ed4f671eb" x="481.53719" y="320.4" style="fill: #a9a9a9; stroke: #a9a9a9; stroke-width: 0.8"/>
      </g>
     </g>
     <g id="text_6">
      <!-- 2022-10 -->
      <g style="fill: #a9a9a9" transform="translate(460.645784 334.998438) scale(0.1 -0.1)">
       <use xlink:href="#DejaVuSans-32"/>
       <use xlink:href="#DejaVuSans-30" x="63.623047"/>
       <use xlink:href="#DejaVuSans-32" x="127.246094"/>
       <use xlink:href="#DejaVuSans-32" x="190.869141"/>
       <use xlink:href="#DejaVuSans-2d" x="254.492188"/>
       <use xlink:href="#DejaVuSans-31" x="290.576172"/>
       <use xlink:href="#DejaVuSans-30" x="354.199219"/>
      </g>
     </g>
    </g>
    <g id="xtick_7">
     <g id="line2d_13">
      <path d="M 554.268241 320.4 
L 554.268241 43.2 
" clip-path="url(#p80a74c18dd)" style="fill: none; stroke-dasharray: 5.12,1.28,0.8,1.28; stroke-dashoffset: 0; stroke: #b0b0b0; stroke-width: 0.8"/>
     </g>
     <g id="line2d_14">
      <g>
       <use xlink:href="#m5ed4f671eb" x="554.268241" y="320.4" style="fill: #a9a9a9; stroke: #a9a9a9; stroke-width: 0.8"/>
      </g>
     </g>
     <g id="text_7">
      <!-- 2023-01 -->
      <g style="fill: #a9a9a9" transform="translate(533.376835 334.998438) scale(0.1 -0.1)">
       <defs>
        <path id="DejaVuSans-33" d="M 2597 2516 
Q 3050 2419 3304 2112 
Q 3559 1806 3559 1356 
Q 3559 666 3084 287 
Q 2609 -91 1734 -91 
Q 1441 -91 1130 -33 
Q 819 25 488 141 
L 488 750 
Q 750 597 1062 519 
Q 1375 441 1716 441 
Q 2309 441 2620 675 
Q 2931 909 2931 1356 
Q 2931 1769 2642 2001 
Q 2353 2234 1838 2234 
L 1294 2234 
L 1294 2753 
L 1863 2753 
Q 2328 2753 2575 2939 
Q 2822 3125 2822 3475 
Q 2822 3834 2567 4026 
Q 2313 4219 1838 4219 
Q 1578 4219 1281 4162 
Q 984 4106 628 3988 
L 628 4550 
Q 988 4650 1302 4700 
Q 1616 4750 1894 4750 
Q 2613 4750 3031 4423 
Q 3450 4097 3450 3541 
Q 3450 3153 3228 2886 
Q 3006 2619 2597 2516 
z
" transform="scale(0.015625)"/>
       </defs>
       <use xlink:href="#DejaVuSans-32"/>
       <use xlink:href="#DejaVuSans-30" x="63.623047"/>
       <use xlink:href="#DejaVuSans-32" x="127.246094"/>
       <use xlink:href="#DejaVuSans-33" x="190.869141"/>
       <use xlink:href="#DejaVuSans-2d" x="254.492188"/>
       <use xlink:href="#DejaVuSans-30" x="290.576172"/>
       <use xlink:href="#DejaVuSans-31" x="354.199219"/>
      </g>
     </g>
    </g>
    <g id="xtick_8">
     <g id="line2d_15">
      <path d="M 625.418182 320.4 
L 625.418182 43.2 
" clip-path="url(#p80a74c18dd)" style="fill: none; stroke-dasharray: 5.12,1.28,0.8,1.28; stroke-dashoffset: 0; stroke: #b0b0b0; stroke-width: 0.8"/>
     </g>
     <g id="line2d_16">
      <g>
       <use xlink:href="#m5ed4f671eb" x="625.418182" y="320.4" style="fill: #a9a9a9; stroke: #a9a9a9; stroke-width: 0.8"/>
      </g>
     </g>
     <g id="text_8">
      <!-- 2023-04 -->
      <g style="fill: #a9a9a9" transform="translate(604.526776 334.998438) scale(0.1 -0.1)">
       <use xlink:href="#DejaVuSans-32"/>
       <use xlink:href="#DejaVuSans-30" x="63.623047"/>
       <use xlink:href="#DejaVuSans-32" x="127.246094"/>
       <use xlink:href="#DejaVuSans-33" x="190.869141"/>
       <use xlink:href="#DejaVuSans-2d" x="254.492188"/>
       <use xlink:href="#DejaVuSans-30" x="290.576172"/>
       <use xlink:href="#DejaVuSans-34" x="354.199219"/>
      </g>
     </g>
    </g>
    <g id="xtick_9">
     <g id="line2d_17">
      <path d="M 697.358678 320.4 
L 697.358678 43.2 
" clip-path="url(#p80a74c18dd)" style="fill: none; stroke-dasharray: 5.12,1.28,0.8,1.28; stroke-dashoffset: 0; stroke: #b0b0b0; stroke-width: 0.8"/>
     </g>
     <g id="line2d_18">
      <g>
       <use xlink:href="#m5ed4f671eb" x="697.358678" y="320.4" style="fill: #a9a9a9; stroke: #a9a9a9; stroke-width: 0.8"/>
      </g>
     </g>
     <g id="text_9">
      <!-- 2023-07 -->
      <g style="fill: #a9a9a9" transform="translate(676.467271 334.998438) scale(0.1 -0.1)">
       <use xlink:href="#DejaVuSans-32"/>
       <use xlink:href="#DejaVuSans-30" x="63.623047"/>
       <use xlink:href="#DejaVuSans-32" x="127.246094"/>
       <use xlink:href="#DejaVuSans-33" x="190.869141"/>
       <use xlink:href="#DejaVuSans-2d" x="254.492188"/>
       <use xlink:href="#DejaVuSans-30" x="290.576172"/>
       <use xlink:href="#DejaVuSans-37" x="354.199219"/>
      </g>
     </g>
    </g>
    <g id="xtick_10">
     <g id="line2d_19">
      <path d="M 770.089728 320.4 
L 770.089728 43.2 
" clip-path="url(#p80a74c18dd)" style="fill: none; stroke-dasharray: 5.12,1.28,0.8,1.28; stroke-dashoffset: 0; stroke: #b0b0b0; stroke-width: 0.8"/>
     </g>
     <g id="line2d_20">
      <g>
       <use xlink:href="#m5ed4f671eb" x="770.089728" y="320.4" style="fill: #a9a9a9; stroke: #a9a9a9; stroke-width: 0.8"/>
      </g>
     </g>
     <g id="text_10">
      <!-- 2023-10 -->
      <g style="fill: #a9a9a9" transform="translate(749.198322 334.998438) scale(0.1 -0.1)">
       <use xlink:href="#DejaVuSans-32"/>
       <use xlink:href="#DejaVuSans-30" x="63.623047"/>
       <use xlink:href="#DejaVuSans-32" x="127.246094"/>
       <use xlink:href="#DejaVuSans-33" x="190.869141"/>
       <use xlink:href="#DejaVuSans-2d" x="254.492188"/>
       <use xlink:href="#DejaVuSans-31" x="290.576172"/>
       <use xlink:href="#DejaVuSans-30" x="354.199219"/>
      </g>
     </g>
    </g>
   </g>
   <g id="matplotlib.axis_2">
    <g id="ytick_1">
     <g id="line2d_21">
      <path d="M 108 307.852852 
L 777.6 307.852852 
" clip-path="url(#p80a74c18dd)" style="fill: none; stroke-dasharray: 5.12,1.28,0.8,1.28; stroke-dashoffset: 0; stroke: #b0b0b0; stroke-width: 0.8"/>
     </g>
     <g id="line2d_22">
      <defs>
       <path id="m98a3d5a1b2" d="M 0 0 
L -3.5 0 
" style="stroke: #a9a9a9; stroke-width: 0.8"/>
      </defs>
      <g>
       <use xlink:href="#m98a3d5a1b2" x="108" y="307.852852" style="fill: #a9a9a9; stroke: #a9a9a9; stroke-width: 0.8"/>
      </g>
     </g>
     <g id="text_11">
      <!-- 0 -->
      <g style="fill: #a9a9a9" transform="translate(94.6375 311.652071) scale(0.1 -0.1)">
       <use xlink:href="#DejaVuSans-30"/>
      </g>
     </g>
    </g>
    <g id="ytick_2">
     <g id="line2d_23">
      <path d="M 108 276.141443 
L 777.6 276.141443 
" clip-path="url(#p80a74c18dd)" style="fill: none; stroke-dasharray: 5.12,1.28,0.8,1.28; stroke-dashoffset: 0; stroke: #b0b0b0; stroke-width: 0.8"/>
     </g>
     <g id="line2d_24">
      <g>
       <use xlink:href="#m98a3d5a1b2" x="108" y="276.141443" style="fill: #a9a9a9; stroke: #a9a9a9; stroke-width: 0.8"/>
      </g>
     </g>
     <g id="text_12">
      <!-- 600 -->
      <g style="fill: #a9a9a9" transform="translate(81.9125 279.940662) scale(0.1 -0.1)">
       <defs>
        <path id="DejaVuSans-36" d="M 2113 2584 
Q 1688 2584 1439 2293 
Q 1191 2003 1191 1497 
Q 1191 994 1439 701 
Q 1688 409 2113 409 
Q 2538 409 2786 701 
Q 3034 994 3034 1497 
Q 3034 2003 2786 2293 
Q 2538 2584 2113 2584 
z
M 3366 4563 
L 3366 3988 
Q 3128 4100 2886 4159 
Q 2644 4219 2406 4219 
Q 1781 4219 1451 3797 
Q 1122 3375 1075 2522 
Q 1259 2794 1537 2939 
Q 1816 3084 2150 3084 
Q 2853 3084 3261 2657 
Q 3669 2231 3669 1497 
Q 3669 778 3244 343 
Q 2819 -91 2113 -91 
Q 1303 -91 875 529 
Q 447 1150 447 2328 
Q 447 3434 972 4092 
Q 1497 4750 2381 4750 
Q 2619 4750 2861 4703 
Q 3103 4656 3366 4563 
z
" transform="scale(0.015625)"/>
       </defs>
       <use xlink:href="#DejaVuSans-36"/>
       <use xlink:href="#DejaVuSans-30" x="63.623047"/>
       <use xlink:href="#DejaVuSans-30" x="127.246094"/>
      </g>
     </g>
    </g>
    <g id="ytick_3">
     <g id="line2d_25">
      <path d="M 108 244.430034 
L 777.6 244.430034 
" clip-path="url(#p80a74c18dd)" style="fill: none; stroke-dasharray: 5.12,1.28,0.8,1.28; stroke-dashoffset: 0; stroke: #b0b0b0; stroke-width: 0.8"/>
     </g>
     <g id="line2d_26">
      <g>
       <use xlink:href="#m98a3d5a1b2" x="108" y="244.430034" style="fill: #a9a9a9; stroke: #a9a9a9; stroke-width: 0.8"/>
      </g>
     </g>
     <g id="text_13">
      <!-- 1200 -->
      <g style="fill: #a9a9a9" transform="translate(75.55 248.229252) scale(0.1 -0.1)">
       <use xlink:href="#DejaVuSans-31"/>
       <use xlink:href="#DejaVuSans-32" x="63.623047"/>
       <use xlink:href="#DejaVuSans-30" x="127.246094"/>
       <use xlink:href="#DejaVuSans-30" x="190.869141"/>
      </g>
     </g>
    </g>
    <g id="ytick_4">
     <g id="line2d_27">
      <path d="M 108 212.718624 
L 777.6 212.718624 
" clip-path="url(#p80a74c18dd)" style="fill: none; stroke-dasharray: 5.12,1.28,0.8,1.28; stroke-dashoffset: 0; stroke: #b0b0b0; stroke-width: 0.8"/>
     </g>
     <g id="line2d_28">
      <g>
       <use xlink:href="#m98a3d5a1b2" x="108" y="212.718624" style="fill: #a9a9a9; stroke: #a9a9a9; stroke-width: 0.8"/>
      </g>
     </g>
     <g id="text_14">
      <!-- 1800 -->
      <g style="fill: #a9a9a9" transform="translate(75.55 216.517843) scale(0.1 -0.1)">
       <defs>
        <path id="DejaVuSans-38" d="M 2034 2216 
Q 1584 2216 1326 1975 
Q 1069 1734 1069 1313 
Q 1069 891 1326 650 
Q 1584 409 2034 409 
Q 2484 409 2743 651 
Q 3003 894 3003 1313 
Q 3003 1734 2745 1975 
Q 2488 2216 2034 2216 
z
M 1403 2484 
Q 997 2584 770 2862 
Q 544 3141 544 3541 
Q 544 4100 942 4425 
Q 1341 4750 2034 4750 
Q 2731 4750 3128 4425 
Q 3525 4100 3525 3541 
Q 3525 3141 3298 2862 
Q 3072 2584 2669 2484 
Q 3125 2378 3379 2068 
Q 3634 1759 3634 1313 
Q 3634 634 3220 271 
Q 2806 -91 2034 -91 
Q 1263 -91 848 271 
Q 434 634 434 1313 
Q 434 1759 690 2068 
Q 947 2378 1403 2484 
z
M 1172 3481 
Q 1172 3119 1398 2916 
Q 1625 2713 2034 2713 
Q 2441 2713 2670 2916 
Q 2900 3119 2900 3481 
Q 2900 3844 2670 4047 
Q 2441 4250 2034 4250 
Q 1625 4250 1398 4047 
Q 1172 3844 1172 3481 
z
" transform="scale(0.015625)"/>
       </defs>
       <use xlink:href="#DejaVuSans-31"/>
       <use xlink:href="#DejaVuSans-38" x="63.623047"/>
       <use xlink:href="#DejaVuSans-30" x="127.246094"/>
       <use xlink:href="#DejaVuSans-30" x="190.869141"/>
      </g>
     </g>
    </g>
    <g id="ytick_5">
     <g id="line2d_29">
      <path d="M 108 181.007215 
L 777.6 181.007215 
" clip-path="url(#p80a74c18dd)" style="fill: none; stroke-dasharray: 5.12,1.28,0.8,1.28; stroke-dashoffset: 0; stroke: #b0b0b0; stroke-width: 0.8"/>
     </g>
     <g id="line2d_30">
      <g>
       <use xlink:href="#m98a3d5a1b2" x="108" y="181.007215" style="fill: #a9a9a9; stroke: #a9a9a9; stroke-width: 0.8"/>
      </g>
     </g>
     <g id="text_15">
      <!-- 2400 -->
      <g style="fill: #a9a9a9" transform="translate(75.55 184.806434) scale(0.1 -0.1)">
       <use xlink:href="#DejaVuSans-32"/>
       <use xlink:href="#DejaVuSans-34" x="63.623047"/>
       <use xlink:href="#DejaVuSans-30" x="127.246094"/>
       <use xlink:href="#DejaVuSans-30" x="190.869141"/>
      </g>
     </g>
    </g>
    <g id="ytick_6">
     <g id="line2d_31">
      <path d="M 108 149.295805 
L 777.6 149.295805 
" clip-path="url(#p80a74c18dd)" style="fill: none; stroke-dasharray: 5.12,1.28,0.8,1.28; stroke-dashoffset: 0; stroke: #b0b0b0; stroke-width: 0.8"/>
     </g>
     <g id="line2d_32">
      <g>
       <use xlink:href="#m98a3d5a1b2" x="108" y="149.295805" style="fill: #a9a9a9; stroke: #a9a9a9; stroke-width: 0.8"/>
      </g>
     </g>
     <g id="text_16">
      <!-- 3000 -->
      <g style="fill: #a9a9a9" transform="translate(75.55 153.095024) scale(0.1 -0.1)">
       <use xlink:href="#DejaVuSans-33"/>
       <use xlink:href="#DejaVuSans-30" x="63.623047"/>
       <use xlink:href="#DejaVuSans-30" x="127.246094"/>
       <use xlink:href="#DejaVuSans-30" x="190.869141"/>
      </g>
     </g>
    </g>
    <g id="ytick_7">
     <g id="line2d_33">
      <path d="M 108 117.584396 
L 777.6 117.584396 
" clip-path="url(#p80a74c18dd)" style="fill: none; stroke-dasharray: 5.12,1.28,0.8,1.28; stroke-dashoffset: 0; stroke: #b0b0b0; stroke-width: 0.8"/>
     </g>
     <g id="line2d_34">
      <g>
       <use xlink:href="#m98a3d5a1b2" x="108" y="117.584396" style="fill: #a9a9a9; stroke: #a9a9a9; stroke-width: 0.8"/>
      </g>
     </g>
     <g id="text_17">
      <!-- 3600 -->
      <g style="fill: #a9a9a9" transform="translate(75.55 121.383615) scale(0.1 -0.1)">
       <use xlink:href="#DejaVuSans-33"/>
       <use xlink:href="#DejaVuSans-36" x="63.623047"/>
       <use xlink:href="#DejaVuSans-30" x="127.246094"/>
       <use xlink:href="#DejaVuSans-30" x="190.869141"/>
      </g>
     </g>
    </g>
    <g id="ytick_8">
     <g id="line2d_35">
      <path d="M 108 85.872987 
L 777.6 85.872987 
" clip-path="url(#p80a74c18dd)" style="fill: none; stroke-dasharray: 5.12,1.28,0.8,1.28; stroke-dashoffset: 0; stroke: #b0b0b0; stroke-width: 0.8"/>
     </g>
     <g id="line2d_36">
      <g>
       <use xlink:href="#m98a3d5a1b2" x="108" y="85.872987" style="fill: #a9a9a9; stroke: #a9a9a9; stroke-width: 0.8"/>
      </g>
     </g>
     <g id="text_18">
      <!-- 4200 -->
      <g style="fill: #a9a9a9" transform="translate(75.55 89.672205) scale(0.1 -0.1)">
       <use xlink:href="#DejaVuSans-34"/>
       <use xlink:href="#DejaVuSans-32" x="63.623047"/>
       <use xlink:href="#DejaVuSans-30" x="127.246094"/>
       <use xlink:href="#DejaVuSans-30" x="190.869141"/>
      </g>
     </g>
    </g>
    <g id="ytick_9">
     <g id="line2d_37">
      <path d="M 108 54.161577 
L 777.6 54.161577 
" clip-path="url(#p80a74c18dd)" style="fill: none; stroke-dasharray: 5.12,1.28,0.8,1.28; stroke-dashoffset: 0; stroke: #b0b0b0; stroke-width: 0.8"/>
     </g>
     <g id="line2d_38">
      <g>
       <use xlink:href="#m98a3d5a1b2" x="108" y="54.161577" style="fill: #a9a9a9; stroke: #a9a9a9; stroke-width: 0.8"/>
      </g>
     </g>
     <g id="text_19">
      <!-- 4800 -->
      <g style="fill: #a9a9a9" transform="translate(75.55 57.960796) scale(0.1 -0.1)">
       <use xlink:href="#DejaVuSans-34"/>
       <use xlink:href="#DejaVuSans-38" x="63.623047"/>
       <use xlink:href="#DejaVuSans-30" x="127.246094"/>
       <use xlink:href="#DejaVuSans-30" x="190.869141"/>
      </g>
     </g>
    </g>
   </g>
   <g id="line2d_39">
    <path d="M 138.436364 307.694295 
L 143.179693 307.324329 
L 143.970248 307.007215 
L 146.341913 306.742953 
L 151.875797 305.738758 
L 155.828571 305.368792 
L 156.619126 304.998826 
L 157.409681 304.787416 
L 158.200236 303.836074 
L 158.990791 303.30755 
L 159.781346 301.616275 
L 160.571901 301.51057 
L 161.362456 300.929195 
L 162.943566 300.189262 
L 164.524675 299.02651 
L 165.31523 298.286577 
L 166.89634 297.546644 
L 167.686895 297.22953 
L 168.47745 296.648154 
L 171.639669 295.326846 
L 172.430224 294.111242 
L 173.220779 293.477013 
L 174.801889 292.631376 
L 182.707438 291.521477 
L 183.497993 291.15151 
L 189.031877 290.728691 
L 190.612987 290.305872 
L 192.194097 289.988758 
L 198.518536 289.195973 
L 199.309091 288.773154 
L 200.099646 288.66745 
L 200.890201 288.350336 
L 202.471311 288.086074 
L 203.261865 288.033221 
L 204.05242 287.76896 
L 207.21464 287.293289 
L 208.79575 286.87047 
L 211.167414 286.65906 
L 212.748524 286.500503 
L 213.539079 286.289094 
L 214.329634 286.236242 
L 216.701299 285.549161 
L 221.444628 284.862081 
L 222.235183 284.597819 
L 223.025738 283.540772 
L 225.397403 282.695134 
L 227.769067 282.060906 
L 228.559622 281.69094 
L 229.350177 281.638087 
L 233.302952 280.58104 
L 234.884061 280.475336 
L 235.674616 280.369631 
L 238.046281 279.68255 
L 241.208501 278.942617 
L 241.999055 278.625503 
L 242.78961 278.519799 
L 243.580165 278.149832 
L 251.485714 276.987081 
L 255.438489 275.877181 
L 256.229044 275.40151 
L 259.391263 274.555872 
L 260.972373 273.657383 
L 261.762928 273.128859 
L 262.553483 273.023154 
L 263.344038 272.758893 
L 265.715702 272.336074 
L 266.506257 271.966107 
L 268.087367 271.701846 
L 269.668477 270.961913 
L 273.621251 270.01057 
L 275.992916 269.429195 
L 276.783471 269.112081 
L 277.574026 268.953523 
L 278.364581 268.636409 
L 279.155136 268.530705 
L 279.945691 268.160738 
L 280.736246 267.949329 
L 282.317355 267.843624 
L 283.898465 267.315101 
L 285.479575 267.209396 
L 286.27013 266.83943 
L 289.432349 266.310906 
L 292.594569 266.046644 
L 293.385124 265.888087 
L 294.966234 265.148154 
L 303.662338 261.607047 
L 304.452893 261.184228 
L 305.243447 260.338591 
L 306.034002 259.070134 
L 306.824557 258.06594 
L 307.615112 257.85453 
L 308.405667 257.85453 
L 309.986777 256.691779 
L 310.777332 256.480369 
L 311.567887 256.05755 
L 312.358442 255.898993 
L 313.148996 255.211913 
L 313.939551 255.000503 
L 316.311216 253.890604 
L 317.101771 252.939262 
L 317.892326 251.77651 
L 318.682881 251.300839 
L 319.473436 250.032383 
L 320.263991 249.239597 
L 321.054545 248.869631 
L 321.8451 248.658221 
L 323.42621 247.706879 
L 324.216765 247.336913 
L 327.378985 245.011409 
L 328.16954 243.90151 
L 328.960094 242.10453 
L 329.750649 240.941779 
L 330.541204 240.360403 
L 331.331759 240.043289 
L 334.493979 237.400671 
L 335.284534 236.872148 
L 336.865643 235.497987 
L 337.656198 234.388087 
L 338.446753 233.648154 
L 340.027863 232.591107 
L 342.399528 231.005537 
L 343.190083 230.318456 
L 343.980638 230.107047 
L 346.352302 228.891443 
L 347.933412 227.992953 
L 348.723967 227.675839 
L 350.305077 226.248826 
L 351.095632 225.297483 
L 352.676741 224.240436 
L 353.467296 224.029027 
L 354.257851 223.65906 
L 355.048406 223.077685 
L 356.629516 222.232047 
L 357.420071 222.126342 
L 359.001181 221.280705 
L 359.791736 220.857886 
L 360.58229 220.065101 
L 361.372845 219.58943 
L 362.1634 219.325168 
L 362.953955 218.796644 
L 366.116175 217.211074 
L 366.90673 216.523993 
L 370.068949 215.466946 
L 370.859504 214.938423 
L 371.650059 214.779866 
L 373.231169 214.251342 
L 375.602834 213.352852 
L 377.974498 212.507215 
L 379.555608 212.242953 
L 381.136718 210.921644 
L 382.717828 210.181711 
L 385.089492 208.860403 
L 386.670602 208.437584 
L 387.461157 207.961913 
L 388.251712 207.750503 
L 390.623377 206.270638 
L 392.995041 205.742114 
L 395.366706 204.896477 
L 396.947816 203.997987 
L 397.738371 203.892282 
L 398.528926 203.62802 
L 400.110035 203.310906 
L 402.4817 201.619631 
L 404.853365 201.091107 
L 405.64392 200.826846 
L 406.434475 200.24547 
L 411.177804 198.765604 
L 411.968359 198.712752 
L 417.502243 196.810067 
L 418.292798 196.440101 
L 420.664463 195.911577 
L 422.245573 195.541611 
L 423.036128 195.171644 
L 423.826682 195.013087 
L 426.198347 193.95604 
L 428.570012 192.846141 
L 429.360567 192.317617 
L 430.151122 192.106208 
L 432.522786 190.890604 
L 434.103896 190.520638 
L 435.685006 189.727852 
L 437.266116 189.305034 
L 438.056671 189.199329 
L 438.847226 188.670805 
L 439.63778 188.300839 
L 440.428335 188.142282 
L 442.009445 187.508054 
L 442.8 187.349497 
L 443.590555 186.926678 
L 446.752774 186.451007 
L 448.333884 185.711074 
L 449.124439 185.076846 
L 449.914994 183.702685 
L 451.496104 183.38557 
L 452.286659 183.227013 
L 455.448878 181.641443 
L 456.239433 181.482886 
L 462.563872 178.470302 
L 464.935537 177.994631 
L 466.516647 177.254698 
L 467.307202 176.937584 
L 468.097757 176.831879 
L 471.259976 175.457718 
L 472.841086 174.400671 
L 473.631641 174.030705 
L 474.422196 173.925 
L 475.212751 173.660738 
L 476.003306 173.607886 
L 479.165525 172.603691 
L 479.95608 172.550839 
L 480.746635 171.969463 
L 482.327745 171.44094 
L 484.69941 170.701007 
L 485.489965 170.225336 
L 486.280519 170.013926 
L 487.071074 169.485403 
L 487.861629 169.168289 
L 488.652184 168.692617 
L 490.233294 168.111242 
L 492.604959 167.371309 
L 493.395514 167.001342 
L 494.186068 166.419966 
L 494.976623 165.627181 
L 495.767178 165.098658 
L 496.557733 164.940101 
L 498.138843 163.777349 
L 498.929398 163.618792 
L 499.719953 162.45604 
L 500.510508 162.138926 
L 501.301063 161.55755 
L 502.091617 161.451846 
L 502.882172 160.923322 
L 503.672727 160.553356 
L 504.463282 160.394799 
L 505.253837 160.077685 
L 506.044392 159.443456 
L 506.834947 159.179195 
L 509.206612 157.646477 
L 512.368831 156.113758 
L 513.159386 156.008054 
L 514.740496 155.320973 
L 515.531051 154.845302 
L 516.321606 153.576846 
L 517.112161 152.78406 
L 517.902715 152.361242 
L 518.69327 152.202685 
L 520.27438 151.251342 
L 521.064935 151.092785 
L 522.646045 150.352852 
L 525.01771 149.40151 
L 526.598819 148.344463 
L 528.179929 146.70604 
L 529.761039 145.754698 
L 530.551594 145.279027 
L 531.342149 144.486242 
L 533.713813 142.583557 
L 534.504368 142.213591 
L 535.294923 141.367953 
L 536.085478 140.786577 
L 537.666588 140.258054 
L 538.457143 139.518121 
L 540.038253 138.725336 
L 540.828808 138.513926 
L 541.619362 137.93255 
L 542.409917 137.721141 
L 544.781582 136.505537 
L 545.572137 135.924161 
L 547.153247 135.289933 
L 547.943802 135.131376 
L 548.734357 134.655705 
L 554.268241 132.75302 
L 555.058796 132.06594 
L 558.221015 130.903188 
L 559.01157 130.691779 
L 559.802125 130.110403 
L 562.17379 129.053356 
L 562.964345 128.47198 
L 563.7549 128.049161 
L 565.336009 124.983725 
L 566.917119 123.186745 
L 567.707674 122.658221 
L 570.079339 121.654027 
L 570.869894 121.389765 
L 571.660449 121.28406 
L 572.451004 120.861242 
L 574.822668 120.121309 
L 577.194333 119.169966 
L 578.775443 118.165772 
L 581.147107 117.108725 
L 585.099882 114.888926 
L 585.890437 114.096141 
L 587.471547 113.250503 
L 588.262102 112.827685 
L 589.052656 112.563423 
L 589.843211 112.034899 
L 591.424321 111.294966 
L 592.214876 110.819295 
L 593.005431 110.502181 
L 593.795986 110.02651 
L 594.586541 109.815101 
L 595.377096 109.233725 
L 596.167651 108.916611 
L 596.958205 108.758054 
L 598.539315 108.123826 
L 600.91098 107.278188 
L 601.701535 106.696812 
L 603.282645 106.273993 
L 604.863754 105.692617 
L 605.654309 105.058389 
L 607.235419 104.582718 
L 608.025974 104.212752 
L 608.816529 104.001342 
L 610.397639 102.944295 
L 611.978749 102.257215 
L 613.559858 101.094463 
L 615.140968 100.56594 
L 615.931523 99.878859 
L 616.722078 99.720302 
L 617.512633 99.033221 
L 619.093743 98.134732 
L 620.674852 97.500503 
L 621.465407 96.707718 
L 623.837072 95.967785 
L 624.627627 95.492114 
L 625.418182 95.386409 
L 627.789847 94.223658 
L 630.952066 93.272315 
L 632.533176 93.060906 
L 633.323731 92.743792 
L 634.114286 92.585235 
L 635.695396 91.951007 
L 636.48595 91.898154 
L 638.857615 91.105369 
L 640.438725 90.154027 
L 642.019835 89.09698 
L 646.763164 86.824329 
L 649.134829 85.291611 
L 650.715939 84.921644 
L 652.297048 83.864597 
L 655.459268 82.913255 
L 656.249823 82.596141 
L 657.830933 82.226174 
L 661.783707 80.957718 
L 663.364817 80.640604 
L 664.945927 80.270638 
L 665.736482 79.900671 
L 666.527037 79.794966 
L 668.108146 79.160738 
L 668.898701 79.055034 
L 669.689256 78.685067 
L 671.270366 78.367953 
L 672.060921 77.997987 
L 674.432586 77.469463 
L 676.013695 77.152349 
L 683.128689 75.725336 
L 683.919244 75.408221 
L 684.709799 75.355369 
L 687.081464 74.721141 
L 687.872019 74.298322 
L 689.453129 73.769799 
L 690.243684 73.716946 
L 694.196458 72.554195 
L 698.149233 71.338591 
L 698.939787 71.127181 
L 699.730342 70.757215 
L 700.520897 70.757215 
L 702.102007 70.228691 
L 702.892562 69.435906 
L 703.683117 69.06594 
L 705.264227 68.590268 
L 708.426446 67.427517 
L 709.217001 67.216107 
L 710.007556 66.740436 
L 710.798111 66.581879 
L 711.588666 66.053356 
L 714.750885 65.102013 
L 715.54144 64.837752 
L 716.331995 64.362081 
L 717.12255 64.150671 
L 717.913105 63.516443 
L 720.28477 63.093624 
L 721.86588 62.247987 
L 722.656434 61.349497 
L 724.237544 61.032383 
L 728.980874 59.975336 
L 730.561983 59.552517 
L 732.143093 59.499664 
L 732.933648 59.129698 
L 735.305313 58.759732 
L 736.095868 58.548322 
L 736.886423 58.178356 
L 739.258087 57.861242 
L 740.839197 57.279866 
L 741.629752 56.909899 
L 742.420307 56.857047 
L 744.791972 56.328523 
L 747.163636 55.8 
L 747.163636 55.8 
" clip-path="url(#p80a74c18dd)" style="fill: none; stroke: #1f77b4; stroke-width: 1.5; stroke-linecap: square"/>
   </g>
   <g id="line2d_40">
    <path d="M 139.226919 307.8 
L 141.598583 307.694295 
L 143.179693 307.588591 
L 148.713577 307.482886 
L 152.666352 307.324329 
L 155.828571 307.324329 
L 156.619126 307.112919 
L 158.990791 307.060067 
L 163.73412 306.531544 
L 175.592444 305.844463 
L 181.916883 305.738758 
L 185.869658 305.580201 
L 195.356316 305.474497 
L 199.309091 305.31594 
L 204.05242 305.210235 
L 207.21464 305.10453 
L 214.329634 304.998826 
L 216.701299 304.945973 
L 219.072963 304.893121 
L 221.444628 304.628859 
L 226.187957 304.576007 
L 227.769067 304.470302 
L 233.302952 304.364597 
L 241.999055 303.888926 
L 247.53294 303.783221 
L 249.11405 303.677517 
L 251.485714 303.571812 
L 256.229044 303.360403 
L 259.391263 303.30755 
L 261.762928 303.096141 
L 275.202361 302.303356 
L 277.574026 302.197651 
L 283.10791 301.933389 
L 285.479575 301.827685 
L 293.385124 301.404866 
L 302.081228 301.299161 
L 305.243447 300.982047 
L 306.824557 300.876342 
L 315.520661 300.242114 
L 316.311216 300.030705 
L 318.682881 299.819295 
L 320.263991 299.449329 
L 322.635655 299.396477 
L 325.00732 299.290772 
L 331.331759 298.497987 
L 335.284534 298.392282 
L 345.561747 297.599497 
L 350.305077 297.070973 
L 352.676741 297.018121 
L 354.257851 296.912416 
L 357.420071 296.806711 
L 359.001181 296.701007 
L 362.953955 296.33104 
L 363.74451 296.119631 
L 368.487839 295.908221 
L 372.440614 295.802517 
L 383.508383 295.168289 
L 385.089492 295.062584 
L 395.366706 294.481208 
L 400.90059 294.375503 
L 401.691145 294.216946 
L 408.015584 294.111242 
L 413.549469 293.84698 
L 422.245573 293.741275 
L 427.779457 293.477013 
L 434.103896 293.371309 
L 441.21889 293.001342 
L 445.96222 292.895638 
L 460.982763 291.997148 
L 467.307202 291.891443 
L 471.259976 291.521477 
L 472.841086 291.362919 
L 476.793861 291.310067 
L 479.95608 290.992953 
L 487.861629 290.570134 
L 492.604959 290.46443 
L 494.976623 290.411577 
L 497.348288 290.358725 
L 499.719953 290.147315 
L 506.044392 290.041611 
L 507.625502 289.777349 
L 509.206612 289.671644 
L 512.368831 289.56594 
L 514.740496 289.460235 
L 516.321606 289.35453 
L 523.4366 289.248826 
L 525.01771 289.090268 
L 528.179929 288.984564 
L 528.970484 288.773154 
L 530.551594 288.720302 
L 531.342149 288.561745 
L 533.713813 288.45604 
L 547.153247 287.663255 
L 549.524911 287.55755 
L 553.477686 287.398993 
L 564.545455 287.293289 
L 570.079339 287.029027 
L 576.403778 286.923322 
L 579.565998 286.817617 
L 582.728217 286.764765 
L 584.309327 286.606208 
L 587.471547 286.500503 
L 595.377096 286.077685 
L 600.120425 286.024832 
L 602.49209 285.813423 
L 604.863754 285.76057 
L 610.397639 285.654866 
L 613.559858 285.549161 
L 623.046517 285.443456 
L 626.999292 285.284899 
L 631.742621 285.179195 
L 634.114286 284.914933 
L 638.857615 284.862081 
L 639.64817 284.703523 
L 641.22928 284.597819 
L 644.391499 284.492114 
L 653.878158 284.386409 
L 657.830933 284.227852 
L 671.270366 284.175 
L 672.851476 284.069295 
L 675.22314 284.016443 
L 685.500354 283.910738 
L 687.081464 283.805034 
L 695.777568 283.699329 
L 698.939787 283.593624 
L 708.426446 283.540772 
L 710.007556 283.435067 
L 721.86588 283.382215 
L 724.237544 283.170805 
L 737.676978 283.065101 
L 740.048642 283.012248 
L 747.163636 282.959396 
L 747.163636 282.959396 
" clip-path="url(#p80a74c18dd)" style="fill: none; stroke: #ff7f0e; stroke-width: 1.5; stroke-linecap: square"/>
   </g>
   <g id="patch_3">
    <path d="M 108 320.4 
L 108 43.2 
" style="fill: none; stroke: #a9a9a9; stroke-width: 0.8; stroke-linejoin: miter; stroke-linecap: square"/>
   </g>
   <g id="patch_4">
    <path d="M 777.6 320.4 
L 777.6 43.2 
" style="fill: none"/>
   </g>
   <g id="patch_5">
    <path d="M 108 320.4 
L 777.6 320.4 
" style="fill: none; stroke: #a9a9a9; stroke-width: 0.8; stroke-linejoin: miter; stroke-linecap: square"/>
   </g>
   <g id="patch_6">
    <path d="M 108 43.2 
L 777.6 43.2 
" style="fill: none"/>
   </g>
   <g id="text_20">
    <!-- get_subscribe history -->
    <g style="fill: #a9a9a9" transform="translate(378.6075 37.2) scale(0.12 -0.12)">
     <defs>
      <path id="DejaVuSans-67" d="M 2906 1791 
Q 2906 2416 2648 2759 
Q 2391 3103 1925 3103 
Q 1463 3103 1205 2759 
Q 947 2416 947 1791 
Q 947 1169 1205 825 
Q 1463 481 1925 481 
Q 2391 481 2648 825 
Q 2906 1169 2906 1791 
z
M 3481 434 
Q 3481 -459 3084 -895 
Q 2688 -1331 1869 -1331 
Q 1566 -1331 1297 -1286 
Q 1028 -1241 775 -1147 
L 775 -588 
Q 1028 -725 1275 -790 
Q 1522 -856 1778 -856 
Q 2344 -856 2625 -561 
Q 2906 -266 2906 331 
L 2906 616 
Q 2728 306 2450 153 
Q 2172 0 1784 0 
Q 1141 0 747 490 
Q 353 981 353 1791 
Q 353 2603 747 3093 
Q 1141 3584 1784 3584 
Q 2172 3584 2450 3431 
Q 2728 3278 2906 2969 
L 2906 3500 
L 3481 3500 
L 3481 434 
z
" transform="scale(0.015625)"/>
      <path id="DejaVuSans-65" d="M 3597 1894 
L 3597 1613 
L 953 1613 
Q 991 1019 1311 708 
Q 1631 397 2203 397 
Q 2534 397 2845 478 
Q 3156 559 3463 722 
L 3463 178 
Q 3153 47 2828 -22 
Q 2503 -91 2169 -91 
Q 1331 -91 842 396 
Q 353 884 353 1716 
Q 353 2575 817 3079 
Q 1281 3584 2069 3584 
Q 2775 3584 3186 3129 
Q 3597 2675 3597 1894 
z
M 3022 2063 
Q 3016 2534 2758 2815 
Q 2500 3097 2075 3097 
Q 1594 3097 1305 2825 
Q 1016 2553 972 2059 
L 3022 2063 
z
" transform="scale(0.015625)"/>
      <path id="DejaVuSans-74" d="M 1172 4494 
L 1172 3500 
L 2356 3500 
L 2356 3053 
L 1172 3053 
L 1172 1153 
Q 1172 725 1289 603 
Q 1406 481 1766 481 
L 2356 481 
L 2356 0 
L 1766 0 
Q 1100 0 847 248 
Q 594 497 594 1153 
L 594 3053 
L 172 3053 
L 172 3500 
L 594 3500 
L 594 4494 
L 1172 4494 
z
" transform="scale(0.015625)"/>
      <path id="DejaVuSans-5f" d="M 3263 -1063 
L 3263 -1509 
L -63 -1509 
L -63 -1063 
L 3263 -1063 
z
" transform="scale(0.015625)"/>
      <path id="DejaVuSans-73" d="M 2834 3397 
L 2834 2853 
Q 2591 2978 2328 3040 
Q 2066 3103 1784 3103 
Q 1356 3103 1142 2972 
Q 928 2841 928 2578 
Q 928 2378 1081 2264 
Q 1234 2150 1697 2047 
L 1894 2003 
Q 2506 1872 2764 1633 
Q 3022 1394 3022 966 
Q 3022 478 2636 193 
Q 2250 -91 1575 -91 
Q 1294 -91 989 -36 
Q 684 19 347 128 
L 347 722 
Q 666 556 975 473 
Q 1284 391 1588 391 
Q 1994 391 2212 530 
Q 2431 669 2431 922 
Q 2431 1156 2273 1281 
Q 2116 1406 1581 1522 
L 1381 1569 
Q 847 1681 609 1914 
Q 372 2147 372 2553 
Q 372 3047 722 3315 
Q 1072 3584 1716 3584 
Q 2034 3584 2315 3537 
Q 2597 3491 2834 3397 
z
" transform="scale(0.015625)"/>
      <path id="DejaVuSans-75" d="M 544 1381 
L 544 3500 
L 1119 3500 
L 1119 1403 
Q 1119 906 1312 657 
Q 1506 409 1894 409 
Q 2359 409 2629 706 
Q 2900 1003 2900 1516 
L 2900 3500 
L 3475 3500 
L 3475 0 
L 2900 0 
L 2900 538 
Q 2691 219 2414 64 
Q 2138 -91 1772 -91 
Q 1169 -91 856 284 
Q 544 659 544 1381 
z
M 1991 3584 
L 1991 3584 
z
" transform="scale(0.015625)"/>
      <path id="DejaVuSans-62" d="M 3116 1747 
Q 3116 2381 2855 2742 
Q 2594 3103 2138 3103 
Q 1681 3103 1420 2742 
Q 1159 2381 1159 1747 
Q 1159 1113 1420 752 
Q 1681 391 2138 391 
Q 2594 391 2855 752 
Q 3116 1113 3116 1747 
z
M 1159 2969 
Q 1341 3281 1617 3432 
Q 1894 3584 2278 3584 
Q 2916 3584 3314 3078 
Q 3713 2572 3713 1747 
Q 3713 922 3314 415 
Q 2916 -91 2278 -91 
Q 1894 -91 1617 61 
Q 1341 213 1159 525 
L 1159 0 
L 581 0 
L 581 4863 
L 1159 4863 
L 1159 2969 
z
" transform="scale(0.015625)"/>
      <path id="DejaVuSans-63" d="M 3122 3366 
L 3122 2828 
Q 2878 2963 2633 3030 
Q 2388 3097 2138 3097 
Q 1578 3097 1268 2742 
Q 959 2388 959 1747 
Q 959 1106 1268 751 
Q 1578 397 2138 397 
Q 2388 397 2633 464 
Q 2878 531 3122 666 
L 3122 134 
Q 2881 22 2623 -34 
Q 2366 -91 2075 -91 
Q 1284 -91 818 406 
Q 353 903 353 1747 
Q 353 2603 823 3093 
Q 1294 3584 2113 3584 
Q 2378 3584 2631 3529 
Q 2884 3475 3122 3366 
z
" transform="scale(0.015625)"/>
      <path id="DejaVuSans-72" d="M 2631 2963 
Q 2534 3019 2420 3045 
Q 2306 3072 2169 3072 
Q 1681 3072 1420 2755 
Q 1159 2438 1159 1844 
L 1159 0 
L 581 0 
L 581 3500 
L 1159 3500 
L 1159 2956 
Q 1341 3275 1631 3429 
Q 1922 3584 2338 3584 
Q 2397 3584 2469 3576 
Q 2541 3569 2628 3553 
L 2631 2963 
z
" transform="scale(0.015625)"/>
      <path id="DejaVuSans-69" d="M 603 3500 
L 1178 3500 
L 1178 0 
L 603 0 
L 603 3500 
z
M 603 4863 
L 1178 4863 
L 1178 4134 
L 603 4134 
L 603 4863 
z
" transform="scale(0.015625)"/>
      <path id="DejaVuSans-20" transform="scale(0.015625)"/>
      <path id="DejaVuSans-68" d="M 3513 2113 
L 3513 0 
L 2938 0 
L 2938 2094 
Q 2938 2591 2744 2837 
Q 2550 3084 2163 3084 
Q 1697 3084 1428 2787 
Q 1159 2491 1159 1978 
L 1159 0 
L 581 0 
L 581 4863 
L 1159 4863 
L 1159 2956 
Q 1366 3272 1645 3428 
Q 1925 3584 2291 3584 
Q 2894 3584 3203 3211 
Q 3513 2838 3513 2113 
z
" transform="scale(0.015625)"/>
      <path id="DejaVuSans-6f" d="M 1959 3097 
Q 1497 3097 1228 2736 
Q 959 2375 959 1747 
Q 959 1119 1226 758 
Q 1494 397 1959 397 
Q 2419 397 2687 759 
Q 2956 1122 2956 1747 
Q 2956 2369 2687 2733 
Q 2419 3097 1959 3097 
z
M 1959 3584 
Q 2709 3584 3137 3096 
Q 3566 2609 3566 1747 
Q 3566 888 3137 398 
Q 2709 -91 1959 -91 
Q 1206 -91 779 398 
Q 353 888 353 1747 
Q 353 2609 779 3096 
Q 1206 3584 1959 3584 
z
" transform="scale(0.015625)"/>
      <path id="DejaVuSans-79" d="M 2059 -325 
Q 1816 -950 1584 -1140 
Q 1353 -1331 966 -1331 
L 506 -1331 
L 506 -850 
L 844 -850 
Q 1081 -850 1212 -737 
Q 1344 -625 1503 -206 
L 1606 56 
L 191 3500 
L 800 3500 
L 1894 763 
L 2988 3500 
L 3597 3500 
L 2059 -325 
z
" transform="scale(0.015625)"/>
     </defs>
     <use xlink:href="#DejaVuSans-67"/>
     <use xlink:href="#DejaVuSans-65" x="63.476562"/>
     <use xlink:href="#DejaVuSans-74" x="125"/>
     <use xlink:href="#DejaVuSans-5f" x="164.208984"/>
     <use xlink:href="#DejaVuSans-73" x="214.208984"/>
     <use xlink:href="#DejaVuSans-75" x="266.308594"/>
     <use xlink:href="#DejaVuSans-62" x="329.6875"/>
     <use xlink:href="#DejaVuSans-73" x="393.164062"/>
     <use xlink:href="#DejaVuSans-63" x="445.263672"/>
     <use xlink:href="#DejaVuSans-72" x="500.244141"/>
     <use xlink:href="#DejaVuSans-69" x="541.357422"/>
     <use xlink:href="#DejaVuSans-62" x="569.140625"/>
     <use xlink:href="#DejaVuSans-65" x="632.617188"/>
     <use xlink:href="#DejaVuSans-20" x="694.140625"/>
     <use xlink:href="#DejaVuSans-68" x="725.927734"/>
     <use xlink:href="#DejaVuSans-69" x="789.306641"/>
     <use xlink:href="#DejaVuSans-73" x="817.089844"/>
     <use xlink:href="#DejaVuSans-74" x="869.189453"/>
     <use xlink:href="#DejaVuSans-6f" x="908.398438"/>
     <use xlink:href="#DejaVuSans-72" x="969.580078"/>
     <use xlink:href="#DejaVuSans-79" x="1010.693359"/>
    </g>
   </g>
   <g id="legend_1">
    <g id="line2d_41">
     <path d="M 815.08 328.498438 
L 825.08 328.498438 
L 835.08 328.498438 
" style="fill: none; stroke: #1f77b4; stroke-width: 1.5; stroke-linecap: square"/>
    </g>
    <g id="text_21">
     <!-- star -->
     <g style="fill: #a9a9a9" transform="translate(843.08 331.998438) scale(0.1 -0.1)">
      <defs>
       <path id="DejaVuSans-61" d="M 2194 1759 
Q 1497 1759 1228 1600 
Q 959 1441 959 1056 
Q 959 750 1161 570 
Q 1363 391 1709 391 
Q 2188 391 2477 730 
Q 2766 1069 2766 1631 
L 2766 1759 
L 2194 1759 
z
M 3341 1997 
L 3341 0 
L 2766 0 
L 2766 531 
Q 2569 213 2275 61 
Q 1981 -91 1556 -91 
Q 1019 -91 701 211 
Q 384 513 384 1019 
Q 384 1609 779 1909 
Q 1175 2209 1959 2209 
L 2766 2209 
L 2766 2266 
Q 2766 2663 2505 2880 
Q 2244 3097 1772 3097 
Q 1472 3097 1187 3025 
Q 903 2953 641 2809 
L 641 3341 
Q 956 3463 1253 3523 
Q 1550 3584 1831 3584 
Q 2591 3584 2966 3190 
Q 3341 2797 3341 1997 
z
" transform="scale(0.015625)"/>
      </defs>
      <use xlink:href="#DejaVuSans-73"/>
      <use xlink:href="#DejaVuSans-74" x="52.099609"/>
      <use xlink:href="#DejaVuSans-61" x="91.308594"/>
      <use xlink:href="#DejaVuSans-72" x="152.587891"/>
     </g>
    </g>
    <g id="line2d_42">
     <path d="M 815.08 343.176562 
L 825.08 343.176562 
L 835.08 343.176562 
" style="fill: none; stroke: #ff7f0e; stroke-width: 1.5; stroke-linecap: square"/>
    </g>
    <g id="text_22">
     <!-- fork -->
     <g style="fill: #a9a9a9" transform="translate(843.08 346.676562) scale(0.1 -0.1)">
      <defs>
       <path id="DejaVuSans-66" d="M 2375 4863 
L 2375 4384 
L 1825 4384 
Q 1516 4384 1395 4259 
Q 1275 4134 1275 3809 
L 1275 3500 
L 2222 3500 
L 2222 3053 
L 1275 3053 
L 1275 0 
L 697 0 
L 697 3053 
L 147 3053 
L 147 3500 
L 697 3500 
L 697 3744 
Q 697 4328 969 4595 
Q 1241 4863 1831 4863 
L 2375 4863 
z
" transform="scale(0.015625)"/>
       <path id="DejaVuSans-6b" d="M 581 4863 
L 1159 4863 
L 1159 1991 
L 2875 3500 
L 3609 3500 
L 1753 1863 
L 3688 0 
L 2938 0 
L 1159 1709 
L 1159 0 
L 581 0 
L 581 4863 
z
" transform="scale(0.015625)"/>
      </defs>
      <use xlink:href="#DejaVuSans-66"/>
      <use xlink:href="#DejaVuSans-6f" x="35.205078"/>
      <use xlink:href="#DejaVuSans-72" x="96.386719"/>
      <use xlink:href="#DejaVuSans-6b" x="137.5"/>
     </g>
    </g>
   </g>
  </g>
 </g>
 <defs>
  <clipPath id="p80a74c18dd">
   <rect x="108" y="43.2" width="669.6" height="277.2"/>
  </clipPath>
 </defs>
</svg>
