<?xml version="1.0" encoding="utf-8" standalone="no"?>
<!DOCTYPE svg PUBLIC "-//W3C//DTD SVG 1.1//EN"
  "http://www.w3.org/Graphics/SVG/1.1/DTD/svg11.dtd">
<svg xmlns:xlink="http://www.w3.org/1999/xlink" width="864pt" height="360pt" viewBox="0 0 864 360" xmlns="http://www.w3.org/2000/svg" version="1.1">
 <metadata>
  <rdf:RDF xmlns:dc="http://purl.org/dc/elements/1.1/" xmlns:cc="http://creativecommons.org/ns#" xmlns:rdf="http://www.w3.org/1999/02/22-rdf-syntax-ns#">
   <cc:Work>
    <dc:type rdf:resource="http://purl.org/dc/dcmitype/StillImage"/>
    <dc:date>2023-08-31T08:46:21.729718</dc:date>
    <dc:format>image/svg+xml</dc:format>
    <dc:creator>
     <cc:Agent>
      <dc:title>Matplotlib v3.7.2, https://matplotlib.org/</dc:title>
     </cc:Agent>
    </dc:creator>
   </cc:Work>
  </rdf:RDF>
 </metadata>
 <defs>
  <style type="text/css">*{stroke-linejoin: round; stroke-linecap: butt}</style>
 </defs>
 <g id="figure_1">
  <g id="patch_1">
   <path d="M 0 360 
L 864 360 
L 864 0 
L 0 0 
L 0 360 
z
" style="fill: none; opacity: 0"/>
  </g>
  <g id="axes_1">
   <g id="patch_2">
    <path d="M 108 320.4 
L 777.6 320.4 
L 777.6 43.2 
L 108 43.2 
L 108 320.4 
z
" style="fill: none; opacity: 0"/>
   </g>
   <g id="matplotlib.axis_1">
    <g id="xtick_1">
     <g id="line2d_1">
      <path d="M 120.20625 320.4 
L 120.20625 43.2 
" clip-path="url(#p92016785f5)" style="fill: none; stroke-dasharray: 5.12,1.28,0.8,1.28; stroke-dashoffset: 0; stroke: #b0b0b0; stroke-width: 0.8"/>
     </g>
     <g id="line2d_2">
      <defs>
       <path id="m6cadf71371" d="M 0 0 
L 0 3.5 
" style="stroke: #a9a9a9; stroke-width: 0.8"/>
      </defs>
      <g>
       <use xlink:href="#m6cadf71371" x="120.20625" y="320.4" style="fill: #a9a9a9; stroke: #a9a9a9; stroke-width: 0.8"/>
      </g>
     </g>
     <g id="text_1">
      <!-- 2021-07 -->
      <g style="fill: #a9a9a9" transform="translate(99.314844 334.998438) scale(0.1 -0.1)">
       <defs>
        <path id="DejaVuSans-32" d="M 1228 531 
L 3431 531 
L 3431 0 
L 469 0 
L 469 531 
Q 828 903 1448 1529 
Q 2069 2156 2228 2338 
Q 2531 2678 2651 2914 
Q 2772 3150 2772 3378 
Q 2772 3750 2511 3984 
Q 2250 4219 1831 4219 
Q 1534 4219 1204 4116 
Q 875 4013 500 3803 
L 500 4441 
Q 881 4594 1212 4672 
Q 1544 4750 1819 4750 
Q 2544 4750 2975 4387 
Q 3406 4025 3406 3419 
Q 3406 3131 3298 2873 
Q 3191 2616 2906 2266 
Q 2828 2175 2409 1742 
Q 1991 1309 1228 531 
z
" transform="scale(0.015625)"/>
        <path id="DejaVuSans-30" d="M 2034 4250 
Q 1547 4250 1301 3770 
Q 1056 3291 1056 2328 
Q 1056 1369 1301 889 
Q 1547 409 2034 409 
Q 2525 409 2770 889 
Q 3016 1369 3016 2328 
Q 3016 3291 2770 3770 
Q 2525 4250 2034 4250 
z
M 2034 4750 
Q 2819 4750 3233 4129 
Q 3647 3509 3647 2328 
Q 3647 1150 3233 529 
Q 2819 -91 2034 -91 
Q 1250 -91 836 529 
Q 422 1150 422 2328 
Q 422 3509 836 4129 
Q 1250 4750 2034 4750 
z
" transform="scale(0.015625)"/>
        <path id="DejaVuSans-31" d="M 794 531 
L 1825 531 
L 1825 4091 
L 703 3866 
L 703 4441 
L 1819 4666 
L 2450 4666 
L 2450 531 
L 3481 531 
L 3481 0 
L 794 0 
L 794 531 
z
" transform="scale(0.015625)"/>
        <path id="DejaVuSans-2d" d="M 313 2009 
L 1997 2009 
L 1997 1497 
L 313 1497 
L 313 2009 
z
" transform="scale(0.015625)"/>
        <path id="DejaVuSans-37" d="M 525 4666 
L 3525 4666 
L 3525 4397 
L 1831 0 
L 1172 0 
L 2766 4134 
L 525 4134 
L 525 4666 
z
" transform="scale(0.015625)"/>
       </defs>
       <use xlink:href="#DejaVuSans-32"/>
       <use xlink:href="#DejaVuSans-30" x="63.623047"/>
       <use xlink:href="#DejaVuSans-32" x="127.246094"/>
       <use xlink:href="#DejaVuSans-31" x="190.869141"/>
       <use xlink:href="#DejaVuSans-2d" x="254.492188"/>
       <use xlink:href="#DejaVuSans-30" x="290.576172"/>
       <use xlink:href="#DejaVuSans-37" x="354.199219"/>
      </g>
     </g>
    </g>
    <g id="xtick_2">
     <g id="line2d_3">
      <path d="M 193.126705 320.4 
L 193.126705 43.2 
" clip-path="url(#p92016785f5)" style="fill: none; stroke-dasharray: 5.12,1.28,0.8,1.28; stroke-dashoffset: 0; stroke: #b0b0b0; stroke-width: 0.8"/>
     </g>
     <g id="line2d_4">
      <g>
       <use xlink:href="#m6cadf71371" x="193.126705" y="320.4" style="fill: #a9a9a9; stroke: #a9a9a9; stroke-width: 0.8"/>
      </g>
     </g>
     <g id="text_2">
      <!-- 2021-10 -->
      <g style="fill: #a9a9a9" transform="translate(172.235298 334.998438) scale(0.1 -0.1)">
       <use xlink:href="#DejaVuSans-32"/>
       <use xlink:href="#DejaVuSans-30" x="63.623047"/>
       <use xlink:href="#DejaVuSans-32" x="127.246094"/>
       <use xlink:href="#DejaVuSans-31" x="190.869141"/>
       <use xlink:href="#DejaVuSans-2d" x="254.492188"/>
       <use xlink:href="#DejaVuSans-31" x="290.576172"/>
       <use xlink:href="#DejaVuSans-30" x="354.199219"/>
      </g>
     </g>
    </g>
    <g id="xtick_3">
     <g id="line2d_5">
      <path d="M 266.047159 320.4 
L 266.047159 43.2 
" clip-path="url(#p92016785f5)" style="fill: none; stroke-dasharray: 5.12,1.28,0.8,1.28; stroke-dashoffset: 0; stroke: #b0b0b0; stroke-width: 0.8"/>
     </g>
     <g id="line2d_6">
      <g>
       <use xlink:href="#m6cadf71371" x="266.047159" y="320.4" style="fill: #a9a9a9; stroke: #a9a9a9; stroke-width: 0.8"/>
      </g>
     </g>
     <g id="text_3">
      <!-- 2022-01 -->
      <g style="fill: #a9a9a9" transform="translate(245.155753 334.998438) scale(0.1 -0.1)">
       <use xlink:href="#DejaVuSans-32"/>
       <use xlink:href="#DejaVuSans-30" x="63.623047"/>
       <use xlink:href="#DejaVuSans-32" x="127.246094"/>
       <use xlink:href="#DejaVuSans-32" x="190.869141"/>
       <use xlink:href="#DejaVuSans-2d" x="254.492188"/>
       <use xlink:href="#DejaVuSans-30" x="290.576172"/>
       <use xlink:href="#DejaVuSans-31" x="354.199219"/>
      </g>
     </g>
    </g>
    <g id="xtick_4">
     <g id="line2d_7">
      <path d="M 337.382386 320.4 
L 337.382386 43.2 
" clip-path="url(#p92016785f5)" style="fill: none; stroke-dasharray: 5.12,1.28,0.8,1.28; stroke-dashoffset: 0; stroke: #b0b0b0; stroke-width: 0.8"/>
     </g>
     <g id="line2d_8">
      <g>
       <use xlink:href="#m6cadf71371" x="337.382386" y="320.4" style="fill: #a9a9a9; stroke: #a9a9a9; stroke-width: 0.8"/>
      </g>
     </g>
     <g id="text_4">
      <!-- 2022-04 -->
      <g style="fill: #a9a9a9" transform="translate(316.49098 334.998438) scale(0.1 -0.1)">
       <defs>
        <path id="DejaVuSans-34" d="M 2419 4116 
L 825 1625 
L 2419 1625 
L 2419 4116 
z
M 2253 4666 
L 3047 4666 
L 3047 1625 
L 3713 1625 
L 3713 1100 
L 3047 1100 
L 3047 0 
L 2419 0 
L 2419 1100 
L 313 1100 
L 313 1709 
L 2253 4666 
z
" transform="scale(0.015625)"/>
       </defs>
       <use xlink:href="#DejaVuSans-32"/>
       <use xlink:href="#DejaVuSans-30" x="63.623047"/>
       <use xlink:href="#DejaVuSans-32" x="127.246094"/>
       <use xlink:href="#DejaVuSans-32" x="190.869141"/>
       <use xlink:href="#DejaVuSans-2d" x="254.492188"/>
       <use xlink:href="#DejaVuSans-30" x="290.576172"/>
       <use xlink:href="#DejaVuSans-34" x="354.199219"/>
      </g>
     </g>
    </g>
    <g id="xtick_5">
     <g id="line2d_9">
      <path d="M 409.510227 320.4 
L 409.510227 43.2 
" clip-path="url(#p92016785f5)" style="fill: none; stroke-dasharray: 5.12,1.28,0.8,1.28; stroke-dashoffset: 0; stroke: #b0b0b0; stroke-width: 0.8"/>
     </g>
     <g id="line2d_10">
      <g>
       <use xlink:href="#m6cadf71371" x="409.510227" y="320.4" style="fill: #a9a9a9; stroke: #a9a9a9; stroke-width: 0.8"/>
      </g>
     </g>
     <g id="text_5">
      <!-- 2022-07 -->
      <g style="fill: #a9a9a9" transform="translate(388.618821 334.998438) scale(0.1 -0.1)">
       <use xlink:href="#DejaVuSans-32"/>
       <use xlink:href="#DejaVuSans-30" x="63.623047"/>
       <use xlink:href="#DejaVuSans-32" x="127.246094"/>
       <use xlink:href="#DejaVuSans-32" x="190.869141"/>
       <use xlink:href="#DejaVuSans-2d" x="254.492188"/>
       <use xlink:href="#DejaVuSans-30" x="290.576172"/>
       <use xlink:href="#DejaVuSans-37" x="354.199219"/>
      </g>
     </g>
    </g>
    <g id="xtick_6">
     <g id="line2d_11">
      <path d="M 482.430682 320.4 
L 482.430682 43.2 
" clip-path="url(#p92016785f5)" style="fill: none; stroke-dasharray: 5.12,1.28,0.8,1.28; stroke-dashoffset: 0; stroke: #b0b0b0; stroke-width: 0.8"/>
     </g>
     <g id="line2d_12">
      <g>
       <use xlink:href="#m6cadf71371" x="482.430682" y="320.4" style="fill: #a9a9a9; stroke: #a9a9a9; stroke-width: 0.8"/>
      </g>
     </g>
     <g id="text_6">
      <!-- 2022-10 -->
      <g style="fill: #a9a9a9" transform="translate(461.539276 334.998438) scale(0.1 -0.1)">
       <use xlink:href="#DejaVuSans-32"/>
       <use xlink:href="#DejaVuSans-30" x="63.623047"/>
       <use xlink:href="#DejaVuSans-32" x="127.246094"/>
       <use xlink:href="#DejaVuSans-32" x="190.869141"/>
       <use xlink:href="#DejaVuSans-2d" x="254.492188"/>
       <use xlink:href="#DejaVuSans-31" x="290.576172"/>
       <use xlink:href="#DejaVuSans-30" x="354.199219"/>
      </g>
     </g>
    </g>
    <g id="xtick_7">
     <g id="line2d_13">
      <path d="M 555.351136 320.4 
L 555.351136 43.2 
" clip-path="url(#p92016785f5)" style="fill: none; stroke-dasharray: 5.12,1.28,0.8,1.28; stroke-dashoffset: 0; stroke: #b0b0b0; stroke-width: 0.8"/>
     </g>
     <g id="line2d_14">
      <g>
       <use xlink:href="#m6cadf71371" x="555.351136" y="320.4" style="fill: #a9a9a9; stroke: #a9a9a9; stroke-width: 0.8"/>
      </g>
     </g>
     <g id="text_7">
      <!-- 2023-01 -->
      <g style="fill: #a9a9a9" transform="translate(534.45973 334.998438) scale(0.1 -0.1)">
       <defs>
        <path id="DejaVuSans-33" d="M 2597 2516 
Q 3050 2419 3304 2112 
Q 3559 1806 3559 1356 
Q 3559 666 3084 287 
Q 2609 -91 1734 -91 
Q 1441 -91 1130 -33 
Q 819 25 488 141 
L 488 750 
Q 750 597 1062 519 
Q 1375 441 1716 441 
Q 2309 441 2620 675 
Q 2931 909 2931 1356 
Q 2931 1769 2642 2001 
Q 2353 2234 1838 2234 
L 1294 2234 
L 1294 2753 
L 1863 2753 
Q 2328 2753 2575 2939 
Q 2822 3125 2822 3475 
Q 2822 3834 2567 4026 
Q 2313 4219 1838 4219 
Q 1578 4219 1281 4162 
Q 984 4106 628 3988 
L 628 4550 
Q 988 4650 1302 4700 
Q 1616 4750 1894 4750 
Q 2613 4750 3031 4423 
Q 3450 4097 3450 3541 
Q 3450 3153 3228 2886 
Q 3006 2619 2597 2516 
z
" transform="scale(0.015625)"/>
       </defs>
       <use xlink:href="#DejaVuSans-32"/>
       <use xlink:href="#DejaVuSans-30" x="63.623047"/>
       <use xlink:href="#DejaVuSans-32" x="127.246094"/>
       <use xlink:href="#DejaVuSans-33" x="190.869141"/>
       <use xlink:href="#DejaVuSans-2d" x="254.492188"/>
       <use xlink:href="#DejaVuSans-30" x="290.576172"/>
       <use xlink:href="#DejaVuSans-31" x="354.199219"/>
      </g>
     </g>
    </g>
    <g id="xtick_8">
     <g id="line2d_15">
      <path d="M 626.686364 320.4 
L 626.686364 43.2 
" clip-path="url(#p92016785f5)" style="fill: none; stroke-dasharray: 5.12,1.28,0.8,1.28; stroke-dashoffset: 0; stroke: #b0b0b0; stroke-width: 0.8"/>
     </g>
     <g id="line2d_16">
      <g>
       <use xlink:href="#m6cadf71371" x="626.686364" y="320.4" style="fill: #a9a9a9; stroke: #a9a9a9; stroke-width: 0.8"/>
      </g>
     </g>
     <g id="text_8">
      <!-- 2023-04 -->
      <g style="fill: #a9a9a9" transform="translate(605.794957 334.998438) scale(0.1 -0.1)">
       <use xlink:href="#DejaVuSans-32"/>
       <use xlink:href="#DejaVuSans-30" x="63.623047"/>
       <use xlink:href="#DejaVuSans-32" x="127.246094"/>
       <use xlink:href="#DejaVuSans-33" x="190.869141"/>
       <use xlink:href="#DejaVuSans-2d" x="254.492188"/>
       <use xlink:href="#DejaVuSans-30" x="290.576172"/>
       <use xlink:href="#DejaVuSans-34" x="354.199219"/>
      </g>
     </g>
    </g>
    <g id="xtick_9">
     <g id="line2d_17">
      <path d="M 698.814205 320.4 
L 698.814205 43.2 
" clip-path="url(#p92016785f5)" style="fill: none; stroke-dasharray: 5.12,1.28,0.8,1.28; stroke-dashoffset: 0; stroke: #b0b0b0; stroke-width: 0.8"/>
     </g>
     <g id="line2d_18">
      <g>
       <use xlink:href="#m6cadf71371" x="698.814205" y="320.4" style="fill: #a9a9a9; stroke: #a9a9a9; stroke-width: 0.8"/>
      </g>
     </g>
     <g id="text_9">
      <!-- 2023-07 -->
      <g style="fill: #a9a9a9" transform="translate(677.922798 334.998438) scale(0.1 -0.1)">
       <use xlink:href="#DejaVuSans-32"/>
       <use xlink:href="#DejaVuSans-30" x="63.623047"/>
       <use xlink:href="#DejaVuSans-32" x="127.246094"/>
       <use xlink:href="#DejaVuSans-33" x="190.869141"/>
       <use xlink:href="#DejaVuSans-2d" x="254.492188"/>
       <use xlink:href="#DejaVuSans-30" x="290.576172"/>
       <use xlink:href="#DejaVuSans-37" x="354.199219"/>
      </g>
     </g>
    </g>
    <g id="xtick_10">
     <g id="line2d_19">
      <path d="M 771.734659 320.4 
L 771.734659 43.2 
" clip-path="url(#p92016785f5)" style="fill: none; stroke-dasharray: 5.12,1.28,0.8,1.28; stroke-dashoffset: 0; stroke: #b0b0b0; stroke-width: 0.8"/>
     </g>
     <g id="line2d_20">
      <g>
       <use xlink:href="#m6cadf71371" x="771.734659" y="320.4" style="fill: #a9a9a9; stroke: #a9a9a9; stroke-width: 0.8"/>
      </g>
     </g>
     <g id="text_10">
      <!-- 2023-10 -->
      <g style="fill: #a9a9a9" transform="translate(750.843253 334.998438) scale(0.1 -0.1)">
       <use xlink:href="#DejaVuSans-32"/>
       <use xlink:href="#DejaVuSans-30" x="63.623047"/>
       <use xlink:href="#DejaVuSans-32" x="127.246094"/>
       <use xlink:href="#DejaVuSans-33" x="190.869141"/>
       <use xlink:href="#DejaVuSans-2d" x="254.492188"/>
       <use xlink:href="#DejaVuSans-31" x="290.576172"/>
       <use xlink:href="#DejaVuSans-30" x="354.199219"/>
      </g>
     </g>
    </g>
   </g>
   <g id="matplotlib.axis_2">
    <g id="ytick_1">
     <g id="line2d_21">
      <path d="M 108 307.852941 
L 777.6 307.852941 
" clip-path="url(#p92016785f5)" style="fill: none; stroke-dasharray: 5.12,1.28,0.8,1.28; stroke-dashoffset: 0; stroke: #b0b0b0; stroke-width: 0.8"/>
     </g>
     <g id="line2d_22">
      <defs>
       <path id="mdede21a9bf" d="M 0 0 
L -3.5 0 
" style="stroke: #a9a9a9; stroke-width: 0.8"/>
      </defs>
      <g>
       <use xlink:href="#mdede21a9bf" x="108" y="307.852941" style="fill: #a9a9a9; stroke: #a9a9a9; stroke-width: 0.8"/>
      </g>
     </g>
     <g id="text_11">
      <!-- 0 -->
      <g style="fill: #a9a9a9" transform="translate(94.6375 311.65216) scale(0.1 -0.1)">
       <use xlink:href="#DejaVuSans-30"/>
      </g>
     </g>
    </g>
    <g id="ytick_2">
     <g id="line2d_23">
      <path d="M 108 276.088235 
L 777.6 276.088235 
" clip-path="url(#p92016785f5)" style="fill: none; stroke-dasharray: 5.12,1.28,0.8,1.28; stroke-dashoffset: 0; stroke: #b0b0b0; stroke-width: 0.8"/>
     </g>
     <g id="line2d_24">
      <g>
       <use xlink:href="#mdede21a9bf" x="108" y="276.088235" style="fill: #a9a9a9; stroke: #a9a9a9; stroke-width: 0.8"/>
      </g>
     </g>
     <g id="text_12">
      <!-- 600 -->
      <g style="fill: #a9a9a9" transform="translate(81.9125 279.887454) scale(0.1 -0.1)">
       <defs>
        <path id="DejaVuSans-36" d="M 2113 2584 
Q 1688 2584 1439 2293 
Q 1191 2003 1191 1497 
Q 1191 994 1439 701 
Q 1688 409 2113 409 
Q 2538 409 2786 701 
Q 3034 994 3034 1497 
Q 3034 2003 2786 2293 
Q 2538 2584 2113 2584 
z
M 3366 4563 
L 3366 3988 
Q 3128 4100 2886 4159 
Q 2644 4219 2406 4219 
Q 1781 4219 1451 3797 
Q 1122 3375 1075 2522 
Q 1259 2794 1537 2939 
Q 1816 3084 2150 3084 
Q 2853 3084 3261 2657 
Q 3669 2231 3669 1497 
Q 3669 778 3244 343 
Q 2819 -91 2113 -91 
Q 1303 -91 875 529 
Q 447 1150 447 2328 
Q 447 3434 972 4092 
Q 1497 4750 2381 4750 
Q 2619 4750 2861 4703 
Q 3103 4656 3366 4563 
z
" transform="scale(0.015625)"/>
       </defs>
       <use xlink:href="#DejaVuSans-36"/>
       <use xlink:href="#DejaVuSans-30" x="63.623047"/>
       <use xlink:href="#DejaVuSans-30" x="127.246094"/>
      </g>
     </g>
    </g>
    <g id="ytick_3">
     <g id="line2d_25">
      <path d="M 108 244.323529 
L 777.6 244.323529 
" clip-path="url(#p92016785f5)" style="fill: none; stroke-dasharray: 5.12,1.28,0.8,1.28; stroke-dashoffset: 0; stroke: #b0b0b0; stroke-width: 0.8"/>
     </g>
     <g id="line2d_26">
      <g>
       <use xlink:href="#mdede21a9bf" x="108" y="244.323529" style="fill: #a9a9a9; stroke: #a9a9a9; stroke-width: 0.8"/>
      </g>
     </g>
     <g id="text_13">
      <!-- 1200 -->
      <g style="fill: #a9a9a9" transform="translate(75.55 248.122748) scale(0.1 -0.1)">
       <use xlink:href="#DejaVuSans-31"/>
       <use xlink:href="#DejaVuSans-32" x="63.623047"/>
       <use xlink:href="#DejaVuSans-30" x="127.246094"/>
       <use xlink:href="#DejaVuSans-30" x="190.869141"/>
      </g>
     </g>
    </g>
    <g id="ytick_4">
     <g id="line2d_27">
      <path d="M 108 212.558824 
L 777.6 212.558824 
" clip-path="url(#p92016785f5)" style="fill: none; stroke-dasharray: 5.12,1.28,0.8,1.28; stroke-dashoffset: 0; stroke: #b0b0b0; stroke-width: 0.8"/>
     </g>
     <g id="line2d_28">
      <g>
       <use xlink:href="#mdede21a9bf" x="108" y="212.558824" style="fill: #a9a9a9; stroke: #a9a9a9; stroke-width: 0.8"/>
      </g>
     </g>
     <g id="text_14">
      <!-- 1800 -->
      <g style="fill: #a9a9a9" transform="translate(75.55 216.358042) scale(0.1 -0.1)">
       <defs>
        <path id="DejaVuSans-38" d="M 2034 2216 
Q 1584 2216 1326 1975 
Q 1069 1734 1069 1313 
Q 1069 891 1326 650 
Q 1584 409 2034 409 
Q 2484 409 2743 651 
Q 3003 894 3003 1313 
Q 3003 1734 2745 1975 
Q 2488 2216 2034 2216 
z
M 1403 2484 
Q 997 2584 770 2862 
Q 544 3141 544 3541 
Q 544 4100 942 4425 
Q 1341 4750 2034 4750 
Q 2731 4750 3128 4425 
Q 3525 4100 3525 3541 
Q 3525 3141 3298 2862 
Q 3072 2584 2669 2484 
Q 3125 2378 3379 2068 
Q 3634 1759 3634 1313 
Q 3634 634 3220 271 
Q 2806 -91 2034 -91 
Q 1263 -91 848 271 
Q 434 634 434 1313 
Q 434 1759 690 2068 
Q 947 2378 1403 2484 
z
M 1172 3481 
Q 1172 3119 1398 2916 
Q 1625 2713 2034 2713 
Q 2441 2713 2670 2916 
Q 2900 3119 2900 3481 
Q 2900 3844 2670 4047 
Q 2441 4250 2034 4250 
Q 1625 4250 1398 4047 
Q 1172 3844 1172 3481 
z
" transform="scale(0.015625)"/>
       </defs>
       <use xlink:href="#DejaVuSans-31"/>
       <use xlink:href="#DejaVuSans-38" x="63.623047"/>
       <use xlink:href="#DejaVuSans-30" x="127.246094"/>
       <use xlink:href="#DejaVuSans-30" x="190.869141"/>
      </g>
     </g>
    </g>
    <g id="ytick_5">
     <g id="line2d_29">
      <path d="M 108 180.794118 
L 777.6 180.794118 
" clip-path="url(#p92016785f5)" style="fill: none; stroke-dasharray: 5.12,1.28,0.8,1.28; stroke-dashoffset: 0; stroke: #b0b0b0; stroke-width: 0.8"/>
     </g>
     <g id="line2d_30">
      <g>
       <use xlink:href="#mdede21a9bf" x="108" y="180.794118" style="fill: #a9a9a9; stroke: #a9a9a9; stroke-width: 0.8"/>
      </g>
     </g>
     <g id="text_15">
      <!-- 2400 -->
      <g style="fill: #a9a9a9" transform="translate(75.55 184.593336) scale(0.1 -0.1)">
       <use xlink:href="#DejaVuSans-32"/>
       <use xlink:href="#DejaVuSans-34" x="63.623047"/>
       <use xlink:href="#DejaVuSans-30" x="127.246094"/>
       <use xlink:href="#DejaVuSans-30" x="190.869141"/>
      </g>
     </g>
    </g>
    <g id="ytick_6">
     <g id="line2d_31">
      <path d="M 108 149.029412 
L 777.6 149.029412 
" clip-path="url(#p92016785f5)" style="fill: none; stroke-dasharray: 5.12,1.28,0.8,1.28; stroke-dashoffset: 0; stroke: #b0b0b0; stroke-width: 0.8"/>
     </g>
     <g id="line2d_32">
      <g>
       <use xlink:href="#mdede21a9bf" x="108" y="149.029412" style="fill: #a9a9a9; stroke: #a9a9a9; stroke-width: 0.8"/>
      </g>
     </g>
     <g id="text_16">
      <!-- 3000 -->
      <g style="fill: #a9a9a9" transform="translate(75.55 152.828631) scale(0.1 -0.1)">
       <use xlink:href="#DejaVuSans-33"/>
       <use xlink:href="#DejaVuSans-30" x="63.623047"/>
       <use xlink:href="#DejaVuSans-30" x="127.246094"/>
       <use xlink:href="#DejaVuSans-30" x="190.869141"/>
      </g>
     </g>
    </g>
    <g id="ytick_7">
     <g id="line2d_33">
      <path d="M 108 117.264706 
L 777.6 117.264706 
" clip-path="url(#p92016785f5)" style="fill: none; stroke-dasharray: 5.12,1.28,0.8,1.28; stroke-dashoffset: 0; stroke: #b0b0b0; stroke-width: 0.8"/>
     </g>
     <g id="line2d_34">
      <g>
       <use xlink:href="#mdede21a9bf" x="108" y="117.264706" style="fill: #a9a9a9; stroke: #a9a9a9; stroke-width: 0.8"/>
      </g>
     </g>
     <g id="text_17">
      <!-- 3600 -->
      <g style="fill: #a9a9a9" transform="translate(75.55 121.063925) scale(0.1 -0.1)">
       <use xlink:href="#DejaVuSans-33"/>
       <use xlink:href="#DejaVuSans-36" x="63.623047"/>
       <use xlink:href="#DejaVuSans-30" x="127.246094"/>
       <use xlink:href="#DejaVuSans-30" x="190.869141"/>
      </g>
     </g>
    </g>
    <g id="ytick_8">
     <g id="line2d_35">
      <path d="M 108 85.5 
L 777.6 85.5 
" clip-path="url(#p92016785f5)" style="fill: none; stroke-dasharray: 5.12,1.28,0.8,1.28; stroke-dashoffset: 0; stroke: #b0b0b0; stroke-width: 0.8"/>
     </g>
     <g id="line2d_36">
      <g>
       <use xlink:href="#mdede21a9bf" x="108" y="85.5" style="fill: #a9a9a9; stroke: #a9a9a9; stroke-width: 0.8"/>
      </g>
     </g>
     <g id="text_18">
      <!-- 4200 -->
      <g style="fill: #a9a9a9" transform="translate(75.55 89.299219) scale(0.1 -0.1)">
       <use xlink:href="#DejaVuSans-34"/>
       <use xlink:href="#DejaVuSans-32" x="63.623047"/>
       <use xlink:href="#DejaVuSans-30" x="127.246094"/>
       <use xlink:href="#DejaVuSans-30" x="190.869141"/>
      </g>
     </g>
    </g>
    <g id="ytick_9">
     <g id="line2d_37">
      <path d="M 108 53.735294 
L 777.6 53.735294 
" clip-path="url(#p92016785f5)" style="fill: none; stroke-dasharray: 5.12,1.28,0.8,1.28; stroke-dashoffset: 0; stroke: #b0b0b0; stroke-width: 0.8"/>
     </g>
     <g id="line2d_38">
      <g>
       <use xlink:href="#mdede21a9bf" x="108" y="53.735294" style="fill: #a9a9a9; stroke: #a9a9a9; stroke-width: 0.8"/>
      </g>
     </g>
     <g id="text_19">
      <!-- 4800 -->
      <g style="fill: #a9a9a9" transform="translate(75.55 57.534513) scale(0.1 -0.1)">
       <use xlink:href="#DejaVuSans-34"/>
       <use xlink:href="#DejaVuSans-38" x="63.623047"/>
       <use xlink:href="#DejaVuSans-30" x="127.246094"/>
       <use xlink:href="#DejaVuSans-30" x="190.869141"/>
      </g>
     </g>
    </g>
   </g>
   <g id="line2d_39">
    <path d="M 138.436364 307.694118 
L 143.192045 307.323529 
L 143.984659 307.005882 
L 146.3625 306.741176 
L 151.910795 305.735294 
L 155.873864 305.364706 
L 156.666477 304.994118 
L 157.459091 304.782353 
L 158.251705 303.829412 
L 159.044318 303.3 
L 159.836932 301.605882 
L 160.629545 301.5 
L 161.422159 300.917647 
L 163.007386 300.176471 
L 164.592614 299.011765 
L 165.385227 298.270588 
L 166.970455 297.529412 
L 167.763068 297.211765 
L 168.555682 296.629412 
L 171.726136 295.305882 
L 172.51875 294.088235 
L 173.311364 293.452941 
L 174.896591 292.605882 
L 182.822727 291.494118 
L 183.615341 291.123529 
L 189.163636 290.7 
L 190.748864 290.276471 
L 192.334091 289.958824 
L 198.675 289.164706 
L 199.467614 288.741176 
L 200.260227 288.635294 
L 201.052841 288.317647 
L 202.638068 288.052941 
L 203.430682 288 
L 204.223295 287.735294 
L 207.39375 287.258824 
L 208.978977 286.835294 
L 211.356818 286.623529 
L 212.942045 286.464706 
L 213.734659 286.252941 
L 214.527273 286.2 
L 216.905114 285.511765 
L 221.660795 284.823529 
L 222.453409 284.558824 
L 223.246023 283.5 
L 225.623864 282.652941 
L 228.001705 282.017647 
L 228.794318 281.647059 
L 229.586932 281.594118 
L 233.55 280.535294 
L 235.135227 280.429412 
L 235.927841 280.323529 
L 238.305682 279.635294 
L 241.476136 278.894118 
L 242.26875 278.576471 
L 243.061364 278.470588 
L 243.853977 278.1 
L 251.780114 276.935294 
L 255.743182 275.823529 
L 256.535795 275.347059 
L 259.70625 274.5 
L 261.291477 273.6 
L 262.084091 273.070588 
L 262.876705 272.964706 
L 263.669318 272.7 
L 266.047159 272.276471 
L 266.839773 271.905882 
L 268.425 271.641176 
L 270.010227 270.9 
L 273.973295 269.947059 
L 276.351136 269.364706 
L 277.14375 269.047059 
L 277.936364 268.888235 
L 278.728977 268.570588 
L 279.521591 268.464706 
L 280.314205 268.094118 
L 281.106818 267.882353 
L 282.692045 267.776471 
L 284.277273 267.247059 
L 285.8625 267.141176 
L 286.655114 266.770588 
L 289.825568 266.241176 
L 292.996023 265.976471 
L 293.788636 265.817647 
L 295.373864 265.076471 
L 304.092614 261.529412 
L 304.885227 261.105882 
L 305.677841 260.258824 
L 306.470455 258.988235 
L 307.263068 257.982353 
L 308.055682 257.770588 
L 308.848295 257.770588 
L 310.433523 256.605882 
L 311.226136 256.394118 
L 312.01875 255.970588 
L 312.811364 255.811765 
L 313.603977 255.123529 
L 314.396591 254.911765 
L 316.774432 253.8 
L 317.567045 252.847059 
L 318.359659 251.682353 
L 319.152273 251.205882 
L 319.944886 249.935294 
L 320.7375 249.141176 
L 321.530114 248.770588 
L 322.322727 248.558824 
L 323.907955 247.605882 
L 324.700568 247.235294 
L 327.871023 244.905882 
L 328.663636 243.794118 
L 329.45625 241.994118 
L 330.248864 240.829412 
L 331.041477 240.247059 
L 331.834091 239.929412 
L 335.004545 237.282353 
L 335.797159 236.752941 
L 337.382386 235.376471 
L 338.175 234.264706 
L 338.967614 233.523529 
L 340.552841 232.464706 
L 342.930682 230.876471 
L 343.723295 230.188235 
L 344.515909 229.976471 
L 346.89375 228.758824 
L 348.478977 227.858824 
L 349.271591 227.541176 
L 350.856818 226.111765 
L 351.649432 225.158824 
L 353.234659 224.1 
L 354.027273 223.888235 
L 354.819886 223.517647 
L 355.6125 222.935294 
L 357.197727 222.088235 
L 357.990341 221.982353 
L 359.575568 221.135294 
L 360.368182 220.711765 
L 361.160795 219.917647 
L 361.953409 219.441176 
L 362.746023 219.176471 
L 363.538636 218.647059 
L 366.709091 217.058824 
L 367.501705 216.370588 
L 370.672159 215.311765 
L 371.464773 214.782353 
L 372.257386 214.623529 
L 373.842614 214.094118 
L 376.220455 213.194118 
L 378.598295 212.347059 
L 380.183523 212.082353 
L 381.76875 210.758824 
L 383.353977 210.017647 
L 385.731818 208.694118 
L 387.317045 208.270588 
L 388.109659 207.794118 
L 388.902273 207.582353 
L 391.280114 206.1 
L 393.657955 205.570588 
L 396.035795 204.723529 
L 397.621023 203.823529 
L 398.413636 203.717647 
L 399.20625 203.452941 
L 400.791477 203.135294 
L 403.169318 201.441176 
L 405.547159 200.911765 
L 406.339773 200.647059 
L 407.132386 200.064706 
L 411.888068 198.582353 
L 412.680682 198.529412 
L 418.228977 196.623529 
L 419.021591 196.252941 
L 421.399432 195.723529 
L 422.984659 195.352941 
L 423.777273 194.982353 
L 424.569886 194.823529 
L 426.947727 193.764706 
L 429.325568 192.652941 
L 430.118182 192.123529 
L 430.910795 191.911765 
L 433.288636 190.694118 
L 434.873864 190.323529 
L 436.459091 189.529412 
L 438.044318 189.105882 
L 438.836932 189 
L 439.629545 188.470588 
L 440.422159 188.1 
L 441.214773 187.941176 
L 442.8 187.305882 
L 443.592614 187.147059 
L 444.385227 186.723529 
L 447.555682 186.247059 
L 449.140909 185.505882 
L 449.933523 184.870588 
L 450.726136 183.494118 
L 452.311364 183.176471 
L 453.103977 183.017647 
L 456.274432 181.429412 
L 457.067045 181.270588 
L 463.407955 178.252941 
L 465.785795 177.776471 
L 467.371023 177.035294 
L 468.163636 176.717647 
L 468.95625 176.611765 
L 472.126705 175.235294 
L 473.711932 174.176471 
L 474.504545 173.805882 
L 475.297159 173.7 
L 476.089773 173.435294 
L 476.882386 173.382353 
L 480.052841 172.376471 
L 480.845455 172.323529 
L 481.638068 171.741176 
L 483.223295 171.211765 
L 485.601136 170.470588 
L 486.39375 169.994118 
L 487.186364 169.782353 
L 487.978977 169.252941 
L 488.771591 168.935294 
L 489.564205 168.458824 
L 491.149432 167.876471 
L 491.942045 167.664706 
L 492.734659 167.294118 
L 493.527273 167.082353 
L 494.319886 166.711765 
L 495.1125 166.129412 
L 495.905114 165.335294 
L 496.697727 164.805882 
L 497.490341 164.647059 
L 499.075568 163.482353 
L 499.868182 163.323529 
L 500.660795 162.158824 
L 501.453409 161.841176 
L 502.246023 161.258824 
L 503.038636 161.152941 
L 503.83125 160.623529 
L 504.623864 160.252941 
L 505.416477 160.094118 
L 506.209091 159.776471 
L 507.001705 159.141176 
L 507.794318 158.876471 
L 510.172159 157.341176 
L 513.342614 155.805882 
L 514.135227 155.7 
L 515.720455 155.011765 
L 516.513068 154.535294 
L 517.305682 153.264706 
L 518.098295 152.470588 
L 518.890909 152.047059 
L 519.683523 151.888235 
L 521.26875 150.935294 
L 522.061364 150.776471 
L 523.646591 150.035294 
L 526.024432 149.082353 
L 527.609659 148.023529 
L 529.194886 146.382353 
L 530.780114 145.429412 
L 531.572727 144.952941 
L 532.365341 144.158824 
L 534.743182 142.252941 
L 535.535795 141.882353 
L 536.328409 141.035294 
L 537.121023 140.452941 
L 538.70625 139.923529 
L 539.498864 139.182353 
L 541.084091 138.388235 
L 541.876705 138.176471 
L 542.669318 137.594118 
L 543.461932 137.382353 
L 545.839773 136.164706 
L 546.632386 135.582353 
L 548.217614 134.947059 
L 549.010227 134.788235 
L 549.802841 134.311765 
L 555.351136 132.405882 
L 556.14375 131.717647 
L 559.314205 130.552941 
L 560.106818 130.341176 
L 560.899432 129.758824 
L 563.277273 128.7 
L 564.069886 128.117647 
L 564.8625 127.694118 
L 566.447727 124.623529 
L 568.032955 122.823529 
L 568.825568 122.294118 
L 571.203409 121.288235 
L 571.996023 121.023529 
L 572.788636 120.917647 
L 573.58125 120.494118 
L 575.959091 119.752941 
L 578.336932 118.8 
L 579.922159 117.741176 
L 582.3 116.682353 
L 586.263068 114.458824 
L 587.055682 113.664706 
L 588.640909 112.817647 
L 589.433523 112.394118 
L 590.226136 112.129412 
L 591.01875 111.6 
L 592.603977 110.858824 
L 593.396591 110.382353 
L 594.189205 110.064706 
L 594.981818 109.588235 
L 595.774432 109.376471 
L 596.567045 108.794118 
L 597.359659 108.476471 
L 598.152273 108.317647 
L 599.7375 107.682353 
L 602.115341 106.835294 
L 602.907955 106.252941 
L 604.493182 105.829412 
L 606.078409 105.247059 
L 606.871023 104.611765 
L 608.45625 104.135294 
L 609.248864 103.764706 
L 610.041477 103.552941 
L 611.626705 102.494118 
L 613.211932 101.805882 
L 614.797159 100.641176 
L 616.382386 100.111765 
L 617.175 99.423529 
L 617.967614 99.264706 
L 618.760227 98.576471 
L 620.345455 97.676471 
L 621.930682 97.041176 
L 622.723295 96.247059 
L 625.101136 95.505882 
L 625.89375 95.029412 
L 626.686364 94.923529 
L 629.064205 93.758824 
L 632.234659 92.805882 
L 633.819886 92.594118 
L 634.6125 92.276471 
L 635.405114 92.117647 
L 636.990341 91.482353 
L 637.782955 91.429412 
L 640.160795 90.635294 
L 641.746023 89.682353 
L 643.33125 88.623529 
L 648.086932 86.347059 
L 650.464773 84.811765 
L 652.05 84.441176 
L 653.635227 83.382353 
L 656.805682 82.429412 
L 657.598295 82.111765 
L 659.183523 81.741176 
L 663.146591 80.470588 
L 664.731818 80.152941 
L 666.317045 79.782353 
L 667.109659 79.411765 
L 667.902273 79.305882 
L 669.4875 78.670588 
L 670.280114 78.564706 
L 671.072727 78.194118 
L 672.657955 77.876471 
L 673.450568 77.505882 
L 675.828409 76.976471 
L 677.413636 76.658824 
L 684.547159 75.229412 
L 685.339773 74.911765 
L 686.132386 74.858824 
L 688.510227 74.223529 
L 689.302841 73.8 
L 690.888068 73.270588 
L 691.680682 73.217647 
L 695.64375 72.052941 
L 699.606818 70.835294 
L 700.399432 70.623529 
L 701.192045 70.252941 
L 701.984659 70.252941 
L 703.569886 69.723529 
L 704.3625 68.929412 
L 705.155114 68.558824 
L 706.740341 68.082353 
L 709.910795 66.917647 
L 710.703409 66.705882 
L 711.496023 66.229412 
L 712.288636 66.070588 
L 713.08125 65.541176 
L 716.251705 64.588235 
L 717.044318 64.323529 
L 717.836932 63.847059 
L 718.629545 63.635294 
L 719.422159 63 
L 721.8 62.576471 
L 723.385227 61.729412 
L 724.177841 60.829412 
L 725.763068 60.511765 
L 730.51875 59.452941 
L 732.103977 59.029412 
L 733.689205 58.976471 
L 734.481818 58.605882 
L 736.859659 58.235294 
L 737.652273 58.023529 
L 738.444886 57.652941 
L 740.822727 57.335294 
L 742.407955 56.752941 
L 743.200568 56.382353 
L 743.993182 56.329412 
L 746.371023 55.8 
L 747.163636 55.8 
L 747.163636 55.8 
" clip-path="url(#p92016785f5)" style="fill: none; stroke: #1f77b4; stroke-width: 1.5; stroke-linecap: square"/>
   </g>
   <g id="line2d_40">
    <path d="M 139.228977 307.8 
L 141.606818 307.694118 
L 143.192045 307.588235 
L 148.740341 307.482353 
L 152.703409 307.323529 
L 155.873864 307.323529 
L 156.666477 307.111765 
L 159.044318 307.058824 
L 163.8 306.529412 
L 175.689205 305.841176 
L 182.030114 305.735294 
L 185.993182 305.576471 
L 195.504545 305.470588 
L 199.467614 305.311765 
L 204.223295 305.205882 
L 207.39375 305.1 
L 214.527273 304.994118 
L 216.905114 304.941176 
L 219.282955 304.888235 
L 221.660795 304.623529 
L 226.416477 304.570588 
L 228.001705 304.464706 
L 233.55 304.358824 
L 242.26875 303.882353 
L 247.817045 303.776471 
L 249.402273 303.670588 
L 251.780114 303.564706 
L 256.535795 303.352941 
L 259.70625 303.3 
L 262.084091 303.088235 
L 275.558523 302.294118 
L 277.936364 302.188235 
L 283.484659 301.923529 
L 285.8625 301.817647 
L 293.788636 301.394118 
L 302.507386 301.288235 
L 305.677841 300.970588 
L 307.263068 300.864706 
L 315.981818 300.229412 
L 316.774432 300.017647 
L 319.152273 299.805882 
L 320.7375 299.435294 
L 323.115341 299.382353 
L 325.493182 299.276471 
L 331.834091 298.482353 
L 335.797159 298.376471 
L 346.101136 297.582353 
L 350.856818 297.052941 
L 353.234659 297 
L 354.819886 296.894118 
L 357.990341 296.788235 
L 359.575568 296.682353 
L 363.538636 296.311765 
L 364.33125 296.1 
L 369.086932 295.888235 
L 373.05 295.782353 
L 384.146591 295.147059 
L 385.731818 295.041176 
L 396.035795 294.458824 
L 401.584091 294.352941 
L 402.376705 294.194118 
L 408.717614 294.088235 
L 414.265909 293.823529 
L 422.984659 293.717647 
L 428.532955 293.452941 
L 434.873864 293.347059 
L 442.007386 292.976471 
L 446.763068 292.870588 
L 461.822727 291.970588 
L 468.163636 291.864706 
L 472.126705 291.494118 
L 473.711932 291.335294 
L 477.675 291.282353 
L 480.845455 290.964706 
L 488.771591 290.541176 
L 493.527273 290.435294 
L 495.905114 290.382353 
L 498.282955 290.329412 
L 500.660795 290.117647 
L 507.001705 290.011765 
L 508.586932 289.747059 
L 510.172159 289.641176 
L 513.342614 289.535294 
L 515.720455 289.429412 
L 517.305682 289.323529 
L 524.439205 289.217647 
L 526.024432 289.058824 
L 529.194886 288.952941 
L 529.9875 288.741176 
L 531.572727 288.688235 
L 532.365341 288.529412 
L 534.743182 288.423529 
L 548.217614 287.629412 
L 550.595455 287.523529 
L 554.558523 287.364706 
L 565.655114 287.258824 
L 571.203409 286.994118 
L 577.544318 286.888235 
L 580.714773 286.782353 
L 583.885227 286.729412 
L 585.470455 286.570588 
L 588.640909 286.464706 
L 596.567045 286.041176 
L 601.322727 285.988235 
L 603.700568 285.776471 
L 606.078409 285.723529 
L 611.626705 285.617647 
L 614.797159 285.511765 
L 624.308523 285.405882 
L 628.271591 285.247059 
L 633.027273 285.141176 
L 635.405114 284.876471 
L 640.160795 284.823529 
L 640.953409 284.664706 
L 642.538636 284.558824 
L 645.709091 284.452941 
L 655.220455 284.347059 
L 659.183523 284.188235 
L 672.657955 284.135294 
L 674.243182 284.029412 
L 676.621023 283.976471 
L 686.925 283.870588 
L 688.510227 283.764706 
L 697.228977 283.658824 
L 700.399432 283.552941 
L 709.910795 283.5 
L 711.496023 283.394118 
L 723.385227 283.341176 
L 725.763068 283.129412 
L 739.2375 283.023529 
L 741.615341 282.970588 
L 747.163636 282.917647 
L 747.163636 282.917647 
" clip-path="url(#p92016785f5)" style="fill: none; stroke: #ff7f0e; stroke-width: 1.5; stroke-linecap: square"/>
   </g>
   <g id="patch_3">
    <path d="M 108 320.4 
L 108 43.2 
" style="fill: none; stroke: #a9a9a9; stroke-width: 0.8; stroke-linejoin: miter; stroke-linecap: square"/>
   </g>
   <g id="patch_4">
    <path d="M 777.6 320.4 
L 777.6 43.2 
" style="fill: none"/>
   </g>
   <g id="patch_5">
    <path d="M 108 320.4 
L 777.6 320.4 
" style="fill: none; stroke: #a9a9a9; stroke-width: 0.8; stroke-linejoin: miter; stroke-linecap: square"/>
   </g>
   <g id="patch_6">
    <path d="M 108 43.2 
L 777.6 43.2 
" style="fill: none"/>
   </g>
   <g id="text_20">
    <!-- get_subscribe history -->
    <g style="fill: #a9a9a9" transform="translate(378.6075 37.2) scale(0.12 -0.12)">
     <defs>
      <path id="DejaVuSans-67" d="M 2906 1791 
Q 2906 2416 2648 2759 
Q 2391 3103 1925 3103 
Q 1463 3103 1205 2759 
Q 947 2416 947 1791 
Q 947 1169 1205 825 
Q 1463 481 1925 481 
Q 2391 481 2648 825 
Q 2906 1169 2906 1791 
z
M 3481 434 
Q 3481 -459 3084 -895 
Q 2688 -1331 1869 -1331 
Q 1566 -1331 1297 -1286 
Q 1028 -1241 775 -1147 
L 775 -588 
Q 1028 -725 1275 -790 
Q 1522 -856 1778 -856 
Q 2344 -856 2625 -561 
Q 2906 -266 2906 331 
L 2906 616 
Q 2728 306 2450 153 
Q 2172 0 1784 0 
Q 1141 0 747 490 
Q 353 981 353 1791 
Q 353 2603 747 3093 
Q 1141 3584 1784 3584 
Q 2172 3584 2450 3431 
Q 2728 3278 2906 2969 
L 2906 3500 
L 3481 3500 
L 3481 434 
z
" transform="scale(0.015625)"/>
      <path id="DejaVuSans-65" d="M 3597 1894 
L 3597 1613 
L 953 1613 
Q 991 1019 1311 708 
Q 1631 397 2203 397 
Q 2534 397 2845 478 
Q 3156 559 3463 722 
L 3463 178 
Q 3153 47 2828 -22 
Q 2503 -91 2169 -91 
Q 1331 -91 842 396 
Q 353 884 353 1716 
Q 353 2575 817 3079 
Q 1281 3584 2069 3584 
Q 2775 3584 3186 3129 
Q 3597 2675 3597 1894 
z
M 3022 2063 
Q 3016 2534 2758 2815 
Q 2500 3097 2075 3097 
Q 1594 3097 1305 2825 
Q 1016 2553 972 2059 
L 3022 2063 
z
" transform="scale(0.015625)"/>
      <path id="DejaVuSans-74" d="M 1172 4494 
L 1172 3500 
L 2356 3500 
L 2356 3053 
L 1172 3053 
L 1172 1153 
Q 1172 725 1289 603 
Q 1406 481 1766 481 
L 2356 481 
L 2356 0 
L 1766 0 
Q 1100 0 847 248 
Q 594 497 594 1153 
L 594 3053 
L 172 3053 
L 172 3500 
L 594 3500 
L 594 4494 
L 1172 4494 
z
" transform="scale(0.015625)"/>
      <path id="DejaVuSans-5f" d="M 3263 -1063 
L 3263 -1509 
L -63 -1509 
L -63 -1063 
L 3263 -1063 
z
" transform="scale(0.015625)"/>
      <path id="DejaVuSans-73" d="M 2834 3397 
L 2834 2853 
Q 2591 2978 2328 3040 
Q 2066 3103 1784 3103 
Q 1356 3103 1142 2972 
Q 928 2841 928 2578 
Q 928 2378 1081 2264 
Q 1234 2150 1697 2047 
L 1894 2003 
Q 2506 1872 2764 1633 
Q 3022 1394 3022 966 
Q 3022 478 2636 193 
Q 2250 -91 1575 -91 
Q 1294 -91 989 -36 
Q 684 19 347 128 
L 347 722 
Q 666 556 975 473 
Q 1284 391 1588 391 
Q 1994 391 2212 530 
Q 2431 669 2431 922 
Q 2431 1156 2273 1281 
Q 2116 1406 1581 1522 
L 1381 1569 
Q 847 1681 609 1914 
Q 372 2147 372 2553 
Q 372 3047 722 3315 
Q 1072 3584 1716 3584 
Q 2034 3584 2315 3537 
Q 2597 3491 2834 3397 
z
" transform="scale(0.015625)"/>
      <path id="DejaVuSans-75" d="M 544 1381 
L 544 3500 
L 1119 3500 
L 1119 1403 
Q 1119 906 1312 657 
Q 1506 409 1894 409 
Q 2359 409 2629 706 
Q 2900 1003 2900 1516 
L 2900 3500 
L 3475 3500 
L 3475 0 
L 2900 0 
L 2900 538 
Q 2691 219 2414 64 
Q 2138 -91 1772 -91 
Q 1169 -91 856 284 
Q 544 659 544 1381 
z
M 1991 3584 
L 1991 3584 
z
" transform="scale(0.015625)"/>
      <path id="DejaVuSans-62" d="M 3116 1747 
Q 3116 2381 2855 2742 
Q 2594 3103 2138 3103 
Q 1681 3103 1420 2742 
Q 1159 2381 1159 1747 
Q 1159 1113 1420 752 
Q 1681 391 2138 391 
Q 2594 391 2855 752 
Q 3116 1113 3116 1747 
z
M 1159 2969 
Q 1341 3281 1617 3432 
Q 1894 3584 2278 3584 
Q 2916 3584 3314 3078 
Q 3713 2572 3713 1747 
Q 3713 922 3314 415 
Q 2916 -91 2278 -91 
Q 1894 -91 1617 61 
Q 1341 213 1159 525 
L 1159 0 
L 581 0 
L 581 4863 
L 1159 4863 
L 1159 2969 
z
" transform="scale(0.015625)"/>
      <path id="DejaVuSans-63" d="M 3122 3366 
L 3122 2828 
Q 2878 2963 2633 3030 
Q 2388 3097 2138 3097 
Q 1578 3097 1268 2742 
Q 959 2388 959 1747 
Q 959 1106 1268 751 
Q 1578 397 2138 397 
Q 2388 397 2633 464 
Q 2878 531 3122 666 
L 3122 134 
Q 2881 22 2623 -34 
Q 2366 -91 2075 -91 
Q 1284 -91 818 406 
Q 353 903 353 1747 
Q 353 2603 823 3093 
Q 1294 3584 2113 3584 
Q 2378 3584 2631 3529 
Q 2884 3475 3122 3366 
z
" transform="scale(0.015625)"/>
      <path id="DejaVuSans-72" d="M 2631 2963 
Q 2534 3019 2420 3045 
Q 2306 3072 2169 3072 
Q 1681 3072 1420 2755 
Q 1159 2438 1159 1844 
L 1159 0 
L 581 0 
L 581 3500 
L 1159 3500 
L 1159 2956 
Q 1341 3275 1631 3429 
Q 1922 3584 2338 3584 
Q 2397 3584 2469 3576 
Q 2541 3569 2628 3553 
L 2631 2963 
z
" transform="scale(0.015625)"/>
      <path id="DejaVuSans-69" d="M 603 3500 
L 1178 3500 
L 1178 0 
L 603 0 
L 603 3500 
z
M 603 4863 
L 1178 4863 
L 1178 4134 
L 603 4134 
L 603 4863 
z
" transform="scale(0.015625)"/>
      <path id="DejaVuSans-20" transform="scale(0.015625)"/>
      <path id="DejaVuSans-68" d="M 3513 2113 
L 3513 0 
L 2938 0 
L 2938 2094 
Q 2938 2591 2744 2837 
Q 2550 3084 2163 3084 
Q 1697 3084 1428 2787 
Q 1159 2491 1159 1978 
L 1159 0 
L 581 0 
L 581 4863 
L 1159 4863 
L 1159 2956 
Q 1366 3272 1645 3428 
Q 1925 3584 2291 3584 
Q 2894 3584 3203 3211 
Q 3513 2838 3513 2113 
z
" transform="scale(0.015625)"/>
      <path id="DejaVuSans-6f" d="M 1959 3097 
Q 1497 3097 1228 2736 
Q 959 2375 959 1747 
Q 959 1119 1226 758 
Q 1494 397 1959 397 
Q 2419 397 2687 759 
Q 2956 1122 2956 1747 
Q 2956 2369 2687 2733 
Q 2419 3097 1959 3097 
z
M 1959 3584 
Q 2709 3584 3137 3096 
Q 3566 2609 3566 1747 
Q 3566 888 3137 398 
Q 2709 -91 1959 -91 
Q 1206 -91 779 398 
Q 353 888 353 1747 
Q 353 2609 779 3096 
Q 1206 3584 1959 3584 
z
" transform="scale(0.015625)"/>
      <path id="DejaVuSans-79" d="M 2059 -325 
Q 1816 -950 1584 -1140 
Q 1353 -1331 966 -1331 
L 506 -1331 
L 506 -850 
L 844 -850 
Q 1081 -850 1212 -737 
Q 1344 -625 1503 -206 
L 1606 56 
L 191 3500 
L 800 3500 
L 1894 763 
L 2988 3500 
L 3597 3500 
L 2059 -325 
z
" transform="scale(0.015625)"/>
     </defs>
     <use xlink:href="#DejaVuSans-67"/>
     <use xlink:href="#DejaVuSans-65" x="63.476562"/>
     <use xlink:href="#DejaVuSans-74" x="125"/>
     <use xlink:href="#DejaVuSans-5f" x="164.208984"/>
     <use xlink:href="#DejaVuSans-73" x="214.208984"/>
     <use xlink:href="#DejaVuSans-75" x="266.308594"/>
     <use xlink:href="#DejaVuSans-62" x="329.6875"/>
     <use xlink:href="#DejaVuSans-73" x="393.164062"/>
     <use xlink:href="#DejaVuSans-63" x="445.263672"/>
     <use xlink:href="#DejaVuSans-72" x="500.244141"/>
     <use xlink:href="#DejaVuSans-69" x="541.357422"/>
     <use xlink:href="#DejaVuSans-62" x="569.140625"/>
     <use xlink:href="#DejaVuSans-65" x="632.617188"/>
     <use xlink:href="#DejaVuSans-20" x="694.140625"/>
     <use xlink:href="#DejaVuSans-68" x="725.927734"/>
     <use xlink:href="#DejaVuSans-69" x="789.306641"/>
     <use xlink:href="#DejaVuSans-73" x="817.089844"/>
     <use xlink:href="#DejaVuSans-74" x="869.189453"/>
     <use xlink:href="#DejaVuSans-6f" x="908.398438"/>
     <use xlink:href="#DejaVuSans-72" x="969.580078"/>
     <use xlink:href="#DejaVuSans-79" x="1010.693359"/>
    </g>
   </g>
   <g id="legend_1">
    <g id="line2d_41">
     <path d="M 815.08 328.498438 
L 825.08 328.498438 
L 835.08 328.498438 
" style="fill: none; stroke: #1f77b4; stroke-width: 1.5; stroke-linecap: square"/>
    </g>
    <g id="text_21">
     <!-- star -->
     <g style="fill: #a9a9a9" transform="translate(843.08 331.998438) scale(0.1 -0.1)">
      <defs>
       <path id="DejaVuSans-61" d="M 2194 1759 
Q 1497 1759 1228 1600 
Q 959 1441 959 1056 
Q 959 750 1161 570 
Q 1363 391 1709 391 
Q 2188 391 2477 730 
Q 2766 1069 2766 1631 
L 2766 1759 
L 2194 1759 
z
M 3341 1997 
L 3341 0 
L 2766 0 
L 2766 531 
Q 2569 213 2275 61 
Q 1981 -91 1556 -91 
Q 1019 -91 701 211 
Q 384 513 384 1019 
Q 384 1609 779 1909 
Q 1175 2209 1959 2209 
L 2766 2209 
L 2766 2266 
Q 2766 2663 2505 2880 
Q 2244 3097 1772 3097 
Q 1472 3097 1187 3025 
Q 903 2953 641 2809 
L 641 3341 
Q 956 3463 1253 3523 
Q 1550 3584 1831 3584 
Q 2591 3584 2966 3190 
Q 3341 2797 3341 1997 
z
" transform="scale(0.015625)"/>
      </defs>
      <use xlink:href="#DejaVuSans-73"/>
      <use xlink:href="#DejaVuSans-74" x="52.099609"/>
      <use xlink:href="#DejaVuSans-61" x="91.308594"/>
      <use xlink:href="#DejaVuSans-72" x="152.587891"/>
     </g>
    </g>
    <g id="line2d_42">
     <path d="M 815.08 343.176562 
L 825.08 343.176562 
L 835.08 343.176562 
" style="fill: none; stroke: #ff7f0e; stroke-width: 1.5; stroke-linecap: square"/>
    </g>
    <g id="text_22">
     <!-- fork -->
     <g style="fill: #a9a9a9" transform="translate(843.08 346.676562) scale(0.1 -0.1)">
      <defs>
       <path id="DejaVuSans-66" d="M 2375 4863 
L 2375 4384 
L 1825 4384 
Q 1516 4384 1395 4259 
Q 1275 4134 1275 3809 
L 1275 3500 
L 2222 3500 
L 2222 3053 
L 1275 3053 
L 1275 0 
L 697 0 
L 697 3053 
L 147 3053 
L 147 3500 
L 697 3500 
L 697 3744 
Q 697 4328 969 4595 
Q 1241 4863 1831 4863 
L 2375 4863 
z
" transform="scale(0.015625)"/>
       <path id="DejaVuSans-6b" d="M 581 4863 
L 1159 4863 
L 1159 1991 
L 2875 3500 
L 3609 3500 
L 1753 1863 
L 3688 0 
L 2938 0 
L 1159 1709 
L 1159 0 
L 581 0 
L 581 4863 
z
" transform="scale(0.015625)"/>
      </defs>
      <use xlink:href="#DejaVuSans-66"/>
      <use xlink:href="#DejaVuSans-6f" x="35.205078"/>
      <use xlink:href="#DejaVuSans-72" x="96.386719"/>
      <use xlink:href="#DejaVuSans-6b" x="137.5"/>
     </g>
    </g>
   </g>
  </g>
 </g>
 <defs>
  <clipPath id="p92016785f5">
   <rect x="108" y="43.2" width="669.6" height="277.2"/>
  </clipPath>
 </defs>
</svg>
