<?xml version="1.0" encoding="utf-8" standalone="no"?>
<!DOCTYPE svg PUBLIC "-//W3C//DTD SVG 1.1//EN"
  "http://www.w3.org/Graphics/SVG/1.1/DTD/svg11.dtd">
<svg xmlns:xlink="http://www.w3.org/1999/xlink" width="864pt" height="360pt" viewBox="0 0 864 360" xmlns="http://www.w3.org/2000/svg" version="1.1">
 <metadata>
  <rdf:RDF xmlns:dc="http://purl.org/dc/elements/1.1/" xmlns:cc="http://creativecommons.org/ns#" xmlns:rdf="http://www.w3.org/1999/02/22-rdf-syntax-ns#">
   <cc:Work>
    <dc:type rdf:resource="http://purl.org/dc/dcmitype/StillImage"/>
    <dc:date>2023-09-01T08:50:11.602422</dc:date>
    <dc:format>image/svg+xml</dc:format>
    <dc:creator>
     <cc:Agent>
      <dc:title>Matplotlib v3.7.2, https://matplotlib.org/</dc:title>
     </cc:Agent>
    </dc:creator>
   </cc:Work>
  </rdf:RDF>
 </metadata>
 <defs>
  <style type="text/css">*{stroke-linejoin: round; stroke-linecap: butt}</style>
 </defs>
 <g id="figure_1">
  <g id="patch_1">
   <path d="M 0 360 
L 864 360 
L 864 0 
L 0 0 
L 0 360 
z
" style="fill: none; opacity: 0"/>
  </g>
  <g id="axes_1">
   <g id="patch_2">
    <path d="M 108 320.4 
L 777.6 320.4 
L 777.6 43.2 
L 108 43.2 
L 108 320.4 
z
" style="fill: none; opacity: 0"/>
   </g>
   <g id="matplotlib.axis_1">
    <g id="xtick_1">
     <g id="line2d_1">
      <path d="M 120.229956 320.4 
L 120.229956 43.2 
" clip-path="url(#pe257fa3e8e)" style="fill: none; stroke-dasharray: 5.12,1.28,0.8,1.28; stroke-dashoffset: 0; stroke: #b0b0b0; stroke-width: 0.8"/>
     </g>
     <g id="line2d_2">
      <defs>
       <path id="m81739a05a3" d="M 0 0 
L 0 3.5 
" style="stroke: #a9a9a9; stroke-width: 0.8"/>
      </defs>
      <g>
       <use xlink:href="#m81739a05a3" x="120.229956" y="320.4" style="fill: #a9a9a9; stroke: #a9a9a9; stroke-width: 0.8"/>
      </g>
     </g>
     <g id="text_1">
      <!-- 2021-07 -->
      <g style="fill: #a9a9a9" transform="translate(99.33855 334.998438) scale(0.1 -0.1)">
       <defs>
        <path id="DejaVuSans-32" d="M 1228 531 
L 3431 531 
L 3431 0 
L 469 0 
L 469 531 
Q 828 903 1448 1529 
Q 2069 2156 2228 2338 
Q 2531 2678 2651 2914 
Q 2772 3150 2772 3378 
Q 2772 3750 2511 3984 
Q 2250 4219 1831 4219 
Q 1534 4219 1204 4116 
Q 875 4013 500 3803 
L 500 4441 
Q 881 4594 1212 4672 
Q 1544 4750 1819 4750 
Q 2544 4750 2975 4387 
Q 3406 4025 3406 3419 
Q 3406 3131 3298 2873 
Q 3191 2616 2906 2266 
Q 2828 2175 2409 1742 
Q 1991 1309 1228 531 
z
" transform="scale(0.015625)"/>
        <path id="DejaVuSans-30" d="M 2034 4250 
Q 1547 4250 1301 3770 
Q 1056 3291 1056 2328 
Q 1056 1369 1301 889 
Q 1547 409 2034 409 
Q 2525 409 2770 889 
Q 3016 1369 3016 2328 
Q 3016 3291 2770 3770 
Q 2525 4250 2034 4250 
z
M 2034 4750 
Q 2819 4750 3233 4129 
Q 3647 3509 3647 2328 
Q 3647 1150 3233 529 
Q 2819 -91 2034 -91 
Q 1250 -91 836 529 
Q 422 1150 422 2328 
Q 422 3509 836 4129 
Q 1250 4750 2034 4750 
z
" transform="scale(0.015625)"/>
        <path id="DejaVuSans-31" d="M 794 531 
L 1825 531 
L 1825 4091 
L 703 3866 
L 703 4441 
L 1819 4666 
L 2450 4666 
L 2450 531 
L 3481 531 
L 3481 0 
L 794 0 
L 794 531 
z
" transform="scale(0.015625)"/>
        <path id="DejaVuSans-2d" d="M 313 2009 
L 1997 2009 
L 1997 1497 
L 313 1497 
L 313 2009 
z
" transform="scale(0.015625)"/>
        <path id="DejaVuSans-37" d="M 525 4666 
L 3525 4666 
L 3525 4397 
L 1831 0 
L 1172 0 
L 2766 4134 
L 525 4134 
L 525 4666 
z
" transform="scale(0.015625)"/>
       </defs>
       <use xlink:href="#DejaVuSans-32"/>
       <use xlink:href="#DejaVuSans-30" x="63.623047"/>
       <use xlink:href="#DejaVuSans-32" x="127.246094"/>
       <use xlink:href="#DejaVuSans-31" x="190.869141"/>
       <use xlink:href="#DejaVuSans-2d" x="254.492188"/>
       <use xlink:href="#DejaVuSans-30" x="290.576172"/>
       <use xlink:href="#DejaVuSans-37" x="354.199219"/>
      </g>
     </g>
    </g>
    <g id="xtick_2">
     <g id="line2d_3">
      <path d="M 193.055586 320.4 
L 193.055586 43.2 
" clip-path="url(#pe257fa3e8e)" style="fill: none; stroke-dasharray: 5.12,1.28,0.8,1.28; stroke-dashoffset: 0; stroke: #b0b0b0; stroke-width: 0.8"/>
     </g>
     <g id="line2d_4">
      <g>
       <use xlink:href="#m81739a05a3" x="193.055586" y="320.4" style="fill: #a9a9a9; stroke: #a9a9a9; stroke-width: 0.8"/>
      </g>
     </g>
     <g id="text_2">
      <!-- 2021-10 -->
      <g style="fill: #a9a9a9" transform="translate(172.16418 334.998438) scale(0.1 -0.1)">
       <use xlink:href="#DejaVuSans-32"/>
       <use xlink:href="#DejaVuSans-30" x="63.623047"/>
       <use xlink:href="#DejaVuSans-32" x="127.246094"/>
       <use xlink:href="#DejaVuSans-31" x="190.869141"/>
       <use xlink:href="#DejaVuSans-2d" x="254.492188"/>
       <use xlink:href="#DejaVuSans-31" x="290.576172"/>
       <use xlink:href="#DejaVuSans-30" x="354.199219"/>
      </g>
     </g>
    </g>
    <g id="xtick_3">
     <g id="line2d_5">
      <path d="M 265.881215 320.4 
L 265.881215 43.2 
" clip-path="url(#pe257fa3e8e)" style="fill: none; stroke-dasharray: 5.12,1.28,0.8,1.28; stroke-dashoffset: 0; stroke: #b0b0b0; stroke-width: 0.8"/>
     </g>
     <g id="line2d_6">
      <g>
       <use xlink:href="#m81739a05a3" x="265.881215" y="320.4" style="fill: #a9a9a9; stroke: #a9a9a9; stroke-width: 0.8"/>
      </g>
     </g>
     <g id="text_3">
      <!-- 2022-01 -->
      <g style="fill: #a9a9a9" transform="translate(244.989809 334.998438) scale(0.1 -0.1)">
       <use xlink:href="#DejaVuSans-32"/>
       <use xlink:href="#DejaVuSans-30" x="63.623047"/>
       <use xlink:href="#DejaVuSans-32" x="127.246094"/>
       <use xlink:href="#DejaVuSans-32" x="190.869141"/>
       <use xlink:href="#DejaVuSans-2d" x="254.492188"/>
       <use xlink:href="#DejaVuSans-30" x="290.576172"/>
       <use xlink:href="#DejaVuSans-31" x="354.199219"/>
      </g>
     </g>
    </g>
    <g id="xtick_4">
     <g id="line2d_7">
      <path d="M 337.123679 320.4 
L 337.123679 43.2 
" clip-path="url(#pe257fa3e8e)" style="fill: none; stroke-dasharray: 5.12,1.28,0.8,1.28; stroke-dashoffset: 0; stroke: #b0b0b0; stroke-width: 0.8"/>
     </g>
     <g id="line2d_8">
      <g>
       <use xlink:href="#m81739a05a3" x="337.123679" y="320.4" style="fill: #a9a9a9; stroke: #a9a9a9; stroke-width: 0.8"/>
      </g>
     </g>
     <g id="text_4">
      <!-- 2022-04 -->
      <g style="fill: #a9a9a9" transform="translate(316.232273 334.998438) scale(0.1 -0.1)">
       <defs>
        <path id="DejaVuSans-34" d="M 2419 4116 
L 825 1625 
L 2419 1625 
L 2419 4116 
z
M 2253 4666 
L 3047 4666 
L 3047 1625 
L 3713 1625 
L 3713 1100 
L 3047 1100 
L 3047 0 
L 2419 0 
L 2419 1100 
L 313 1100 
L 313 1709 
L 2253 4666 
z
" transform="scale(0.015625)"/>
       </defs>
       <use xlink:href="#DejaVuSans-32"/>
       <use xlink:href="#DejaVuSans-30" x="63.623047"/>
       <use xlink:href="#DejaVuSans-32" x="127.246094"/>
       <use xlink:href="#DejaVuSans-32" x="190.869141"/>
       <use xlink:href="#DejaVuSans-2d" x="254.492188"/>
       <use xlink:href="#DejaVuSans-30" x="290.576172"/>
       <use xlink:href="#DejaVuSans-34" x="354.199219"/>
      </g>
     </g>
    </g>
    <g id="xtick_5">
     <g id="line2d_9">
      <path d="M 409.157725 320.4 
L 409.157725 43.2 
" clip-path="url(#pe257fa3e8e)" style="fill: none; stroke-dasharray: 5.12,1.28,0.8,1.28; stroke-dashoffset: 0; stroke: #b0b0b0; stroke-width: 0.8"/>
     </g>
     <g id="line2d_10">
      <g>
       <use xlink:href="#m81739a05a3" x="409.157725" y="320.4" style="fill: #a9a9a9; stroke: #a9a9a9; stroke-width: 0.8"/>
      </g>
     </g>
     <g id="text_5">
      <!-- 2022-07 -->
      <g style="fill: #a9a9a9" transform="translate(388.266319 334.998438) scale(0.1 -0.1)">
       <use xlink:href="#DejaVuSans-32"/>
       <use xlink:href="#DejaVuSans-30" x="63.623047"/>
       <use xlink:href="#DejaVuSans-32" x="127.246094"/>
       <use xlink:href="#DejaVuSans-32" x="190.869141"/>
       <use xlink:href="#DejaVuSans-2d" x="254.492188"/>
       <use xlink:href="#DejaVuSans-30" x="290.576172"/>
       <use xlink:href="#DejaVuSans-37" x="354.199219"/>
      </g>
     </g>
    </g>
    <g id="xtick_6">
     <g id="line2d_11">
      <path d="M 481.983355 320.4 
L 481.983355 43.2 
" clip-path="url(#pe257fa3e8e)" style="fill: none; stroke-dasharray: 5.12,1.28,0.8,1.28; stroke-dashoffset: 0; stroke: #b0b0b0; stroke-width: 0.8"/>
     </g>
     <g id="line2d_12">
      <g>
       <use xlink:href="#m81739a05a3" x="481.983355" y="320.4" style="fill: #a9a9a9; stroke: #a9a9a9; stroke-width: 0.8"/>
      </g>
     </g>
     <g id="text_6">
      <!-- 2022-10 -->
      <g style="fill: #a9a9a9" transform="translate(461.091949 334.998438) scale(0.1 -0.1)">
       <use xlink:href="#DejaVuSans-32"/>
       <use xlink:href="#DejaVuSans-30" x="63.623047"/>
       <use xlink:href="#DejaVuSans-32" x="127.246094"/>
       <use xlink:href="#DejaVuSans-32" x="190.869141"/>
       <use xlink:href="#DejaVuSans-2d" x="254.492188"/>
       <use xlink:href="#DejaVuSans-31" x="290.576172"/>
       <use xlink:href="#DejaVuSans-30" x="354.199219"/>
      </g>
     </g>
    </g>
    <g id="xtick_7">
     <g id="line2d_13">
      <path d="M 554.808985 320.4 
L 554.808985 43.2 
" clip-path="url(#pe257fa3e8e)" style="fill: none; stroke-dasharray: 5.12,1.28,0.8,1.28; stroke-dashoffset: 0; stroke: #b0b0b0; stroke-width: 0.8"/>
     </g>
     <g id="line2d_14">
      <g>
       <use xlink:href="#m81739a05a3" x="554.808985" y="320.4" style="fill: #a9a9a9; stroke: #a9a9a9; stroke-width: 0.8"/>
      </g>
     </g>
     <g id="text_7">
      <!-- 2023-01 -->
      <g style="fill: #a9a9a9" transform="translate(533.917578 334.998438) scale(0.1 -0.1)">
       <defs>
        <path id="DejaVuSans-33" d="M 2597 2516 
Q 3050 2419 3304 2112 
Q 3559 1806 3559 1356 
Q 3559 666 3084 287 
Q 2609 -91 1734 -91 
Q 1441 -91 1130 -33 
Q 819 25 488 141 
L 488 750 
Q 750 597 1062 519 
Q 1375 441 1716 441 
Q 2309 441 2620 675 
Q 2931 909 2931 1356 
Q 2931 1769 2642 2001 
Q 2353 2234 1838 2234 
L 1294 2234 
L 1294 2753 
L 1863 2753 
Q 2328 2753 2575 2939 
Q 2822 3125 2822 3475 
Q 2822 3834 2567 4026 
Q 2313 4219 1838 4219 
Q 1578 4219 1281 4162 
Q 984 4106 628 3988 
L 628 4550 
Q 988 4650 1302 4700 
Q 1616 4750 1894 4750 
Q 2613 4750 3031 4423 
Q 3450 4097 3450 3541 
Q 3450 3153 3228 2886 
Q 3006 2619 2597 2516 
z
" transform="scale(0.015625)"/>
       </defs>
       <use xlink:href="#DejaVuSans-32"/>
       <use xlink:href="#DejaVuSans-30" x="63.623047"/>
       <use xlink:href="#DejaVuSans-32" x="127.246094"/>
       <use xlink:href="#DejaVuSans-33" x="190.869141"/>
       <use xlink:href="#DejaVuSans-2d" x="254.492188"/>
       <use xlink:href="#DejaVuSans-30" x="290.576172"/>
       <use xlink:href="#DejaVuSans-31" x="354.199219"/>
      </g>
     </g>
    </g>
    <g id="xtick_8">
     <g id="line2d_15">
      <path d="M 626.051448 320.4 
L 626.051448 43.2 
" clip-path="url(#pe257fa3e8e)" style="fill: none; stroke-dasharray: 5.12,1.28,0.8,1.28; stroke-dashoffset: 0; stroke: #b0b0b0; stroke-width: 0.8"/>
     </g>
     <g id="line2d_16">
      <g>
       <use xlink:href="#m81739a05a3" x="626.051448" y="320.4" style="fill: #a9a9a9; stroke: #a9a9a9; stroke-width: 0.8"/>
      </g>
     </g>
     <g id="text_8">
      <!-- 2023-04 -->
      <g style="fill: #a9a9a9" transform="translate(605.160042 334.998438) scale(0.1 -0.1)">
       <use xlink:href="#DejaVuSans-32"/>
       <use xlink:href="#DejaVuSans-30" x="63.623047"/>
       <use xlink:href="#DejaVuSans-32" x="127.246094"/>
       <use xlink:href="#DejaVuSans-33" x="190.869141"/>
       <use xlink:href="#DejaVuSans-2d" x="254.492188"/>
       <use xlink:href="#DejaVuSans-30" x="290.576172"/>
       <use xlink:href="#DejaVuSans-34" x="354.199219"/>
      </g>
     </g>
    </g>
    <g id="xtick_9">
     <g id="line2d_17">
      <path d="M 698.085495 320.4 
L 698.085495 43.2 
" clip-path="url(#pe257fa3e8e)" style="fill: none; stroke-dasharray: 5.12,1.28,0.8,1.28; stroke-dashoffset: 0; stroke: #b0b0b0; stroke-width: 0.8"/>
     </g>
     <g id="line2d_18">
      <g>
       <use xlink:href="#m81739a05a3" x="698.085495" y="320.4" style="fill: #a9a9a9; stroke: #a9a9a9; stroke-width: 0.8"/>
      </g>
     </g>
     <g id="text_9">
      <!-- 2023-07 -->
      <g style="fill: #a9a9a9" transform="translate(677.194088 334.998438) scale(0.1 -0.1)">
       <use xlink:href="#DejaVuSans-32"/>
       <use xlink:href="#DejaVuSans-30" x="63.623047"/>
       <use xlink:href="#DejaVuSans-32" x="127.246094"/>
       <use xlink:href="#DejaVuSans-33" x="190.869141"/>
       <use xlink:href="#DejaVuSans-2d" x="254.492188"/>
       <use xlink:href="#DejaVuSans-30" x="290.576172"/>
       <use xlink:href="#DejaVuSans-37" x="354.199219"/>
      </g>
     </g>
    </g>
    <g id="xtick_10">
     <g id="line2d_19">
      <path d="M 770.911124 320.4 
L 770.911124 43.2 
" clip-path="url(#pe257fa3e8e)" style="fill: none; stroke-dasharray: 5.12,1.28,0.8,1.28; stroke-dashoffset: 0; stroke: #b0b0b0; stroke-width: 0.8"/>
     </g>
     <g id="line2d_20">
      <g>
       <use xlink:href="#m81739a05a3" x="770.911124" y="320.4" style="fill: #a9a9a9; stroke: #a9a9a9; stroke-width: 0.8"/>
      </g>
     </g>
     <g id="text_10">
      <!-- 2023-10 -->
      <g style="fill: #a9a9a9" transform="translate(750.019718 334.998438) scale(0.1 -0.1)">
       <use xlink:href="#DejaVuSans-32"/>
       <use xlink:href="#DejaVuSans-30" x="63.623047"/>
       <use xlink:href="#DejaVuSans-32" x="127.246094"/>
       <use xlink:href="#DejaVuSans-33" x="190.869141"/>
       <use xlink:href="#DejaVuSans-2d" x="254.492188"/>
       <use xlink:href="#DejaVuSans-31" x="290.576172"/>
       <use xlink:href="#DejaVuSans-30" x="354.199219"/>
      </g>
     </g>
    </g>
   </g>
   <g id="matplotlib.axis_2">
    <g id="ytick_1">
     <g id="line2d_21">
      <path d="M 108 307.852919 
L 777.6 307.852919 
" clip-path="url(#pe257fa3e8e)" style="fill: none; stroke-dasharray: 5.12,1.28,0.8,1.28; stroke-dashoffset: 0; stroke: #b0b0b0; stroke-width: 0.8"/>
     </g>
     <g id="line2d_22">
      <defs>
       <path id="m82dc24379a" d="M 0 0 
L -3.5 0 
" style="stroke: #a9a9a9; stroke-width: 0.8"/>
      </defs>
      <g>
       <use xlink:href="#m82dc24379a" x="108" y="307.852919" style="fill: #a9a9a9; stroke: #a9a9a9; stroke-width: 0.8"/>
      </g>
     </g>
     <g id="text_11">
      <!-- 0 -->
      <g style="fill: #a9a9a9" transform="translate(94.6375 311.652138) scale(0.1 -0.1)">
       <use xlink:href="#DejaVuSans-30"/>
      </g>
     </g>
    </g>
    <g id="ytick_2">
     <g id="line2d_23">
      <path d="M 108 276.101554 
L 777.6 276.101554 
" clip-path="url(#pe257fa3e8e)" style="fill: none; stroke-dasharray: 5.12,1.28,0.8,1.28; stroke-dashoffset: 0; stroke: #b0b0b0; stroke-width: 0.8"/>
     </g>
     <g id="line2d_24">
      <g>
       <use xlink:href="#m82dc24379a" x="108" y="276.101554" style="fill: #a9a9a9; stroke: #a9a9a9; stroke-width: 0.8"/>
      </g>
     </g>
     <g id="text_12">
      <!-- 600 -->
      <g style="fill: #a9a9a9" transform="translate(81.9125 279.900773) scale(0.1 -0.1)">
       <defs>
        <path id="DejaVuSans-36" d="M 2113 2584 
Q 1688 2584 1439 2293 
Q 1191 2003 1191 1497 
Q 1191 994 1439 701 
Q 1688 409 2113 409 
Q 2538 409 2786 701 
Q 3034 994 3034 1497 
Q 3034 2003 2786 2293 
Q 2538 2584 2113 2584 
z
M 3366 4563 
L 3366 3988 
Q 3128 4100 2886 4159 
Q 2644 4219 2406 4219 
Q 1781 4219 1451 3797 
Q 1122 3375 1075 2522 
Q 1259 2794 1537 2939 
Q 1816 3084 2150 3084 
Q 2853 3084 3261 2657 
Q 3669 2231 3669 1497 
Q 3669 778 3244 343 
Q 2819 -91 2113 -91 
Q 1303 -91 875 529 
Q 447 1150 447 2328 
Q 447 3434 972 4092 
Q 1497 4750 2381 4750 
Q 2619 4750 2861 4703 
Q 3103 4656 3366 4563 
z
" transform="scale(0.015625)"/>
       </defs>
       <use xlink:href="#DejaVuSans-36"/>
       <use xlink:href="#DejaVuSans-30" x="63.623047"/>
       <use xlink:href="#DejaVuSans-30" x="127.246094"/>
      </g>
     </g>
    </g>
    <g id="ytick_3">
     <g id="line2d_25">
      <path d="M 108 244.350189 
L 777.6 244.350189 
" clip-path="url(#pe257fa3e8e)" style="fill: none; stroke-dasharray: 5.12,1.28,0.8,1.28; stroke-dashoffset: 0; stroke: #b0b0b0; stroke-width: 0.8"/>
     </g>
     <g id="line2d_26">
      <g>
       <use xlink:href="#m82dc24379a" x="108" y="244.350189" style="fill: #a9a9a9; stroke: #a9a9a9; stroke-width: 0.8"/>
      </g>
     </g>
     <g id="text_13">
      <!-- 1200 -->
      <g style="fill: #a9a9a9" transform="translate(75.55 248.149408) scale(0.1 -0.1)">
       <use xlink:href="#DejaVuSans-31"/>
       <use xlink:href="#DejaVuSans-32" x="63.623047"/>
       <use xlink:href="#DejaVuSans-30" x="127.246094"/>
       <use xlink:href="#DejaVuSans-30" x="190.869141"/>
      </g>
     </g>
    </g>
    <g id="ytick_4">
     <g id="line2d_27">
      <path d="M 108 212.598824 
L 777.6 212.598824 
" clip-path="url(#pe257fa3e8e)" style="fill: none; stroke-dasharray: 5.12,1.28,0.8,1.28; stroke-dashoffset: 0; stroke: #b0b0b0; stroke-width: 0.8"/>
     </g>
     <g id="line2d_28">
      <g>
       <use xlink:href="#m82dc24379a" x="108" y="212.598824" style="fill: #a9a9a9; stroke: #a9a9a9; stroke-width: 0.8"/>
      </g>
     </g>
     <g id="text_14">
      <!-- 1800 -->
      <g style="fill: #a9a9a9" transform="translate(75.55 216.398043) scale(0.1 -0.1)">
       <defs>
        <path id="DejaVuSans-38" d="M 2034 2216 
Q 1584 2216 1326 1975 
Q 1069 1734 1069 1313 
Q 1069 891 1326 650 
Q 1584 409 2034 409 
Q 2484 409 2743 651 
Q 3003 894 3003 1313 
Q 3003 1734 2745 1975 
Q 2488 2216 2034 2216 
z
M 1403 2484 
Q 997 2584 770 2862 
Q 544 3141 544 3541 
Q 544 4100 942 4425 
Q 1341 4750 2034 4750 
Q 2731 4750 3128 4425 
Q 3525 4100 3525 3541 
Q 3525 3141 3298 2862 
Q 3072 2584 2669 2484 
Q 3125 2378 3379 2068 
Q 3634 1759 3634 1313 
Q 3634 634 3220 271 
Q 2806 -91 2034 -91 
Q 1263 -91 848 271 
Q 434 634 434 1313 
Q 434 1759 690 2068 
Q 947 2378 1403 2484 
z
M 1172 3481 
Q 1172 3119 1398 2916 
Q 1625 2713 2034 2713 
Q 2441 2713 2670 2916 
Q 2900 3119 2900 3481 
Q 2900 3844 2670 4047 
Q 2441 4250 2034 4250 
Q 1625 4250 1398 4047 
Q 1172 3844 1172 3481 
z
" transform="scale(0.015625)"/>
       </defs>
       <use xlink:href="#DejaVuSans-31"/>
       <use xlink:href="#DejaVuSans-38" x="63.623047"/>
       <use xlink:href="#DejaVuSans-30" x="127.246094"/>
       <use xlink:href="#DejaVuSans-30" x="190.869141"/>
      </g>
     </g>
    </g>
    <g id="ytick_5">
     <g id="line2d_29">
      <path d="M 108 180.847459 
L 777.6 180.847459 
" clip-path="url(#pe257fa3e8e)" style="fill: none; stroke-dasharray: 5.12,1.28,0.8,1.28; stroke-dashoffset: 0; stroke: #b0b0b0; stroke-width: 0.8"/>
     </g>
     <g id="line2d_30">
      <g>
       <use xlink:href="#m82dc24379a" x="108" y="180.847459" style="fill: #a9a9a9; stroke: #a9a9a9; stroke-width: 0.8"/>
      </g>
     </g>
     <g id="text_15">
      <!-- 2400 -->
      <g style="fill: #a9a9a9" transform="translate(75.55 184.646678) scale(0.1 -0.1)">
       <use xlink:href="#DejaVuSans-32"/>
       <use xlink:href="#DejaVuSans-34" x="63.623047"/>
       <use xlink:href="#DejaVuSans-30" x="127.246094"/>
       <use xlink:href="#DejaVuSans-30" x="190.869141"/>
      </g>
     </g>
    </g>
    <g id="ytick_6">
     <g id="line2d_31">
      <path d="M 108 149.096094 
L 777.6 149.096094 
" clip-path="url(#pe257fa3e8e)" style="fill: none; stroke-dasharray: 5.12,1.28,0.8,1.28; stroke-dashoffset: 0; stroke: #b0b0b0; stroke-width: 0.8"/>
     </g>
     <g id="line2d_32">
      <g>
       <use xlink:href="#m82dc24379a" x="108" y="149.096094" style="fill: #a9a9a9; stroke: #a9a9a9; stroke-width: 0.8"/>
      </g>
     </g>
     <g id="text_16">
      <!-- 3000 -->
      <g style="fill: #a9a9a9" transform="translate(75.55 152.895313) scale(0.1 -0.1)">
       <use xlink:href="#DejaVuSans-33"/>
       <use xlink:href="#DejaVuSans-30" x="63.623047"/>
       <use xlink:href="#DejaVuSans-30" x="127.246094"/>
       <use xlink:href="#DejaVuSans-30" x="190.869141"/>
      </g>
     </g>
    </g>
    <g id="ytick_7">
     <g id="line2d_33">
      <path d="M 108 117.344729 
L 777.6 117.344729 
" clip-path="url(#pe257fa3e8e)" style="fill: none; stroke-dasharray: 5.12,1.28,0.8,1.28; stroke-dashoffset: 0; stroke: #b0b0b0; stroke-width: 0.8"/>
     </g>
     <g id="line2d_34">
      <g>
       <use xlink:href="#m82dc24379a" x="108" y="117.344729" style="fill: #a9a9a9; stroke: #a9a9a9; stroke-width: 0.8"/>
      </g>
     </g>
     <g id="text_17">
      <!-- 3600 -->
      <g style="fill: #a9a9a9" transform="translate(75.55 121.143948) scale(0.1 -0.1)">
       <use xlink:href="#DejaVuSans-33"/>
       <use xlink:href="#DejaVuSans-36" x="63.623047"/>
       <use xlink:href="#DejaVuSans-30" x="127.246094"/>
       <use xlink:href="#DejaVuSans-30" x="190.869141"/>
      </g>
     </g>
    </g>
    <g id="ytick_8">
     <g id="line2d_35">
      <path d="M 108 85.593364 
L 777.6 85.593364 
" clip-path="url(#pe257fa3e8e)" style="fill: none; stroke-dasharray: 5.12,1.28,0.8,1.28; stroke-dashoffset: 0; stroke: #b0b0b0; stroke-width: 0.8"/>
     </g>
     <g id="line2d_36">
      <g>
       <use xlink:href="#m82dc24379a" x="108" y="85.593364" style="fill: #a9a9a9; stroke: #a9a9a9; stroke-width: 0.8"/>
      </g>
     </g>
     <g id="text_18">
      <!-- 4200 -->
      <g style="fill: #a9a9a9" transform="translate(75.55 89.392583) scale(0.1 -0.1)">
       <use xlink:href="#DejaVuSans-34"/>
       <use xlink:href="#DejaVuSans-32" x="63.623047"/>
       <use xlink:href="#DejaVuSans-30" x="127.246094"/>
       <use xlink:href="#DejaVuSans-30" x="190.869141"/>
      </g>
     </g>
    </g>
    <g id="ytick_9">
     <g id="line2d_37">
      <path d="M 108 53.841999 
L 777.6 53.841999 
" clip-path="url(#pe257fa3e8e)" style="fill: none; stroke-dasharray: 5.12,1.28,0.8,1.28; stroke-dashoffset: 0; stroke: #b0b0b0; stroke-width: 0.8"/>
     </g>
     <g id="line2d_38">
      <g>
       <use xlink:href="#m82dc24379a" x="108" y="53.841999" style="fill: #a9a9a9; stroke: #a9a9a9; stroke-width: 0.8"/>
      </g>
     </g>
     <g id="text_19">
      <!-- 4800 -->
      <g style="fill: #a9a9a9" transform="translate(75.55 57.641218) scale(0.1 -0.1)">
       <use xlink:href="#DejaVuSans-34"/>
       <use xlink:href="#DejaVuSans-38" x="63.623047"/>
       <use xlink:href="#DejaVuSans-30" x="127.246094"/>
       <use xlink:href="#DejaVuSans-30" x="190.869141"/>
      </g>
     </g>
    </g>
   </g>
   <g id="line2d_39">
    <path d="M 138.436364 307.694162 
L 143.185861 307.32373 
L 143.977444 307.006216 
L 146.352193 306.741621 
L 151.893273 305.736161 
L 155.851188 305.365729 
L 156.642771 304.995296 
L 157.434354 304.78362 
L 158.225937 303.831079 
L 159.01752 303.30189 
L 159.809103 301.608484 
L 160.600686 301.502646 
L 161.392269 300.920538 
L 162.975434 300.179672 
L 164.5586 299.015456 
L 165.350183 298.274591 
L 166.933349 297.533725 
L 167.724932 297.216212 
L 168.516515 296.634103 
L 171.682847 295.31113 
L 172.47443 294.093994 
L 173.266013 293.458967 
L 174.849178 292.612264 
L 182.765008 291.500966 
L 183.556591 291.130533 
L 189.097671 290.707182 
L 190.680837 290.28383 
L 192.264003 289.966317 
L 198.596666 289.172533 
L 199.388249 288.749181 
L 200.179832 288.643343 
L 200.971415 288.325829 
L 202.554581 288.061235 
L 203.346164 288.008316 
L 204.137747 287.743721 
L 207.304078 287.267451 
L 208.887244 286.844099 
L 211.261993 286.632423 
L 212.845159 286.473667 
L 213.636742 286.261991 
L 214.428325 286.209072 
L 216.803074 285.521126 
L 221.552571 284.833179 
L 222.344154 284.568585 
L 223.135737 283.510206 
L 225.510486 282.663503 
L 227.885235 282.028475 
L 228.676818 281.658043 
L 229.468401 281.605124 
L 233.426315 280.546745 
L 235.009481 280.440907 
L 235.801064 280.335069 
L 238.175813 279.647123 
L 241.342144 278.906258 
L 242.133727 278.588744 
L 242.92531 278.482906 
L 243.716893 278.112474 
L 251.632723 276.948257 
L 255.590637 275.836959 
L 256.38222 275.360689 
L 259.548552 274.513986 
L 261.131718 273.614364 
L 261.923301 273.085174 
L 262.714884 272.979336 
L 263.506466 272.714742 
L 265.881215 272.29139 
L 266.672798 271.920958 
L 268.255964 271.656363 
L 269.83913 270.915498 
L 273.797045 269.962957 
L 276.171793 269.380848 
L 276.963376 269.063335 
L 277.754959 268.904578 
L 278.546542 268.587064 
L 279.338125 268.481226 
L 280.129708 268.110794 
L 280.921291 267.899118 
L 282.504457 267.79328 
L 284.087623 267.264091 
L 285.670789 267.158253 
L 286.462371 266.78782 
L 289.628703 266.258631 
L 292.795035 265.994036 
L 293.586618 265.835279 
L 295.169784 265.094414 
L 303.877196 261.548845 
L 304.668779 261.125493 
L 305.460362 260.27879 
L 306.251945 259.008736 
L 307.043528 258.003276 
L 307.835111 257.7916 
L 308.626693 257.7916 
L 310.209859 256.627383 
L 311.001442 256.415708 
L 311.793025 255.992356 
L 312.584608 255.833599 
L 313.376191 255.145653 
L 314.167774 254.933977 
L 316.542523 253.82268 
L 317.334106 252.870139 
L 318.125689 251.705922 
L 318.917272 251.229651 
L 319.708854 249.959597 
L 320.500437 249.165813 
L 321.29202 248.79538 
L 322.083603 248.583704 
L 323.666769 247.631163 
L 324.458352 247.260731 
L 327.624684 244.932297 
L 328.416267 243.821 
L 329.20785 242.021756 
L 329.999433 240.857539 
L 330.791015 240.27543 
L 331.582598 239.957917 
L 334.74893 237.31197 
L 335.540513 236.78278 
L 337.123679 235.406888 
L 337.915262 234.29559 
L 338.706845 233.554725 
L 340.290011 232.496346 
L 342.664759 230.908778 
L 343.456342 230.220832 
L 344.247925 230.009156 
L 346.622674 228.79202 
L 348.20584 227.892398 
L 348.997423 227.574885 
L 350.580589 226.146073 
L 351.372172 225.193532 
L 352.955338 224.135153 
L 353.74692 223.923478 
L 354.538503 223.553045 
L 355.330086 222.970937 
L 356.913252 222.124234 
L 357.704835 222.018396 
L 359.288001 221.171693 
L 360.079584 220.748341 
L 360.871167 219.954557 
L 361.66275 219.478286 
L 362.454333 219.213692 
L 363.245916 218.684502 
L 366.412247 217.096934 
L 367.20383 216.408988 
L 370.370162 215.350609 
L 371.161745 214.82142 
L 371.953328 214.662663 
L 373.536494 214.133473 
L 375.911242 213.233851 
L 378.285991 212.387148 
L 379.869157 212.122554 
L 381.452323 210.79958 
L 383.035489 210.058715 
L 385.410238 208.735741 
L 386.993403 208.31239 
L 387.784986 207.836119 
L 388.576569 207.624444 
L 390.951318 206.142713 
L 393.326067 205.613524 
L 395.700816 204.766821 
L 397.283982 203.867199 
L 398.075564 203.761361 
L 398.867147 203.496766 
L 400.450313 203.179252 
L 402.825062 201.485846 
L 405.199811 200.956657 
L 405.991394 200.692062 
L 406.782977 200.109954 
L 411.532474 198.628223 
L 412.324057 198.575304 
L 417.865138 196.670223 
L 418.656721 196.29979 
L 421.031469 195.770601 
L 422.614635 195.400168 
L 423.406218 195.029735 
L 424.197801 194.870979 
L 426.57255 193.8126 
L 428.947299 192.701302 
L 429.738882 192.172113 
L 430.530465 191.960437 
L 432.905213 190.743301 
L 434.488379 190.372869 
L 436.071545 189.579084 
L 437.654711 189.155733 
L 438.446294 189.049895 
L 439.237877 188.520706 
L 440.02946 188.150273 
L 440.821043 187.991516 
L 442.404209 187.356489 
L 443.195791 187.197732 
L 443.987374 186.774381 
L 447.153706 186.29811 
L 448.736872 185.557245 
L 449.528455 184.922218 
L 450.320038 183.546325 
L 451.903204 183.228811 
L 452.694787 183.070055 
L 455.861118 181.482486 
L 456.652701 181.32373 
L 462.985365 178.30735 
L 465.360113 177.831079 
L 466.943279 177.090214 
L 467.734862 176.772701 
L 468.526445 176.666863 
L 471.692777 175.29097 
L 473.275943 174.232591 
L 474.067526 173.862159 
L 474.859109 173.756321 
L 475.650692 173.491726 
L 476.442275 173.438807 
L 479.608606 172.433347 
L 480.400189 172.380428 
L 481.191772 171.79832 
L 482.774938 171.269131 
L 485.149687 170.528265 
L 485.94127 170.051995 
L 486.732853 169.840319 
L 487.524436 169.31113 
L 488.316018 168.993616 
L 489.107601 168.517346 
L 490.690767 167.935237 
L 491.48235 167.723562 
L 492.273933 167.353129 
L 493.065516 167.141453 
L 493.857099 166.771021 
L 494.648682 166.188912 
L 495.440265 165.395128 
L 496.231848 164.865939 
L 497.023431 164.707182 
L 498.606597 163.542965 
L 499.398179 163.384208 
L 500.189762 162.219992 
L 500.981345 161.902478 
L 501.772928 161.32037 
L 502.564511 161.214532 
L 503.356094 160.685342 
L 504.147677 160.31491 
L 504.93926 160.156153 
L 505.730843 159.838639 
L 506.522426 159.203612 
L 507.314009 158.939017 
L 509.688758 157.404368 
L 512.855089 155.869719 
L 513.646672 155.763881 
L 515.229838 155.075934 
L 516.021421 154.599664 
L 516.813004 153.329609 
L 517.604587 152.535825 
L 518.39617 152.112474 
L 519.187753 151.953717 
L 520.770919 151.001176 
L 521.562501 150.842419 
L 523.145667 150.101554 
L 525.520416 149.149013 
L 527.103582 148.090634 
L 528.686748 146.450147 
L 530.269914 145.497606 
L 531.061497 145.021336 
L 531.85308 144.227551 
L 534.227828 142.32247 
L 535.019411 141.952037 
L 535.810994 141.105334 
L 536.602577 140.523226 
L 538.185743 139.994036 
L 538.977326 139.253171 
L 540.560492 138.459387 
L 541.352075 138.247711 
L 542.143658 137.665603 
L 542.935241 137.453927 
L 545.309989 136.236791 
L 546.101572 135.654683 
L 547.684738 135.019656 
L 548.476321 134.860899 
L 549.267904 134.384628 
L 554.808985 132.479546 
L 555.600567 131.7916 
L 558.766899 130.627383 
L 559.558482 130.415708 
L 560.350065 129.833599 
L 562.724814 128.77522 
L 563.516397 128.193112 
L 564.30798 127.769761 
L 565.891146 124.700462 
L 567.474311 122.901218 
L 568.265894 122.372029 
L 570.640643 121.366569 
L 571.432226 121.101974 
L 572.223809 120.996136 
L 573.015392 120.572785 
L 575.390141 119.831919 
L 577.764889 118.879378 
L 579.348055 117.873919 
L 581.722804 116.81554 
L 585.680719 114.592944 
L 586.472302 113.79916 
L 588.055468 112.952457 
L 588.84705 112.529105 
L 589.638633 112.264511 
L 590.430216 111.735321 
L 592.013382 110.994456 
L 592.804965 110.518186 
L 593.596548 110.200672 
L 594.388131 109.724402 
L 595.179714 109.512726 
L 595.971297 108.930617 
L 596.76288 108.613104 
L 597.554463 108.454347 
L 599.137629 107.81932 
L 601.512377 106.972617 
L 602.30396 106.390508 
L 603.887126 105.967157 
L 605.470292 105.385048 
L 606.261875 104.750021 
L 607.845041 104.273751 
L 608.636624 103.903318 
L 609.428207 103.691642 
L 611.011373 102.633263 
L 612.594538 101.945317 
L 614.177704 100.7811 
L 615.76087 100.251911 
L 616.552453 99.563965 
L 617.344036 99.405208 
L 618.135619 98.717262 
L 619.718785 97.81764 
L 621.301951 97.182612 
L 622.093534 96.388828 
L 624.468282 95.647963 
L 625.259865 95.171693 
L 626.051448 95.065855 
L 628.426197 93.901638 
L 631.592529 92.949097 
L 633.175695 92.737421 
L 633.967277 92.419908 
L 634.75886 92.261151 
L 636.342026 91.626123 
L 637.133609 91.573205 
L 639.508358 90.77942 
L 641.091524 89.826879 
L 642.67469 88.768501 
L 647.424187 86.492986 
L 649.798936 84.958337 
L 651.382102 84.587904 
L 652.965268 83.529525 
L 656.131599 82.576984 
L 656.923182 82.259471 
L 658.506348 81.889038 
L 662.464263 80.618984 
L 664.047429 80.30147 
L 665.630595 79.931037 
L 666.422178 79.560605 
L 667.21376 79.454767 
L 668.796926 78.81974 
L 669.588509 78.713902 
L 670.380092 78.343469 
L 671.963258 78.025955 
L 672.754841 77.655523 
L 675.12959 77.126333 
L 676.712756 76.80882 
L 683.837002 75.380008 
L 684.628585 75.062495 
L 685.420168 75.009576 
L 687.794917 74.374549 
L 688.5865 73.951197 
L 690.169665 73.422008 
L 690.961248 73.369089 
L 694.919163 72.204872 
L 698.877078 70.987736 
L 699.668661 70.77606 
L 700.460244 70.405628 
L 701.251826 70.405628 
L 702.834992 69.876438 
L 703.626575 69.082654 
L 704.418158 68.712222 
L 706.001324 68.235951 
L 709.167656 67.071735 
L 709.959239 66.860059 
L 710.750822 66.383788 
L 711.542405 66.225031 
L 712.333987 65.695842 
L 715.500319 64.743301 
L 716.291902 64.478706 
L 717.083485 64.002436 
L 717.875068 63.79076 
L 718.666651 63.155733 
L 721.0414 62.732381 
L 722.624566 61.885678 
L 723.416148 60.986056 
L 724.999314 60.668543 
L 729.748812 59.610164 
L 731.331978 59.186812 
L 732.915144 59.133893 
L 733.706727 58.763461 
L 736.081475 58.393028 
L 736.873058 58.181352 
L 737.664641 57.81092 
L 740.03939 57.493406 
L 741.622556 56.911298 
L 742.414139 56.540865 
L 743.205722 56.487946 
L 745.580471 55.958757 
L 746.372053 55.8 
L 747.163636 55.8 
L 747.163636 55.8 
" clip-path="url(#pe257fa3e8e)" style="fill: none; stroke: #1f77b4; stroke-width: 1.5; stroke-linecap: square"/>
   </g>
   <g id="line2d_40">
    <path d="M 139.227947 307.8 
L 141.602695 307.694162 
L 143.185861 307.588324 
L 148.726942 307.482486 
L 152.684856 307.32373 
L 155.851188 307.32373 
L 156.642771 307.112054 
L 159.01752 307.059135 
L 163.767017 306.529945 
L 175.640761 305.841999 
L 181.973425 305.736161 
L 185.931339 305.577404 
L 195.430335 305.471567 
L 199.388249 305.31281 
L 204.137747 305.206972 
L 207.304078 305.101134 
L 214.428325 304.995296 
L 216.803074 304.942377 
L 219.177822 304.889458 
L 221.552571 304.624864 
L 226.302069 304.571945 
L 227.885235 304.466107 
L 233.426315 304.360269 
L 242.133727 303.883998 
L 247.674808 303.77816 
L 249.257974 303.672323 
L 251.632723 303.566485 
L 256.38222 303.354809 
L 259.548552 303.30189 
L 261.923301 303.090214 
L 275.38021 302.29643 
L 277.754959 302.190592 
L 283.29604 301.925997 
L 285.670789 301.82016 
L 293.586618 301.396808 
L 302.29403 301.29097 
L 305.460362 300.973457 
L 307.043528 300.867619 
L 315.75094 300.232591 
L 316.542523 300.020916 
L 318.917272 299.80924 
L 320.500437 299.438807 
L 322.875186 299.385888 
L 325.249935 299.28005 
L 331.582598 298.486266 
L 335.540513 298.380428 
L 345.831091 297.586644 
L 350.580589 297.057455 
L 352.955338 297.004536 
L 354.538503 296.898698 
L 357.704835 296.79286 
L 359.288001 296.687022 
L 363.245916 296.31659 
L 364.037499 296.104914 
L 368.786996 295.893238 
L 372.744911 295.7874 
L 383.827072 295.152373 
L 385.410238 295.046535 
L 395.700816 294.464427 
L 401.241896 294.358589 
L 402.033479 294.199832 
L 408.366143 294.093994 
L 413.907223 293.829399 
L 422.614635 293.723562 
L 428.155716 293.458967 
L 434.488379 293.353129 
L 441.612626 292.982696 
L 446.362123 292.876858 
L 461.402199 291.977236 
L 467.734862 291.871399 
L 471.692777 291.500966 
L 473.275943 291.342209 
L 477.233857 291.28929 
L 480.400189 290.971777 
L 488.316018 290.548425 
L 493.065516 290.442587 
L 495.440265 290.389668 
L 497.815014 290.336749 
L 500.189762 290.125073 
L 506.522426 290.019236 
L 508.105592 289.754641 
L 509.688758 289.648803 
L 512.855089 289.542965 
L 515.229838 289.437127 
L 516.813004 289.331289 
L 523.93725 289.225451 
L 525.520416 289.066695 
L 528.686748 288.960857 
L 529.478331 288.749181 
L 531.061497 288.696262 
L 531.85308 288.537505 
L 534.227828 288.431667 
L 547.684738 287.637883 
L 550.059487 287.532045 
L 554.017402 287.373289 
L 565.099563 287.267451 
L 570.640643 287.002856 
L 576.973307 286.897018 
L 580.139638 286.79118 
L 583.30597 286.738261 
L 584.889136 286.579504 
L 588.055468 286.473667 
L 595.971297 286.050315 
L 600.720794 285.997396 
L 603.095543 285.78572 
L 605.470292 285.732801 
L 611.011373 285.626963 
L 614.177704 285.521126 
L 623.676699 285.415288 
L 627.634614 285.256531 
L 632.384112 285.150693 
L 634.75886 284.886098 
L 639.508358 284.833179 
L 640.299941 284.674423 
L 641.883107 284.568585 
L 645.049438 284.462747 
L 654.548434 284.356909 
L 658.506348 284.198152 
L 671.963258 284.145233 
L 673.546424 284.039395 
L 675.921173 283.986476 
L 686.211751 283.880638 
L 687.794917 283.774801 
L 696.502329 283.668963 
L 699.668661 283.563125 
L 709.167656 283.510206 
L 710.750822 283.404368 
L 722.624566 283.351449 
L 724.999314 283.139773 
L 738.456224 283.033935 
L 740.830973 282.981016 
L 747.163636 282.928097 
L 747.163636 282.928097 
" clip-path="url(#pe257fa3e8e)" style="fill: none; stroke: #ff7f0e; stroke-width: 1.5; stroke-linecap: square"/>
   </g>
   <g id="patch_3">
    <path d="M 108 320.4 
L 108 43.2 
" style="fill: none; stroke: #a9a9a9; stroke-width: 0.8; stroke-linejoin: miter; stroke-linecap: square"/>
   </g>
   <g id="patch_4">
    <path d="M 777.6 320.4 
L 777.6 43.2 
" style="fill: none"/>
   </g>
   <g id="patch_5">
    <path d="M 108 320.4 
L 777.6 320.4 
" style="fill: none; stroke: #a9a9a9; stroke-width: 0.8; stroke-linejoin: miter; stroke-linecap: square"/>
   </g>
   <g id="patch_6">
    <path d="M 108 43.2 
L 777.6 43.2 
" style="fill: none"/>
   </g>
   <g id="text_20">
    <!-- get_subscribe history -->
    <g style="fill: #a9a9a9" transform="translate(378.6075 37.2) scale(0.12 -0.12)">
     <defs>
      <path id="DejaVuSans-67" d="M 2906 1791 
Q 2906 2416 2648 2759 
Q 2391 3103 1925 3103 
Q 1463 3103 1205 2759 
Q 947 2416 947 1791 
Q 947 1169 1205 825 
Q 1463 481 1925 481 
Q 2391 481 2648 825 
Q 2906 1169 2906 1791 
z
M 3481 434 
Q 3481 -459 3084 -895 
Q 2688 -1331 1869 -1331 
Q 1566 -1331 1297 -1286 
Q 1028 -1241 775 -1147 
L 775 -588 
Q 1028 -725 1275 -790 
Q 1522 -856 1778 -856 
Q 2344 -856 2625 -561 
Q 2906 -266 2906 331 
L 2906 616 
Q 2728 306 2450 153 
Q 2172 0 1784 0 
Q 1141 0 747 490 
Q 353 981 353 1791 
Q 353 2603 747 3093 
Q 1141 3584 1784 3584 
Q 2172 3584 2450 3431 
Q 2728 3278 2906 2969 
L 2906 3500 
L 3481 3500 
L 3481 434 
z
" transform="scale(0.015625)"/>
      <path id="DejaVuSans-65" d="M 3597 1894 
L 3597 1613 
L 953 1613 
Q 991 1019 1311 708 
Q 1631 397 2203 397 
Q 2534 397 2845 478 
Q 3156 559 3463 722 
L 3463 178 
Q 3153 47 2828 -22 
Q 2503 -91 2169 -91 
Q 1331 -91 842 396 
Q 353 884 353 1716 
Q 353 2575 817 3079 
Q 1281 3584 2069 3584 
Q 2775 3584 3186 3129 
Q 3597 2675 3597 1894 
z
M 3022 2063 
Q 3016 2534 2758 2815 
Q 2500 3097 2075 3097 
Q 1594 3097 1305 2825 
Q 1016 2553 972 2059 
L 3022 2063 
z
" transform="scale(0.015625)"/>
      <path id="DejaVuSans-74" d="M 1172 4494 
L 1172 3500 
L 2356 3500 
L 2356 3053 
L 1172 3053 
L 1172 1153 
Q 1172 725 1289 603 
Q 1406 481 1766 481 
L 2356 481 
L 2356 0 
L 1766 0 
Q 1100 0 847 248 
Q 594 497 594 1153 
L 594 3053 
L 172 3053 
L 172 3500 
L 594 3500 
L 594 4494 
L 1172 4494 
z
" transform="scale(0.015625)"/>
      <path id="DejaVuSans-5f" d="M 3263 -1063 
L 3263 -1509 
L -63 -1509 
L -63 -1063 
L 3263 -1063 
z
" transform="scale(0.015625)"/>
      <path id="DejaVuSans-73" d="M 2834 3397 
L 2834 2853 
Q 2591 2978 2328 3040 
Q 2066 3103 1784 3103 
Q 1356 3103 1142 2972 
Q 928 2841 928 2578 
Q 928 2378 1081 2264 
Q 1234 2150 1697 2047 
L 1894 2003 
Q 2506 1872 2764 1633 
Q 3022 1394 3022 966 
Q 3022 478 2636 193 
Q 2250 -91 1575 -91 
Q 1294 -91 989 -36 
Q 684 19 347 128 
L 347 722 
Q 666 556 975 473 
Q 1284 391 1588 391 
Q 1994 391 2212 530 
Q 2431 669 2431 922 
Q 2431 1156 2273 1281 
Q 2116 1406 1581 1522 
L 1381 1569 
Q 847 1681 609 1914 
Q 372 2147 372 2553 
Q 372 3047 722 3315 
Q 1072 3584 1716 3584 
Q 2034 3584 2315 3537 
Q 2597 3491 2834 3397 
z
" transform="scale(0.015625)"/>
      <path id="DejaVuSans-75" d="M 544 1381 
L 544 3500 
L 1119 3500 
L 1119 1403 
Q 1119 906 1312 657 
Q 1506 409 1894 409 
Q 2359 409 2629 706 
Q 2900 1003 2900 1516 
L 2900 3500 
L 3475 3500 
L 3475 0 
L 2900 0 
L 2900 538 
Q 2691 219 2414 64 
Q 2138 -91 1772 -91 
Q 1169 -91 856 284 
Q 544 659 544 1381 
z
M 1991 3584 
L 1991 3584 
z
" transform="scale(0.015625)"/>
      <path id="DejaVuSans-62" d="M 3116 1747 
Q 3116 2381 2855 2742 
Q 2594 3103 2138 3103 
Q 1681 3103 1420 2742 
Q 1159 2381 1159 1747 
Q 1159 1113 1420 752 
Q 1681 391 2138 391 
Q 2594 391 2855 752 
Q 3116 1113 3116 1747 
z
M 1159 2969 
Q 1341 3281 1617 3432 
Q 1894 3584 2278 3584 
Q 2916 3584 3314 3078 
Q 3713 2572 3713 1747 
Q 3713 922 3314 415 
Q 2916 -91 2278 -91 
Q 1894 -91 1617 61 
Q 1341 213 1159 525 
L 1159 0 
L 581 0 
L 581 4863 
L 1159 4863 
L 1159 2969 
z
" transform="scale(0.015625)"/>
      <path id="DejaVuSans-63" d="M 3122 3366 
L 3122 2828 
Q 2878 2963 2633 3030 
Q 2388 3097 2138 3097 
Q 1578 3097 1268 2742 
Q 959 2388 959 1747 
Q 959 1106 1268 751 
Q 1578 397 2138 397 
Q 2388 397 2633 464 
Q 2878 531 3122 666 
L 3122 134 
Q 2881 22 2623 -34 
Q 2366 -91 2075 -91 
Q 1284 -91 818 406 
Q 353 903 353 1747 
Q 353 2603 823 3093 
Q 1294 3584 2113 3584 
Q 2378 3584 2631 3529 
Q 2884 3475 3122 3366 
z
" transform="scale(0.015625)"/>
      <path id="DejaVuSans-72" d="M 2631 2963 
Q 2534 3019 2420 3045 
Q 2306 3072 2169 3072 
Q 1681 3072 1420 2755 
Q 1159 2438 1159 1844 
L 1159 0 
L 581 0 
L 581 3500 
L 1159 3500 
L 1159 2956 
Q 1341 3275 1631 3429 
Q 1922 3584 2338 3584 
Q 2397 3584 2469 3576 
Q 2541 3569 2628 3553 
L 2631 2963 
z
" transform="scale(0.015625)"/>
      <path id="DejaVuSans-69" d="M 603 3500 
L 1178 3500 
L 1178 0 
L 603 0 
L 603 3500 
z
M 603 4863 
L 1178 4863 
L 1178 4134 
L 603 4134 
L 603 4863 
z
" transform="scale(0.015625)"/>
      <path id="DejaVuSans-20" transform="scale(0.015625)"/>
      <path id="DejaVuSans-68" d="M 3513 2113 
L 3513 0 
L 2938 0 
L 2938 2094 
Q 2938 2591 2744 2837 
Q 2550 3084 2163 3084 
Q 1697 3084 1428 2787 
Q 1159 2491 1159 1978 
L 1159 0 
L 581 0 
L 581 4863 
L 1159 4863 
L 1159 2956 
Q 1366 3272 1645 3428 
Q 1925 3584 2291 3584 
Q 2894 3584 3203 3211 
Q 3513 2838 3513 2113 
z
" transform="scale(0.015625)"/>
      <path id="DejaVuSans-6f" d="M 1959 3097 
Q 1497 3097 1228 2736 
Q 959 2375 959 1747 
Q 959 1119 1226 758 
Q 1494 397 1959 397 
Q 2419 397 2687 759 
Q 2956 1122 2956 1747 
Q 2956 2369 2687 2733 
Q 2419 3097 1959 3097 
z
M 1959 3584 
Q 2709 3584 3137 3096 
Q 3566 2609 3566 1747 
Q 3566 888 3137 398 
Q 2709 -91 1959 -91 
Q 1206 -91 779 398 
Q 353 888 353 1747 
Q 353 2609 779 3096 
Q 1206 3584 1959 3584 
z
" transform="scale(0.015625)"/>
      <path id="DejaVuSans-79" d="M 2059 -325 
Q 1816 -950 1584 -1140 
Q 1353 -1331 966 -1331 
L 506 -1331 
L 506 -850 
L 844 -850 
Q 1081 -850 1212 -737 
Q 1344 -625 1503 -206 
L 1606 56 
L 191 3500 
L 800 3500 
L 1894 763 
L 2988 3500 
L 3597 3500 
L 2059 -325 
z
" transform="scale(0.015625)"/>
     </defs>
     <use xlink:href="#DejaVuSans-67"/>
     <use xlink:href="#DejaVuSans-65" x="63.476562"/>
     <use xlink:href="#DejaVuSans-74" x="125"/>
     <use xlink:href="#DejaVuSans-5f" x="164.208984"/>
     <use xlink:href="#DejaVuSans-73" x="214.208984"/>
     <use xlink:href="#DejaVuSans-75" x="266.308594"/>
     <use xlink:href="#DejaVuSans-62" x="329.6875"/>
     <use xlink:href="#DejaVuSans-73" x="393.164062"/>
     <use xlink:href="#DejaVuSans-63" x="445.263672"/>
     <use xlink:href="#DejaVuSans-72" x="500.244141"/>
     <use xlink:href="#DejaVuSans-69" x="541.357422"/>
     <use xlink:href="#DejaVuSans-62" x="569.140625"/>
     <use xlink:href="#DejaVuSans-65" x="632.617188"/>
     <use xlink:href="#DejaVuSans-20" x="694.140625"/>
     <use xlink:href="#DejaVuSans-68" x="725.927734"/>
     <use xlink:href="#DejaVuSans-69" x="789.306641"/>
     <use xlink:href="#DejaVuSans-73" x="817.089844"/>
     <use xlink:href="#DejaVuSans-74" x="869.189453"/>
     <use xlink:href="#DejaVuSans-6f" x="908.398438"/>
     <use xlink:href="#DejaVuSans-72" x="969.580078"/>
     <use xlink:href="#DejaVuSans-79" x="1010.693359"/>
    </g>
   </g>
   <g id="legend_1">
    <g id="line2d_41">
     <path d="M 815.08 328.498438 
L 825.08 328.498438 
L 835.08 328.498438 
" style="fill: none; stroke: #1f77b4; stroke-width: 1.5; stroke-linecap: square"/>
    </g>
    <g id="text_21">
     <!-- star -->
     <g style="fill: #a9a9a9" transform="translate(843.08 331.998438) scale(0.1 -0.1)">
      <defs>
       <path id="DejaVuSans-61" d="M 2194 1759 
Q 1497 1759 1228 1600 
Q 959 1441 959 1056 
Q 959 750 1161 570 
Q 1363 391 1709 391 
Q 2188 391 2477 730 
Q 2766 1069 2766 1631 
L 2766 1759 
L 2194 1759 
z
M 3341 1997 
L 3341 0 
L 2766 0 
L 2766 531 
Q 2569 213 2275 61 
Q 1981 -91 1556 -91 
Q 1019 -91 701 211 
Q 384 513 384 1019 
Q 384 1609 779 1909 
Q 1175 2209 1959 2209 
L 2766 2209 
L 2766 2266 
Q 2766 2663 2505 2880 
Q 2244 3097 1772 3097 
Q 1472 3097 1187 3025 
Q 903 2953 641 2809 
L 641 3341 
Q 956 3463 1253 3523 
Q 1550 3584 1831 3584 
Q 2591 3584 2966 3190 
Q 3341 2797 3341 1997 
z
" transform="scale(0.015625)"/>
      </defs>
      <use xlink:href="#DejaVuSans-73"/>
      <use xlink:href="#DejaVuSans-74" x="52.099609"/>
      <use xlink:href="#DejaVuSans-61" x="91.308594"/>
      <use xlink:href="#DejaVuSans-72" x="152.587891"/>
     </g>
    </g>
    <g id="line2d_42">
     <path d="M 815.08 343.176562 
L 825.08 343.176562 
L 835.08 343.176562 
" style="fill: none; stroke: #ff7f0e; stroke-width: 1.5; stroke-linecap: square"/>
    </g>
    <g id="text_22">
     <!-- fork -->
     <g style="fill: #a9a9a9" transform="translate(843.08 346.676562) scale(0.1 -0.1)">
      <defs>
       <path id="DejaVuSans-66" d="M 2375 4863 
L 2375 4384 
L 1825 4384 
Q 1516 4384 1395 4259 
Q 1275 4134 1275 3809 
L 1275 3500 
L 2222 3500 
L 2222 3053 
L 1275 3053 
L 1275 0 
L 697 0 
L 697 3053 
L 147 3053 
L 147 3500 
L 697 3500 
L 697 3744 
Q 697 4328 969 4595 
Q 1241 4863 1831 4863 
L 2375 4863 
z
" transform="scale(0.015625)"/>
       <path id="DejaVuSans-6b" d="M 581 4863 
L 1159 4863 
L 1159 1991 
L 2875 3500 
L 3609 3500 
L 1753 1863 
L 3688 0 
L 2938 0 
L 1159 1709 
L 1159 0 
L 581 0 
L 581 4863 
z
" transform="scale(0.015625)"/>
      </defs>
      <use xlink:href="#DejaVuSans-66"/>
      <use xlink:href="#DejaVuSans-6f" x="35.205078"/>
      <use xlink:href="#DejaVuSans-72" x="96.386719"/>
      <use xlink:href="#DejaVuSans-6b" x="137.5"/>
     </g>
    </g>
   </g>
  </g>
 </g>
 <defs>
  <clipPath id="pe257fa3e8e">
   <rect x="108" y="43.2" width="669.6" height="277.2"/>
  </clipPath>
 </defs>
</svg>
