<?xml version="1.0" encoding="utf-8" standalone="no"?>
<!DOCTYPE svg PUBLIC "-//W3C//DTD SVG 1.1//EN"
  "http://www.w3.org/Graphics/SVG/1.1/DTD/svg11.dtd">
<svg xmlns:xlink="http://www.w3.org/1999/xlink" width="864pt" height="360pt" viewBox="0 0 864 360" xmlns="http://www.w3.org/2000/svg" version="1.1">
 <metadata>
  <rdf:RDF xmlns:dc="http://purl.org/dc/elements/1.1/" xmlns:cc="http://creativecommons.org/ns#" xmlns:rdf="http://www.w3.org/1999/02/22-rdf-syntax-ns#">
   <cc:Work>
    <dc:type rdf:resource="http://purl.org/dc/dcmitype/StillImage"/>
    <dc:date>2023-08-30T08:45:31.885838</dc:date>
    <dc:format>image/svg+xml</dc:format>
    <dc:creator>
     <cc:Agent>
      <dc:title>Matplotlib v3.7.2, https://matplotlib.org/</dc:title>
     </cc:Agent>
    </dc:creator>
   </cc:Work>
  </rdf:RDF>
 </metadata>
 <defs>
  <style type="text/css">*{stroke-linejoin: round; stroke-linecap: butt}</style>
 </defs>
 <g id="figure_1">
  <g id="patch_1">
   <path d="M 0 360 
L 864 360 
L 864 0 
L 0 0 
L 0 360 
z
" style="fill: none; opacity: 0"/>
  </g>
  <g id="axes_1">
   <g id="patch_2">
    <path d="M 108 320.4 
L 777.6 320.4 
L 777.6 43.2 
L 108 43.2 
L 108 320.4 
z
" style="fill: none; opacity: 0"/>
   </g>
   <g id="matplotlib.axis_1">
    <g id="xtick_1">
     <g id="line2d_1">
      <path d="M 120.182482 320.4 
L 120.182482 43.2 
" clip-path="url(#p5c17ab1a26)" style="fill: none; stroke-dasharray: 5.12,1.28,0.8,1.28; stroke-dashoffset: 0; stroke: #b0b0b0; stroke-width: 0.8"/>
     </g>
     <g id="line2d_2">
      <defs>
       <path id="m3695ea8b81" d="M 0 0 
L 0 3.5 
" style="stroke: #a9a9a9; stroke-width: 0.8"/>
      </defs>
      <g>
       <use xlink:href="#m3695ea8b81" x="120.182482" y="320.4" style="fill: #a9a9a9; stroke: #a9a9a9; stroke-width: 0.8"/>
      </g>
     </g>
     <g id="text_1">
      <!-- 2021-07 -->
      <g style="fill: #a9a9a9" transform="translate(99.291076 334.998438) scale(0.1 -0.1)">
       <defs>
        <path id="DejaVuSans-32" d="M 1228 531 
L 3431 531 
L 3431 0 
L 469 0 
L 469 531 
Q 828 903 1448 1529 
Q 2069 2156 2228 2338 
Q 2531 2678 2651 2914 
Q 2772 3150 2772 3378 
Q 2772 3750 2511 3984 
Q 2250 4219 1831 4219 
Q 1534 4219 1204 4116 
Q 875 4013 500 3803 
L 500 4441 
Q 881 4594 1212 4672 
Q 1544 4750 1819 4750 
Q 2544 4750 2975 4387 
Q 3406 4025 3406 3419 
Q 3406 3131 3298 2873 
Q 3191 2616 2906 2266 
Q 2828 2175 2409 1742 
Q 1991 1309 1228 531 
z
" transform="scale(0.015625)"/>
        <path id="DejaVuSans-30" d="M 2034 4250 
Q 1547 4250 1301 3770 
Q 1056 3291 1056 2328 
Q 1056 1369 1301 889 
Q 1547 409 2034 409 
Q 2525 409 2770 889 
Q 3016 1369 3016 2328 
Q 3016 3291 2770 3770 
Q 2525 4250 2034 4250 
z
M 2034 4750 
Q 2819 4750 3233 4129 
Q 3647 3509 3647 2328 
Q 3647 1150 3233 529 
Q 2819 -91 2034 -91 
Q 1250 -91 836 529 
Q 422 1150 422 2328 
Q 422 3509 836 4129 
Q 1250 4750 2034 4750 
z
" transform="scale(0.015625)"/>
        <path id="DejaVuSans-31" d="M 794 531 
L 1825 531 
L 1825 4091 
L 703 3866 
L 703 4441 
L 1819 4666 
L 2450 4666 
L 2450 531 
L 3481 531 
L 3481 0 
L 794 0 
L 794 531 
z
" transform="scale(0.015625)"/>
        <path id="DejaVuSans-2d" d="M 313 2009 
L 1997 2009 
L 1997 1497 
L 313 1497 
L 313 2009 
z
" transform="scale(0.015625)"/>
        <path id="DejaVuSans-37" d="M 525 4666 
L 3525 4666 
L 3525 4397 
L 1831 0 
L 1172 0 
L 2766 4134 
L 525 4134 
L 525 4666 
z
" transform="scale(0.015625)"/>
       </defs>
       <use xlink:href="#DejaVuSans-32"/>
       <use xlink:href="#DejaVuSans-30" x="63.623047"/>
       <use xlink:href="#DejaVuSans-32" x="127.246094"/>
       <use xlink:href="#DejaVuSans-31" x="190.869141"/>
       <use xlink:href="#DejaVuSans-2d" x="254.492188"/>
       <use xlink:href="#DejaVuSans-30" x="290.576172"/>
       <use xlink:href="#DejaVuSans-37" x="354.199219"/>
      </g>
     </g>
    </g>
    <g id="xtick_2">
     <g id="line2d_3">
      <path d="M 193.198009 320.4 
L 193.198009 43.2 
" clip-path="url(#p5c17ab1a26)" style="fill: none; stroke-dasharray: 5.12,1.28,0.8,1.28; stroke-dashoffset: 0; stroke: #b0b0b0; stroke-width: 0.8"/>
     </g>
     <g id="line2d_4">
      <g>
       <use xlink:href="#m3695ea8b81" x="193.198009" y="320.4" style="fill: #a9a9a9; stroke: #a9a9a9; stroke-width: 0.8"/>
      </g>
     </g>
     <g id="text_2">
      <!-- 2021-10 -->
      <g style="fill: #a9a9a9" transform="translate(172.306603 334.998438) scale(0.1 -0.1)">
       <use xlink:href="#DejaVuSans-32"/>
       <use xlink:href="#DejaVuSans-30" x="63.623047"/>
       <use xlink:href="#DejaVuSans-32" x="127.246094"/>
       <use xlink:href="#DejaVuSans-31" x="190.869141"/>
       <use xlink:href="#DejaVuSans-2d" x="254.492188"/>
       <use xlink:href="#DejaVuSans-31" x="290.576172"/>
       <use xlink:href="#DejaVuSans-30" x="354.199219"/>
      </g>
     </g>
    </g>
    <g id="xtick_3">
     <g id="line2d_5">
      <path d="M 266.213536 320.4 
L 266.213536 43.2 
" clip-path="url(#p5c17ab1a26)" style="fill: none; stroke-dasharray: 5.12,1.28,0.8,1.28; stroke-dashoffset: 0; stroke: #b0b0b0; stroke-width: 0.8"/>
     </g>
     <g id="line2d_6">
      <g>
       <use xlink:href="#m3695ea8b81" x="266.213536" y="320.4" style="fill: #a9a9a9; stroke: #a9a9a9; stroke-width: 0.8"/>
      </g>
     </g>
     <g id="text_3">
      <!-- 2022-01 -->
      <g style="fill: #a9a9a9" transform="translate(245.322129 334.998438) scale(0.1 -0.1)">
       <use xlink:href="#DejaVuSans-32"/>
       <use xlink:href="#DejaVuSans-30" x="63.623047"/>
       <use xlink:href="#DejaVuSans-32" x="127.246094"/>
       <use xlink:href="#DejaVuSans-32" x="190.869141"/>
       <use xlink:href="#DejaVuSans-2d" x="254.492188"/>
       <use xlink:href="#DejaVuSans-30" x="290.576172"/>
       <use xlink:href="#DejaVuSans-31" x="354.199219"/>
      </g>
     </g>
    </g>
    <g id="xtick_4">
     <g id="line2d_7">
      <path d="M 337.641768 320.4 
L 337.641768 43.2 
" clip-path="url(#p5c17ab1a26)" style="fill: none; stroke-dasharray: 5.12,1.28,0.8,1.28; stroke-dashoffset: 0; stroke: #b0b0b0; stroke-width: 0.8"/>
     </g>
     <g id="line2d_8">
      <g>
       <use xlink:href="#m3695ea8b81" x="337.641768" y="320.4" style="fill: #a9a9a9; stroke: #a9a9a9; stroke-width: 0.8"/>
      </g>
     </g>
     <g id="text_4">
      <!-- 2022-04 -->
      <g style="fill: #a9a9a9" transform="translate(316.750362 334.998438) scale(0.1 -0.1)">
       <defs>
        <path id="DejaVuSans-34" d="M 2419 4116 
L 825 1625 
L 2419 1625 
L 2419 4116 
z
M 2253 4666 
L 3047 4666 
L 3047 1625 
L 3713 1625 
L 3713 1100 
L 3047 1100 
L 3047 0 
L 2419 0 
L 2419 1100 
L 313 1100 
L 313 1709 
L 2253 4666 
z
" transform="scale(0.015625)"/>
       </defs>
       <use xlink:href="#DejaVuSans-32"/>
       <use xlink:href="#DejaVuSans-30" x="63.623047"/>
       <use xlink:href="#DejaVuSans-32" x="127.246094"/>
       <use xlink:href="#DejaVuSans-32" x="190.869141"/>
       <use xlink:href="#DejaVuSans-2d" x="254.492188"/>
       <use xlink:href="#DejaVuSans-30" x="290.576172"/>
       <use xlink:href="#DejaVuSans-34" x="354.199219"/>
      </g>
     </g>
    </g>
    <g id="xtick_5">
     <g id="line2d_9">
      <path d="M 409.863648 320.4 
L 409.863648 43.2 
" clip-path="url(#p5c17ab1a26)" style="fill: none; stroke-dasharray: 5.12,1.28,0.8,1.28; stroke-dashoffset: 0; stroke: #b0b0b0; stroke-width: 0.8"/>
     </g>
     <g id="line2d_10">
      <g>
       <use xlink:href="#m3695ea8b81" x="409.863648" y="320.4" style="fill: #a9a9a9; stroke: #a9a9a9; stroke-width: 0.8"/>
      </g>
     </g>
     <g id="text_5">
      <!-- 2022-07 -->
      <g style="fill: #a9a9a9" transform="translate(388.972242 334.998438) scale(0.1 -0.1)">
       <use xlink:href="#DejaVuSans-32"/>
       <use xlink:href="#DejaVuSans-30" x="63.623047"/>
       <use xlink:href="#DejaVuSans-32" x="127.246094"/>
       <use xlink:href="#DejaVuSans-32" x="190.869141"/>
       <use xlink:href="#DejaVuSans-2d" x="254.492188"/>
       <use xlink:href="#DejaVuSans-30" x="290.576172"/>
       <use xlink:href="#DejaVuSans-37" x="354.199219"/>
      </g>
     </g>
    </g>
    <g id="xtick_6">
     <g id="line2d_11">
      <path d="M 482.879175 320.4 
L 482.879175 43.2 
" clip-path="url(#p5c17ab1a26)" style="fill: none; stroke-dasharray: 5.12,1.28,0.8,1.28; stroke-dashoffset: 0; stroke: #b0b0b0; stroke-width: 0.8"/>
     </g>
     <g id="line2d_12">
      <g>
       <use xlink:href="#m3695ea8b81" x="482.879175" y="320.4" style="fill: #a9a9a9; stroke: #a9a9a9; stroke-width: 0.8"/>
      </g>
     </g>
     <g id="text_6">
      <!-- 2022-10 -->
      <g style="fill: #a9a9a9" transform="translate(461.987769 334.998438) scale(0.1 -0.1)">
       <use xlink:href="#DejaVuSans-32"/>
       <use xlink:href="#DejaVuSans-30" x="63.623047"/>
       <use xlink:href="#DejaVuSans-32" x="127.246094"/>
       <use xlink:href="#DejaVuSans-32" x="190.869141"/>
       <use xlink:href="#DejaVuSans-2d" x="254.492188"/>
       <use xlink:href="#DejaVuSans-31" x="290.576172"/>
       <use xlink:href="#DejaVuSans-30" x="354.199219"/>
      </g>
     </g>
    </g>
    <g id="xtick_7">
     <g id="line2d_13">
      <path d="M 555.894702 320.4 
L 555.894702 43.2 
" clip-path="url(#p5c17ab1a26)" style="fill: none; stroke-dasharray: 5.12,1.28,0.8,1.28; stroke-dashoffset: 0; stroke: #b0b0b0; stroke-width: 0.8"/>
     </g>
     <g id="line2d_14">
      <g>
       <use xlink:href="#m3695ea8b81" x="555.894702" y="320.4" style="fill: #a9a9a9; stroke: #a9a9a9; stroke-width: 0.8"/>
      </g>
     </g>
     <g id="text_7">
      <!-- 2023-01 -->
      <g style="fill: #a9a9a9" transform="translate(535.003296 334.998438) scale(0.1 -0.1)">
       <defs>
        <path id="DejaVuSans-33" d="M 2597 2516 
Q 3050 2419 3304 2112 
Q 3559 1806 3559 1356 
Q 3559 666 3084 287 
Q 2609 -91 1734 -91 
Q 1441 -91 1130 -33 
Q 819 25 488 141 
L 488 750 
Q 750 597 1062 519 
Q 1375 441 1716 441 
Q 2309 441 2620 675 
Q 2931 909 2931 1356 
Q 2931 1769 2642 2001 
Q 2353 2234 1838 2234 
L 1294 2234 
L 1294 2753 
L 1863 2753 
Q 2328 2753 2575 2939 
Q 2822 3125 2822 3475 
Q 2822 3834 2567 4026 
Q 2313 4219 1838 4219 
Q 1578 4219 1281 4162 
Q 984 4106 628 3988 
L 628 4550 
Q 988 4650 1302 4700 
Q 1616 4750 1894 4750 
Q 2613 4750 3031 4423 
Q 3450 4097 3450 3541 
Q 3450 3153 3228 2886 
Q 3006 2619 2597 2516 
z
" transform="scale(0.015625)"/>
       </defs>
       <use xlink:href="#DejaVuSans-32"/>
       <use xlink:href="#DejaVuSans-30" x="63.623047"/>
       <use xlink:href="#DejaVuSans-32" x="127.246094"/>
       <use xlink:href="#DejaVuSans-33" x="190.869141"/>
       <use xlink:href="#DejaVuSans-2d" x="254.492188"/>
       <use xlink:href="#DejaVuSans-30" x="290.576172"/>
       <use xlink:href="#DejaVuSans-31" x="354.199219"/>
      </g>
     </g>
    </g>
    <g id="xtick_8">
     <g id="line2d_15">
      <path d="M 627.322935 320.4 
L 627.322935 43.2 
" clip-path="url(#p5c17ab1a26)" style="fill: none; stroke-dasharray: 5.12,1.28,0.8,1.28; stroke-dashoffset: 0; stroke: #b0b0b0; stroke-width: 0.8"/>
     </g>
     <g id="line2d_16">
      <g>
       <use xlink:href="#m3695ea8b81" x="627.322935" y="320.4" style="fill: #a9a9a9; stroke: #a9a9a9; stroke-width: 0.8"/>
      </g>
     </g>
     <g id="text_8">
      <!-- 2023-04 -->
      <g style="fill: #a9a9a9" transform="translate(606.431528 334.998438) scale(0.1 -0.1)">
       <use xlink:href="#DejaVuSans-32"/>
       <use xlink:href="#DejaVuSans-30" x="63.623047"/>
       <use xlink:href="#DejaVuSans-32" x="127.246094"/>
       <use xlink:href="#DejaVuSans-33" x="190.869141"/>
       <use xlink:href="#DejaVuSans-2d" x="254.492188"/>
       <use xlink:href="#DejaVuSans-30" x="290.576172"/>
       <use xlink:href="#DejaVuSans-34" x="354.199219"/>
      </g>
     </g>
    </g>
    <g id="xtick_9">
     <g id="line2d_17">
      <path d="M 699.544815 320.4 
L 699.544815 43.2 
" clip-path="url(#p5c17ab1a26)" style="fill: none; stroke-dasharray: 5.12,1.28,0.8,1.28; stroke-dashoffset: 0; stroke: #b0b0b0; stroke-width: 0.8"/>
     </g>
     <g id="line2d_18">
      <g>
       <use xlink:href="#m3695ea8b81" x="699.544815" y="320.4" style="fill: #a9a9a9; stroke: #a9a9a9; stroke-width: 0.8"/>
      </g>
     </g>
     <g id="text_9">
      <!-- 2023-07 -->
      <g style="fill: #a9a9a9" transform="translate(678.653408 334.998438) scale(0.1 -0.1)">
       <use xlink:href="#DejaVuSans-32"/>
       <use xlink:href="#DejaVuSans-30" x="63.623047"/>
       <use xlink:href="#DejaVuSans-32" x="127.246094"/>
       <use xlink:href="#DejaVuSans-33" x="190.869141"/>
       <use xlink:href="#DejaVuSans-2d" x="254.492188"/>
       <use xlink:href="#DejaVuSans-30" x="290.576172"/>
       <use xlink:href="#DejaVuSans-37" x="354.199219"/>
      </g>
     </g>
    </g>
    <g id="xtick_10">
     <g id="line2d_19">
      <path d="M 772.560341 320.4 
L 772.560341 43.2 
" clip-path="url(#p5c17ab1a26)" style="fill: none; stroke-dasharray: 5.12,1.28,0.8,1.28; stroke-dashoffset: 0; stroke: #b0b0b0; stroke-width: 0.8"/>
     </g>
     <g id="line2d_20">
      <g>
       <use xlink:href="#m3695ea8b81" x="772.560341" y="320.4" style="fill: #a9a9a9; stroke: #a9a9a9; stroke-width: 0.8"/>
      </g>
     </g>
     <g id="text_10">
      <!-- 2023-10 -->
      <g style="fill: #a9a9a9" transform="translate(751.668935 334.998438) scale(0.1 -0.1)">
       <use xlink:href="#DejaVuSans-32"/>
       <use xlink:href="#DejaVuSans-30" x="63.623047"/>
       <use xlink:href="#DejaVuSans-32" x="127.246094"/>
       <use xlink:href="#DejaVuSans-33" x="190.869141"/>
       <use xlink:href="#DejaVuSans-2d" x="254.492188"/>
       <use xlink:href="#DejaVuSans-31" x="290.576172"/>
       <use xlink:href="#DejaVuSans-30" x="354.199219"/>
      </g>
     </g>
    </g>
   </g>
   <g id="matplotlib.axis_2">
    <g id="ytick_1">
     <g id="line2d_21">
      <path d="M 108 307.852975 
L 777.6 307.852975 
" clip-path="url(#p5c17ab1a26)" style="fill: none; stroke-dasharray: 5.12,1.28,0.8,1.28; stroke-dashoffset: 0; stroke: #b0b0b0; stroke-width: 0.8"/>
     </g>
     <g id="line2d_22">
      <defs>
       <path id="m5d7a6a8176" d="M 0 0 
L -3.5 0 
" style="stroke: #a9a9a9; stroke-width: 0.8"/>
      </defs>
      <g>
       <use xlink:href="#m5d7a6a8176" x="108" y="307.852975" style="fill: #a9a9a9; stroke: #a9a9a9; stroke-width: 0.8"/>
      </g>
     </g>
     <g id="text_11">
      <!-- 0 -->
      <g style="fill: #a9a9a9" transform="translate(94.6375 311.652193) scale(0.1 -0.1)">
       <use xlink:href="#DejaVuSans-30"/>
      </g>
     </g>
    </g>
    <g id="ytick_2">
     <g id="line2d_23">
      <path d="M 108 276.068236 
L 777.6 276.068236 
" clip-path="url(#p5c17ab1a26)" style="fill: none; stroke-dasharray: 5.12,1.28,0.8,1.28; stroke-dashoffset: 0; stroke: #b0b0b0; stroke-width: 0.8"/>
     </g>
     <g id="line2d_24">
      <g>
       <use xlink:href="#m5d7a6a8176" x="108" y="276.068236" style="fill: #a9a9a9; stroke: #a9a9a9; stroke-width: 0.8"/>
      </g>
     </g>
     <g id="text_12">
      <!-- 600 -->
      <g style="fill: #a9a9a9" transform="translate(81.9125 279.867455) scale(0.1 -0.1)">
       <defs>
        <path id="DejaVuSans-36" d="M 2113 2584 
Q 1688 2584 1439 2293 
Q 1191 2003 1191 1497 
Q 1191 994 1439 701 
Q 1688 409 2113 409 
Q 2538 409 2786 701 
Q 3034 994 3034 1497 
Q 3034 2003 2786 2293 
Q 2538 2584 2113 2584 
z
M 3366 4563 
L 3366 3988 
Q 3128 4100 2886 4159 
Q 2644 4219 2406 4219 
Q 1781 4219 1451 3797 
Q 1122 3375 1075 2522 
Q 1259 2794 1537 2939 
Q 1816 3084 2150 3084 
Q 2853 3084 3261 2657 
Q 3669 2231 3669 1497 
Q 3669 778 3244 343 
Q 2819 -91 2113 -91 
Q 1303 -91 875 529 
Q 447 1150 447 2328 
Q 447 3434 972 4092 
Q 1497 4750 2381 4750 
Q 2619 4750 2861 4703 
Q 3103 4656 3366 4563 
z
" transform="scale(0.015625)"/>
       </defs>
       <use xlink:href="#DejaVuSans-36"/>
       <use xlink:href="#DejaVuSans-30" x="63.623047"/>
       <use xlink:href="#DejaVuSans-30" x="127.246094"/>
      </g>
     </g>
    </g>
    <g id="ytick_3">
     <g id="line2d_25">
      <path d="M 108 244.283498 
L 777.6 244.283498 
" clip-path="url(#p5c17ab1a26)" style="fill: none; stroke-dasharray: 5.12,1.28,0.8,1.28; stroke-dashoffset: 0; stroke: #b0b0b0; stroke-width: 0.8"/>
     </g>
     <g id="line2d_26">
      <g>
       <use xlink:href="#m5d7a6a8176" x="108" y="244.283498" style="fill: #a9a9a9; stroke: #a9a9a9; stroke-width: 0.8"/>
      </g>
     </g>
     <g id="text_13">
      <!-- 1200 -->
      <g style="fill: #a9a9a9" transform="translate(75.55 248.082717) scale(0.1 -0.1)">
       <use xlink:href="#DejaVuSans-31"/>
       <use xlink:href="#DejaVuSans-32" x="63.623047"/>
       <use xlink:href="#DejaVuSans-30" x="127.246094"/>
       <use xlink:href="#DejaVuSans-30" x="190.869141"/>
      </g>
     </g>
    </g>
    <g id="ytick_4">
     <g id="line2d_27">
      <path d="M 108 212.49876 
L 777.6 212.49876 
" clip-path="url(#p5c17ab1a26)" style="fill: none; stroke-dasharray: 5.12,1.28,0.8,1.28; stroke-dashoffset: 0; stroke: #b0b0b0; stroke-width: 0.8"/>
     </g>
     <g id="line2d_28">
      <g>
       <use xlink:href="#m5d7a6a8176" x="108" y="212.49876" style="fill: #a9a9a9; stroke: #a9a9a9; stroke-width: 0.8"/>
      </g>
     </g>
     <g id="text_14">
      <!-- 1800 -->
      <g style="fill: #a9a9a9" transform="translate(75.55 216.297978) scale(0.1 -0.1)">
       <defs>
        <path id="DejaVuSans-38" d="M 2034 2216 
Q 1584 2216 1326 1975 
Q 1069 1734 1069 1313 
Q 1069 891 1326 650 
Q 1584 409 2034 409 
Q 2484 409 2743 651 
Q 3003 894 3003 1313 
Q 3003 1734 2745 1975 
Q 2488 2216 2034 2216 
z
M 1403 2484 
Q 997 2584 770 2862 
Q 544 3141 544 3541 
Q 544 4100 942 4425 
Q 1341 4750 2034 4750 
Q 2731 4750 3128 4425 
Q 3525 4100 3525 3541 
Q 3525 3141 3298 2862 
Q 3072 2584 2669 2484 
Q 3125 2378 3379 2068 
Q 3634 1759 3634 1313 
Q 3634 634 3220 271 
Q 2806 -91 2034 -91 
Q 1263 -91 848 271 
Q 434 634 434 1313 
Q 434 1759 690 2068 
Q 947 2378 1403 2484 
z
M 1172 3481 
Q 1172 3119 1398 2916 
Q 1625 2713 2034 2713 
Q 2441 2713 2670 2916 
Q 2900 3119 2900 3481 
Q 2900 3844 2670 4047 
Q 2441 4250 2034 4250 
Q 1625 4250 1398 4047 
Q 1172 3844 1172 3481 
z
" transform="scale(0.015625)"/>
       </defs>
       <use xlink:href="#DejaVuSans-31"/>
       <use xlink:href="#DejaVuSans-38" x="63.623047"/>
       <use xlink:href="#DejaVuSans-30" x="127.246094"/>
       <use xlink:href="#DejaVuSans-30" x="190.869141"/>
      </g>
     </g>
    </g>
    <g id="ytick_5">
     <g id="line2d_29">
      <path d="M 108 180.714021 
L 777.6 180.714021 
" clip-path="url(#p5c17ab1a26)" style="fill: none; stroke-dasharray: 5.12,1.28,0.8,1.28; stroke-dashoffset: 0; stroke: #b0b0b0; stroke-width: 0.8"/>
     </g>
     <g id="line2d_30">
      <g>
       <use xlink:href="#m5d7a6a8176" x="108" y="180.714021" style="fill: #a9a9a9; stroke: #a9a9a9; stroke-width: 0.8"/>
      </g>
     </g>
     <g id="text_15">
      <!-- 2400 -->
      <g style="fill: #a9a9a9" transform="translate(75.55 184.51324) scale(0.1 -0.1)">
       <use xlink:href="#DejaVuSans-32"/>
       <use xlink:href="#DejaVuSans-34" x="63.623047"/>
       <use xlink:href="#DejaVuSans-30" x="127.246094"/>
       <use xlink:href="#DejaVuSans-30" x="190.869141"/>
      </g>
     </g>
    </g>
    <g id="ytick_6">
     <g id="line2d_31">
      <path d="M 108 148.929283 
L 777.6 148.929283 
" clip-path="url(#p5c17ab1a26)" style="fill: none; stroke-dasharray: 5.12,1.28,0.8,1.28; stroke-dashoffset: 0; stroke: #b0b0b0; stroke-width: 0.8"/>
     </g>
     <g id="line2d_32">
      <g>
       <use xlink:href="#m5d7a6a8176" x="108" y="148.929283" style="fill: #a9a9a9; stroke: #a9a9a9; stroke-width: 0.8"/>
      </g>
     </g>
     <g id="text_16">
      <!-- 3000 -->
      <g style="fill: #a9a9a9" transform="translate(75.55 152.728502) scale(0.1 -0.1)">
       <use xlink:href="#DejaVuSans-33"/>
       <use xlink:href="#DejaVuSans-30" x="63.623047"/>
       <use xlink:href="#DejaVuSans-30" x="127.246094"/>
       <use xlink:href="#DejaVuSans-30" x="190.869141"/>
      </g>
     </g>
    </g>
    <g id="ytick_7">
     <g id="line2d_33">
      <path d="M 108 117.144545 
L 777.6 117.144545 
" clip-path="url(#p5c17ab1a26)" style="fill: none; stroke-dasharray: 5.12,1.28,0.8,1.28; stroke-dashoffset: 0; stroke: #b0b0b0; stroke-width: 0.8"/>
     </g>
     <g id="line2d_34">
      <g>
       <use xlink:href="#m5d7a6a8176" x="108" y="117.144545" style="fill: #a9a9a9; stroke: #a9a9a9; stroke-width: 0.8"/>
      </g>
     </g>
     <g id="text_17">
      <!-- 3600 -->
      <g style="fill: #a9a9a9" transform="translate(75.55 120.943764) scale(0.1 -0.1)">
       <use xlink:href="#DejaVuSans-33"/>
       <use xlink:href="#DejaVuSans-36" x="63.623047"/>
       <use xlink:href="#DejaVuSans-30" x="127.246094"/>
       <use xlink:href="#DejaVuSans-30" x="190.869141"/>
      </g>
     </g>
    </g>
    <g id="ytick_8">
     <g id="line2d_35">
      <path d="M 108 85.359807 
L 777.6 85.359807 
" clip-path="url(#p5c17ab1a26)" style="fill: none; stroke-dasharray: 5.12,1.28,0.8,1.28; stroke-dashoffset: 0; stroke: #b0b0b0; stroke-width: 0.8"/>
     </g>
     <g id="line2d_36">
      <g>
       <use xlink:href="#m5d7a6a8176" x="108" y="85.359807" style="fill: #a9a9a9; stroke: #a9a9a9; stroke-width: 0.8"/>
      </g>
     </g>
     <g id="text_18">
      <!-- 4200 -->
      <g style="fill: #a9a9a9" transform="translate(75.55 89.159025) scale(0.1 -0.1)">
       <use xlink:href="#DejaVuSans-34"/>
       <use xlink:href="#DejaVuSans-32" x="63.623047"/>
       <use xlink:href="#DejaVuSans-30" x="127.246094"/>
       <use xlink:href="#DejaVuSans-30" x="190.869141"/>
      </g>
     </g>
    </g>
    <g id="ytick_9">
     <g id="line2d_37">
      <path d="M 108 53.575068 
L 777.6 53.575068 
" clip-path="url(#p5c17ab1a26)" style="fill: none; stroke-dasharray: 5.12,1.28,0.8,1.28; stroke-dashoffset: 0; stroke: #b0b0b0; stroke-width: 0.8"/>
     </g>
     <g id="line2d_38">
      <g>
       <use xlink:href="#m5d7a6a8176" x="108" y="53.575068" style="fill: #a9a9a9; stroke: #a9a9a9; stroke-width: 0.8"/>
      </g>
     </g>
     <g id="text_19">
      <!-- 4800 -->
      <g style="fill: #a9a9a9" transform="translate(75.55 57.374287) scale(0.1 -0.1)">
       <use xlink:href="#DejaVuSans-34"/>
       <use xlink:href="#DejaVuSans-38" x="63.623047"/>
       <use xlink:href="#DejaVuSans-30" x="127.246094"/>
       <use xlink:href="#DejaVuSans-30" x="190.869141"/>
      </g>
     </g>
    </g>
   </g>
   <g id="line2d_39">
    <path d="M 138.436364 307.694051 
L 143.198246 307.323229 
L 143.991893 307.005382 
L 146.372834 306.740509 
L 151.928363 305.733992 
L 155.896598 305.36317 
L 156.690245 304.992348 
L 157.483892 304.78045 
L 158.277539 303.826908 
L 159.071186 303.297162 
L 159.864833 301.601976 
L 160.658481 301.496027 
L 161.452128 300.913307 
L 163.039422 300.171663 
L 164.626716 299.006222 
L 165.420363 298.264579 
L 167.007657 297.522935 
L 167.801304 297.205087 
L 168.594951 296.622367 
L 171.769539 295.298003 
L 172.563186 294.079588 
L 173.356833 293.443893 
L 174.944127 292.5963 
L 182.880597 291.483834 
L 183.674244 291.113012 
L 189.229774 290.689216 
L 190.817068 290.265419 
L 192.404362 289.947572 
L 198.753538 289.152954 
L 199.547185 288.729157 
L 200.340832 288.623208 
L 201.134479 288.305361 
L 202.721773 288.040488 
L 203.51542 287.987513 
L 204.309067 287.72264 
L 207.483655 287.245869 
L 209.070949 286.822073 
L 211.45189 286.610174 
L 213.039185 286.451251 
L 213.832832 286.239353 
L 214.626479 286.186378 
L 217.00742 285.497709 
L 221.769302 284.809039 
L 222.562949 284.544166 
L 223.356596 283.484675 
L 225.737537 282.637082 
L 228.118478 282.001387 
L 228.912125 281.630565 
L 229.705772 281.577591 
L 233.674007 280.5181 
L 235.261301 280.412151 
L 236.054948 280.306201 
L 238.43589 279.617532 
L 241.610478 278.875888 
L 242.404125 278.558041 
L 243.197772 278.452092 
L 243.991419 278.08127 
L 251.927889 276.915829 
L 255.896124 275.803363 
L 256.689771 275.326592 
L 259.864359 274.478999 
L 261.451653 273.578432 
L 262.2453 273.048686 
L 263.038947 272.942737 
L 263.832595 272.677864 
L 266.213536 272.254068 
L 267.007183 271.883246 
L 268.594477 271.618373 
L 270.181771 270.876729 
L 274.150006 269.923187 
L 276.530947 269.340467 
L 277.324594 269.022619 
L 278.118241 268.863696 
L 278.911888 268.545848 
L 279.705535 268.439899 
L 280.499182 268.069077 
L 281.292829 267.857179 
L 282.880123 267.75123 
L 284.467417 267.221484 
L 286.054711 267.115535 
L 286.848358 266.744713 
L 290.022947 266.214967 
L 293.197535 265.950095 
L 293.991182 265.791171 
L 295.578476 265.049527 
L 304.308593 261.500231 
L 305.10224 261.076435 
L 305.895887 260.228842 
L 306.689534 258.957452 
L 307.483181 257.950935 
L 308.276828 257.739037 
L 309.070475 257.739037 
L 310.657769 256.573597 
L 311.451416 256.361699 
L 312.245063 255.937902 
L 313.03871 255.778978 
L 313.832357 255.090309 
L 314.626005 254.878411 
L 317.006946 253.765945 
L 317.800593 252.812403 
L 318.59424 251.646962 
L 319.387887 251.170191 
L 320.181534 249.898802 
L 320.975181 249.104183 
L 321.768828 248.733361 
L 322.562475 248.521463 
L 324.149769 247.567921 
L 324.943416 247.197099 
L 328.118004 244.866218 
L 328.911651 243.753752 
L 329.705298 241.952617 
L 330.498945 240.787177 
L 331.292592 240.204457 
L 332.086239 239.886609 
L 335.260827 237.237881 
L 336.054474 236.708135 
L 337.641768 235.330797 
L 338.435415 234.218331 
L 339.229062 233.476687 
L 340.816357 232.417196 
L 343.197298 230.827959 
L 343.990945 230.139289 
L 344.784592 229.927391 
L 347.165533 228.708976 
L 348.752827 227.808409 
L 349.546474 227.490561 
L 351.133768 226.060248 
L 351.927415 225.106706 
L 353.514709 224.047215 
L 354.308356 223.835316 
L 355.102003 223.464494 
L 355.89565 222.881774 
L 357.482944 222.034181 
L 358.276591 221.928232 
L 359.863885 221.080639 
L 360.657532 220.656843 
L 361.451179 219.862224 
L 362.244826 219.385453 
L 363.038473 219.12058 
L 363.83212 218.590835 
L 367.006709 217.001598 
L 367.800356 216.312928 
L 370.974944 215.253437 
L 371.768591 214.723691 
L 372.562238 214.564768 
L 374.149532 214.035022 
L 376.530473 213.134454 
L 378.911414 212.286861 
L 380.498708 212.021989 
L 382.086002 210.697625 
L 383.673296 209.955981 
L 386.054237 208.631617 
L 387.641531 208.20782 
L 388.435178 207.731049 
L 389.228825 207.519151 
L 391.609767 206.035863 
L 393.990708 205.506117 
L 396.371649 204.658524 
L 397.958943 203.757957 
L 398.75259 203.652008 
L 399.546237 203.387135 
L 401.133531 203.069287 
L 403.514472 201.374101 
L 405.895413 200.844356 
L 406.68906 200.579483 
L 407.482707 199.996763 
L 412.244589 198.513475 
L 413.038236 198.4605 
L 418.593766 196.553416 
L 419.387413 196.182594 
L 421.768354 195.652848 
L 423.355648 195.282026 
L 424.149295 194.911205 
L 424.942942 194.752281 
L 427.323883 193.69279 
L 429.704824 192.580324 
L 430.498471 192.050578 
L 431.292118 191.83868 
L 433.673059 190.620265 
L 435.260353 190.249443 
L 436.847647 189.454824 
L 438.434941 189.031028 
L 439.228588 188.925079 
L 440.022235 188.395333 
L 440.815882 188.024511 
L 441.609529 187.865588 
L 443.196824 187.229893 
L 443.990471 187.070969 
L 444.784118 186.647173 
L 447.958706 186.170402 
L 449.546 185.428758 
L 450.339647 184.793063 
L 451.133294 183.415724 
L 452.720588 183.097877 
L 453.514235 182.938953 
L 456.688823 181.349716 
L 457.48247 181.190793 
L 463.831646 178.171242 
L 466.212587 177.694471 
L 467.799881 176.952827 
L 468.593529 176.63498 
L 469.387176 176.529031 
L 472.561764 175.151692 
L 474.149058 174.092201 
L 474.942705 173.721379 
L 475.736352 173.61543 
L 476.529999 173.350557 
L 477.323646 173.297583 
L 480.498234 172.291066 
L 481.291881 172.238091 
L 482.085528 171.655371 
L 483.672822 171.125625 
L 486.053763 170.383982 
L 486.84741 169.90721 
L 487.641057 169.695312 
L 488.434704 169.165567 
L 489.228351 168.847719 
L 490.021998 168.370948 
L 491.609292 167.788228 
L 492.402939 167.57633 
L 493.196586 167.205508 
L 493.990233 166.993609 
L 494.783881 166.622787 
L 495.577528 166.040067 
L 496.371175 165.245449 
L 497.164822 164.715703 
L 497.958469 164.556779 
L 499.545763 163.391339 
L 500.33941 163.232415 
L 501.133057 162.066975 
L 501.926704 161.749128 
L 502.720351 161.166407 
L 503.513998 161.060458 
L 504.307645 160.530713 
L 505.101292 160.159891 
L 505.894939 160.000967 
L 506.688586 159.68312 
L 507.482233 159.047425 
L 508.27588 158.782552 
L 510.656821 157.24629 
L 513.831409 155.710027 
L 514.625056 155.604078 
L 516.21235 154.915409 
L 517.005997 154.438638 
L 517.799644 153.167248 
L 518.593291 152.37263 
L 519.386938 151.948833 
L 520.180586 151.78991 
L 521.76788 150.836367 
L 522.561527 150.677444 
L 524.148821 149.9358 
L 526.529762 148.982258 
L 528.117056 147.922766 
L 529.70435 146.280555 
L 531.291644 145.327013 
L 532.085291 144.850242 
L 532.878938 144.055623 
L 535.259879 142.148539 
L 536.053526 141.777717 
L 536.847173 140.930124 
L 537.64082 140.347404 
L 539.228114 139.817658 
L 540.021761 139.076014 
L 541.609055 138.281396 
L 542.402702 138.069498 
L 543.196349 137.486777 
L 543.989996 137.274879 
L 546.370938 136.056464 
L 547.164585 135.473744 
L 548.751879 134.838049 
L 549.545526 134.679125 
L 550.339173 134.202354 
L 555.894702 132.29527 
L 556.688349 131.606601 
L 559.862937 130.44116 
L 560.656584 130.229262 
L 561.450231 129.646542 
L 563.831172 128.587051 
L 564.624819 128.00433 
L 565.418466 127.580534 
L 567.00576 124.508009 
L 568.593054 122.706874 
L 569.386701 122.177128 
L 571.767643 121.170612 
L 572.56129 120.905739 
L 573.354937 120.79979 
L 574.148584 120.375993 
L 576.529525 119.634349 
L 578.910466 118.680807 
L 580.49776 117.621316 
L 582.878701 116.561825 
L 586.846936 114.336893 
L 587.640583 113.542275 
L 589.227877 112.694682 
L 590.021524 112.270885 
L 590.815171 112.006012 
L 591.608818 111.476267 
L 593.196112 110.734623 
L 593.989759 110.257852 
L 594.783406 109.940004 
L 595.577053 109.463233 
L 596.3707 109.251335 
L 597.164348 108.668615 
L 597.957995 108.350767 
L 598.751642 108.191844 
L 600.338936 107.556149 
L 602.719877 106.708556 
L 603.513524 106.125836 
L 605.100818 105.702039 
L 606.688112 105.119319 
L 607.481759 104.483624 
L 609.069053 104.006853 
L 609.8627 103.636031 
L 610.656347 103.424133 
L 612.243641 102.364642 
L 613.830935 101.675972 
L 615.418229 100.510532 
L 617.005523 99.980786 
L 617.79917 99.292117 
L 618.592817 99.133193 
L 619.386464 98.444524 
L 620.973758 97.543956 
L 622.561053 96.908262 
L 623.3547 96.113643 
L 625.735641 95.371999 
L 626.529288 94.895228 
L 627.322935 94.789279 
L 629.703876 93.623839 
L 632.878464 92.670296 
L 634.465758 92.458398 
L 635.259405 92.140551 
L 636.053052 91.981627 
L 637.640346 91.345932 
L 638.433993 91.292958 
L 640.814934 90.498339 
L 642.402228 89.544797 
L 643.989522 88.485306 
L 648.751405 86.2074 
L 651.132346 84.671137 
L 652.71964 84.300315 
L 654.306934 83.240824 
L 657.481522 82.287282 
L 658.275169 81.969435 
L 659.862463 81.598613 
L 663.830698 80.327223 
L 665.417992 80.009376 
L 667.005286 79.638554 
L 667.798933 79.267732 
L 668.59258 79.161783 
L 670.179874 78.526088 
L 670.973521 78.420139 
L 671.767168 78.049317 
L 673.354462 77.731469 
L 674.14811 77.360647 
L 676.529051 76.830902 
L 678.116345 76.513054 
L 685.259168 75.082741 
L 686.052815 74.764894 
L 686.846462 74.711919 
L 689.227403 74.076225 
L 690.02105 73.652428 
L 691.608344 73.122682 
L 692.401991 73.069708 
L 696.370226 71.904267 
L 700.338462 70.685852 
L 701.132109 70.473954 
L 701.925756 70.103132 
L 702.719403 70.103132 
L 704.306697 69.573387 
L 705.100344 68.778768 
L 705.893991 68.407946 
L 707.481285 67.931175 
L 710.655873 66.765735 
L 711.44952 66.553836 
L 712.243167 66.077065 
L 713.036814 65.918142 
L 713.830461 65.388396 
L 717.005049 64.434854 
L 717.798696 64.169981 
L 718.592343 63.69321 
L 719.38599 63.481312 
L 720.179637 62.845617 
L 722.560578 62.42182 
L 724.147872 61.574227 
L 724.941519 60.67366 
L 726.528814 60.355812 
L 731.290696 59.296321 
L 732.87799 58.872525 
L 734.465284 58.81955 
L 735.258931 58.448728 
L 737.639872 58.077906 
L 738.433519 57.866008 
L 739.227166 57.495186 
L 741.608107 57.177339 
L 743.195401 56.594618 
L 743.989048 56.223797 
L 744.782695 56.170822 
L 746.369989 55.8 
L 747.163636 55.8 
L 747.163636 55.8 
" clip-path="url(#p5c17ab1a26)" style="fill: none; stroke: #1f77b4; stroke-width: 1.5; stroke-linecap: square"/>
   </g>
   <g id="line2d_40">
    <path d="M 139.230011 307.8 
L 141.610952 307.694051 
L 143.198246 307.588102 
L 148.753775 307.482153 
L 152.72201 307.323229 
L 155.896598 307.323229 
L 156.690245 307.111331 
L 159.071186 307.058356 
L 163.833069 306.52861 
L 175.737774 305.839941 
L 182.08695 305.733992 
L 186.055185 305.575068 
L 195.57895 305.469119 
L 199.547185 305.310196 
L 204.309067 305.204246 
L 207.483655 305.098297 
L 214.626479 304.992348 
L 217.00742 304.939374 
L 219.388361 304.886399 
L 221.769302 304.621526 
L 226.531184 304.568552 
L 228.118478 304.462602 
L 233.674007 304.356653 
L 242.404125 303.879882 
L 247.959654 303.773933 
L 249.546948 303.667984 
L 251.927889 303.562035 
L 256.689771 303.350137 
L 259.864359 303.297162 
L 262.2453 303.085264 
L 275.7373 302.290645 
L 278.118241 302.184696 
L 283.67377 301.919823 
L 286.054711 301.813874 
L 293.991182 301.390078 
L 302.721299 301.284129 
L 305.895887 300.966281 
L 307.483181 300.860332 
L 316.213299 300.224637 
L 317.006946 300.012739 
L 319.387887 299.800841 
L 320.975181 299.430019 
L 323.356122 299.377044 
L 325.737063 299.271095 
L 332.086239 298.476477 
L 336.054474 298.370528 
L 346.371886 297.575909 
L 351.133768 297.046164 
L 353.514709 296.993189 
L 355.102003 296.88724 
L 358.276591 296.781291 
L 359.863885 296.675342 
L 363.83212 296.30452 
L 364.625767 296.092621 
L 369.38765 295.880723 
L 373.355885 295.774774 
L 384.466943 295.139079 
L 386.054237 295.03313 
L 396.371649 294.45041 
L 401.927178 294.344461 
L 402.720825 294.185537 
L 409.070001 294.079588 
L 414.62553 293.814715 
L 423.355648 293.708766 
L 428.911177 293.443893 
L 435.260353 293.337944 
L 442.403176 292.967122 
L 447.165059 292.861173 
L 462.244352 291.960605 
L 468.593529 291.854656 
L 472.561764 291.483834 
L 474.149058 291.324911 
L 478.117293 291.271936 
L 481.291881 290.954089 
L 489.228351 290.530292 
L 493.990233 290.424343 
L 496.371175 290.371369 
L 498.752116 290.318394 
L 501.133057 290.106496 
L 507.482233 290.000547 
L 509.069527 289.735674 
L 510.656821 289.629725 
L 513.831409 289.523775 
L 516.21235 289.417826 
L 517.799644 289.311877 
L 524.942468 289.205928 
L 526.529762 289.047004 
L 529.70435 288.941055 
L 530.497997 288.729157 
L 532.085291 288.676182 
L 532.878938 288.517259 
L 535.259879 288.41131 
L 548.751879 287.616691 
L 551.13282 287.510742 
L 555.101055 287.351818 
L 566.212113 287.245869 
L 571.767643 286.980996 
L 578.116819 286.875047 
L 581.291407 286.769098 
L 584.465995 286.716124 
L 586.053289 286.5572 
L 589.227877 286.451251 
L 597.164348 286.027454 
L 601.92623 285.97448 
L 604.307171 285.762581 
L 606.688112 285.709607 
L 612.243641 285.603658 
L 615.418229 285.497709 
L 624.941994 285.39176 
L 628.910229 285.232836 
L 633.672111 285.126887 
L 636.053052 284.862014 
L 640.814934 284.809039 
L 641.608581 284.650116 
L 643.195875 284.544166 
L 646.370463 284.438217 
L 655.894228 284.332268 
L 659.862463 284.173345 
L 673.354462 284.12037 
L 674.941757 284.014421 
L 677.322698 283.961446 
L 687.640109 283.855497 
L 689.227403 283.749548 
L 697.95752 283.643599 
L 701.132109 283.53765 
L 710.655873 283.484675 
L 712.243167 283.378726 
L 724.147872 283.325752 
L 726.528814 283.113853 
L 740.020813 283.007904 
L 742.401754 282.95493 
L 747.163636 282.95493 
L 747.163636 282.95493 
" clip-path="url(#p5c17ab1a26)" style="fill: none; stroke: #ff7f0e; stroke-width: 1.5; stroke-linecap: square"/>
   </g>
   <g id="patch_3">
    <path d="M 108 320.4 
L 108 43.2 
" style="fill: none; stroke: #a9a9a9; stroke-width: 0.8; stroke-linejoin: miter; stroke-linecap: square"/>
   </g>
   <g id="patch_4">
    <path d="M 777.6 320.4 
L 777.6 43.2 
" style="fill: none"/>
   </g>
   <g id="patch_5">
    <path d="M 108 320.4 
L 777.6 320.4 
" style="fill: none; stroke: #a9a9a9; stroke-width: 0.8; stroke-linejoin: miter; stroke-linecap: square"/>
   </g>
   <g id="patch_6">
    <path d="M 108 43.2 
L 777.6 43.2 
" style="fill: none"/>
   </g>
   <g id="text_20">
    <!-- get_subscribe history -->
    <g style="fill: #a9a9a9" transform="translate(378.6075 37.2) scale(0.12 -0.12)">
     <defs>
      <path id="DejaVuSans-67" d="M 2906 1791 
Q 2906 2416 2648 2759 
Q 2391 3103 1925 3103 
Q 1463 3103 1205 2759 
Q 947 2416 947 1791 
Q 947 1169 1205 825 
Q 1463 481 1925 481 
Q 2391 481 2648 825 
Q 2906 1169 2906 1791 
z
M 3481 434 
Q 3481 -459 3084 -895 
Q 2688 -1331 1869 -1331 
Q 1566 -1331 1297 -1286 
Q 1028 -1241 775 -1147 
L 775 -588 
Q 1028 -725 1275 -790 
Q 1522 -856 1778 -856 
Q 2344 -856 2625 -561 
Q 2906 -266 2906 331 
L 2906 616 
Q 2728 306 2450 153 
Q 2172 0 1784 0 
Q 1141 0 747 490 
Q 353 981 353 1791 
Q 353 2603 747 3093 
Q 1141 3584 1784 3584 
Q 2172 3584 2450 3431 
Q 2728 3278 2906 2969 
L 2906 3500 
L 3481 3500 
L 3481 434 
z
" transform="scale(0.015625)"/>
      <path id="DejaVuSans-65" d="M 3597 1894 
L 3597 1613 
L 953 1613 
Q 991 1019 1311 708 
Q 1631 397 2203 397 
Q 2534 397 2845 478 
Q 3156 559 3463 722 
L 3463 178 
Q 3153 47 2828 -22 
Q 2503 -91 2169 -91 
Q 1331 -91 842 396 
Q 353 884 353 1716 
Q 353 2575 817 3079 
Q 1281 3584 2069 3584 
Q 2775 3584 3186 3129 
Q 3597 2675 3597 1894 
z
M 3022 2063 
Q 3016 2534 2758 2815 
Q 2500 3097 2075 3097 
Q 1594 3097 1305 2825 
Q 1016 2553 972 2059 
L 3022 2063 
z
" transform="scale(0.015625)"/>
      <path id="DejaVuSans-74" d="M 1172 4494 
L 1172 3500 
L 2356 3500 
L 2356 3053 
L 1172 3053 
L 1172 1153 
Q 1172 725 1289 603 
Q 1406 481 1766 481 
L 2356 481 
L 2356 0 
L 1766 0 
Q 1100 0 847 248 
Q 594 497 594 1153 
L 594 3053 
L 172 3053 
L 172 3500 
L 594 3500 
L 594 4494 
L 1172 4494 
z
" transform="scale(0.015625)"/>
      <path id="DejaVuSans-5f" d="M 3263 -1063 
L 3263 -1509 
L -63 -1509 
L -63 -1063 
L 3263 -1063 
z
" transform="scale(0.015625)"/>
      <path id="DejaVuSans-73" d="M 2834 3397 
L 2834 2853 
Q 2591 2978 2328 3040 
Q 2066 3103 1784 3103 
Q 1356 3103 1142 2972 
Q 928 2841 928 2578 
Q 928 2378 1081 2264 
Q 1234 2150 1697 2047 
L 1894 2003 
Q 2506 1872 2764 1633 
Q 3022 1394 3022 966 
Q 3022 478 2636 193 
Q 2250 -91 1575 -91 
Q 1294 -91 989 -36 
Q 684 19 347 128 
L 347 722 
Q 666 556 975 473 
Q 1284 391 1588 391 
Q 1994 391 2212 530 
Q 2431 669 2431 922 
Q 2431 1156 2273 1281 
Q 2116 1406 1581 1522 
L 1381 1569 
Q 847 1681 609 1914 
Q 372 2147 372 2553 
Q 372 3047 722 3315 
Q 1072 3584 1716 3584 
Q 2034 3584 2315 3537 
Q 2597 3491 2834 3397 
z
" transform="scale(0.015625)"/>
      <path id="DejaVuSans-75" d="M 544 1381 
L 544 3500 
L 1119 3500 
L 1119 1403 
Q 1119 906 1312 657 
Q 1506 409 1894 409 
Q 2359 409 2629 706 
Q 2900 1003 2900 1516 
L 2900 3500 
L 3475 3500 
L 3475 0 
L 2900 0 
L 2900 538 
Q 2691 219 2414 64 
Q 2138 -91 1772 -91 
Q 1169 -91 856 284 
Q 544 659 544 1381 
z
M 1991 3584 
L 1991 3584 
z
" transform="scale(0.015625)"/>
      <path id="DejaVuSans-62" d="M 3116 1747 
Q 3116 2381 2855 2742 
Q 2594 3103 2138 3103 
Q 1681 3103 1420 2742 
Q 1159 2381 1159 1747 
Q 1159 1113 1420 752 
Q 1681 391 2138 391 
Q 2594 391 2855 752 
Q 3116 1113 3116 1747 
z
M 1159 2969 
Q 1341 3281 1617 3432 
Q 1894 3584 2278 3584 
Q 2916 3584 3314 3078 
Q 3713 2572 3713 1747 
Q 3713 922 3314 415 
Q 2916 -91 2278 -91 
Q 1894 -91 1617 61 
Q 1341 213 1159 525 
L 1159 0 
L 581 0 
L 581 4863 
L 1159 4863 
L 1159 2969 
z
" transform="scale(0.015625)"/>
      <path id="DejaVuSans-63" d="M 3122 3366 
L 3122 2828 
Q 2878 2963 2633 3030 
Q 2388 3097 2138 3097 
Q 1578 3097 1268 2742 
Q 959 2388 959 1747 
Q 959 1106 1268 751 
Q 1578 397 2138 397 
Q 2388 397 2633 464 
Q 2878 531 3122 666 
L 3122 134 
Q 2881 22 2623 -34 
Q 2366 -91 2075 -91 
Q 1284 -91 818 406 
Q 353 903 353 1747 
Q 353 2603 823 3093 
Q 1294 3584 2113 3584 
Q 2378 3584 2631 3529 
Q 2884 3475 3122 3366 
z
" transform="scale(0.015625)"/>
      <path id="DejaVuSans-72" d="M 2631 2963 
Q 2534 3019 2420 3045 
Q 2306 3072 2169 3072 
Q 1681 3072 1420 2755 
Q 1159 2438 1159 1844 
L 1159 0 
L 581 0 
L 581 3500 
L 1159 3500 
L 1159 2956 
Q 1341 3275 1631 3429 
Q 1922 3584 2338 3584 
Q 2397 3584 2469 3576 
Q 2541 3569 2628 3553 
L 2631 2963 
z
" transform="scale(0.015625)"/>
      <path id="DejaVuSans-69" d="M 603 3500 
L 1178 3500 
L 1178 0 
L 603 0 
L 603 3500 
z
M 603 4863 
L 1178 4863 
L 1178 4134 
L 603 4134 
L 603 4863 
z
" transform="scale(0.015625)"/>
      <path id="DejaVuSans-20" transform="scale(0.015625)"/>
      <path id="DejaVuSans-68" d="M 3513 2113 
L 3513 0 
L 2938 0 
L 2938 2094 
Q 2938 2591 2744 2837 
Q 2550 3084 2163 3084 
Q 1697 3084 1428 2787 
Q 1159 2491 1159 1978 
L 1159 0 
L 581 0 
L 581 4863 
L 1159 4863 
L 1159 2956 
Q 1366 3272 1645 3428 
Q 1925 3584 2291 3584 
Q 2894 3584 3203 3211 
Q 3513 2838 3513 2113 
z
" transform="scale(0.015625)"/>
      <path id="DejaVuSans-6f" d="M 1959 3097 
Q 1497 3097 1228 2736 
Q 959 2375 959 1747 
Q 959 1119 1226 758 
Q 1494 397 1959 397 
Q 2419 397 2687 759 
Q 2956 1122 2956 1747 
Q 2956 2369 2687 2733 
Q 2419 3097 1959 3097 
z
M 1959 3584 
Q 2709 3584 3137 3096 
Q 3566 2609 3566 1747 
Q 3566 888 3137 398 
Q 2709 -91 1959 -91 
Q 1206 -91 779 398 
Q 353 888 353 1747 
Q 353 2609 779 3096 
Q 1206 3584 1959 3584 
z
" transform="scale(0.015625)"/>
      <path id="DejaVuSans-79" d="M 2059 -325 
Q 1816 -950 1584 -1140 
Q 1353 -1331 966 -1331 
L 506 -1331 
L 506 -850 
L 844 -850 
Q 1081 -850 1212 -737 
Q 1344 -625 1503 -206 
L 1606 56 
L 191 3500 
L 800 3500 
L 1894 763 
L 2988 3500 
L 3597 3500 
L 2059 -325 
z
" transform="scale(0.015625)"/>
     </defs>
     <use xlink:href="#DejaVuSans-67"/>
     <use xlink:href="#DejaVuSans-65" x="63.476562"/>
     <use xlink:href="#DejaVuSans-74" x="125"/>
     <use xlink:href="#DejaVuSans-5f" x="164.208984"/>
     <use xlink:href="#DejaVuSans-73" x="214.208984"/>
     <use xlink:href="#DejaVuSans-75" x="266.308594"/>
     <use xlink:href="#DejaVuSans-62" x="329.6875"/>
     <use xlink:href="#DejaVuSans-73" x="393.164062"/>
     <use xlink:href="#DejaVuSans-63" x="445.263672"/>
     <use xlink:href="#DejaVuSans-72" x="500.244141"/>
     <use xlink:href="#DejaVuSans-69" x="541.357422"/>
     <use xlink:href="#DejaVuSans-62" x="569.140625"/>
     <use xlink:href="#DejaVuSans-65" x="632.617188"/>
     <use xlink:href="#DejaVuSans-20" x="694.140625"/>
     <use xlink:href="#DejaVuSans-68" x="725.927734"/>
     <use xlink:href="#DejaVuSans-69" x="789.306641"/>
     <use xlink:href="#DejaVuSans-73" x="817.089844"/>
     <use xlink:href="#DejaVuSans-74" x="869.189453"/>
     <use xlink:href="#DejaVuSans-6f" x="908.398438"/>
     <use xlink:href="#DejaVuSans-72" x="969.580078"/>
     <use xlink:href="#DejaVuSans-79" x="1010.693359"/>
    </g>
   </g>
   <g id="legend_1">
    <g id="line2d_41">
     <path d="M 815.08 328.498438 
L 825.08 328.498438 
L 835.08 328.498438 
" style="fill: none; stroke: #1f77b4; stroke-width: 1.5; stroke-linecap: square"/>
    </g>
    <g id="text_21">
     <!-- star -->
     <g style="fill: #a9a9a9" transform="translate(843.08 331.998438) scale(0.1 -0.1)">
      <defs>
       <path id="DejaVuSans-61" d="M 2194 1759 
Q 1497 1759 1228 1600 
Q 959 1441 959 1056 
Q 959 750 1161 570 
Q 1363 391 1709 391 
Q 2188 391 2477 730 
Q 2766 1069 2766 1631 
L 2766 1759 
L 2194 1759 
z
M 3341 1997 
L 3341 0 
L 2766 0 
L 2766 531 
Q 2569 213 2275 61 
Q 1981 -91 1556 -91 
Q 1019 -91 701 211 
Q 384 513 384 1019 
Q 384 1609 779 1909 
Q 1175 2209 1959 2209 
L 2766 2209 
L 2766 2266 
Q 2766 2663 2505 2880 
Q 2244 3097 1772 3097 
Q 1472 3097 1187 3025 
Q 903 2953 641 2809 
L 641 3341 
Q 956 3463 1253 3523 
Q 1550 3584 1831 3584 
Q 2591 3584 2966 3190 
Q 3341 2797 3341 1997 
z
" transform="scale(0.015625)"/>
      </defs>
      <use xlink:href="#DejaVuSans-73"/>
      <use xlink:href="#DejaVuSans-74" x="52.099609"/>
      <use xlink:href="#DejaVuSans-61" x="91.308594"/>
      <use xlink:href="#DejaVuSans-72" x="152.587891"/>
     </g>
    </g>
    <g id="line2d_42">
     <path d="M 815.08 343.176562 
L 825.08 343.176562 
L 835.08 343.176562 
" style="fill: none; stroke: #ff7f0e; stroke-width: 1.5; stroke-linecap: square"/>
    </g>
    <g id="text_22">
     <!-- fork -->
     <g style="fill: #a9a9a9" transform="translate(843.08 346.676562) scale(0.1 -0.1)">
      <defs>
       <path id="DejaVuSans-66" d="M 2375 4863 
L 2375 4384 
L 1825 4384 
Q 1516 4384 1395 4259 
Q 1275 4134 1275 3809 
L 1275 3500 
L 2222 3500 
L 2222 3053 
L 1275 3053 
L 1275 0 
L 697 0 
L 697 3053 
L 147 3053 
L 147 3500 
L 697 3500 
L 697 3744 
Q 697 4328 969 4595 
Q 1241 4863 1831 4863 
L 2375 4863 
z
" transform="scale(0.015625)"/>
       <path id="DejaVuSans-6b" d="M 581 4863 
L 1159 4863 
L 1159 1991 
L 2875 3500 
L 3609 3500 
L 1753 1863 
L 3688 0 
L 2938 0 
L 1159 1709 
L 1159 0 
L 581 0 
L 581 4863 
z
" transform="scale(0.015625)"/>
      </defs>
      <use xlink:href="#DejaVuSans-66"/>
      <use xlink:href="#DejaVuSans-6f" x="35.205078"/>
      <use xlink:href="#DejaVuSans-72" x="96.386719"/>
      <use xlink:href="#DejaVuSans-6b" x="137.5"/>
     </g>
    </g>
   </g>
  </g>
 </g>
 <defs>
  <clipPath id="p5c17ab1a26">
   <rect x="108" y="43.2" width="669.6" height="277.2"/>
  </clipPath>
 </defs>
</svg>
