<?xml version="1.0" encoding="utf-8" standalone="no"?>
<!DOCTYPE svg PUBLIC "-//W3C//DTD SVG 1.1//EN"
  "http://www.w3.org/Graphics/SVG/1.1/DTD/svg11.dtd">
<svg xmlns:xlink="http://www.w3.org/1999/xlink" width="864pt" height="360pt" viewBox="0 0 864 360" xmlns="http://www.w3.org/2000/svg" version="1.1">
 <metadata>
  <rdf:RDF xmlns:dc="http://purl.org/dc/elements/1.1/" xmlns:cc="http://creativecommons.org/ns#" xmlns:rdf="http://www.w3.org/1999/02/22-rdf-syntax-ns#">
   <cc:Work>
    <dc:type rdf:resource="http://purl.org/dc/dcmitype/StillImage"/>
    <dc:date>2023-08-29T08:45:47.870451</dc:date>
    <dc:format>image/svg+xml</dc:format>
    <dc:creator>
     <cc:Agent>
      <dc:title>Matplotlib v3.7.2, https://matplotlib.org/</dc:title>
     </cc:Agent>
    </dc:creator>
   </cc:Work>
  </rdf:RDF>
 </metadata>
 <defs>
  <style type="text/css">*{stroke-linejoin: round; stroke-linecap: butt}</style>
 </defs>
 <g id="figure_1">
  <g id="patch_1">
   <path d="M 0 360 
L 864 360 
L 864 0 
L 0 0 
L 0 360 
z
" style="fill: none; opacity: 0"/>
  </g>
  <g id="axes_1">
   <g id="patch_2">
    <path d="M 108 320.4 
L 777.6 320.4 
L 777.6 43.2 
L 108 43.2 
L 108 320.4 
z
" style="fill: none; opacity: 0"/>
   </g>
   <g id="matplotlib.axis_1">
    <g id="xtick_1">
     <g id="line2d_1">
      <path d="M 120.158652 320.4 
L 120.158652 43.2 
" clip-path="url(#pc98ffaa308)" style="fill: none; stroke-dasharray: 5.12,1.28,0.8,1.28; stroke-dashoffset: 0; stroke: #b0b0b0; stroke-width: 0.8"/>
     </g>
     <g id="line2d_2">
      <defs>
       <path id="mbd318b45aa" d="M 0 0 
L 0 3.5 
" style="stroke: #a9a9a9; stroke-width: 0.8"/>
      </defs>
      <g>
       <use xlink:href="#mbd318b45aa" x="120.158652" y="320.4" style="fill: #a9a9a9; stroke: #a9a9a9; stroke-width: 0.8"/>
      </g>
     </g>
     <g id="text_1">
      <!-- 2021-07 -->
      <g style="fill: #a9a9a9" transform="translate(99.267246 334.998438) scale(0.1 -0.1)">
       <defs>
        <path id="DejaVuSans-32" d="M 1228 531 
L 3431 531 
L 3431 0 
L 469 0 
L 469 531 
Q 828 903 1448 1529 
Q 2069 2156 2228 2338 
Q 2531 2678 2651 2914 
Q 2772 3150 2772 3378 
Q 2772 3750 2511 3984 
Q 2250 4219 1831 4219 
Q 1534 4219 1204 4116 
Q 875 4013 500 3803 
L 500 4441 
Q 881 4594 1212 4672 
Q 1544 4750 1819 4750 
Q 2544 4750 2975 4387 
Q 3406 4025 3406 3419 
Q 3406 3131 3298 2873 
Q 3191 2616 2906 2266 
Q 2828 2175 2409 1742 
Q 1991 1309 1228 531 
z
" transform="scale(0.015625)"/>
        <path id="DejaVuSans-30" d="M 2034 4250 
Q 1547 4250 1301 3770 
Q 1056 3291 1056 2328 
Q 1056 1369 1301 889 
Q 1547 409 2034 409 
Q 2525 409 2770 889 
Q 3016 1369 3016 2328 
Q 3016 3291 2770 3770 
Q 2525 4250 2034 4250 
z
M 2034 4750 
Q 2819 4750 3233 4129 
Q 3647 3509 3647 2328 
Q 3647 1150 3233 529 
Q 2819 -91 2034 -91 
Q 1250 -91 836 529 
Q 422 1150 422 2328 
Q 422 3509 836 4129 
Q 1250 4750 2034 4750 
z
" transform="scale(0.015625)"/>
        <path id="DejaVuSans-31" d="M 794 531 
L 1825 531 
L 1825 4091 
L 703 3866 
L 703 4441 
L 1819 4666 
L 2450 4666 
L 2450 531 
L 3481 531 
L 3481 0 
L 794 0 
L 794 531 
z
" transform="scale(0.015625)"/>
        <path id="DejaVuSans-2d" d="M 313 2009 
L 1997 2009 
L 1997 1497 
L 313 1497 
L 313 2009 
z
" transform="scale(0.015625)"/>
        <path id="DejaVuSans-37" d="M 525 4666 
L 3525 4666 
L 3525 4397 
L 1831 0 
L 1172 0 
L 2766 4134 
L 525 4134 
L 525 4666 
z
" transform="scale(0.015625)"/>
       </defs>
       <use xlink:href="#DejaVuSans-32"/>
       <use xlink:href="#DejaVuSans-30" x="63.623047"/>
       <use xlink:href="#DejaVuSans-32" x="127.246094"/>
       <use xlink:href="#DejaVuSans-31" x="190.869141"/>
       <use xlink:href="#DejaVuSans-2d" x="254.492188"/>
       <use xlink:href="#DejaVuSans-30" x="290.576172"/>
       <use xlink:href="#DejaVuSans-37" x="354.199219"/>
      </g>
     </g>
    </g>
    <g id="xtick_2">
     <g id="line2d_3">
      <path d="M 193.269499 320.4 
L 193.269499 43.2 
" clip-path="url(#pc98ffaa308)" style="fill: none; stroke-dasharray: 5.12,1.28,0.8,1.28; stroke-dashoffset: 0; stroke: #b0b0b0; stroke-width: 0.8"/>
     </g>
     <g id="line2d_4">
      <g>
       <use xlink:href="#mbd318b45aa" x="193.269499" y="320.4" style="fill: #a9a9a9; stroke: #a9a9a9; stroke-width: 0.8"/>
      </g>
     </g>
     <g id="text_2">
      <!-- 2021-10 -->
      <g style="fill: #a9a9a9" transform="translate(172.378093 334.998438) scale(0.1 -0.1)">
       <use xlink:href="#DejaVuSans-32"/>
       <use xlink:href="#DejaVuSans-30" x="63.623047"/>
       <use xlink:href="#DejaVuSans-32" x="127.246094"/>
       <use xlink:href="#DejaVuSans-31" x="190.869141"/>
       <use xlink:href="#DejaVuSans-2d" x="254.492188"/>
       <use xlink:href="#DejaVuSans-31" x="290.576172"/>
       <use xlink:href="#DejaVuSans-30" x="354.199219"/>
      </g>
     </g>
    </g>
    <g id="xtick_3">
     <g id="line2d_5">
      <path d="M 266.380347 320.4 
L 266.380347 43.2 
" clip-path="url(#pc98ffaa308)" style="fill: none; stroke-dasharray: 5.12,1.28,0.8,1.28; stroke-dashoffset: 0; stroke: #b0b0b0; stroke-width: 0.8"/>
     </g>
     <g id="line2d_6">
      <g>
       <use xlink:href="#mbd318b45aa" x="266.380347" y="320.4" style="fill: #a9a9a9; stroke: #a9a9a9; stroke-width: 0.8"/>
      </g>
     </g>
     <g id="text_3">
      <!-- 2022-01 -->
      <g style="fill: #a9a9a9" transform="translate(245.48894 334.998438) scale(0.1 -0.1)">
       <use xlink:href="#DejaVuSans-32"/>
       <use xlink:href="#DejaVuSans-30" x="63.623047"/>
       <use xlink:href="#DejaVuSans-32" x="127.246094"/>
       <use xlink:href="#DejaVuSans-32" x="190.869141"/>
       <use xlink:href="#DejaVuSans-2d" x="254.492188"/>
       <use xlink:href="#DejaVuSans-30" x="290.576172"/>
       <use xlink:href="#DejaVuSans-31" x="354.199219"/>
      </g>
     </g>
    </g>
    <g id="xtick_4">
     <g id="line2d_7">
      <path d="M 337.901828 320.4 
L 337.901828 43.2 
" clip-path="url(#pc98ffaa308)" style="fill: none; stroke-dasharray: 5.12,1.28,0.8,1.28; stroke-dashoffset: 0; stroke: #b0b0b0; stroke-width: 0.8"/>
     </g>
     <g id="line2d_8">
      <g>
       <use xlink:href="#mbd318b45aa" x="337.901828" y="320.4" style="fill: #a9a9a9; stroke: #a9a9a9; stroke-width: 0.8"/>
      </g>
     </g>
     <g id="text_4">
      <!-- 2022-04 -->
      <g style="fill: #a9a9a9" transform="translate(317.010421 334.998438) scale(0.1 -0.1)">
       <defs>
        <path id="DejaVuSans-34" d="M 2419 4116 
L 825 1625 
L 2419 1625 
L 2419 4116 
z
M 2253 4666 
L 3047 4666 
L 3047 1625 
L 3713 1625 
L 3713 1100 
L 3047 1100 
L 3047 0 
L 2419 0 
L 2419 1100 
L 313 1100 
L 313 1709 
L 2253 4666 
z
" transform="scale(0.015625)"/>
       </defs>
       <use xlink:href="#DejaVuSans-32"/>
       <use xlink:href="#DejaVuSans-30" x="63.623047"/>
       <use xlink:href="#DejaVuSans-32" x="127.246094"/>
       <use xlink:href="#DejaVuSans-32" x="190.869141"/>
       <use xlink:href="#DejaVuSans-2d" x="254.492188"/>
       <use xlink:href="#DejaVuSans-30" x="290.576172"/>
       <use xlink:href="#DejaVuSans-34" x="354.199219"/>
      </g>
     </g>
    </g>
    <g id="xtick_5">
     <g id="line2d_9">
      <path d="M 410.217992 320.4 
L 410.217992 43.2 
" clip-path="url(#pc98ffaa308)" style="fill: none; stroke-dasharray: 5.12,1.28,0.8,1.28; stroke-dashoffset: 0; stroke: #b0b0b0; stroke-width: 0.8"/>
     </g>
     <g id="line2d_10">
      <g>
       <use xlink:href="#mbd318b45aa" x="410.217992" y="320.4" style="fill: #a9a9a9; stroke: #a9a9a9; stroke-width: 0.8"/>
      </g>
     </g>
     <g id="text_5">
      <!-- 2022-07 -->
      <g style="fill: #a9a9a9" transform="translate(389.326586 334.998438) scale(0.1 -0.1)">
       <use xlink:href="#DejaVuSans-32"/>
       <use xlink:href="#DejaVuSans-30" x="63.623047"/>
       <use xlink:href="#DejaVuSans-32" x="127.246094"/>
       <use xlink:href="#DejaVuSans-32" x="190.869141"/>
       <use xlink:href="#DejaVuSans-2d" x="254.492188"/>
       <use xlink:href="#DejaVuSans-30" x="290.576172"/>
       <use xlink:href="#DejaVuSans-37" x="354.199219"/>
      </g>
     </g>
    </g>
    <g id="xtick_6">
     <g id="line2d_11">
      <path d="M 483.328839 320.4 
L 483.328839 43.2 
" clip-path="url(#pc98ffaa308)" style="fill: none; stroke-dasharray: 5.12,1.28,0.8,1.28; stroke-dashoffset: 0; stroke: #b0b0b0; stroke-width: 0.8"/>
     </g>
     <g id="line2d_12">
      <g>
       <use xlink:href="#mbd318b45aa" x="483.328839" y="320.4" style="fill: #a9a9a9; stroke: #a9a9a9; stroke-width: 0.8"/>
      </g>
     </g>
     <g id="text_6">
      <!-- 2022-10 -->
      <g style="fill: #a9a9a9" transform="translate(462.437433 334.998438) scale(0.1 -0.1)">
       <use xlink:href="#DejaVuSans-32"/>
       <use xlink:href="#DejaVuSans-30" x="63.623047"/>
       <use xlink:href="#DejaVuSans-32" x="127.246094"/>
       <use xlink:href="#DejaVuSans-32" x="190.869141"/>
       <use xlink:href="#DejaVuSans-2d" x="254.492188"/>
       <use xlink:href="#DejaVuSans-31" x="290.576172"/>
       <use xlink:href="#DejaVuSans-30" x="354.199219"/>
      </g>
     </g>
    </g>
    <g id="xtick_7">
     <g id="line2d_13">
      <path d="M 556.439687 320.4 
L 556.439687 43.2 
" clip-path="url(#pc98ffaa308)" style="fill: none; stroke-dasharray: 5.12,1.28,0.8,1.28; stroke-dashoffset: 0; stroke: #b0b0b0; stroke-width: 0.8"/>
     </g>
     <g id="line2d_14">
      <g>
       <use xlink:href="#mbd318b45aa" x="556.439687" y="320.4" style="fill: #a9a9a9; stroke: #a9a9a9; stroke-width: 0.8"/>
      </g>
     </g>
     <g id="text_7">
      <!-- 2023-01 -->
      <g style="fill: #a9a9a9" transform="translate(535.54828 334.998438) scale(0.1 -0.1)">
       <defs>
        <path id="DejaVuSans-33" d="M 2597 2516 
Q 3050 2419 3304 2112 
Q 3559 1806 3559 1356 
Q 3559 666 3084 287 
Q 2609 -91 1734 -91 
Q 1441 -91 1130 -33 
Q 819 25 488 141 
L 488 750 
Q 750 597 1062 519 
Q 1375 441 1716 441 
Q 2309 441 2620 675 
Q 2931 909 2931 1356 
Q 2931 1769 2642 2001 
Q 2353 2234 1838 2234 
L 1294 2234 
L 1294 2753 
L 1863 2753 
Q 2328 2753 2575 2939 
Q 2822 3125 2822 3475 
Q 2822 3834 2567 4026 
Q 2313 4219 1838 4219 
Q 1578 4219 1281 4162 
Q 984 4106 628 3988 
L 628 4550 
Q 988 4650 1302 4700 
Q 1616 4750 1894 4750 
Q 2613 4750 3031 4423 
Q 3450 4097 3450 3541 
Q 3450 3153 3228 2886 
Q 3006 2619 2597 2516 
z
" transform="scale(0.015625)"/>
       </defs>
       <use xlink:href="#DejaVuSans-32"/>
       <use xlink:href="#DejaVuSans-30" x="63.623047"/>
       <use xlink:href="#DejaVuSans-32" x="127.246094"/>
       <use xlink:href="#DejaVuSans-33" x="190.869141"/>
       <use xlink:href="#DejaVuSans-2d" x="254.492188"/>
       <use xlink:href="#DejaVuSans-30" x="290.576172"/>
       <use xlink:href="#DejaVuSans-31" x="354.199219"/>
      </g>
     </g>
    </g>
    <g id="xtick_8">
     <g id="line2d_15">
      <path d="M 627.961168 320.4 
L 627.961168 43.2 
" clip-path="url(#pc98ffaa308)" style="fill: none; stroke-dasharray: 5.12,1.28,0.8,1.28; stroke-dashoffset: 0; stroke: #b0b0b0; stroke-width: 0.8"/>
     </g>
     <g id="line2d_16">
      <g>
       <use xlink:href="#mbd318b45aa" x="627.961168" y="320.4" style="fill: #a9a9a9; stroke: #a9a9a9; stroke-width: 0.8"/>
      </g>
     </g>
     <g id="text_8">
      <!-- 2023-04 -->
      <g style="fill: #a9a9a9" transform="translate(607.069762 334.998438) scale(0.1 -0.1)">
       <use xlink:href="#DejaVuSans-32"/>
       <use xlink:href="#DejaVuSans-30" x="63.623047"/>
       <use xlink:href="#DejaVuSans-32" x="127.246094"/>
       <use xlink:href="#DejaVuSans-33" x="190.869141"/>
       <use xlink:href="#DejaVuSans-2d" x="254.492188"/>
       <use xlink:href="#DejaVuSans-30" x="290.576172"/>
       <use xlink:href="#DejaVuSans-34" x="354.199219"/>
      </g>
     </g>
    </g>
    <g id="xtick_9">
     <g id="line2d_17">
      <path d="M 700.277332 320.4 
L 700.277332 43.2 
" clip-path="url(#pc98ffaa308)" style="fill: none; stroke-dasharray: 5.12,1.28,0.8,1.28; stroke-dashoffset: 0; stroke: #b0b0b0; stroke-width: 0.8"/>
     </g>
     <g id="line2d_18">
      <g>
       <use xlink:href="#mbd318b45aa" x="700.277332" y="320.4" style="fill: #a9a9a9; stroke: #a9a9a9; stroke-width: 0.8"/>
      </g>
     </g>
     <g id="text_9">
      <!-- 2023-07 -->
      <g style="fill: #a9a9a9" transform="translate(679.385926 334.998438) scale(0.1 -0.1)">
       <use xlink:href="#DejaVuSans-32"/>
       <use xlink:href="#DejaVuSans-30" x="63.623047"/>
       <use xlink:href="#DejaVuSans-32" x="127.246094"/>
       <use xlink:href="#DejaVuSans-33" x="190.869141"/>
       <use xlink:href="#DejaVuSans-2d" x="254.492188"/>
       <use xlink:href="#DejaVuSans-30" x="290.576172"/>
       <use xlink:href="#DejaVuSans-37" x="354.199219"/>
      </g>
     </g>
    </g>
    <g id="xtick_10">
     <g id="line2d_19">
      <path d="M 773.388179 320.4 
L 773.388179 43.2 
" clip-path="url(#pc98ffaa308)" style="fill: none; stroke-dasharray: 5.12,1.28,0.8,1.28; stroke-dashoffset: 0; stroke: #b0b0b0; stroke-width: 0.8"/>
     </g>
     <g id="line2d_20">
      <g>
       <use xlink:href="#mbd318b45aa" x="773.388179" y="320.4" style="fill: #a9a9a9; stroke: #a9a9a9; stroke-width: 0.8"/>
      </g>
     </g>
     <g id="text_10">
      <!-- 2023-10 -->
      <g style="fill: #a9a9a9" transform="translate(752.496773 334.998438) scale(0.1 -0.1)">
       <use xlink:href="#DejaVuSans-32"/>
       <use xlink:href="#DejaVuSans-30" x="63.623047"/>
       <use xlink:href="#DejaVuSans-32" x="127.246094"/>
       <use xlink:href="#DejaVuSans-33" x="190.869141"/>
       <use xlink:href="#DejaVuSans-2d" x="254.492188"/>
       <use xlink:href="#DejaVuSans-31" x="290.576172"/>
       <use xlink:href="#DejaVuSans-30" x="354.199219"/>
      </g>
     </g>
    </g>
   </g>
   <g id="matplotlib.axis_2">
    <g id="ytick_1">
     <g id="line2d_21">
      <path d="M 108 307.853008 
L 777.6 307.853008 
" clip-path="url(#pc98ffaa308)" style="fill: none; stroke-dasharray: 5.12,1.28,0.8,1.28; stroke-dashoffset: 0; stroke: #b0b0b0; stroke-width: 0.8"/>
     </g>
     <g id="line2d_22">
      <defs>
       <path id="mb57ca09688" d="M 0 0 
L -3.5 0 
" style="stroke: #a9a9a9; stroke-width: 0.8"/>
      </defs>
      <g>
       <use xlink:href="#mb57ca09688" x="108" y="307.853008" style="fill: #a9a9a9; stroke: #a9a9a9; stroke-width: 0.8"/>
      </g>
     </g>
     <g id="text_11">
      <!-- 0 -->
      <g style="fill: #a9a9a9" transform="translate(94.6375 311.652227) scale(0.1 -0.1)">
       <use xlink:href="#DejaVuSans-30"/>
      </g>
     </g>
    </g>
    <g id="ytick_2">
     <g id="line2d_23">
      <path d="M 108 276.048212 
L 777.6 276.048212 
" clip-path="url(#pc98ffaa308)" style="fill: none; stroke-dasharray: 5.12,1.28,0.8,1.28; stroke-dashoffset: 0; stroke: #b0b0b0; stroke-width: 0.8"/>
     </g>
     <g id="line2d_24">
      <g>
       <use xlink:href="#mb57ca09688" x="108" y="276.048212" style="fill: #a9a9a9; stroke: #a9a9a9; stroke-width: 0.8"/>
      </g>
     </g>
     <g id="text_12">
      <!-- 600 -->
      <g style="fill: #a9a9a9" transform="translate(81.9125 279.847431) scale(0.1 -0.1)">
       <defs>
        <path id="DejaVuSans-36" d="M 2113 2584 
Q 1688 2584 1439 2293 
Q 1191 2003 1191 1497 
Q 1191 994 1439 701 
Q 1688 409 2113 409 
Q 2538 409 2786 701 
Q 3034 994 3034 1497 
Q 3034 2003 2786 2293 
Q 2538 2584 2113 2584 
z
M 3366 4563 
L 3366 3988 
Q 3128 4100 2886 4159 
Q 2644 4219 2406 4219 
Q 1781 4219 1451 3797 
Q 1122 3375 1075 2522 
Q 1259 2794 1537 2939 
Q 1816 3084 2150 3084 
Q 2853 3084 3261 2657 
Q 3669 2231 3669 1497 
Q 3669 778 3244 343 
Q 2819 -91 2113 -91 
Q 1303 -91 875 529 
Q 447 1150 447 2328 
Q 447 3434 972 4092 
Q 1497 4750 2381 4750 
Q 2619 4750 2861 4703 
Q 3103 4656 3366 4563 
z
" transform="scale(0.015625)"/>
       </defs>
       <use xlink:href="#DejaVuSans-36"/>
       <use xlink:href="#DejaVuSans-30" x="63.623047"/>
       <use xlink:href="#DejaVuSans-30" x="127.246094"/>
      </g>
     </g>
    </g>
    <g id="ytick_3">
     <g id="line2d_25">
      <path d="M 108 244.243416 
L 777.6 244.243416 
" clip-path="url(#pc98ffaa308)" style="fill: none; stroke-dasharray: 5.12,1.28,0.8,1.28; stroke-dashoffset: 0; stroke: #b0b0b0; stroke-width: 0.8"/>
     </g>
     <g id="line2d_26">
      <g>
       <use xlink:href="#mb57ca09688" x="108" y="244.243416" style="fill: #a9a9a9; stroke: #a9a9a9; stroke-width: 0.8"/>
      </g>
     </g>
     <g id="text_13">
      <!-- 1200 -->
      <g style="fill: #a9a9a9" transform="translate(75.55 248.042635) scale(0.1 -0.1)">
       <use xlink:href="#DejaVuSans-31"/>
       <use xlink:href="#DejaVuSans-32" x="63.623047"/>
       <use xlink:href="#DejaVuSans-30" x="127.246094"/>
       <use xlink:href="#DejaVuSans-30" x="190.869141"/>
      </g>
     </g>
    </g>
    <g id="ytick_4">
     <g id="line2d_27">
      <path d="M 108 212.43862 
L 777.6 212.43862 
" clip-path="url(#pc98ffaa308)" style="fill: none; stroke-dasharray: 5.12,1.28,0.8,1.28; stroke-dashoffset: 0; stroke: #b0b0b0; stroke-width: 0.8"/>
     </g>
     <g id="line2d_28">
      <g>
       <use xlink:href="#mb57ca09688" x="108" y="212.43862" style="fill: #a9a9a9; stroke: #a9a9a9; stroke-width: 0.8"/>
      </g>
     </g>
     <g id="text_14">
      <!-- 1800 -->
      <g style="fill: #a9a9a9" transform="translate(75.55 216.237839) scale(0.1 -0.1)">
       <defs>
        <path id="DejaVuSans-38" d="M 2034 2216 
Q 1584 2216 1326 1975 
Q 1069 1734 1069 1313 
Q 1069 891 1326 650 
Q 1584 409 2034 409 
Q 2484 409 2743 651 
Q 3003 894 3003 1313 
Q 3003 1734 2745 1975 
Q 2488 2216 2034 2216 
z
M 1403 2484 
Q 997 2584 770 2862 
Q 544 3141 544 3541 
Q 544 4100 942 4425 
Q 1341 4750 2034 4750 
Q 2731 4750 3128 4425 
Q 3525 4100 3525 3541 
Q 3525 3141 3298 2862 
Q 3072 2584 2669 2484 
Q 3125 2378 3379 2068 
Q 3634 1759 3634 1313 
Q 3634 634 3220 271 
Q 2806 -91 2034 -91 
Q 1263 -91 848 271 
Q 434 634 434 1313 
Q 434 1759 690 2068 
Q 947 2378 1403 2484 
z
M 1172 3481 
Q 1172 3119 1398 2916 
Q 1625 2713 2034 2713 
Q 2441 2713 2670 2916 
Q 2900 3119 2900 3481 
Q 2900 3844 2670 4047 
Q 2441 4250 2034 4250 
Q 1625 4250 1398 4047 
Q 1172 3844 1172 3481 
z
" transform="scale(0.015625)"/>
       </defs>
       <use xlink:href="#DejaVuSans-31"/>
       <use xlink:href="#DejaVuSans-38" x="63.623047"/>
       <use xlink:href="#DejaVuSans-30" x="127.246094"/>
       <use xlink:href="#DejaVuSans-30" x="190.869141"/>
      </g>
     </g>
    </g>
    <g id="ytick_5">
     <g id="line2d_29">
      <path d="M 108 180.633824 
L 777.6 180.633824 
" clip-path="url(#pc98ffaa308)" style="fill: none; stroke-dasharray: 5.12,1.28,0.8,1.28; stroke-dashoffset: 0; stroke: #b0b0b0; stroke-width: 0.8"/>
     </g>
     <g id="line2d_30">
      <g>
       <use xlink:href="#mb57ca09688" x="108" y="180.633824" style="fill: #a9a9a9; stroke: #a9a9a9; stroke-width: 0.8"/>
      </g>
     </g>
     <g id="text_15">
      <!-- 2400 -->
      <g style="fill: #a9a9a9" transform="translate(75.55 184.433043) scale(0.1 -0.1)">
       <use xlink:href="#DejaVuSans-32"/>
       <use xlink:href="#DejaVuSans-34" x="63.623047"/>
       <use xlink:href="#DejaVuSans-30" x="127.246094"/>
       <use xlink:href="#DejaVuSans-30" x="190.869141"/>
      </g>
     </g>
    </g>
    <g id="ytick_6">
     <g id="line2d_31">
      <path d="M 108 148.829028 
L 777.6 148.829028 
" clip-path="url(#pc98ffaa308)" style="fill: none; stroke-dasharray: 5.12,1.28,0.8,1.28; stroke-dashoffset: 0; stroke: #b0b0b0; stroke-width: 0.8"/>
     </g>
     <g id="line2d_32">
      <g>
       <use xlink:href="#mb57ca09688" x="108" y="148.829028" style="fill: #a9a9a9; stroke: #a9a9a9; stroke-width: 0.8"/>
      </g>
     </g>
     <g id="text_16">
      <!-- 3000 -->
      <g style="fill: #a9a9a9" transform="translate(75.55 152.628247) scale(0.1 -0.1)">
       <use xlink:href="#DejaVuSans-33"/>
       <use xlink:href="#DejaVuSans-30" x="63.623047"/>
       <use xlink:href="#DejaVuSans-30" x="127.246094"/>
       <use xlink:href="#DejaVuSans-30" x="190.869141"/>
      </g>
     </g>
    </g>
    <g id="ytick_7">
     <g id="line2d_33">
      <path d="M 108 117.024232 
L 777.6 117.024232 
" clip-path="url(#pc98ffaa308)" style="fill: none; stroke-dasharray: 5.12,1.28,0.8,1.28; stroke-dashoffset: 0; stroke: #b0b0b0; stroke-width: 0.8"/>
     </g>
     <g id="line2d_34">
      <g>
       <use xlink:href="#mb57ca09688" x="108" y="117.024232" style="fill: #a9a9a9; stroke: #a9a9a9; stroke-width: 0.8"/>
      </g>
     </g>
     <g id="text_17">
      <!-- 3600 -->
      <g style="fill: #a9a9a9" transform="translate(75.55 120.823451) scale(0.1 -0.1)">
       <use xlink:href="#DejaVuSans-33"/>
       <use xlink:href="#DejaVuSans-36" x="63.623047"/>
       <use xlink:href="#DejaVuSans-30" x="127.246094"/>
       <use xlink:href="#DejaVuSans-30" x="190.869141"/>
      </g>
     </g>
    </g>
    <g id="ytick_8">
     <g id="line2d_35">
      <path d="M 108 85.219436 
L 777.6 85.219436 
" clip-path="url(#pc98ffaa308)" style="fill: none; stroke-dasharray: 5.12,1.28,0.8,1.28; stroke-dashoffset: 0; stroke: #b0b0b0; stroke-width: 0.8"/>
     </g>
     <g id="line2d_36">
      <g>
       <use xlink:href="#mb57ca09688" x="108" y="85.219436" style="fill: #a9a9a9; stroke: #a9a9a9; stroke-width: 0.8"/>
      </g>
     </g>
     <g id="text_18">
      <!-- 4200 -->
      <g style="fill: #a9a9a9" transform="translate(75.55 89.018655) scale(0.1 -0.1)">
       <use xlink:href="#DejaVuSans-34"/>
       <use xlink:href="#DejaVuSans-32" x="63.623047"/>
       <use xlink:href="#DejaVuSans-30" x="127.246094"/>
       <use xlink:href="#DejaVuSans-30" x="190.869141"/>
      </g>
     </g>
    </g>
    <g id="ytick_9">
     <g id="line2d_37">
      <path d="M 108 53.41464 
L 777.6 53.41464 
" clip-path="url(#pc98ffaa308)" style="fill: none; stroke-dasharray: 5.12,1.28,0.8,1.28; stroke-dashoffset: 0; stroke: #b0b0b0; stroke-width: 0.8"/>
     </g>
     <g id="line2d_38">
      <g>
       <use xlink:href="#mb57ca09688" x="108" y="53.41464" style="fill: #a9a9a9; stroke: #a9a9a9; stroke-width: 0.8"/>
      </g>
     </g>
     <g id="text_19">
      <!-- 4800 -->
      <g style="fill: #a9a9a9" transform="translate(75.55 57.213859) scale(0.1 -0.1)">
       <use xlink:href="#DejaVuSans-34"/>
       <use xlink:href="#DejaVuSans-38" x="63.623047"/>
       <use xlink:href="#DejaVuSans-30" x="127.246094"/>
       <use xlink:href="#DejaVuSans-30" x="190.869141"/>
      </g>
     </g>
    </g>
   </g>
   <g id="line2d_39">
    <path d="M 138.436364 307.693984 
L 143.204462 307.322928 
L 143.999146 307.00488 
L 146.383195 306.73984 
L 151.945977 305.732688 
L 155.919392 305.361632 
L 156.714075 304.990576 
L 157.508759 304.778544 
L 158.303442 303.824401 
L 159.098125 303.294321 
L 159.892808 301.598065 
L 160.687491 301.492049 
L 161.482174 300.908961 
L 163.07154 300.166849 
L 164.660907 299.000673 
L 165.45559 298.258561 
L 167.044956 297.516449 
L 167.839639 297.198401 
L 168.634322 296.615313 
L 171.813055 295.290114 
L 172.607738 294.07093 
L 173.402421 293.434834 
L 174.991787 292.586706 
L 182.938619 291.473538 
L 183.733302 291.102482 
L 189.296084 290.678418 
L 190.88545 290.254354 
L 192.474816 289.936306 
L 198.832281 289.141186 
L 199.626964 288.717122 
L 200.421647 288.611106 
L 201.21633 288.293058 
L 202.805697 288.028019 
L 203.60038 287.975011 
L 204.395063 287.709971 
L 207.573795 287.232899 
L 209.163162 286.808835 
L 211.547211 286.596803 
L 213.136577 286.437779 
L 213.93126 286.225747 
L 214.725944 286.172739 
L 217.109993 285.483635 
L 221.878092 284.794531 
L 222.672775 284.529491 
L 223.467458 283.469331 
L 225.851507 282.621203 
L 228.235557 281.985107 
L 229.03024 281.614051 
L 229.824923 281.561043 
L 233.798338 280.500883 
L 235.387705 280.394867 
L 236.182388 280.288851 
L 238.566437 279.599748 
L 241.74517 278.857636 
L 242.539853 278.539588 
L 243.334536 278.433572 
L 244.129219 278.062516 
L 252.07605 276.89634 
L 256.049466 275.783172 
L 256.844149 275.3061 
L 260.022882 274.457972 
L 261.612248 273.556836 
L 262.406931 273.026756 
L 263.201614 272.92074 
L 263.996297 272.6557 
L 266.380347 272.231637 
L 267.17503 271.860581 
L 268.764396 271.595541 
L 270.353762 270.853429 
L 274.327178 269.899285 
L 276.711227 269.316197 
L 277.50591 268.998149 
L 278.300593 268.839125 
L 279.095277 268.521077 
L 279.88996 268.415061 
L 280.684643 268.044005 
L 281.479326 267.831973 
L 283.068692 267.725957 
L 284.658058 267.195877 
L 286.247425 267.089861 
L 287.042108 266.718805 
L 290.22084 266.188725 
L 293.399573 265.923685 
L 294.194256 265.764661 
L 295.783622 265.022549 
L 304.525136 261.471014 
L 305.31982 261.04695 
L 306.114503 260.198822 
L 306.909186 258.92663 
L 307.703869 257.919478 
L 308.498552 257.707446 
L 309.293235 257.707446 
L 310.882601 256.541271 
L 311.677285 256.329239 
L 312.471968 255.905175 
L 313.266651 255.746151 
L 314.061334 255.057047 
L 314.856017 254.845015 
L 317.240066 253.731847 
L 318.03475 252.777703 
L 318.829433 251.611527 
L 319.624116 251.134455 
L 320.418799 249.862263 
L 321.213482 249.067143 
L 322.008165 248.696088 
L 322.802848 248.484056 
L 324.392215 247.529912 
L 325.186898 247.158856 
L 328.36563 244.826504 
L 329.160313 243.713336 
L 329.954996 241.911064 
L 330.74968 240.744889 
L 331.544363 240.161801 
L 332.339046 239.843753 
L 335.517778 237.193353 
L 336.312461 236.663273 
L 337.901828 235.285065 
L 338.696511 234.171897 
L 339.491194 233.429785 
L 341.08056 232.369626 
L 343.46461 230.779386 
L 344.259293 230.090282 
L 345.053976 229.87825 
L 347.438025 228.659066 
L 349.027391 227.75793 
L 349.822075 227.439882 
L 351.411441 226.008666 
L 352.206124 225.054523 
L 353.79549 223.994363 
L 354.590173 223.782331 
L 355.384856 223.411275 
L 356.17954 222.828187 
L 357.768906 221.980059 
L 358.563589 221.874043 
L 360.152955 221.025915 
L 360.947638 220.601851 
L 361.742321 219.806731 
L 362.537005 219.329659 
L 363.331688 219.064619 
L 364.126371 218.534539 
L 367.305103 216.9443 
L 368.099786 216.255196 
L 371.278519 215.195036 
L 372.073202 214.664956 
L 372.867885 214.505932 
L 374.457251 213.975852 
L 376.841301 213.074716 
L 379.22535 212.226588 
L 380.814716 211.961548 
L 382.404083 210.636348 
L 383.993449 209.894236 
L 386.377498 208.569037 
L 387.966864 208.144973 
L 388.761548 207.667901 
L 389.556231 207.455869 
L 391.94028 205.971645 
L 394.324329 205.441565 
L 396.708379 204.593437 
L 398.297745 203.692301 
L 399.092428 203.586285 
L 399.887111 203.321245 
L 401.476478 203.003197 
L 403.860527 201.306942 
L 406.244576 200.776862 
L 407.039259 200.511822 
L 407.833943 199.928734 
L 412.602041 198.44451 
L 413.396724 198.391502 
L 418.959506 196.483214 
L 419.754189 196.112158 
L 422.138239 195.582078 
L 423.727605 195.211022 
L 424.522288 194.839966 
L 425.316971 194.680942 
L 427.701021 193.620782 
L 430.08507 192.507615 
L 430.879753 191.977535 
L 431.674436 191.765503 
L 434.058486 190.546319 
L 435.647852 190.175263 
L 437.237218 189.380143 
L 438.826584 188.956079 
L 439.621268 188.850063 
L 440.415951 188.319983 
L 441.210634 187.948927 
L 442.005317 187.789903 
L 443.594683 187.153807 
L 444.389366 186.994783 
L 445.184049 186.570719 
L 448.362782 186.093647 
L 449.952148 185.351536 
L 450.746831 184.71544 
L 451.541514 183.337232 
L 453.130881 183.019184 
L 453.925564 182.86016 
L 457.104296 181.26992 
L 457.898979 181.110896 
L 464.256444 178.08944 
L 466.640494 177.612369 
L 468.22986 176.870257 
L 469.024543 176.552209 
L 469.819226 176.446193 
L 472.997959 175.067985 
L 474.587325 174.007825 
L 475.382008 173.636769 
L 476.176691 173.530753 
L 476.971374 173.265713 
L 477.766057 173.212705 
L 480.94479 172.205553 
L 481.739473 172.152545 
L 482.534156 171.569457 
L 484.123522 171.039377 
L 486.507572 170.297265 
L 487.302255 169.820194 
L 488.096938 169.608162 
L 488.891621 169.078082 
L 489.686304 168.760034 
L 490.480987 168.282962 
L 492.070354 167.699874 
L 492.865037 167.487842 
L 493.65972 167.116786 
L 494.454403 166.904754 
L 495.249086 166.533698 
L 496.043769 165.95061 
L 496.838452 165.15549 
L 497.633136 164.62541 
L 498.427819 164.466386 
L 500.017185 163.30021 
L 500.811868 163.141186 
L 501.606551 161.975011 
L 502.401234 161.656963 
L 503.195917 161.073875 
L 503.990601 160.967859 
L 504.785284 160.437779 
L 505.579967 160.066723 
L 506.37465 159.907699 
L 507.169333 159.589651 
L 507.964016 158.953555 
L 508.758699 158.688515 
L 511.142749 157.151283 
L 514.321481 155.614051 
L 515.116164 155.508035 
L 516.705531 154.818931 
L 517.500214 154.341859 
L 518.294897 153.069668 
L 519.08958 152.274548 
L 519.884263 151.850484 
L 520.678946 151.69146 
L 522.268312 150.737316 
L 523.062995 150.578292 
L 524.652362 149.83618 
L 527.036411 148.882036 
L 528.625777 147.821876 
L 530.215144 146.178629 
L 531.80451 145.224485 
L 532.599193 144.747413 
L 533.393876 143.952293 
L 535.777925 142.044005 
L 536.572609 141.672949 
L 537.367292 140.824821 
L 538.161975 140.241733 
L 539.751341 139.711653 
L 540.546024 138.969541 
L 542.13539 138.174422 
L 542.930074 137.96239 
L 543.724757 137.379302 
L 544.51944 137.16727 
L 546.903489 135.948086 
L 547.698172 135.364998 
L 549.287539 134.728902 
L 550.082222 134.569878 
L 550.876905 134.092806 
L 556.439687 132.184518 
L 557.23437 131.495414 
L 560.413102 130.329239 
L 561.207785 130.117207 
L 562.002469 129.534119 
L 564.386518 128.473959 
L 565.181201 127.890871 
L 565.975884 127.466807 
L 567.56525 124.392343 
L 569.154617 122.590072 
L 569.9493 122.059992 
L 572.333349 121.05284 
L 573.128032 120.7878 
L 573.922715 120.681784 
L 574.717399 120.25772 
L 577.101448 119.515608 
L 579.485497 118.561464 
L 581.074864 117.501304 
L 583.458913 116.441144 
L 587.432329 114.214809 
L 588.227012 113.419689 
L 589.816378 112.571561 
L 590.611061 112.147497 
L 591.405744 111.882457 
L 592.200427 111.352377 
L 593.789793 110.610265 
L 594.584477 110.133193 
L 595.37916 109.815145 
L 596.173843 109.338073 
L 596.968526 109.126041 
L 597.763209 108.542953 
L 598.557892 108.224905 
L 599.352575 108.065881 
L 600.941942 107.429785 
L 603.325991 106.581658 
L 604.120674 105.99857 
L 605.71004 105.574506 
L 607.299407 104.991418 
L 608.09409 104.355322 
L 609.683456 103.87825 
L 610.478139 103.507194 
L 611.272822 103.295162 
L 612.862188 102.235002 
L 614.451555 101.545898 
L 616.040921 100.379722 
L 617.630287 99.849642 
L 618.42497 99.160538 
L 619.219653 99.001515 
L 620.014337 98.312411 
L 621.603703 97.411275 
L 623.193069 96.775179 
L 623.987752 95.980059 
L 626.371802 95.237947 
L 627.166485 94.760875 
L 627.961168 94.654859 
L 630.345217 93.488683 
L 633.52395 92.534539 
L 635.113316 92.322507 
L 635.907999 92.004459 
L 636.702682 91.845435 
L 638.292048 91.20934 
L 639.086732 91.156332 
L 641.470781 90.361212 
L 643.060147 89.407068 
L 644.649513 88.346908 
L 649.417612 86.067564 
L 651.801662 84.530332 
L 653.391028 84.159276 
L 654.980394 83.099117 
L 658.159127 82.144973 
L 658.95381 81.826925 
L 660.543176 81.455869 
L 664.516592 80.183677 
L 666.105958 79.865629 
L 667.695324 79.494573 
L 668.490007 79.123517 
L 669.28469 79.017501 
L 670.874056 78.381405 
L 671.66874 78.275389 
L 672.463423 77.904333 
L 674.052789 77.586285 
L 674.847472 77.215229 
L 677.231521 76.685149 
L 678.820888 76.367101 
L 685.973036 74.935886 
L 686.767719 74.617838 
L 687.562402 74.56483 
L 689.946451 73.928734 
L 690.741135 73.50467 
L 692.330501 72.97459 
L 693.125184 72.921582 
L 697.0986 71.755406 
L 701.072015 70.536222 
L 701.866698 70.32419 
L 702.661381 69.953134 
L 703.456065 69.953134 
L 705.045431 69.423054 
L 705.840114 68.627934 
L 706.634797 68.256878 
L 708.224163 67.779806 
L 711.402896 66.613631 
L 712.197579 66.401599 
L 712.992262 65.924527 
L 713.786945 65.765503 
L 714.581628 65.235423 
L 717.760361 64.281279 
L 718.555044 64.016239 
L 719.349727 63.539167 
L 720.14441 63.327135 
L 720.939093 62.691039 
L 723.323143 62.266975 
L 724.912509 61.418847 
L 725.707192 60.517711 
L 727.296558 60.199663 
L 732.064657 59.139504 
L 733.654023 58.71544 
L 735.24339 58.662432 
L 736.038073 58.291376 
L 738.422122 57.92032 
L 739.216805 57.708288 
L 740.011488 57.337232 
L 742.395538 57.019184 
L 743.984904 56.436096 
L 744.779587 56.06504 
L 745.57427 56.012032 
L 746.368953 55.8 
L 747.163636 55.8 
L 747.163636 55.8 
" clip-path="url(#pc98ffaa308)" style="fill: none; stroke: #1f77b4; stroke-width: 1.5; stroke-linecap: square"/>
   </g>
   <g id="line2d_40">
    <path d="M 139.231047 307.8 
L 141.615096 307.693984 
L 143.204462 307.587968 
L 148.767244 307.481952 
L 152.74066 307.322928 
L 155.919392 307.322928 
L 156.714075 307.110896 
L 159.098125 307.057888 
L 163.866224 306.527808 
L 175.78647 305.838704 
L 182.143935 305.732688 
L 186.117351 305.573664 
L 195.653549 305.467648 
L 199.626964 305.308624 
L 204.395063 305.202608 
L 207.573795 305.096592 
L 214.725944 304.990576 
L 217.109993 304.937568 
L 219.494042 304.88456 
L 221.878092 304.61952 
L 226.64619 304.566512 
L 228.235557 304.460496 
L 233.798338 304.35448 
L 242.539853 303.877408 
L 248.102635 303.771393 
L 249.692001 303.665377 
L 252.07605 303.559361 
L 256.844149 303.347329 
L 260.022882 303.294321 
L 262.406931 303.082289 
L 275.916544 302.287169 
L 278.300593 302.181153 
L 283.863375 301.916113 
L 286.247425 301.810097 
L 294.194256 301.386033 
L 302.93577 301.280017 
L 306.114503 300.961969 
L 307.703869 300.855953 
L 316.445383 300.219857 
L 317.240066 300.007825 
L 319.624116 299.795793 
L 321.213482 299.424737 
L 323.597531 299.371729 
L 325.981581 299.265713 
L 332.339046 298.470593 
L 336.312461 298.364577 
L 346.643342 297.569457 
L 351.411441 297.039377 
L 353.79549 296.986369 
L 355.384856 296.880353 
L 358.563589 296.774337 
L 360.152955 296.668321 
L 364.126371 296.297265 
L 364.921054 296.085233 
L 369.689153 295.873202 
L 373.662568 295.767186 
L 384.788132 295.13109 
L 386.377498 295.025074 
L 396.708379 294.441986 
L 402.271161 294.33597 
L 403.065844 294.176946 
L 409.423309 294.07093 
L 414.986091 293.80589 
L 423.727605 293.699874 
L 429.290387 293.434834 
L 435.647852 293.328818 
L 442.8 292.957762 
L 447.568099 292.851746 
L 462.667078 291.95061 
L 469.024543 291.844594 
L 472.997959 291.473538 
L 474.587325 291.314514 
L 478.560741 291.261506 
L 481.739473 290.943458 
L 489.686304 290.519394 
L 494.454403 290.413378 
L 496.838452 290.36037 
L 499.222502 290.307362 
L 501.606551 290.09533 
L 507.964016 289.989314 
L 509.553382 289.724274 
L 511.142749 289.618258 
L 514.321481 289.512242 
L 516.705531 289.406226 
L 518.294897 289.30021 
L 525.447045 289.194194 
L 527.036411 289.03517 
L 530.215144 288.929154 
L 531.009827 288.717122 
L 532.599193 288.664114 
L 533.393876 288.50509 
L 535.777925 288.399074 
L 549.287539 287.603955 
L 551.671588 287.497939 
L 555.645004 287.338915 
L 566.770567 287.232899 
L 572.333349 286.967859 
L 578.690814 286.861843 
L 581.869547 286.755827 
L 585.048279 286.702819 
L 586.637645 286.543795 
L 589.816378 286.437779 
L 597.763209 286.013715 
L 602.531308 285.960707 
L 604.915357 285.748675 
L 607.299407 285.695667 
L 612.862188 285.589651 
L 616.040921 285.483635 
L 625.577118 285.377619 
L 629.550534 285.218595 
L 634.318633 285.112579 
L 636.702682 284.847539 
L 641.470781 284.794531 
L 642.265464 284.635507 
L 643.85483 284.529491 
L 647.033563 284.423475 
L 656.56976 284.317459 
L 660.543176 284.158435 
L 674.052789 284.105427 
L 675.642155 283.999411 
L 678.026205 283.946403 
L 688.357085 283.840387 
L 689.946451 283.734371 
L 698.687966 283.628355 
L 701.866698 283.522339 
L 711.402896 283.469331 
L 712.992262 283.363315 
L 724.912509 283.310307 
L 727.296558 283.098275 
L 740.806171 282.992259 
L 743.190221 282.939251 
L 747.163636 282.939251 
L 747.163636 282.939251 
" clip-path="url(#pc98ffaa308)" style="fill: none; stroke: #ff7f0e; stroke-width: 1.5; stroke-linecap: square"/>
   </g>
   <g id="patch_3">
    <path d="M 108 320.4 
L 108 43.2 
" style="fill: none; stroke: #a9a9a9; stroke-width: 0.8; stroke-linejoin: miter; stroke-linecap: square"/>
   </g>
   <g id="patch_4">
    <path d="M 777.6 320.4 
L 777.6 43.2 
" style="fill: none"/>
   </g>
   <g id="patch_5">
    <path d="M 108 320.4 
L 777.6 320.4 
" style="fill: none; stroke: #a9a9a9; stroke-width: 0.8; stroke-linejoin: miter; stroke-linecap: square"/>
   </g>
   <g id="patch_6">
    <path d="M 108 43.2 
L 777.6 43.2 
" style="fill: none"/>
   </g>
   <g id="text_20">
    <!-- get_subscribe history -->
    <g style="fill: #a9a9a9" transform="translate(378.6075 37.2) scale(0.12 -0.12)">
     <defs>
      <path id="DejaVuSans-67" d="M 2906 1791 
Q 2906 2416 2648 2759 
Q 2391 3103 1925 3103 
Q 1463 3103 1205 2759 
Q 947 2416 947 1791 
Q 947 1169 1205 825 
Q 1463 481 1925 481 
Q 2391 481 2648 825 
Q 2906 1169 2906 1791 
z
M 3481 434 
Q 3481 -459 3084 -895 
Q 2688 -1331 1869 -1331 
Q 1566 -1331 1297 -1286 
Q 1028 -1241 775 -1147 
L 775 -588 
Q 1028 -725 1275 -790 
Q 1522 -856 1778 -856 
Q 2344 -856 2625 -561 
Q 2906 -266 2906 331 
L 2906 616 
Q 2728 306 2450 153 
Q 2172 0 1784 0 
Q 1141 0 747 490 
Q 353 981 353 1791 
Q 353 2603 747 3093 
Q 1141 3584 1784 3584 
Q 2172 3584 2450 3431 
Q 2728 3278 2906 2969 
L 2906 3500 
L 3481 3500 
L 3481 434 
z
" transform="scale(0.015625)"/>
      <path id="DejaVuSans-65" d="M 3597 1894 
L 3597 1613 
L 953 1613 
Q 991 1019 1311 708 
Q 1631 397 2203 397 
Q 2534 397 2845 478 
Q 3156 559 3463 722 
L 3463 178 
Q 3153 47 2828 -22 
Q 2503 -91 2169 -91 
Q 1331 -91 842 396 
Q 353 884 353 1716 
Q 353 2575 817 3079 
Q 1281 3584 2069 3584 
Q 2775 3584 3186 3129 
Q 3597 2675 3597 1894 
z
M 3022 2063 
Q 3016 2534 2758 2815 
Q 2500 3097 2075 3097 
Q 1594 3097 1305 2825 
Q 1016 2553 972 2059 
L 3022 2063 
z
" transform="scale(0.015625)"/>
      <path id="DejaVuSans-74" d="M 1172 4494 
L 1172 3500 
L 2356 3500 
L 2356 3053 
L 1172 3053 
L 1172 1153 
Q 1172 725 1289 603 
Q 1406 481 1766 481 
L 2356 481 
L 2356 0 
L 1766 0 
Q 1100 0 847 248 
Q 594 497 594 1153 
L 594 3053 
L 172 3053 
L 172 3500 
L 594 3500 
L 594 4494 
L 1172 4494 
z
" transform="scale(0.015625)"/>
      <path id="DejaVuSans-5f" d="M 3263 -1063 
L 3263 -1509 
L -63 -1509 
L -63 -1063 
L 3263 -1063 
z
" transform="scale(0.015625)"/>
      <path id="DejaVuSans-73" d="M 2834 3397 
L 2834 2853 
Q 2591 2978 2328 3040 
Q 2066 3103 1784 3103 
Q 1356 3103 1142 2972 
Q 928 2841 928 2578 
Q 928 2378 1081 2264 
Q 1234 2150 1697 2047 
L 1894 2003 
Q 2506 1872 2764 1633 
Q 3022 1394 3022 966 
Q 3022 478 2636 193 
Q 2250 -91 1575 -91 
Q 1294 -91 989 -36 
Q 684 19 347 128 
L 347 722 
Q 666 556 975 473 
Q 1284 391 1588 391 
Q 1994 391 2212 530 
Q 2431 669 2431 922 
Q 2431 1156 2273 1281 
Q 2116 1406 1581 1522 
L 1381 1569 
Q 847 1681 609 1914 
Q 372 2147 372 2553 
Q 372 3047 722 3315 
Q 1072 3584 1716 3584 
Q 2034 3584 2315 3537 
Q 2597 3491 2834 3397 
z
" transform="scale(0.015625)"/>
      <path id="DejaVuSans-75" d="M 544 1381 
L 544 3500 
L 1119 3500 
L 1119 1403 
Q 1119 906 1312 657 
Q 1506 409 1894 409 
Q 2359 409 2629 706 
Q 2900 1003 2900 1516 
L 2900 3500 
L 3475 3500 
L 3475 0 
L 2900 0 
L 2900 538 
Q 2691 219 2414 64 
Q 2138 -91 1772 -91 
Q 1169 -91 856 284 
Q 544 659 544 1381 
z
M 1991 3584 
L 1991 3584 
z
" transform="scale(0.015625)"/>
      <path id="DejaVuSans-62" d="M 3116 1747 
Q 3116 2381 2855 2742 
Q 2594 3103 2138 3103 
Q 1681 3103 1420 2742 
Q 1159 2381 1159 1747 
Q 1159 1113 1420 752 
Q 1681 391 2138 391 
Q 2594 391 2855 752 
Q 3116 1113 3116 1747 
z
M 1159 2969 
Q 1341 3281 1617 3432 
Q 1894 3584 2278 3584 
Q 2916 3584 3314 3078 
Q 3713 2572 3713 1747 
Q 3713 922 3314 415 
Q 2916 -91 2278 -91 
Q 1894 -91 1617 61 
Q 1341 213 1159 525 
L 1159 0 
L 581 0 
L 581 4863 
L 1159 4863 
L 1159 2969 
z
" transform="scale(0.015625)"/>
      <path id="DejaVuSans-63" d="M 3122 3366 
L 3122 2828 
Q 2878 2963 2633 3030 
Q 2388 3097 2138 3097 
Q 1578 3097 1268 2742 
Q 959 2388 959 1747 
Q 959 1106 1268 751 
Q 1578 397 2138 397 
Q 2388 397 2633 464 
Q 2878 531 3122 666 
L 3122 134 
Q 2881 22 2623 -34 
Q 2366 -91 2075 -91 
Q 1284 -91 818 406 
Q 353 903 353 1747 
Q 353 2603 823 3093 
Q 1294 3584 2113 3584 
Q 2378 3584 2631 3529 
Q 2884 3475 3122 3366 
z
" transform="scale(0.015625)"/>
      <path id="DejaVuSans-72" d="M 2631 2963 
Q 2534 3019 2420 3045 
Q 2306 3072 2169 3072 
Q 1681 3072 1420 2755 
Q 1159 2438 1159 1844 
L 1159 0 
L 581 0 
L 581 3500 
L 1159 3500 
L 1159 2956 
Q 1341 3275 1631 3429 
Q 1922 3584 2338 3584 
Q 2397 3584 2469 3576 
Q 2541 3569 2628 3553 
L 2631 2963 
z
" transform="scale(0.015625)"/>
      <path id="DejaVuSans-69" d="M 603 3500 
L 1178 3500 
L 1178 0 
L 603 0 
L 603 3500 
z
M 603 4863 
L 1178 4863 
L 1178 4134 
L 603 4134 
L 603 4863 
z
" transform="scale(0.015625)"/>
      <path id="DejaVuSans-20" transform="scale(0.015625)"/>
      <path id="DejaVuSans-68" d="M 3513 2113 
L 3513 0 
L 2938 0 
L 2938 2094 
Q 2938 2591 2744 2837 
Q 2550 3084 2163 3084 
Q 1697 3084 1428 2787 
Q 1159 2491 1159 1978 
L 1159 0 
L 581 0 
L 581 4863 
L 1159 4863 
L 1159 2956 
Q 1366 3272 1645 3428 
Q 1925 3584 2291 3584 
Q 2894 3584 3203 3211 
Q 3513 2838 3513 2113 
z
" transform="scale(0.015625)"/>
      <path id="DejaVuSans-6f" d="M 1959 3097 
Q 1497 3097 1228 2736 
Q 959 2375 959 1747 
Q 959 1119 1226 758 
Q 1494 397 1959 397 
Q 2419 397 2687 759 
Q 2956 1122 2956 1747 
Q 2956 2369 2687 2733 
Q 2419 3097 1959 3097 
z
M 1959 3584 
Q 2709 3584 3137 3096 
Q 3566 2609 3566 1747 
Q 3566 888 3137 398 
Q 2709 -91 1959 -91 
Q 1206 -91 779 398 
Q 353 888 353 1747 
Q 353 2609 779 3096 
Q 1206 3584 1959 3584 
z
" transform="scale(0.015625)"/>
      <path id="DejaVuSans-79" d="M 2059 -325 
Q 1816 -950 1584 -1140 
Q 1353 -1331 966 -1331 
L 506 -1331 
L 506 -850 
L 844 -850 
Q 1081 -850 1212 -737 
Q 1344 -625 1503 -206 
L 1606 56 
L 191 3500 
L 800 3500 
L 1894 763 
L 2988 3500 
L 3597 3500 
L 2059 -325 
z
" transform="scale(0.015625)"/>
     </defs>
     <use xlink:href="#DejaVuSans-67"/>
     <use xlink:href="#DejaVuSans-65" x="63.476562"/>
     <use xlink:href="#DejaVuSans-74" x="125"/>
     <use xlink:href="#DejaVuSans-5f" x="164.208984"/>
     <use xlink:href="#DejaVuSans-73" x="214.208984"/>
     <use xlink:href="#DejaVuSans-75" x="266.308594"/>
     <use xlink:href="#DejaVuSans-62" x="329.6875"/>
     <use xlink:href="#DejaVuSans-73" x="393.164062"/>
     <use xlink:href="#DejaVuSans-63" x="445.263672"/>
     <use xlink:href="#DejaVuSans-72" x="500.244141"/>
     <use xlink:href="#DejaVuSans-69" x="541.357422"/>
     <use xlink:href="#DejaVuSans-62" x="569.140625"/>
     <use xlink:href="#DejaVuSans-65" x="632.617188"/>
     <use xlink:href="#DejaVuSans-20" x="694.140625"/>
     <use xlink:href="#DejaVuSans-68" x="725.927734"/>
     <use xlink:href="#DejaVuSans-69" x="789.306641"/>
     <use xlink:href="#DejaVuSans-73" x="817.089844"/>
     <use xlink:href="#DejaVuSans-74" x="869.189453"/>
     <use xlink:href="#DejaVuSans-6f" x="908.398438"/>
     <use xlink:href="#DejaVuSans-72" x="969.580078"/>
     <use xlink:href="#DejaVuSans-79" x="1010.693359"/>
    </g>
   </g>
   <g id="legend_1">
    <g id="line2d_41">
     <path d="M 815.08 328.498438 
L 825.08 328.498438 
L 835.08 328.498438 
" style="fill: none; stroke: #1f77b4; stroke-width: 1.5; stroke-linecap: square"/>
    </g>
    <g id="text_21">
     <!-- star -->
     <g style="fill: #a9a9a9" transform="translate(843.08 331.998438) scale(0.1 -0.1)">
      <defs>
       <path id="DejaVuSans-61" d="M 2194 1759 
Q 1497 1759 1228 1600 
Q 959 1441 959 1056 
Q 959 750 1161 570 
Q 1363 391 1709 391 
Q 2188 391 2477 730 
Q 2766 1069 2766 1631 
L 2766 1759 
L 2194 1759 
z
M 3341 1997 
L 3341 0 
L 2766 0 
L 2766 531 
Q 2569 213 2275 61 
Q 1981 -91 1556 -91 
Q 1019 -91 701 211 
Q 384 513 384 1019 
Q 384 1609 779 1909 
Q 1175 2209 1959 2209 
L 2766 2209 
L 2766 2266 
Q 2766 2663 2505 2880 
Q 2244 3097 1772 3097 
Q 1472 3097 1187 3025 
Q 903 2953 641 2809 
L 641 3341 
Q 956 3463 1253 3523 
Q 1550 3584 1831 3584 
Q 2591 3584 2966 3190 
Q 3341 2797 3341 1997 
z
" transform="scale(0.015625)"/>
      </defs>
      <use xlink:href="#DejaVuSans-73"/>
      <use xlink:href="#DejaVuSans-74" x="52.099609"/>
      <use xlink:href="#DejaVuSans-61" x="91.308594"/>
      <use xlink:href="#DejaVuSans-72" x="152.587891"/>
     </g>
    </g>
    <g id="line2d_42">
     <path d="M 815.08 343.176562 
L 825.08 343.176562 
L 835.08 343.176562 
" style="fill: none; stroke: #ff7f0e; stroke-width: 1.5; stroke-linecap: square"/>
    </g>
    <g id="text_22">
     <!-- fork -->
     <g style="fill: #a9a9a9" transform="translate(843.08 346.676562) scale(0.1 -0.1)">
      <defs>
       <path id="DejaVuSans-66" d="M 2375 4863 
L 2375 4384 
L 1825 4384 
Q 1516 4384 1395 4259 
Q 1275 4134 1275 3809 
L 1275 3500 
L 2222 3500 
L 2222 3053 
L 1275 3053 
L 1275 0 
L 697 0 
L 697 3053 
L 147 3053 
L 147 3500 
L 697 3500 
L 697 3744 
Q 697 4328 969 4595 
Q 1241 4863 1831 4863 
L 2375 4863 
z
" transform="scale(0.015625)"/>
       <path id="DejaVuSans-6b" d="M 581 4863 
L 1159 4863 
L 1159 1991 
L 2875 3500 
L 3609 3500 
L 1753 1863 
L 3688 0 
L 2938 0 
L 1159 1709 
L 1159 0 
L 581 0 
L 581 4863 
z
" transform="scale(0.015625)"/>
      </defs>
      <use xlink:href="#DejaVuSans-66"/>
      <use xlink:href="#DejaVuSans-6f" x="35.205078"/>
      <use xlink:href="#DejaVuSans-72" x="96.386719"/>
      <use xlink:href="#DejaVuSans-6b" x="137.5"/>
     </g>
    </g>
   </g>
  </g>
 </g>
 <defs>
  <clipPath id="pc98ffaa308">
   <rect x="108" y="43.2" width="669.6" height="277.2"/>
  </clipPath>
 </defs>
</svg>
