<?xml version="1.0" encoding="utf-8" standalone="no"?>
<!DOCTYPE svg PUBLIC "-//W3C//DTD SVG 1.1//EN"
  "http://www.w3.org/Graphics/SVG/1.1/DTD/svg11.dtd">
<svg xmlns:xlink="http://www.w3.org/1999/xlink" width="864pt" height="360pt" viewBox="0 0 864 360" xmlns="http://www.w3.org/2000/svg" version="1.1">
 <metadata>
  <rdf:RDF xmlns:dc="http://purl.org/dc/elements/1.1/" xmlns:cc="http://creativecommons.org/ns#" xmlns:rdf="http://www.w3.org/1999/02/22-rdf-syntax-ns#">
   <cc:Work>
    <dc:type rdf:resource="http://purl.org/dc/dcmitype/StillImage"/>
    <dc:date>2023-08-29T20:19:56.654419</dc:date>
    <dc:format>image/svg+xml</dc:format>
    <dc:creator>
     <cc:Agent>
      <dc:title>Matplotlib v3.7.2, https://matplotlib.org/</dc:title>
     </cc:Agent>
    </dc:creator>
   </cc:Work>
  </rdf:RDF>
 </metadata>
 <defs>
  <style type="text/css">*{stroke-linejoin: round; stroke-linecap: butt}</style>
 </defs>
 <g id="figure_1">
  <g id="patch_1">
   <path d="M 0 360 
L 864 360 
L 864 0 
L 0 0 
L 0 360 
z
" style="fill: none; opacity: 0"/>
  </g>
  <g id="axes_1">
   <g id="patch_2">
    <path d="M 108 320.4 
L 777.6 320.4 
L 777.6 43.2 
L 108 43.2 
L 108 320.4 
z
" style="fill: none; opacity: 0"/>
   </g>
   <g id="matplotlib.axis_1">
    <g id="xtick_1">
     <g id="line2d_1">
      <path d="M 120.158652 320.4 
L 120.158652 43.2 
" clip-path="url(#p24c5da4c21)" style="fill: none; stroke-dasharray: 5.12,1.28,0.8,1.28; stroke-dashoffset: 0; stroke: #b0b0b0; stroke-width: 0.8"/>
     </g>
     <g id="line2d_2">
      <defs>
       <path id="m768be0254c" d="M 0 0 
L 0 3.5 
" style="stroke: #a9a9a9; stroke-width: 0.8"/>
      </defs>
      <g>
       <use xlink:href="#m768be0254c" x="120.158652" y="320.4" style="fill: #a9a9a9; stroke: #a9a9a9; stroke-width: 0.8"/>
      </g>
     </g>
     <g id="text_1">
      <!-- 2021-07 -->
      <g style="fill: #a9a9a9" transform="translate(99.267246 334.998438) scale(0.1 -0.1)">
       <defs>
        <path id="DejaVuSans-32" d="M 1228 531 
L 3431 531 
L 3431 0 
L 469 0 
L 469 531 
Q 828 903 1448 1529 
Q 2069 2156 2228 2338 
Q 2531 2678 2651 2914 
Q 2772 3150 2772 3378 
Q 2772 3750 2511 3984 
Q 2250 4219 1831 4219 
Q 1534 4219 1204 4116 
Q 875 4013 500 3803 
L 500 4441 
Q 881 4594 1212 4672 
Q 1544 4750 1819 4750 
Q 2544 4750 2975 4387 
Q 3406 4025 3406 3419 
Q 3406 3131 3298 2873 
Q 3191 2616 2906 2266 
Q 2828 2175 2409 1742 
Q 1991 1309 1228 531 
z
" transform="scale(0.015625)"/>
        <path id="DejaVuSans-30" d="M 2034 4250 
Q 1547 4250 1301 3770 
Q 1056 3291 1056 2328 
Q 1056 1369 1301 889 
Q 1547 409 2034 409 
Q 2525 409 2770 889 
Q 3016 1369 3016 2328 
Q 3016 3291 2770 3770 
Q 2525 4250 2034 4250 
z
M 2034 4750 
Q 2819 4750 3233 4129 
Q 3647 3509 3647 2328 
Q 3647 1150 3233 529 
Q 2819 -91 2034 -91 
Q 1250 -91 836 529 
Q 422 1150 422 2328 
Q 422 3509 836 4129 
Q 1250 4750 2034 4750 
z
" transform="scale(0.015625)"/>
        <path id="DejaVuSans-31" d="M 794 531 
L 1825 531 
L 1825 4091 
L 703 3866 
L 703 4441 
L 1819 4666 
L 2450 4666 
L 2450 531 
L 3481 531 
L 3481 0 
L 794 0 
L 794 531 
z
" transform="scale(0.015625)"/>
        <path id="DejaVuSans-2d" d="M 313 2009 
L 1997 2009 
L 1997 1497 
L 313 1497 
L 313 2009 
z
" transform="scale(0.015625)"/>
        <path id="DejaVuSans-37" d="M 525 4666 
L 3525 4666 
L 3525 4397 
L 1831 0 
L 1172 0 
L 2766 4134 
L 525 4134 
L 525 4666 
z
" transform="scale(0.015625)"/>
       </defs>
       <use xlink:href="#DejaVuSans-32"/>
       <use xlink:href="#DejaVuSans-30" x="63.623047"/>
       <use xlink:href="#DejaVuSans-32" x="127.246094"/>
       <use xlink:href="#DejaVuSans-31" x="190.869141"/>
       <use xlink:href="#DejaVuSans-2d" x="254.492188"/>
       <use xlink:href="#DejaVuSans-30" x="290.576172"/>
       <use xlink:href="#DejaVuSans-37" x="354.199219"/>
      </g>
     </g>
    </g>
    <g id="xtick_2">
     <g id="line2d_3">
      <path d="M 193.269499 320.4 
L 193.269499 43.2 
" clip-path="url(#p24c5da4c21)" style="fill: none; stroke-dasharray: 5.12,1.28,0.8,1.28; stroke-dashoffset: 0; stroke: #b0b0b0; stroke-width: 0.8"/>
     </g>
     <g id="line2d_4">
      <g>
       <use xlink:href="#m768be0254c" x="193.269499" y="320.4" style="fill: #a9a9a9; stroke: #a9a9a9; stroke-width: 0.8"/>
      </g>
     </g>
     <g id="text_2">
      <!-- 2021-10 -->
      <g style="fill: #a9a9a9" transform="translate(172.378093 334.998438) scale(0.1 -0.1)">
       <use xlink:href="#DejaVuSans-32"/>
       <use xlink:href="#DejaVuSans-30" x="63.623047"/>
       <use xlink:href="#DejaVuSans-32" x="127.246094"/>
       <use xlink:href="#DejaVuSans-31" x="190.869141"/>
       <use xlink:href="#DejaVuSans-2d" x="254.492188"/>
       <use xlink:href="#DejaVuSans-31" x="290.576172"/>
       <use xlink:href="#DejaVuSans-30" x="354.199219"/>
      </g>
     </g>
    </g>
    <g id="xtick_3">
     <g id="line2d_5">
      <path d="M 266.380347 320.4 
L 266.380347 43.2 
" clip-path="url(#p24c5da4c21)" style="fill: none; stroke-dasharray: 5.12,1.28,0.8,1.28; stroke-dashoffset: 0; stroke: #b0b0b0; stroke-width: 0.8"/>
     </g>
     <g id="line2d_6">
      <g>
       <use xlink:href="#m768be0254c" x="266.380347" y="320.4" style="fill: #a9a9a9; stroke: #a9a9a9; stroke-width: 0.8"/>
      </g>
     </g>
     <g id="text_3">
      <!-- 2022-01 -->
      <g style="fill: #a9a9a9" transform="translate(245.48894 334.998438) scale(0.1 -0.1)">
       <use xlink:href="#DejaVuSans-32"/>
       <use xlink:href="#DejaVuSans-30" x="63.623047"/>
       <use xlink:href="#DejaVuSans-32" x="127.246094"/>
       <use xlink:href="#DejaVuSans-32" x="190.869141"/>
       <use xlink:href="#DejaVuSans-2d" x="254.492188"/>
       <use xlink:href="#DejaVuSans-30" x="290.576172"/>
       <use xlink:href="#DejaVuSans-31" x="354.199219"/>
      </g>
     </g>
    </g>
    <g id="xtick_4">
     <g id="line2d_7">
      <path d="M 337.901828 320.4 
L 337.901828 43.2 
" clip-path="url(#p24c5da4c21)" style="fill: none; stroke-dasharray: 5.12,1.28,0.8,1.28; stroke-dashoffset: 0; stroke: #b0b0b0; stroke-width: 0.8"/>
     </g>
     <g id="line2d_8">
      <g>
       <use xlink:href="#m768be0254c" x="337.901828" y="320.4" style="fill: #a9a9a9; stroke: #a9a9a9; stroke-width: 0.8"/>
      </g>
     </g>
     <g id="text_4">
      <!-- 2022-04 -->
      <g style="fill: #a9a9a9" transform="translate(317.010421 334.998438) scale(0.1 -0.1)">
       <defs>
        <path id="DejaVuSans-34" d="M 2419 4116 
L 825 1625 
L 2419 1625 
L 2419 4116 
z
M 2253 4666 
L 3047 4666 
L 3047 1625 
L 3713 1625 
L 3713 1100 
L 3047 1100 
L 3047 0 
L 2419 0 
L 2419 1100 
L 313 1100 
L 313 1709 
L 2253 4666 
z
" transform="scale(0.015625)"/>
       </defs>
       <use xlink:href="#DejaVuSans-32"/>
       <use xlink:href="#DejaVuSans-30" x="63.623047"/>
       <use xlink:href="#DejaVuSans-32" x="127.246094"/>
       <use xlink:href="#DejaVuSans-32" x="190.869141"/>
       <use xlink:href="#DejaVuSans-2d" x="254.492188"/>
       <use xlink:href="#DejaVuSans-30" x="290.576172"/>
       <use xlink:href="#DejaVuSans-34" x="354.199219"/>
      </g>
     </g>
    </g>
    <g id="xtick_5">
     <g id="line2d_9">
      <path d="M 410.217992 320.4 
L 410.217992 43.2 
" clip-path="url(#p24c5da4c21)" style="fill: none; stroke-dasharray: 5.12,1.28,0.8,1.28; stroke-dashoffset: 0; stroke: #b0b0b0; stroke-width: 0.8"/>
     </g>
     <g id="line2d_10">
      <g>
       <use xlink:href="#m768be0254c" x="410.217992" y="320.4" style="fill: #a9a9a9; stroke: #a9a9a9; stroke-width: 0.8"/>
      </g>
     </g>
     <g id="text_5">
      <!-- 2022-07 -->
      <g style="fill: #a9a9a9" transform="translate(389.326586 334.998438) scale(0.1 -0.1)">
       <use xlink:href="#DejaVuSans-32"/>
       <use xlink:href="#DejaVuSans-30" x="63.623047"/>
       <use xlink:href="#DejaVuSans-32" x="127.246094"/>
       <use xlink:href="#DejaVuSans-32" x="190.869141"/>
       <use xlink:href="#DejaVuSans-2d" x="254.492188"/>
       <use xlink:href="#DejaVuSans-30" x="290.576172"/>
       <use xlink:href="#DejaVuSans-37" x="354.199219"/>
      </g>
     </g>
    </g>
    <g id="xtick_6">
     <g id="line2d_11">
      <path d="M 483.328839 320.4 
L 483.328839 43.2 
" clip-path="url(#p24c5da4c21)" style="fill: none; stroke-dasharray: 5.12,1.28,0.8,1.28; stroke-dashoffset: 0; stroke: #b0b0b0; stroke-width: 0.8"/>
     </g>
     <g id="line2d_12">
      <g>
       <use xlink:href="#m768be0254c" x="483.328839" y="320.4" style="fill: #a9a9a9; stroke: #a9a9a9; stroke-width: 0.8"/>
      </g>
     </g>
     <g id="text_6">
      <!-- 2022-10 -->
      <g style="fill: #a9a9a9" transform="translate(462.437433 334.998438) scale(0.1 -0.1)">
       <use xlink:href="#DejaVuSans-32"/>
       <use xlink:href="#DejaVuSans-30" x="63.623047"/>
       <use xlink:href="#DejaVuSans-32" x="127.246094"/>
       <use xlink:href="#DejaVuSans-32" x="190.869141"/>
       <use xlink:href="#DejaVuSans-2d" x="254.492188"/>
       <use xlink:href="#DejaVuSans-31" x="290.576172"/>
       <use xlink:href="#DejaVuSans-30" x="354.199219"/>
      </g>
     </g>
    </g>
    <g id="xtick_7">
     <g id="line2d_13">
      <path d="M 556.439687 320.4 
L 556.439687 43.2 
" clip-path="url(#p24c5da4c21)" style="fill: none; stroke-dasharray: 5.12,1.28,0.8,1.28; stroke-dashoffset: 0; stroke: #b0b0b0; stroke-width: 0.8"/>
     </g>
     <g id="line2d_14">
      <g>
       <use xlink:href="#m768be0254c" x="556.439687" y="320.4" style="fill: #a9a9a9; stroke: #a9a9a9; stroke-width: 0.8"/>
      </g>
     </g>
     <g id="text_7">
      <!-- 2023-01 -->
      <g style="fill: #a9a9a9" transform="translate(535.54828 334.998438) scale(0.1 -0.1)">
       <defs>
        <path id="DejaVuSans-33" d="M 2597 2516 
Q 3050 2419 3304 2112 
Q 3559 1806 3559 1356 
Q 3559 666 3084 287 
Q 2609 -91 1734 -91 
Q 1441 -91 1130 -33 
Q 819 25 488 141 
L 488 750 
Q 750 597 1062 519 
Q 1375 441 1716 441 
Q 2309 441 2620 675 
Q 2931 909 2931 1356 
Q 2931 1769 2642 2001 
Q 2353 2234 1838 2234 
L 1294 2234 
L 1294 2753 
L 1863 2753 
Q 2328 2753 2575 2939 
Q 2822 3125 2822 3475 
Q 2822 3834 2567 4026 
Q 2313 4219 1838 4219 
Q 1578 4219 1281 4162 
Q 984 4106 628 3988 
L 628 4550 
Q 988 4650 1302 4700 
Q 1616 4750 1894 4750 
Q 2613 4750 3031 4423 
Q 3450 4097 3450 3541 
Q 3450 3153 3228 2886 
Q 3006 2619 2597 2516 
z
" transform="scale(0.015625)"/>
       </defs>
       <use xlink:href="#DejaVuSans-32"/>
       <use xlink:href="#DejaVuSans-30" x="63.623047"/>
       <use xlink:href="#DejaVuSans-32" x="127.246094"/>
       <use xlink:href="#DejaVuSans-33" x="190.869141"/>
       <use xlink:href="#DejaVuSans-2d" x="254.492188"/>
       <use xlink:href="#DejaVuSans-30" x="290.576172"/>
       <use xlink:href="#DejaVuSans-31" x="354.199219"/>
      </g>
     </g>
    </g>
    <g id="xtick_8">
     <g id="line2d_15">
      <path d="M 627.961168 320.4 
L 627.961168 43.2 
" clip-path="url(#p24c5da4c21)" style="fill: none; stroke-dasharray: 5.12,1.28,0.8,1.28; stroke-dashoffset: 0; stroke: #b0b0b0; stroke-width: 0.8"/>
     </g>
     <g id="line2d_16">
      <g>
       <use xlink:href="#m768be0254c" x="627.961168" y="320.4" style="fill: #a9a9a9; stroke: #a9a9a9; stroke-width: 0.8"/>
      </g>
     </g>
     <g id="text_8">
      <!-- 2023-04 -->
      <g style="fill: #a9a9a9" transform="translate(607.069762 334.998438) scale(0.1 -0.1)">
       <use xlink:href="#DejaVuSans-32"/>
       <use xlink:href="#DejaVuSans-30" x="63.623047"/>
       <use xlink:href="#DejaVuSans-32" x="127.246094"/>
       <use xlink:href="#DejaVuSans-33" x="190.869141"/>
       <use xlink:href="#DejaVuSans-2d" x="254.492188"/>
       <use xlink:href="#DejaVuSans-30" x="290.576172"/>
       <use xlink:href="#DejaVuSans-34" x="354.199219"/>
      </g>
     </g>
    </g>
    <g id="xtick_9">
     <g id="line2d_17">
      <path d="M 700.277332 320.4 
L 700.277332 43.2 
" clip-path="url(#p24c5da4c21)" style="fill: none; stroke-dasharray: 5.12,1.28,0.8,1.28; stroke-dashoffset: 0; stroke: #b0b0b0; stroke-width: 0.8"/>
     </g>
     <g id="line2d_18">
      <g>
       <use xlink:href="#m768be0254c" x="700.277332" y="320.4" style="fill: #a9a9a9; stroke: #a9a9a9; stroke-width: 0.8"/>
      </g>
     </g>
     <g id="text_9">
      <!-- 2023-07 -->
      <g style="fill: #a9a9a9" transform="translate(679.385926 334.998438) scale(0.1 -0.1)">
       <use xlink:href="#DejaVuSans-32"/>
       <use xlink:href="#DejaVuSans-30" x="63.623047"/>
       <use xlink:href="#DejaVuSans-32" x="127.246094"/>
       <use xlink:href="#DejaVuSans-33" x="190.869141"/>
       <use xlink:href="#DejaVuSans-2d" x="254.492188"/>
       <use xlink:href="#DejaVuSans-30" x="290.576172"/>
       <use xlink:href="#DejaVuSans-37" x="354.199219"/>
      </g>
     </g>
    </g>
    <g id="xtick_10">
     <g id="line2d_19">
      <path d="M 773.388179 320.4 
L 773.388179 43.2 
" clip-path="url(#p24c5da4c21)" style="fill: none; stroke-dasharray: 5.12,1.28,0.8,1.28; stroke-dashoffset: 0; stroke: #b0b0b0; stroke-width: 0.8"/>
     </g>
     <g id="line2d_20">
      <g>
       <use xlink:href="#m768be0254c" x="773.388179" y="320.4" style="fill: #a9a9a9; stroke: #a9a9a9; stroke-width: 0.8"/>
      </g>
     </g>
     <g id="text_10">
      <!-- 2023-10 -->
      <g style="fill: #a9a9a9" transform="translate(752.496773 334.998438) scale(0.1 -0.1)">
       <use xlink:href="#DejaVuSans-32"/>
       <use xlink:href="#DejaVuSans-30" x="63.623047"/>
       <use xlink:href="#DejaVuSans-32" x="127.246094"/>
       <use xlink:href="#DejaVuSans-33" x="190.869141"/>
       <use xlink:href="#DejaVuSans-2d" x="254.492188"/>
       <use xlink:href="#DejaVuSans-31" x="290.576172"/>
       <use xlink:href="#DejaVuSans-30" x="354.199219"/>
      </g>
     </g>
    </g>
   </g>
   <g id="matplotlib.axis_2">
    <g id="ytick_1">
     <g id="line2d_21">
      <path d="M 108 307.852986 
L 777.6 307.852986 
" clip-path="url(#p24c5da4c21)" style="fill: none; stroke-dasharray: 5.12,1.28,0.8,1.28; stroke-dashoffset: 0; stroke: #b0b0b0; stroke-width: 0.8"/>
     </g>
     <g id="line2d_22">
      <defs>
       <path id="m905c5d40b4" d="M 0 0 
L -3.5 0 
" style="stroke: #a9a9a9; stroke-width: 0.8"/>
      </defs>
      <g>
       <use xlink:href="#m905c5d40b4" x="108" y="307.852986" style="fill: #a9a9a9; stroke: #a9a9a9; stroke-width: 0.8"/>
      </g>
     </g>
     <g id="text_11">
      <!-- 0 -->
      <g style="fill: #a9a9a9" transform="translate(94.6375 311.652204) scale(0.1 -0.1)">
       <use xlink:href="#DejaVuSans-30"/>
      </g>
     </g>
    </g>
    <g id="ytick_2">
     <g id="line2d_23">
      <path d="M 108 276.061564 
L 777.6 276.061564 
" clip-path="url(#p24c5da4c21)" style="fill: none; stroke-dasharray: 5.12,1.28,0.8,1.28; stroke-dashoffset: 0; stroke: #b0b0b0; stroke-width: 0.8"/>
     </g>
     <g id="line2d_24">
      <g>
       <use xlink:href="#m905c5d40b4" x="108" y="276.061564" style="fill: #a9a9a9; stroke: #a9a9a9; stroke-width: 0.8"/>
      </g>
     </g>
     <g id="text_12">
      <!-- 600 -->
      <g style="fill: #a9a9a9" transform="translate(81.9125 279.860783) scale(0.1 -0.1)">
       <defs>
        <path id="DejaVuSans-36" d="M 2113 2584 
Q 1688 2584 1439 2293 
Q 1191 2003 1191 1497 
Q 1191 994 1439 701 
Q 1688 409 2113 409 
Q 2538 409 2786 701 
Q 3034 994 3034 1497 
Q 3034 2003 2786 2293 
Q 2538 2584 2113 2584 
z
M 3366 4563 
L 3366 3988 
Q 3128 4100 2886 4159 
Q 2644 4219 2406 4219 
Q 1781 4219 1451 3797 
Q 1122 3375 1075 2522 
Q 1259 2794 1537 2939 
Q 1816 3084 2150 3084 
Q 2853 3084 3261 2657 
Q 3669 2231 3669 1497 
Q 3669 778 3244 343 
Q 2819 -91 2113 -91 
Q 1303 -91 875 529 
Q 447 1150 447 2328 
Q 447 3434 972 4092 
Q 1497 4750 2381 4750 
Q 2619 4750 2861 4703 
Q 3103 4656 3366 4563 
z
" transform="scale(0.015625)"/>
       </defs>
       <use xlink:href="#DejaVuSans-36"/>
       <use xlink:href="#DejaVuSans-30" x="63.623047"/>
       <use xlink:href="#DejaVuSans-30" x="127.246094"/>
      </g>
     </g>
    </g>
    <g id="ytick_3">
     <g id="line2d_25">
      <path d="M 108 244.270143 
L 777.6 244.270143 
" clip-path="url(#p24c5da4c21)" style="fill: none; stroke-dasharray: 5.12,1.28,0.8,1.28; stroke-dashoffset: 0; stroke: #b0b0b0; stroke-width: 0.8"/>
     </g>
     <g id="line2d_26">
      <g>
       <use xlink:href="#m905c5d40b4" x="108" y="244.270143" style="fill: #a9a9a9; stroke: #a9a9a9; stroke-width: 0.8"/>
      </g>
     </g>
     <g id="text_13">
      <!-- 1200 -->
      <g style="fill: #a9a9a9" transform="translate(75.55 248.069362) scale(0.1 -0.1)">
       <use xlink:href="#DejaVuSans-31"/>
       <use xlink:href="#DejaVuSans-32" x="63.623047"/>
       <use xlink:href="#DejaVuSans-30" x="127.246094"/>
       <use xlink:href="#DejaVuSans-30" x="190.869141"/>
      </g>
     </g>
    </g>
    <g id="ytick_4">
     <g id="line2d_27">
      <path d="M 108 212.478722 
L 777.6 212.478722 
" clip-path="url(#p24c5da4c21)" style="fill: none; stroke-dasharray: 5.12,1.28,0.8,1.28; stroke-dashoffset: 0; stroke: #b0b0b0; stroke-width: 0.8"/>
     </g>
     <g id="line2d_28">
      <g>
       <use xlink:href="#m905c5d40b4" x="108" y="212.478722" style="fill: #a9a9a9; stroke: #a9a9a9; stroke-width: 0.8"/>
      </g>
     </g>
     <g id="text_14">
      <!-- 1800 -->
      <g style="fill: #a9a9a9" transform="translate(75.55 216.27794) scale(0.1 -0.1)">
       <defs>
        <path id="DejaVuSans-38" d="M 2034 2216 
Q 1584 2216 1326 1975 
Q 1069 1734 1069 1313 
Q 1069 891 1326 650 
Q 1584 409 2034 409 
Q 2484 409 2743 651 
Q 3003 894 3003 1313 
Q 3003 1734 2745 1975 
Q 2488 2216 2034 2216 
z
M 1403 2484 
Q 997 2584 770 2862 
Q 544 3141 544 3541 
Q 544 4100 942 4425 
Q 1341 4750 2034 4750 
Q 2731 4750 3128 4425 
Q 3525 4100 3525 3541 
Q 3525 3141 3298 2862 
Q 3072 2584 2669 2484 
Q 3125 2378 3379 2068 
Q 3634 1759 3634 1313 
Q 3634 634 3220 271 
Q 2806 -91 2034 -91 
Q 1263 -91 848 271 
Q 434 634 434 1313 
Q 434 1759 690 2068 
Q 947 2378 1403 2484 
z
M 1172 3481 
Q 1172 3119 1398 2916 
Q 1625 2713 2034 2713 
Q 2441 2713 2670 2916 
Q 2900 3119 2900 3481 
Q 2900 3844 2670 4047 
Q 2441 4250 2034 4250 
Q 1625 4250 1398 4047 
Q 1172 3844 1172 3481 
z
" transform="scale(0.015625)"/>
       </defs>
       <use xlink:href="#DejaVuSans-31"/>
       <use xlink:href="#DejaVuSans-38" x="63.623047"/>
       <use xlink:href="#DejaVuSans-30" x="127.246094"/>
       <use xlink:href="#DejaVuSans-30" x="190.869141"/>
      </g>
     </g>
    </g>
    <g id="ytick_5">
     <g id="line2d_29">
      <path d="M 108 180.6873 
L 777.6 180.6873 
" clip-path="url(#p24c5da4c21)" style="fill: none; stroke-dasharray: 5.12,1.28,0.8,1.28; stroke-dashoffset: 0; stroke: #b0b0b0; stroke-width: 0.8"/>
     </g>
     <g id="line2d_30">
      <g>
       <use xlink:href="#m905c5d40b4" x="108" y="180.6873" style="fill: #a9a9a9; stroke: #a9a9a9; stroke-width: 0.8"/>
      </g>
     </g>
     <g id="text_15">
      <!-- 2400 -->
      <g style="fill: #a9a9a9" transform="translate(75.55 184.486519) scale(0.1 -0.1)">
       <use xlink:href="#DejaVuSans-32"/>
       <use xlink:href="#DejaVuSans-34" x="63.623047"/>
       <use xlink:href="#DejaVuSans-30" x="127.246094"/>
       <use xlink:href="#DejaVuSans-30" x="190.869141"/>
      </g>
     </g>
    </g>
    <g id="ytick_6">
     <g id="line2d_31">
      <path d="M 108 148.895879 
L 777.6 148.895879 
" clip-path="url(#p24c5da4c21)" style="fill: none; stroke-dasharray: 5.12,1.28,0.8,1.28; stroke-dashoffset: 0; stroke: #b0b0b0; stroke-width: 0.8"/>
     </g>
     <g id="line2d_32">
      <g>
       <use xlink:href="#m905c5d40b4" x="108" y="148.895879" style="fill: #a9a9a9; stroke: #a9a9a9; stroke-width: 0.8"/>
      </g>
     </g>
     <g id="text_16">
      <!-- 3000 -->
      <g style="fill: #a9a9a9" transform="translate(75.55 152.695098) scale(0.1 -0.1)">
       <use xlink:href="#DejaVuSans-33"/>
       <use xlink:href="#DejaVuSans-30" x="63.623047"/>
       <use xlink:href="#DejaVuSans-30" x="127.246094"/>
       <use xlink:href="#DejaVuSans-30" x="190.869141"/>
      </g>
     </g>
    </g>
    <g id="ytick_7">
     <g id="line2d_33">
      <path d="M 108 117.104458 
L 777.6 117.104458 
" clip-path="url(#p24c5da4c21)" style="fill: none; stroke-dasharray: 5.12,1.28,0.8,1.28; stroke-dashoffset: 0; stroke: #b0b0b0; stroke-width: 0.8"/>
     </g>
     <g id="line2d_34">
      <g>
       <use xlink:href="#m905c5d40b4" x="108" y="117.104458" style="fill: #a9a9a9; stroke: #a9a9a9; stroke-width: 0.8"/>
      </g>
     </g>
     <g id="text_17">
      <!-- 3600 -->
      <g style="fill: #a9a9a9" transform="translate(75.55 120.903676) scale(0.1 -0.1)">
       <use xlink:href="#DejaVuSans-33"/>
       <use xlink:href="#DejaVuSans-36" x="63.623047"/>
       <use xlink:href="#DejaVuSans-30" x="127.246094"/>
       <use xlink:href="#DejaVuSans-30" x="190.869141"/>
      </g>
     </g>
    </g>
    <g id="ytick_8">
     <g id="line2d_35">
      <path d="M 108 85.313036 
L 777.6 85.313036 
" clip-path="url(#p24c5da4c21)" style="fill: none; stroke-dasharray: 5.12,1.28,0.8,1.28; stroke-dashoffset: 0; stroke: #b0b0b0; stroke-width: 0.8"/>
     </g>
     <g id="line2d_36">
      <g>
       <use xlink:href="#m905c5d40b4" x="108" y="85.313036" style="fill: #a9a9a9; stroke: #a9a9a9; stroke-width: 0.8"/>
      </g>
     </g>
     <g id="text_18">
      <!-- 4200 -->
      <g style="fill: #a9a9a9" transform="translate(75.55 89.112255) scale(0.1 -0.1)">
       <use xlink:href="#DejaVuSans-34"/>
       <use xlink:href="#DejaVuSans-32" x="63.623047"/>
       <use xlink:href="#DejaVuSans-30" x="127.246094"/>
       <use xlink:href="#DejaVuSans-30" x="190.869141"/>
      </g>
     </g>
    </g>
    <g id="ytick_9">
     <g id="line2d_37">
      <path d="M 108 53.521615 
L 777.6 53.521615 
" clip-path="url(#p24c5da4c21)" style="fill: none; stroke-dasharray: 5.12,1.28,0.8,1.28; stroke-dashoffset: 0; stroke: #b0b0b0; stroke-width: 0.8"/>
     </g>
     <g id="line2d_38">
      <g>
       <use xlink:href="#m905c5d40b4" x="108" y="53.521615" style="fill: #a9a9a9; stroke: #a9a9a9; stroke-width: 0.8"/>
      </g>
     </g>
     <g id="text_19">
      <!-- 4800 -->
      <g style="fill: #a9a9a9" transform="translate(75.55 57.320834) scale(0.1 -0.1)">
       <use xlink:href="#DejaVuSans-34"/>
       <use xlink:href="#DejaVuSans-38" x="63.623047"/>
       <use xlink:href="#DejaVuSans-30" x="127.246094"/>
       <use xlink:href="#DejaVuSans-30" x="190.869141"/>
      </g>
     </g>
    </g>
   </g>
   <g id="line2d_39">
    <path d="M 138.436364 307.694029 
L 143.204462 307.323129 
L 143.999146 307.005214 
L 146.383195 306.740286 
L 151.945977 305.733558 
L 155.919392 305.362658 
L 156.714075 304.991758 
L 157.508759 304.779815 
L 158.303442 303.826072 
L 159.098125 303.296215 
L 159.892808 301.600673 
L 160.687491 301.494701 
L 161.482174 300.911859 
L 163.07154 300.170059 
L 164.660907 299.004373 
L 165.45559 298.262574 
L 167.044956 297.520774 
L 167.839639 297.20286 
L 168.634322 296.620017 
L 171.813055 295.295374 
L 172.607738 294.076703 
L 173.402421 293.440875 
L 174.991787 292.593103 
L 182.938619 291.480404 
L 183.733302 291.109504 
L 189.296084 290.685618 
L 190.88545 290.261733 
L 192.474816 289.943818 
L 198.832281 289.149033 
L 199.626964 288.725147 
L 200.421647 288.619176 
L 201.21633 288.301262 
L 202.805697 288.036333 
L 203.60038 287.983347 
L 204.395063 287.718419 
L 207.573795 287.241548 
L 209.163162 286.817662 
L 211.547211 286.605719 
L 213.136577 286.446762 
L 213.93126 286.234819 
L 214.725944 286.181833 
L 217.109993 285.493019 
L 221.878092 284.804205 
L 222.672775 284.539277 
L 223.467458 283.479563 
L 225.851507 282.631791 
L 228.235557 281.995963 
L 229.03024 281.625063 
L 229.824923 281.572077 
L 233.798338 280.512363 
L 235.387705 280.406392 
L 236.182388 280.300421 
L 238.566437 279.611606 
L 241.74517 278.869807 
L 242.539853 278.551892 
L 243.334536 278.445921 
L 244.129219 278.075021 
L 252.07605 276.909336 
L 256.049466 275.796636 
L 256.844149 275.319765 
L 260.022882 274.471993 
L 261.612248 273.571236 
L 262.406931 273.041379 
L 263.201614 272.935408 
L 263.996297 272.670479 
L 266.380347 272.246594 
L 267.17503 271.875694 
L 268.764396 271.610765 
L 270.353762 270.868966 
L 274.327178 269.915223 
L 276.711227 269.33238 
L 277.50591 269.014466 
L 278.300593 268.855509 
L 279.095277 268.537595 
L 279.88996 268.431623 
L 280.684643 268.060723 
L 281.479326 267.84878 
L 283.068692 267.742809 
L 284.658058 267.212952 
L 286.247425 267.106981 
L 287.042108 266.736081 
L 290.22084 266.206224 
L 293.399573 265.941295 
L 294.194256 265.782338 
L 295.783622 265.040538 
L 304.525136 261.490496 
L 305.31982 261.066611 
L 306.114503 260.218839 
L 306.909186 258.947183 
L 307.703869 257.940454 
L 308.498552 257.728511 
L 309.293235 257.728511 
L 310.882601 256.562826 
L 311.677285 256.350883 
L 312.471968 255.926997 
L 313.266651 255.76804 
L 314.061334 255.079226 
L 314.856017 254.867283 
L 317.240066 253.754584 
L 318.03475 252.800841 
L 318.829433 251.635156 
L 319.624116 251.158284 
L 320.418799 249.886627 
L 321.213482 249.091842 
L 322.008165 248.720942 
L 322.802848 248.508999 
L 324.392215 247.555257 
L 325.186898 247.184357 
L 328.36563 244.852986 
L 329.160313 243.740286 
L 329.954996 241.938772 
L 330.74968 240.773087 
L 331.544363 240.190244 
L 332.339046 239.87233 
L 335.517778 237.223045 
L 336.312461 236.693188 
L 337.901828 235.315559 
L 338.696511 234.20286 
L 339.491194 233.46106 
L 341.08056 232.401346 
L 343.46461 230.811775 
L 344.259293 230.12296 
L 345.053976 229.911018 
L 347.438025 228.692347 
L 349.027391 227.79159 
L 349.822075 227.473675 
L 351.411441 226.043061 
L 352.206124 225.089319 
L 353.79549 224.029605 
L 354.590173 223.817662 
L 355.384856 223.446762 
L 356.17954 222.863919 
L 357.768906 222.016148 
L 358.563589 221.910177 
L 360.152955 221.062405 
L 360.947638 220.63852 
L 361.742321 219.843734 
L 362.537005 219.366863 
L 363.331688 219.101934 
L 364.126371 218.572077 
L 367.305103 216.982506 
L 368.099786 216.293692 
L 371.278519 215.233978 
L 372.073202 214.704121 
L 372.867885 214.545164 
L 374.457251 214.015307 
L 376.841301 213.11455 
L 379.22535 212.266779 
L 380.814716 212.00185 
L 382.404083 210.677208 
L 383.993449 209.935408 
L 386.377498 208.610765 
L 387.966864 208.18688 
L 388.761548 207.710008 
L 389.556231 207.498066 
L 391.94028 206.014466 
L 394.324329 205.484609 
L 396.708379 204.636838 
L 398.297745 203.736081 
L 399.092428 203.630109 
L 399.887111 203.365181 
L 401.476478 203.047267 
L 403.860527 201.351724 
L 406.244576 200.821867 
L 407.039259 200.556939 
L 407.833943 199.974096 
L 412.602041 198.490496 
L 413.396724 198.437511 
L 418.959506 196.530025 
L 419.754189 196.159125 
L 422.138239 195.629268 
L 423.727605 195.258368 
L 424.522288 194.887468 
L 425.316971 194.728511 
L 427.701021 193.668797 
L 430.08507 192.556098 
L 430.879753 192.026241 
L 431.674436 191.814298 
L 434.058486 190.595627 
L 435.647852 190.224727 
L 437.237218 189.429941 
L 438.826584 189.006056 
L 439.621268 188.900084 
L 440.415951 188.370227 
L 441.210634 187.999327 
L 442.005317 187.84037 
L 443.594683 187.204542 
L 444.389366 187.045585 
L 445.184049 186.621699 
L 448.362782 186.144828 
L 449.952148 185.403028 
L 450.746831 184.767199 
L 451.541514 183.389571 
L 453.130881 183.071657 
L 453.925564 182.9127 
L 457.104296 181.323129 
L 457.898979 181.164172 
L 464.256444 178.143987 
L 466.640494 177.667115 
L 468.22986 176.925315 
L 469.024543 176.607401 
L 469.819226 176.50143 
L 472.997959 175.123802 
L 474.587325 174.064087 
L 475.382008 173.693188 
L 476.176691 173.587216 
L 476.971374 173.322288 
L 477.766057 173.269302 
L 480.94479 172.262574 
L 481.739473 172.209588 
L 482.534156 171.626745 
L 484.123522 171.096888 
L 486.507572 170.355088 
L 487.302255 169.878217 
L 488.096938 169.666274 
L 488.891621 169.136417 
L 489.686304 168.818503 
L 490.480987 168.341632 
L 492.070354 167.758789 
L 492.865037 167.546846 
L 493.65972 167.175946 
L 494.454403 166.964003 
L 495.249086 166.593103 
L 496.043769 166.010261 
L 496.838452 165.215475 
L 497.633136 164.685618 
L 498.427819 164.526661 
L 500.017185 163.360976 
L 500.811868 163.202019 
L 501.606551 162.036333 
L 502.401234 161.718419 
L 503.195917 161.135576 
L 503.990601 161.029605 
L 504.785284 160.499748 
L 505.579967 160.128848 
L 506.37465 159.969891 
L 507.169333 159.651976 
L 507.964016 159.016148 
L 508.758699 158.75122 
L 511.142749 157.214634 
L 514.321481 155.678049 
L 515.116164 155.572077 
L 516.705531 154.883263 
L 517.500214 154.406392 
L 518.294897 153.134735 
L 519.08958 152.33995 
L 519.884263 151.916064 
L 520.678946 151.757107 
L 522.268312 150.803364 
L 523.062995 150.644407 
L 524.652362 149.902607 
L 527.036411 148.948865 
L 528.625777 147.889151 
L 530.215144 146.246594 
L 531.80451 145.292851 
L 532.599193 144.81598 
L 533.393876 144.021194 
L 535.777925 142.113709 
L 536.572609 141.742809 
L 537.367292 140.895038 
L 538.161975 140.312195 
L 539.751341 139.782338 
L 540.546024 139.040538 
L 542.13539 138.245753 
L 542.930074 138.03381 
L 543.724757 137.450967 
L 544.51944 137.239024 
L 546.903489 136.020353 
L 547.698172 135.437511 
L 549.287539 134.801682 
L 550.082222 134.642725 
L 550.876905 134.165854 
L 556.439687 132.258368 
L 557.23437 131.569554 
L 560.413102 130.403869 
L 561.207785 130.191926 
L 562.002469 129.609083 
L 564.386518 128.549369 
L 565.181201 127.966526 
L 565.975884 127.542641 
L 567.56525 124.46947 
L 569.154617 122.667956 
L 569.9493 122.138099 
L 572.333349 121.131371 
L 573.128032 120.866442 
L 573.922715 120.760471 
L 574.717399 120.336585 
L 577.101448 119.594786 
L 579.485497 118.641043 
L 581.074864 117.581329 
L 583.458913 116.521615 
L 587.432329 114.296215 
L 588.227012 113.50143 
L 589.816378 112.653659 
L 590.611061 112.229773 
L 591.405744 111.964844 
L 592.200427 111.434987 
L 593.789793 110.693188 
L 594.584477 110.216316 
L 595.37916 109.898402 
L 596.173843 109.421531 
L 596.968526 109.209588 
L 597.763209 108.626745 
L 598.557892 108.308831 
L 599.352575 108.149874 
L 600.941942 107.514045 
L 603.325991 106.666274 
L 604.120674 106.083431 
L 605.71004 105.659546 
L 607.299407 105.076703 
L 608.09409 104.440875 
L 609.683456 103.964003 
L 610.478139 103.593103 
L 611.272822 103.381161 
L 612.862188 102.321447 
L 614.451555 101.632632 
L 616.040921 100.466947 
L 617.630287 99.93709 
L 618.42497 99.248276 
L 619.219653 99.089319 
L 620.014337 98.400505 
L 621.603703 97.499748 
L 623.193069 96.863919 
L 623.987752 96.069134 
L 626.371802 95.327334 
L 627.166485 94.850463 
L 627.961168 94.744491 
L 630.345217 93.578806 
L 633.52395 92.625063 
L 635.113316 92.41312 
L 635.907999 92.095206 
L 636.702682 91.936249 
L 638.292048 91.300421 
L 639.086732 91.247435 
L 641.470781 90.452649 
L 643.060147 89.498907 
L 644.649513 88.439193 
L 649.417612 86.160807 
L 651.801662 84.624222 
L 653.391028 84.253322 
L 654.980394 83.193608 
L 658.159127 82.239865 
L 658.95381 81.921951 
L 660.543176 81.551051 
L 664.516592 80.279394 
L 666.105958 79.96148 
L 667.695324 79.59058 
L 668.490007 79.21968 
L 669.28469 79.113709 
L 670.874056 78.477881 
L 671.66874 78.371909 
L 672.463423 78.001009 
L 674.052789 77.683095 
L 674.847472 77.312195 
L 677.231521 76.782338 
L 678.820888 76.464424 
L 685.973036 75.03381 
L 686.767719 74.715896 
L 687.562402 74.66291 
L 689.946451 74.027082 
L 690.741135 73.603196 
L 692.330501 73.073339 
L 693.125184 73.020353 
L 697.0986 71.854668 
L 701.072015 70.635997 
L 701.866698 70.424054 
L 702.661381 70.053154 
L 703.456065 70.053154 
L 705.045431 69.523297 
L 705.840114 68.728511 
L 706.634797 68.357611 
L 708.224163 67.88074 
L 711.402896 66.715055 
L 712.197579 66.503112 
L 712.992262 66.026241 
L 713.786945 65.867283 
L 714.581628 65.337426 
L 717.760361 64.383684 
L 718.555044 64.118755 
L 719.349727 63.641884 
L 720.14441 63.429941 
L 720.939093 62.794113 
L 723.323143 62.370227 
L 724.912509 61.522456 
L 725.707192 60.621699 
L 727.296558 60.303785 
L 732.064657 59.244071 
L 733.654023 58.820185 
L 735.24339 58.767199 
L 736.038073 58.396299 
L 738.422122 58.025399 
L 739.216805 57.813457 
L 740.011488 57.442557 
L 742.395538 57.124643 
L 743.984904 56.5418 
L 744.779587 56.1709 
L 745.57427 56.117914 
L 747.163636 55.8 
L 747.163636 55.8 
" clip-path="url(#p24c5da4c21)" style="fill: none; stroke: #1f77b4; stroke-width: 1.5; stroke-linecap: square"/>
   </g>
   <g id="line2d_40">
    <path d="M 139.231047 307.8 
L 141.615096 307.694029 
L 143.204462 307.588057 
L 148.767244 307.482086 
L 152.74066 307.323129 
L 155.919392 307.323129 
L 156.714075 307.111186 
L 159.098125 307.0582 
L 163.866224 306.528343 
L 175.78647 305.839529 
L 182.143935 305.733558 
L 186.117351 305.574601 
L 195.653549 305.468629 
L 199.626964 305.309672 
L 204.395063 305.203701 
L 207.573795 305.097729 
L 214.725944 304.991758 
L 217.109993 304.938772 
L 219.494042 304.885786 
L 221.878092 304.620858 
L 226.64619 304.567872 
L 228.235557 304.461901 
L 233.798338 304.355929 
L 242.539853 303.879058 
L 248.102635 303.773087 
L 249.692001 303.667115 
L 252.07605 303.561144 
L 256.844149 303.349201 
L 260.022882 303.296215 
L 262.406931 303.084272 
L 275.916544 302.289487 
L 278.300593 302.183516 
L 283.863375 301.918587 
L 286.247425 301.812616 
L 294.194256 301.38873 
L 302.93577 301.282759 
L 306.114503 300.964844 
L 307.703869 300.858873 
L 316.445383 300.223045 
L 317.240066 300.011102 
L 319.624116 299.799159 
L 321.213482 299.428259 
L 323.597531 299.375273 
L 325.981581 299.269302 
L 332.339046 298.474516 
L 336.312461 298.368545 
L 346.643342 297.573759 
L 351.411441 297.043902 
L 353.79549 296.990917 
L 355.384856 296.884945 
L 358.563589 296.778974 
L 360.152955 296.673003 
L 364.126371 296.302103 
L 364.921054 296.09016 
L 369.689153 295.878217 
L 373.662568 295.772246 
L 384.788132 295.136417 
L 386.377498 295.030446 
L 396.708379 294.447603 
L 402.271161 294.341632 
L 403.065844 294.182675 
L 409.423309 294.076703 
L 414.986091 293.811775 
L 423.727605 293.705803 
L 429.290387 293.440875 
L 435.647852 293.334903 
L 442.8 292.964003 
L 447.568099 292.858032 
L 462.667078 291.957275 
L 469.024543 291.851304 
L 472.997959 291.480404 
L 474.587325 291.321447 
L 478.560741 291.268461 
L 481.739473 290.950547 
L 489.686304 290.526661 
L 494.454403 290.42069 
L 496.838452 290.367704 
L 499.222502 290.314718 
L 501.606551 290.102775 
L 507.964016 289.996804 
L 509.553382 289.731876 
L 511.142749 289.625904 
L 514.321481 289.519933 
L 516.705531 289.413961 
L 518.294897 289.30799 
L 525.447045 289.202019 
L 527.036411 289.043061 
L 530.215144 288.93709 
L 531.009827 288.725147 
L 532.599193 288.672161 
L 533.393876 288.513204 
L 535.777925 288.407233 
L 549.287539 287.612447 
L 551.671588 287.506476 
L 555.645004 287.347519 
L 566.770567 287.241548 
L 572.333349 286.976619 
L 578.690814 286.870648 
L 581.869547 286.764676 
L 585.048279 286.71169 
L 586.637645 286.552733 
L 589.816378 286.446762 
L 597.763209 286.022876 
L 602.531308 285.969891 
L 604.915357 285.757948 
L 607.299407 285.704962 
L 612.862188 285.598991 
L 616.040921 285.493019 
L 625.577118 285.387048 
L 629.550534 285.228091 
L 634.318633 285.122119 
L 636.702682 284.857191 
L 641.470781 284.804205 
L 642.265464 284.645248 
L 643.85483 284.539277 
L 647.033563 284.433305 
L 656.56976 284.327334 
L 660.543176 284.168377 
L 674.052789 284.115391 
L 675.642155 284.00942 
L 678.026205 283.956434 
L 688.357085 283.850463 
L 689.946451 283.744491 
L 698.687966 283.63852 
L 701.866698 283.532548 
L 711.402896 283.479563 
L 712.992262 283.373591 
L 724.912509 283.320606 
L 727.296558 283.108663 
L 740.806171 283.002691 
L 743.190221 282.949706 
L 747.163636 282.949706 
L 747.163636 282.949706 
" clip-path="url(#p24c5da4c21)" style="fill: none; stroke: #ff7f0e; stroke-width: 1.5; stroke-linecap: square"/>
   </g>
   <g id="patch_3">
    <path d="M 108 320.4 
L 108 43.2 
" style="fill: none; stroke: #a9a9a9; stroke-width: 0.8; stroke-linejoin: miter; stroke-linecap: square"/>
   </g>
   <g id="patch_4">
    <path d="M 777.6 320.4 
L 777.6 43.2 
" style="fill: none"/>
   </g>
   <g id="patch_5">
    <path d="M 108 320.4 
L 777.6 320.4 
" style="fill: none; stroke: #a9a9a9; stroke-width: 0.8; stroke-linejoin: miter; stroke-linecap: square"/>
   </g>
   <g id="patch_6">
    <path d="M 108 43.2 
L 777.6 43.2 
" style="fill: none"/>
   </g>
   <g id="text_20">
    <!-- get_subscribe history -->
    <g style="fill: #a9a9a9" transform="translate(378.6075 37.2) scale(0.12 -0.12)">
     <defs>
      <path id="DejaVuSans-67" d="M 2906 1791 
Q 2906 2416 2648 2759 
Q 2391 3103 1925 3103 
Q 1463 3103 1205 2759 
Q 947 2416 947 1791 
Q 947 1169 1205 825 
Q 1463 481 1925 481 
Q 2391 481 2648 825 
Q 2906 1169 2906 1791 
z
M 3481 434 
Q 3481 -459 3084 -895 
Q 2688 -1331 1869 -1331 
Q 1566 -1331 1297 -1286 
Q 1028 -1241 775 -1147 
L 775 -588 
Q 1028 -725 1275 -790 
Q 1522 -856 1778 -856 
Q 2344 -856 2625 -561 
Q 2906 -266 2906 331 
L 2906 616 
Q 2728 306 2450 153 
Q 2172 0 1784 0 
Q 1141 0 747 490 
Q 353 981 353 1791 
Q 353 2603 747 3093 
Q 1141 3584 1784 3584 
Q 2172 3584 2450 3431 
Q 2728 3278 2906 2969 
L 2906 3500 
L 3481 3500 
L 3481 434 
z
" transform="scale(0.015625)"/>
      <path id="DejaVuSans-65" d="M 3597 1894 
L 3597 1613 
L 953 1613 
Q 991 1019 1311 708 
Q 1631 397 2203 397 
Q 2534 397 2845 478 
Q 3156 559 3463 722 
L 3463 178 
Q 3153 47 2828 -22 
Q 2503 -91 2169 -91 
Q 1331 -91 842 396 
Q 353 884 353 1716 
Q 353 2575 817 3079 
Q 1281 3584 2069 3584 
Q 2775 3584 3186 3129 
Q 3597 2675 3597 1894 
z
M 3022 2063 
Q 3016 2534 2758 2815 
Q 2500 3097 2075 3097 
Q 1594 3097 1305 2825 
Q 1016 2553 972 2059 
L 3022 2063 
z
" transform="scale(0.015625)"/>
      <path id="DejaVuSans-74" d="M 1172 4494 
L 1172 3500 
L 2356 3500 
L 2356 3053 
L 1172 3053 
L 1172 1153 
Q 1172 725 1289 603 
Q 1406 481 1766 481 
L 2356 481 
L 2356 0 
L 1766 0 
Q 1100 0 847 248 
Q 594 497 594 1153 
L 594 3053 
L 172 3053 
L 172 3500 
L 594 3500 
L 594 4494 
L 1172 4494 
z
" transform="scale(0.015625)"/>
      <path id="DejaVuSans-5f" d="M 3263 -1063 
L 3263 -1509 
L -63 -1509 
L -63 -1063 
L 3263 -1063 
z
" transform="scale(0.015625)"/>
      <path id="DejaVuSans-73" d="M 2834 3397 
L 2834 2853 
Q 2591 2978 2328 3040 
Q 2066 3103 1784 3103 
Q 1356 3103 1142 2972 
Q 928 2841 928 2578 
Q 928 2378 1081 2264 
Q 1234 2150 1697 2047 
L 1894 2003 
Q 2506 1872 2764 1633 
Q 3022 1394 3022 966 
Q 3022 478 2636 193 
Q 2250 -91 1575 -91 
Q 1294 -91 989 -36 
Q 684 19 347 128 
L 347 722 
Q 666 556 975 473 
Q 1284 391 1588 391 
Q 1994 391 2212 530 
Q 2431 669 2431 922 
Q 2431 1156 2273 1281 
Q 2116 1406 1581 1522 
L 1381 1569 
Q 847 1681 609 1914 
Q 372 2147 372 2553 
Q 372 3047 722 3315 
Q 1072 3584 1716 3584 
Q 2034 3584 2315 3537 
Q 2597 3491 2834 3397 
z
" transform="scale(0.015625)"/>
      <path id="DejaVuSans-75" d="M 544 1381 
L 544 3500 
L 1119 3500 
L 1119 1403 
Q 1119 906 1312 657 
Q 1506 409 1894 409 
Q 2359 409 2629 706 
Q 2900 1003 2900 1516 
L 2900 3500 
L 3475 3500 
L 3475 0 
L 2900 0 
L 2900 538 
Q 2691 219 2414 64 
Q 2138 -91 1772 -91 
Q 1169 -91 856 284 
Q 544 659 544 1381 
z
M 1991 3584 
L 1991 3584 
z
" transform="scale(0.015625)"/>
      <path id="DejaVuSans-62" d="M 3116 1747 
Q 3116 2381 2855 2742 
Q 2594 3103 2138 3103 
Q 1681 3103 1420 2742 
Q 1159 2381 1159 1747 
Q 1159 1113 1420 752 
Q 1681 391 2138 391 
Q 2594 391 2855 752 
Q 3116 1113 3116 1747 
z
M 1159 2969 
Q 1341 3281 1617 3432 
Q 1894 3584 2278 3584 
Q 2916 3584 3314 3078 
Q 3713 2572 3713 1747 
Q 3713 922 3314 415 
Q 2916 -91 2278 -91 
Q 1894 -91 1617 61 
Q 1341 213 1159 525 
L 1159 0 
L 581 0 
L 581 4863 
L 1159 4863 
L 1159 2969 
z
" transform="scale(0.015625)"/>
      <path id="DejaVuSans-63" d="M 3122 3366 
L 3122 2828 
Q 2878 2963 2633 3030 
Q 2388 3097 2138 3097 
Q 1578 3097 1268 2742 
Q 959 2388 959 1747 
Q 959 1106 1268 751 
Q 1578 397 2138 397 
Q 2388 397 2633 464 
Q 2878 531 3122 666 
L 3122 134 
Q 2881 22 2623 -34 
Q 2366 -91 2075 -91 
Q 1284 -91 818 406 
Q 353 903 353 1747 
Q 353 2603 823 3093 
Q 1294 3584 2113 3584 
Q 2378 3584 2631 3529 
Q 2884 3475 3122 3366 
z
" transform="scale(0.015625)"/>
      <path id="DejaVuSans-72" d="M 2631 2963 
Q 2534 3019 2420 3045 
Q 2306 3072 2169 3072 
Q 1681 3072 1420 2755 
Q 1159 2438 1159 1844 
L 1159 0 
L 581 0 
L 581 3500 
L 1159 3500 
L 1159 2956 
Q 1341 3275 1631 3429 
Q 1922 3584 2338 3584 
Q 2397 3584 2469 3576 
Q 2541 3569 2628 3553 
L 2631 2963 
z
" transform="scale(0.015625)"/>
      <path id="DejaVuSans-69" d="M 603 3500 
L 1178 3500 
L 1178 0 
L 603 0 
L 603 3500 
z
M 603 4863 
L 1178 4863 
L 1178 4134 
L 603 4134 
L 603 4863 
z
" transform="scale(0.015625)"/>
      <path id="DejaVuSans-20" transform="scale(0.015625)"/>
      <path id="DejaVuSans-68" d="M 3513 2113 
L 3513 0 
L 2938 0 
L 2938 2094 
Q 2938 2591 2744 2837 
Q 2550 3084 2163 3084 
Q 1697 3084 1428 2787 
Q 1159 2491 1159 1978 
L 1159 0 
L 581 0 
L 581 4863 
L 1159 4863 
L 1159 2956 
Q 1366 3272 1645 3428 
Q 1925 3584 2291 3584 
Q 2894 3584 3203 3211 
Q 3513 2838 3513 2113 
z
" transform="scale(0.015625)"/>
      <path id="DejaVuSans-6f" d="M 1959 3097 
Q 1497 3097 1228 2736 
Q 959 2375 959 1747 
Q 959 1119 1226 758 
Q 1494 397 1959 397 
Q 2419 397 2687 759 
Q 2956 1122 2956 1747 
Q 2956 2369 2687 2733 
Q 2419 3097 1959 3097 
z
M 1959 3584 
Q 2709 3584 3137 3096 
Q 3566 2609 3566 1747 
Q 3566 888 3137 398 
Q 2709 -91 1959 -91 
Q 1206 -91 779 398 
Q 353 888 353 1747 
Q 353 2609 779 3096 
Q 1206 3584 1959 3584 
z
" transform="scale(0.015625)"/>
      <path id="DejaVuSans-79" d="M 2059 -325 
Q 1816 -950 1584 -1140 
Q 1353 -1331 966 -1331 
L 506 -1331 
L 506 -850 
L 844 -850 
Q 1081 -850 1212 -737 
Q 1344 -625 1503 -206 
L 1606 56 
L 191 3500 
L 800 3500 
L 1894 763 
L 2988 3500 
L 3597 3500 
L 2059 -325 
z
" transform="scale(0.015625)"/>
     </defs>
     <use xlink:href="#DejaVuSans-67"/>
     <use xlink:href="#DejaVuSans-65" x="63.476562"/>
     <use xlink:href="#DejaVuSans-74" x="125"/>
     <use xlink:href="#DejaVuSans-5f" x="164.208984"/>
     <use xlink:href="#DejaVuSans-73" x="214.208984"/>
     <use xlink:href="#DejaVuSans-75" x="266.308594"/>
     <use xlink:href="#DejaVuSans-62" x="329.6875"/>
     <use xlink:href="#DejaVuSans-73" x="393.164062"/>
     <use xlink:href="#DejaVuSans-63" x="445.263672"/>
     <use xlink:href="#DejaVuSans-72" x="500.244141"/>
     <use xlink:href="#DejaVuSans-69" x="541.357422"/>
     <use xlink:href="#DejaVuSans-62" x="569.140625"/>
     <use xlink:href="#DejaVuSans-65" x="632.617188"/>
     <use xlink:href="#DejaVuSans-20" x="694.140625"/>
     <use xlink:href="#DejaVuSans-68" x="725.927734"/>
     <use xlink:href="#DejaVuSans-69" x="789.306641"/>
     <use xlink:href="#DejaVuSans-73" x="817.089844"/>
     <use xlink:href="#DejaVuSans-74" x="869.189453"/>
     <use xlink:href="#DejaVuSans-6f" x="908.398438"/>
     <use xlink:href="#DejaVuSans-72" x="969.580078"/>
     <use xlink:href="#DejaVuSans-79" x="1010.693359"/>
    </g>
   </g>
   <g id="legend_1">
    <g id="line2d_41">
     <path d="M 815.08 328.498438 
L 825.08 328.498438 
L 835.08 328.498438 
" style="fill: none; stroke: #1f77b4; stroke-width: 1.5; stroke-linecap: square"/>
    </g>
    <g id="text_21">
     <!-- star -->
     <g style="fill: #a9a9a9" transform="translate(843.08 331.998438) scale(0.1 -0.1)">
      <defs>
       <path id="DejaVuSans-61" d="M 2194 1759 
Q 1497 1759 1228 1600 
Q 959 1441 959 1056 
Q 959 750 1161 570 
Q 1363 391 1709 391 
Q 2188 391 2477 730 
Q 2766 1069 2766 1631 
L 2766 1759 
L 2194 1759 
z
M 3341 1997 
L 3341 0 
L 2766 0 
L 2766 531 
Q 2569 213 2275 61 
Q 1981 -91 1556 -91 
Q 1019 -91 701 211 
Q 384 513 384 1019 
Q 384 1609 779 1909 
Q 1175 2209 1959 2209 
L 2766 2209 
L 2766 2266 
Q 2766 2663 2505 2880 
Q 2244 3097 1772 3097 
Q 1472 3097 1187 3025 
Q 903 2953 641 2809 
L 641 3341 
Q 956 3463 1253 3523 
Q 1550 3584 1831 3584 
Q 2591 3584 2966 3190 
Q 3341 2797 3341 1997 
z
" transform="scale(0.015625)"/>
      </defs>
      <use xlink:href="#DejaVuSans-73"/>
      <use xlink:href="#DejaVuSans-74" x="52.099609"/>
      <use xlink:href="#DejaVuSans-61" x="91.308594"/>
      <use xlink:href="#DejaVuSans-72" x="152.587891"/>
     </g>
    </g>
    <g id="line2d_42">
     <path d="M 815.08 343.176562 
L 825.08 343.176562 
L 835.08 343.176562 
" style="fill: none; stroke: #ff7f0e; stroke-width: 1.5; stroke-linecap: square"/>
    </g>
    <g id="text_22">
     <!-- fork -->
     <g style="fill: #a9a9a9" transform="translate(843.08 346.676562) scale(0.1 -0.1)">
      <defs>
       <path id="DejaVuSans-66" d="M 2375 4863 
L 2375 4384 
L 1825 4384 
Q 1516 4384 1395 4259 
Q 1275 4134 1275 3809 
L 1275 3500 
L 2222 3500 
L 2222 3053 
L 1275 3053 
L 1275 0 
L 697 0 
L 697 3053 
L 147 3053 
L 147 3500 
L 697 3500 
L 697 3744 
Q 697 4328 969 4595 
Q 1241 4863 1831 4863 
L 2375 4863 
z
" transform="scale(0.015625)"/>
       <path id="DejaVuSans-6b" d="M 581 4863 
L 1159 4863 
L 1159 1991 
L 2875 3500 
L 3609 3500 
L 1753 1863 
L 3688 0 
L 2938 0 
L 1159 1709 
L 1159 0 
L 581 0 
L 581 4863 
z
" transform="scale(0.015625)"/>
      </defs>
      <use xlink:href="#DejaVuSans-66"/>
      <use xlink:href="#DejaVuSans-6f" x="35.205078"/>
      <use xlink:href="#DejaVuSans-72" x="96.386719"/>
      <use xlink:href="#DejaVuSans-6b" x="137.5"/>
     </g>
    </g>
   </g>
  </g>
 </g>
 <defs>
  <clipPath id="p24c5da4c21">
   <rect x="108" y="43.2" width="669.6" height="277.2"/>
  </clipPath>
 </defs>
</svg>
